<svg width="306" height="140" viewBox="0 0 306 140" fill="none" xmlns="http://www.w3.org/2000/svg">
<path d="M26.3928 37.6827H25.5358C25.3637 37.6795 25.1964 37.7393 25.0653 37.851C24.8983 37.9708 24.8033 38.1672 24.8132 38.3727V39.5674C24.8181 39.7516 24.9043 39.9241 25.0485 40.0386C25.1846 40.1549 25.3568 40.2203 25.5358 40.2237H26.46C26.6384 40.2177 26.8098 40.1526 26.9473 40.0386C27.0852 39.9209 27.165 39.7488 27.1658 39.5674V38.3727C27.1827 38.1697 27.0937 37.9725 26.9305 37.851C26.7994 37.7393 26.6321 37.6795 26.46 37.6827" fill="#0099A8"/>
<path d="M22.5109 40.2235C22.6849 40.2206 22.852 40.1548 22.9815 40.0384C23.1381 39.9327 23.2324 39.7564 23.2335 39.5673V38.3725C23.2415 38.1712 23.1543 37.9779 22.9982 37.8509C22.862 37.7367 22.6885 37.6768 22.5109 37.6826H21.6203C21.4324 37.6762 21.2481 37.7357 21.0994 37.8509C20.9572 37.9867 20.8781 38.1758 20.8809 38.3725V39.5673C20.8897 39.7468 20.9681 39.9159 21.0994 40.0384C21.2451 40.1609 21.4301 40.2267 21.6203 40.2235H22.5109Z" fill="#0099A8"/>
<path d="M55.8833 31.1536C56.2865 31.4477 56.7525 31.6436 57.2444 31.7258C57.7991 31.8253 58.3613 31.876 58.9248 31.8772H77.1236H78.7031C79.0612 31.9016 79.4205 31.9016 79.7786 31.8772C80.062 31.8617 80.3277 31.7347 80.518 31.5238C80.6589 31.3766 80.7626 31.1977 80.8204 31.0022C80.8964 30.7441 80.947 30.4792 80.9717 30.2113C80.9717 29.8916 80.9717 29.5887 80.9717 29.269C80.9717 28.9493 80.9717 28.6295 80.9717 28.3098C80.9717 27.9901 80.9717 27.704 80.9717 27.4348V26.9468C80.9904 25.9655 80.8485 24.9878 80.5516 24.0525C80.2862 23.3008 79.8421 22.6251 79.2577 22.0837C78.6655 21.5559 77.9574 21.1754 77.1908 20.9731C76.2874 20.727 75.3542 20.608 74.4181 20.6197H73.3426C72.8742 20.6599 72.4085 20.7273 71.9479 20.8216C71.4329 20.9191 70.927 21.0598 70.4356 21.2423C70.0395 21.3744 69.6613 21.5553 69.3097 21.7808V14.1748C69.3007 13.5745 68.8169 13.0901 68.2174 13.0811H67.9654C67.3621 13.0811 66.8731 13.5708 66.8731 14.1748V29.4877H58.219L57.6813 29.4036C57.524 29.3736 57.3714 29.3226 57.2276 29.2522C57.1472 29.2142 57.0777 29.1563 57.026 29.0839V22.639V22.4371C57.026 21.833 56.537 21.3433 55.9337 21.3433H55.7321C55.1288 21.3433 54.6398 21.833 54.6398 22.4371V22.639V28.8315C54.6534 28.9639 54.6035 29.095 54.5054 29.1848C54.4079 29.2862 54.2865 29.3614 54.1525 29.4036C53.9827 29.4549 53.8082 29.4888 53.6316 29.5046H37.9366C37.6277 29.536 37.3158 29.4898 37.0292 29.3699C36.9284 29.3699 36.878 29.1175 36.878 28.8146V23.0429C36.8892 22.8793 36.8277 22.7192 36.7099 22.6053C36.6068 22.5228 36.4861 22.4652 36.3571 22.4371C35.866 22.3134 35.3659 22.229 34.8615 22.1847C34.307 22.1847 33.7692 22.1847 33.1811 22.1847C31.7132 22.1042 30.2616 22.5255 29.0641 23.3794C27.9922 24.3464 27.4327 25.7593 27.5517 27.1992V32.3652C27.5517 32.6513 27.5517 32.9878 27.5517 33.3749C27.1847 33.4361 26.8144 33.4755 26.4427 33.4927H25.0311C24.0692 33.5324 23.1091 33.3779 22.2081 33.0383C21.6024 32.7813 21.0791 32.3621 20.6957 31.8267C20.3418 31.285 20.1176 30.6689 20.0404 30.0262C19.9232 29.2917 19.867 28.5488 19.8723 27.805V27.317V27.1824C19.8631 26.5756 19.3693 26.0885 18.7633 26.0886H18.8137C18.2104 26.0886 17.721 26.5783 17.721 27.1824V27.2665C17.721 27.5862 17.721 28.4276 17.721 28.5622C17.7137 29.5705 17.8265 30.5761 18.0575 31.5575C18.2638 32.4245 18.6792 33.2276 19.2674 33.8965C19.9 34.5778 20.6908 35.0922 21.5695 35.3941C22.716 35.7825 23.9221 35.9648 25.132 35.9326C25.905 35.9326 26.6611 35.9326 27.3837 35.9326C28.06 35.8952 28.7334 35.8165 29.4002 35.697C29.9715 35.5792 30.0555 35.2259 30.0555 35.0239C30.0555 34.822 30.0555 34.5359 30.0555 34.2499C30.0555 33.9638 30.0555 33.6609 30.0555 33.358C30.0555 33.0551 30.0555 32.7354 30.0555 32.4494V27.4011C30.0366 26.9093 30.1107 26.4183 30.274 25.954C30.387 25.6232 30.5839 25.3275 30.8453 25.0958C31.125 24.8718 31.453 24.7162 31.8032 24.6415C32.2384 24.5416 32.6843 24.4963 33.1307 24.5068H33.9373H34.5758V29.3026C34.4965 30.0649 34.7473 30.8246 35.2648 31.3892C35.9271 31.834 36.7225 32.0361 37.5165 31.9614H52.9258C53.439 31.9561 53.9507 31.9054 54.455 31.8099C54.9513 31.725 55.4222 31.5294 55.8329 31.2378L55.8833 31.1536ZM69.3769 24.103C69.7043 23.8771 70.0603 23.6961 70.4356 23.5645C70.8826 23.4177 71.3369 23.2941 71.7967 23.1943C72.2287 23.102 72.6667 23.0401 73.1074 23.0092H74.1493C74.8268 23.001 75.5032 23.0688 76.1657 23.2111C76.6776 23.3159 77.1528 23.5539 77.5437 23.9011C77.9272 24.2596 78.2109 24.712 78.3671 25.2136C78.5868 25.8981 78.6891 26.615 78.6695 27.3338V27.7377C78.6906 28.0851 78.6906 28.4335 78.6695 28.781C78.6862 28.977 78.6862 29.174 78.6695 29.3699C78.6695 29.5046 78.5687 29.555 78.5519 29.555C78.4801 29.5722 78.4053 29.5722 78.3335 29.555H70.5532C70.2003 29.555 69.8474 29.555 69.5113 29.555L69.3769 24.103Z" fill="#0099A8"/>
<path d="M73.9816 18.1457H74.9898C75.1835 18.1511 75.3712 18.0783 75.5108 17.9438C75.6513 17.8209 75.7311 17.6426 75.7292 17.4558V16.1601C75.7339 15.9713 75.661 15.7888 75.5276 15.6552C75.3942 15.5216 75.212 15.4487 75.0234 15.4533H73.9816C73.7974 15.4556 73.6195 15.5209 73.4775 15.6384C73.3273 15.77 73.2415 15.9603 73.2422 16.1601V17.4558C73.2404 17.6426 73.3202 17.8209 73.4607 17.9438C73.6003 18.0783 73.7879 18.1511 73.9816 18.1457Z" fill="#0099A8"/>
<path d="M108.344 22.6222V22.454C108.362 22.3764 108.362 22.2959 108.344 22.2184C108.235 21.7386 107.811 21.3972 107.319 21.3938H107.118C106.537 21.3936 106.06 21.8555 106.042 22.4371V22.6896C106.042 23.228 106.042 23.7328 106.042 24.204C106.042 24.6752 106.042 25.2305 106.042 25.7185V28.7811C106.042 29.2859 105.942 29.37 105.942 29.37C105.681 29.4209 105.413 29.4209 105.152 29.37H93.6074V21.377C93.6199 21.2376 93.5777 21.0988 93.4897 20.99C93.388 20.8856 93.2604 20.8101 93.12 20.7712C92.6074 20.6349 92.0849 20.5392 91.5573 20.4852C90.9692 20.4852 90.3306 20.401 89.692 20.401C88.1038 20.312 86.545 20.8565 85.3566 21.9155C84.3081 23.0174 83.7555 24.501 83.8274 26.0214V26.6103C83.7189 28.0365 84.2056 29.444 85.1718 30.4974C86.2254 31.4234 87.6046 31.8898 89.0031 31.7932H91.2044V32.5672C91.206 33.0258 91.1085 33.4793 90.9187 33.8966C90.7483 34.2193 90.4849 34.4832 90.1626 34.6538C89.7841 34.8648 89.3667 34.9965 88.9358 35.0408C88.3795 35.1213 87.8174 35.1551 87.2554 35.1418H86.0288C85.4626 35.1418 85.0037 35.6014 85.0037 36.1683V36.3366C85.0037 36.9035 85.4626 37.363 86.0288 37.363H87.7092C88.4877 37.3718 89.2649 37.2985 90.0281 37.1443C90.6904 36.9965 91.318 36.7223 91.8765 36.3366C92.4061 35.9501 92.8284 35.4346 93.1033 34.8389C93.4161 34.1043 93.5817 33.3153 93.5906 32.5167V31.7932H105.353H106.244H107.017C107.213 31.774 107.405 31.7288 107.588 31.6585C107.786 31.5985 107.957 31.4741 108.076 31.3052C108.164 31.1556 108.221 30.9896 108.244 30.8172C108.304 30.3033 108.338 29.7865 108.344 29.2691V23.8675C108.344 23.5309 108.344 23.1271 108.344 22.6559V22.6222ZM91.1876 29.5383H89.0199C88.2255 29.6148 87.4349 29.359 86.8353 28.8315C86.3337 28.1608 86.1 27.3267 86.18 26.4925V26.0214C86.1214 25.1351 86.4316 24.2641 87.037 23.6151C87.6909 23.0443 88.5399 22.7489 89.4064 22.7905H90.4314H91.1876V29.5383Z" fill="#0099A8"/>
<path d="M105.842 33.728H104.833C104.649 33.7303 104.471 33.7956 104.329 33.9131C104.176 34.0499 104.091 34.2464 104.094 34.4516V35.7305C104.09 35.9178 104.17 36.097 104.312 36.2185C104.454 36.3499 104.64 36.4221 104.833 36.4204H105.842C106.029 36.4196 106.209 36.3474 106.346 36.2185C106.488 36.097 106.568 35.9178 106.564 35.7305V34.4516C106.574 34.2487 106.494 34.0517 106.346 33.9131C106.204 33.7956 106.026 33.7303 105.842 33.728Z" fill="#0099A8"/>
<path d="M111.589 13.4175H114.815C114.937 13.4461 115.063 13.4461 115.185 13.4175C115.335 13.3415 115.422 13.1806 115.403 13.0136V12.6266C115.403 12.4751 115.403 12.1554 114.815 12.1554H113.252C113.158 12.062 113.078 11.954 113.017 11.8357C112.907 11.605 112.855 11.3508 112.866 11.0953C112.866 10.7083 112.984 10.2035 113.941 10.2035H114.681C115 10.2035 115.185 10.0352 115.185 9.74911V9.41257C115.185 9.29477 115.185 9.07602 114.765 8.9414H114.278H113.824C113.224 8.92187 112.634 9.09913 112.143 9.44622C111.663 9.8661 111.419 10.4945 111.488 11.129C111.489 11.3902 111.522 11.6504 111.589 11.903C111.621 12.0416 111.666 12.1768 111.723 12.3069C111.169 12.3069 111.102 12.6098 111.102 12.7276V13.1482C111.102 13.2829 111.102 13.6194 111.723 13.6194" fill="#0099A8"/>
<path d="M127.114 19.1219H128.123C128.313 19.1251 128.498 19.0593 128.644 18.9368C128.781 18.805 128.86 18.6229 128.862 18.432V17.2204C128.853 16.8338 128.542 16.5226 128.156 16.5137H127.114C126.93 16.5159 126.752 16.5812 126.61 16.6988C126.46 16.8303 126.374 17.0206 126.375 17.2204V18.5161C126.377 18.707 126.456 18.8891 126.593 19.0209C126.738 19.1463 126.924 19.2124 127.114 19.206" fill="#0099A8"/>
<path d="M183.88 20.5857C182.478 20.4954 181.101 20.9956 180.083 21.9656C179.137 23.037 178.659 24.4429 178.755 25.8695V28.1581C178.775 28.3764 178.775 28.596 178.755 28.8143C178.73 28.9468 178.658 29.066 178.553 29.1509C178.422 29.2402 178.281 29.3136 178.133 29.3696C177.978 29.4331 177.813 29.4728 177.646 29.4874H164.875V22.0497C164.848 21.4626 164.369 20.9979 163.783 20.9896H163.598C163.313 20.9851 163.037 21.0943 162.832 21.2931C162.628 21.4919 162.51 21.7641 162.506 22.0497V33.1221C162.511 33.5235 162.472 33.9243 162.388 34.3169C162.347 34.5587 162.214 34.7755 162.018 34.9227C161.807 35.0801 161.557 35.1788 161.296 35.2087C160.876 35.2298 160.455 35.2298 160.035 35.2087H159.75C159.184 35.2087 158.725 35.6683 158.725 36.2352V36.4203C158.725 36.691 158.833 36.9504 159.026 37.1402C159.219 37.3301 159.479 37.4345 159.75 37.4299H160.657C161.438 37.4526 162.217 37.3387 162.959 37.0934C163.562 36.8503 164.061 36.4039 164.371 35.8313C164.567 35.464 164.697 35.0655 164.757 34.6534C164.827 34.1743 164.861 33.6905 164.858 33.2063V31.8601H176.772C177.414 31.8672 178.053 31.7822 178.671 31.6077C179.141 31.4832 179.559 31.2121 179.864 30.8336C180.278 31.2967 180.805 31.6445 181.393 31.8433C182.172 32.1106 182.99 32.2415 183.813 32.2303C185.233 32.3489 186.638 31.8598 187.678 30.8841C188.543 29.7814 188.968 28.396 188.871 26.997V25.7854C188.969 24.3621 188.511 22.9563 187.594 21.8646C186.594 20.9121 185.24 20.4237 183.863 20.5184L183.88 20.5857ZM186.485 26.8792C186.563 27.7192 186.355 28.561 185.897 29.2687C185.336 29.7927 184.575 30.0448 183.813 29.9586C183.233 29.9739 182.657 29.8528 182.133 29.6052C181.657 29.3425 181.338 28.8662 181.276 28.3263C181.202 27.9041 181.169 27.476 181.175 27.0475V25.9873C181.122 25.1372 181.346 24.2928 181.813 23.581C182.359 23.0043 183.141 22.7124 183.931 22.7901C184.7 22.7083 185.46 23.0103 185.964 23.5978C186.395 24.317 186.6 25.1497 186.552 25.9873L186.485 26.8792Z" fill="#0099A8"/>
<path d="M26.4601 44.8004H25.5358C25.3516 44.8027 25.1737 44.868 25.0317 44.9855C24.8671 45.1073 24.7728 45.3024 24.7796 45.5072V46.8029C24.7783 47.0018 24.872 47.1894 25.0317 47.3077C25.1737 47.4253 25.3516 47.4906 25.5358 47.4928H26.4601C26.6453 47.4966 26.8252 47.4305 26.9642 47.3077C27.1136 47.1828 27.1998 46.9978 27.1994 46.8029V45.5072C27.2001 45.3074 27.1143 45.1171 26.9642 44.9855C26.8252 44.8628 26.6453 44.7967 26.4601 44.8004Z" fill="#0099A8"/>
<path d="M20.8809 46.8032C20.8812 46.9895 20.9606 47.1669 21.0993 47.2912C21.2389 47.4257 21.4266 47.4984 21.6202 47.4931H22.5445C22.7297 47.4968 22.9096 47.4308 23.0486 47.308C23.198 47.1831 23.2842 46.9981 23.2838 46.8032V45.5075C23.291 45.3099 23.2112 45.1191 23.0654 44.9858C22.9213 44.8605 22.7352 44.7944 22.5445 44.8007H21.6202C21.43 44.7976 21.245 44.8633 21.0993 44.9858C20.9604 45.1239 20.8819 45.3115 20.8809 45.5075V46.8032Z" fill="#0099A8"/>
<path d="M46.0704 49.832C44.6678 49.7417 43.2912 50.2418 42.2727 51.2118C41.3271 52.2833 40.8491 53.6891 40.9452 55.1158V57.4043C40.9653 57.6226 40.9653 57.8423 40.9452 58.0606C40.914 58.1949 40.8367 58.314 40.7267 58.3971C40.6079 58.4958 40.4709 58.5702 40.3235 58.6159C40.1678 58.6793 40.0035 58.719 39.8361 58.7337H29.0816C28.6957 58.7541 28.3117 58.6667 27.9725 58.4812C27.7204 58.3466 27.6028 57.9764 27.6028 57.4211V50.6902C27.6066 50.5563 27.5778 50.4234 27.5188 50.3032C27.4291 50.1626 27.281 50.07 27.1155 50.0507L26.477 49.9161C26.2249 49.9161 25.9728 49.832 25.704 49.8152L24.8974 49.731H24.1748C23.3195 49.722 22.4666 49.8238 21.6374 50.0339C20.9015 50.2117 20.2096 50.5381 19.6041 50.9931C19.0281 51.434 18.5716 52.0126 18.2766 52.6758C17.9422 53.4622 17.7816 54.3118 17.8061 55.1663V55.9235C17.7169 57.2632 18.1644 58.5833 19.0496 59.5919C20.0079 60.4828 21.2903 60.9393 22.5952 60.8539H22.8137C23.4533 60.8608 24.0912 60.7873 24.7125 60.6352C25.1441 60.5257 25.5422 60.3119 25.872 60.0125C26.1286 60.423 26.5036 60.7458 26.9475 60.938C27.5457 61.1762 28.1859 61.2907 28.8295 61.2746H38.9791C39.6216 61.2748 40.2608 61.1842 40.878 61.0054C41.3477 60.8809 41.7657 60.6098 42.0711 60.2313C42.4852 60.6944 43.012 61.0422 43.6002 61.2409C44.3786 61.5083 45.1972 61.6392 46.02 61.628C47.4404 61.7466 48.8446 61.2575 49.8849 60.2818C50.7503 59.1791 51.1755 57.7937 51.078 56.3947V55.1831C51.1715 53.7655 50.7139 52.3666 49.8009 51.2791C48.8082 50.3132 47.4511 49.8173 46.0704 49.9161V49.832ZM25.1494 57.438C25.1669 57.6247 25.1128 57.8112 24.9982 57.9596C24.891 58.1118 24.7463 58.2335 24.5781 58.313C24.3735 58.3967 24.1588 58.4532 23.9396 58.4812H23.217H22.7633C22.0026 58.5634 21.2464 58.2903 20.7132 57.7408C20.2795 57.1222 20.0664 56.3753 20.1082 55.6206V55.1158C20.0921 54.5961 20.1896 54.0793 20.3939 53.6013C20.5643 53.2294 20.8241 52.9056 21.1501 52.659C21.4993 52.4223 21.8944 52.2617 22.3096 52.1878C22.8124 52.0824 23.3251 52.0316 23.8387 52.0364H24.4941H25.1494V57.438ZM48.675 56.2769C48.7488 57.1219 48.5421 57.9678 48.0869 58.6832C47.5202 59.1953 46.7619 59.4403 46.0032 59.3563C45.4252 59.3686 44.8516 59.2537 44.3228 59.0197C43.8431 58.7537 43.5233 58.2701 43.4658 57.724C43.3926 57.3018 43.3588 56.8736 43.365 56.4451V55.385C43.3123 54.5349 43.5364 53.6905 44.0035 52.9787C44.5496 52.402 45.331 52.1101 46.1208 52.1878C46.89 52.106 47.6502 52.4079 48.1541 52.9955C48.5856 53.7147 48.7905 54.5474 48.7423 55.385L48.675 56.2769Z" fill="#0099A8"/>
<path d="M113.706 44.8004H112.765C112.575 44.7973 112.39 44.863 112.244 44.9855C112.105 45.1236 112.026 45.3112 112.025 45.5072V46.8029C112.026 46.9892 112.105 47.1666 112.244 47.2909C112.383 47.4254 112.571 47.4981 112.765 47.4928H113.706C113.89 47.4905 114.068 47.4252 114.21 47.3077C114.355 47.181 114.435 46.9955 114.428 46.8029V45.5072C114.434 45.3132 114.361 45.1253 114.227 44.9855C114.08 44.8655 113.896 44.8002 113.706 44.8004Z" fill="#0099A8"/>
<path d="M116.681 47.5099H117.605C117.79 47.5137 117.97 47.4476 118.109 47.3248C118.258 47.1999 118.345 47.0149 118.344 46.82V45.5243C118.345 45.3245 118.259 45.1342 118.109 45.0026C117.97 44.8799 117.79 44.8138 117.605 44.8175H116.681C116.496 44.8198 116.319 44.8851 116.177 45.0026C116.01 45.1224 115.915 45.3188 115.925 45.5243V46.82C115.923 47.0189 116.017 47.2065 116.177 47.3248C116.319 47.4424 116.496 47.5077 116.681 47.5099Z" fill="#0099A8"/>
<path d="M188.837 43.2525C188.741 42.75 188.306 42.3844 187.795 42.3774H187.543C186.944 42.3865 186.46 42.8709 186.451 43.4712V58.0774C186.451 58.5822 186.451 58.6663 186.451 58.6663C186.202 58.747 185.939 58.7756 185.678 58.7505H183.09L182.553 58.6663C182.395 58.6363 182.243 58.5854 182.099 58.5149C182.018 58.477 181.949 58.419 181.897 58.3466V43.4712C181.905 43.4154 181.905 43.3588 181.897 43.3029C181.8 42.7944 181.356 42.4268 180.838 42.4279H180.603C180 42.4279 179.511 42.9176 179.511 43.5217V58.111C179.522 58.24 179.479 58.3678 179.393 58.4644C179.289 58.5659 179.163 58.6409 179.024 58.6832L178.52 58.7841H167.076V58.5149C167.076 58.313 167.076 58.0942 167.076 57.8586C167.076 57.623 167.076 57.4043 167.076 57.1687V56.2095C167.097 55.2268 166.949 54.2478 166.639 53.3152C166.391 52.5545 165.951 51.8707 165.362 51.3296C164.773 50.7975 164.064 50.4164 163.295 50.219C162.398 49.9718 161.47 49.8528 160.539 49.8656H159.481C159.006 49.9046 158.535 49.972 158.069 50.0675C157.547 50.1805 157.035 50.3382 156.54 50.5387C156.138 50.685 155.755 50.8769 155.397 51.1108V50.5219V50.32C155.397 49.7159 154.908 49.2262 154.305 49.2262H154.12C153.517 49.2262 153.028 49.7159 153.028 50.32V50.5219V58.7505H142.257L142.139 58.599L141.181 56.1927L140.929 55.5701C140.542 54.5905 140.034 53.6634 139.417 52.8104C138.961 52.154 138.392 51.5842 137.736 51.1277C137.113 50.7145 136.418 50.4233 135.686 50.2695C134.94 50.111 134.18 50.0321 133.418 50.0339H131.351C130.794 50.0339 130.342 50.4859 130.342 51.0435V51.2286C130.342 51.789 130.791 52.2459 131.351 52.2551H132.913C134.091 52.2054 135.258 52.4976 136.274 53.0965C137.191 53.7639 137.897 54.6809 138.308 55.7384L139.601 58.801H120.277C119.886 58.8194 119.497 58.7322 119.151 58.5485C118.916 58.4139 118.798 58.0437 118.798 57.4884V50.7575C118.829 50.6303 118.829 50.4976 118.798 50.3704C118.707 50.2236 118.55 50.1297 118.378 50.118L117.739 49.9834C117.504 49.9834 117.252 49.8993 116.983 49.8824L116.177 49.7983H115.454C114.593 49.7897 113.735 49.8915 112.9 50.1012C112.169 50.2789 111.483 50.6054 110.883 51.0604C110.307 51.5052 109.846 52.0823 109.539 52.7431C109.213 53.532 109.053 54.3798 109.069 55.2336V55.9235C108.984 57.2655 109.438 58.586 110.329 59.5918C111.287 60.4828 112.57 60.9393 113.875 60.8539H114.093C114.727 60.8619 115.36 60.7884 115.975 60.6351C116.413 60.5289 116.817 60.3149 117.151 60.0125C117.404 60.4267 117.78 60.7505 118.227 60.938C118.82 61.1748 119.454 61.2893 120.092 61.2746H177.747C178.255 61.2631 178.761 61.2068 179.259 61.1063C179.76 61.021 180.237 60.8256 180.654 60.5342C180.824 60.6639 181.011 60.7713 181.208 60.8539C181.465 60.9731 181.736 61.0579 182.015 61.1063C182.286 61.1632 182.561 61.2026 182.838 61.2241H183.611H185.896H186.804H187.594C187.8 61.2065 188.004 61.1612 188.199 61.0895C188.392 61.0297 188.558 60.9048 188.669 60.7361C188.741 60.585 188.797 60.4271 188.837 60.2649C188.837 60.063 188.837 59.8443 188.837 59.5918C188.837 59.3394 188.837 59.1038 188.837 58.8514C188.837 58.599 188.837 58.3466 188.837 58.111V43.6395C188.837 43.6395 188.837 43.5217 188.837 43.4712V43.2525ZM116.429 57.5726C116.437 57.7584 116.384 57.9418 116.278 58.0942C116.167 58.2455 116.015 58.3622 115.841 58.4307C115.645 58.5274 115.435 58.59 115.219 58.6159H114.496H114.043C113.282 58.698 112.526 58.4249 111.993 57.8754C111.559 57.2568 111.346 56.5099 111.388 55.7552V55.2504C111.371 54.7307 111.469 54.2139 111.673 53.7359C111.844 53.364 112.103 53.0402 112.429 52.7936C112.772 52.5568 113.162 52.3962 113.572 52.3224C114.081 52.218 114.599 52.1672 115.118 52.171H115.773H116.429V57.5726ZM164.723 57.135C164.762 57.6661 164.717 58.2 164.589 58.7168C164.589 58.9692 164.387 59.0029 164.287 59.0029H155.431V53.3994C155.755 53.1496 156.118 52.9562 156.506 52.8272C156.948 52.6595 157.404 52.53 157.867 52.4402C158.288 52.3453 158.715 52.2778 159.145 52.2383C159.458 52.2194 159.772 52.2194 160.086 52.2383C160.787 52.2239 161.487 52.2973 162.169 52.457C162.696 52.5617 163.188 52.7991 163.598 53.147C163.987 53.49 164.277 53.9318 164.438 54.4258C164.653 55.1112 164.749 55.8282 164.723 56.5461V57.135Z" fill="#0099A8"/>
<path d="M114.595 30.6821V15.5375C114.537 14.9925 114.084 14.5752 113.537 14.5615H113.285C112.816 14.5676 112.404 14.8723 112.26 15.3188C112.244 15.4135 112.244 15.5101 112.26 15.6048V30.9177C112.26 31.5218 112.749 32.0115 113.352 32.0115H113.604C114.207 32.0115 114.696 31.5218 114.696 30.9177L114.595 30.6821Z" fill="#0099A8"/>
<path d="M92.6344 42.209H92.3991C91.7959 42.209 91.3068 42.6987 91.3068 43.3028V58.0772C91.3068 58.582 91.206 58.6662 91.206 58.6662C90.9568 58.7468 90.6938 58.7755 90.4331 58.7503H78.0485C78.1574 58.6278 78.2584 58.4985 78.351 58.3633C78.5634 58.0455 78.7435 57.7073 78.8887 57.3536C79.0283 56.9694 79.1407 56.5758 79.2248 56.1757C79.3056 55.777 79.345 55.371 79.3424 54.9641V54.5266C79.361 53.7773 79.2237 53.0323 78.9391 52.3391C78.6843 51.7456 78.2858 51.2251 77.7796 50.8246C77.2483 50.4236 76.6429 50.132 75.9984 49.9664C74.8013 49.6601 73.5534 49.6085 72.3351 49.815C71.8568 49.8914 71.385 50.0039 70.9236 50.1515C70.4872 50.2758 70.0649 50.4449 69.6633 50.6563C69.3006 50.8445 68.962 51.0762 68.6551 51.3462C68.3995 51.5217 68.2288 51.7963 68.1845 52.1035V53.029C68.1639 53.1061 68.1639 53.1874 68.1845 53.2646L70.3187 58.7503H58.1694C57.9513 58.769 57.7321 58.769 57.514 58.7503C57.3629 58.7387 57.2177 58.6863 57.0939 58.5988C56.9806 58.5156 56.898 58.3973 56.8586 58.2623C56.7805 58.0411 56.7462 57.8067 56.7578 57.5724V43.5552V43.3701C56.7578 42.766 56.2688 42.2763 55.6656 42.2763H55.4303C54.8271 42.2763 54.338 42.766 54.338 43.3701V58.0435C54.3227 58.567 54.3908 59.0896 54.5397 59.5917C54.6682 59.983 54.9005 60.332 55.2119 60.6013C55.5195 60.8517 55.8825 61.0247 56.2705 61.1061C56.7217 61.2138 57.1846 61.2646 57.6484 61.2576H90.6011H91.5085H92.2983C92.505 61.24 92.7085 61.1947 92.9032 61.1229C93.0982 61.0672 93.2657 60.9414 93.3738 60.7696C93.4529 60.6218 93.5095 60.463 93.5418 60.2984C93.5418 60.0965 93.5418 59.8777 93.5418 59.6253C93.5418 59.3729 93.5418 59.1373 93.5418 58.8849C93.5418 58.6325 93.5418 58.3801 93.5418 58.1445V43.5047C93.5418 42.9006 93.0528 42.4109 92.4495 42.4109L92.6344 42.209ZM76.805 55.2165C76.8293 56.0841 76.5953 56.9393 76.1329 57.6733C75.734 58.339 75.0765 58.8084 74.318 58.969H72.6376L70.3018 52.9785C70.8139 52.6521 71.3847 52.4292 71.9823 52.3222C72.504 52.2282 73.032 52.1719 73.5618 52.154C74.399 52.1097 75.2269 52.3466 75.9144 52.8271C76.5161 53.3664 76.8276 54.1588 76.7546 54.9641L76.805 55.2165Z" fill="#0099A8"/>
<path d="M99.826 43.3028C99.826 42.6987 99.337 42.209 98.7338 42.209H98.4985C97.8953 42.209 97.4063 42.6987 97.4063 43.3028V43.4879V59.9955C97.4062 60.6024 97.8926 61.0969 98.4985 61.1061H98.7338C99.3397 61.0969 99.8261 60.6024 99.826 59.9955V43.4879V43.3028Z" fill="#0099A8"/>
<path d="M123.654 37.4134H124.561C125.342 37.436 126.122 37.3222 126.864 37.0768C127.464 36.8289 127.961 36.3838 128.275 35.8148C128.478 35.4506 128.609 35.0507 128.662 34.6368C128.732 34.1577 128.765 33.6739 128.762 33.1897V31.8435H155.397H156.623C157.01 31.8435 157.346 31.8435 157.581 31.8435C157.949 31.8535 158.26 31.5718 158.287 31.2041C158.287 31.019 158.287 30.7834 158.287 30.4973V29.5718C158.287 29.2521 158.287 28.9324 158.287 28.6295C158.287 28.3266 158.287 28.0405 158.287 27.8218V27.3169C158.468 25.4405 157.788 23.5832 156.439 22.2687C154.865 21.1338 152.945 20.5861 151.011 20.7206H149.616H147.936C147.936 20.5523 148.053 20.3168 148.188 19.9466C148.384 19.4515 148.608 18.9683 148.86 18.4994L150.826 14.7469L150.91 14.5786C151.121 14.1035 150.931 13.5456 150.473 13.2997L150.322 13.2156C149.824 12.964 149.217 13.1494 148.944 13.6363V13.7204L146.961 17.3551C146.692 17.8431 146.474 18.2638 146.289 18.6677C146.114 19.0452 145.963 19.4329 145.835 19.8288C145.709 20.1902 145.613 20.5617 145.55 20.9394C145.481 21.3112 145.447 21.6887 145.449 22.0668V22.3192C145.433 22.4195 145.433 22.5218 145.449 22.6221C145.508 22.9302 145.792 23.1419 146.104 23.1101H149.314C150.526 23.0567 151.741 23.113 152.943 23.2784C153.542 23.3796 154.114 23.603 154.624 23.9346C155.072 24.2516 155.422 24.6891 155.632 25.1967C155.903 25.8517 156.03 26.5579 156.002 27.2665C156.002 27.99 156.002 28.6968 156.002 29.4035H128.779V21.9658C128.761 21.3749 128.277 20.9054 127.687 20.9057H127.502C126.912 20.9054 126.428 21.3749 126.41 21.9658V33.0382C126.424 33.44 126.384 33.8418 126.292 34.233C126.251 34.4748 126.119 34.6916 125.922 34.8388C125.713 34.9992 125.463 35.0982 125.2 35.1248C124.78 35.1459 124.359 35.1459 123.94 35.1248H123.654C123.088 35.1248 122.629 35.5844 122.629 36.1513V36.3364C122.638 36.8967 123.094 37.3461 123.654 37.3461" fill="#0099A8"/>
<path d="M55.3113 33.728C55.1271 33.7303 54.9492 33.7956 54.8072 33.9131C54.6587 34.0517 54.5788 34.2487 54.5887 34.4516V35.7305C54.5845 35.9178 54.6648 36.097 54.8072 36.2185C54.9436 36.3474 55.1238 36.4196 55.3113 36.4204H56.3195C56.5125 36.4221 56.6989 36.3499 56.8404 36.2185C56.9758 36.0918 57.0546 35.916 57.0589 35.7305V34.4516C57.0623 34.2464 56.9764 34.0499 56.8236 33.9131C56.6816 33.7956 56.5037 33.7303 56.3195 33.728H55.3113Z" fill="#0099A8"/>
<path d="M112.086 96.1925C112.374 95.6041 112.54 94.9627 112.573 94.3078C112.721 93.0942 112.356 91.8738 111.565 90.9423C111.245 90.589 110.842 90.3029 110.472 89.9664L110.758 89.7308C111.642 89.0114 112.15 87.9268 112.136 86.786C112.247 85.4046 111.66 84.0592 110.573 83.2018C109.83 82.6451 108.93 82.3387 108.002 82.3267C106.658 82.3267 105.313 82.3267 103.986 82.3267C103.589 82.3051 103.202 82.4584 102.928 82.7463C102.653 83.0343 102.518 83.4282 102.558 83.8244C102.558 88.2331 102.558 92.6251 102.558 97.0339C102.522 97.4349 102.664 97.8312 102.945 98.1191C103.226 98.4069 103.618 98.5576 104.02 98.5315H107.38C107.887 98.5432 108.394 98.5037 108.893 98.4137C110.217 98.2422 111.372 97.4309 111.985 96.243L112.086 96.1925ZM108.019 84.6994C108.555 84.7733 109.037 85.0629 109.354 85.5013C109.671 85.9397 109.796 86.4889 109.699 87.0216C109.639 88.1022 108.763 88.9571 107.683 88.9904C107.526 89.0071 107.369 89.0071 107.212 88.9904H104.893V84.5311C105.969 84.5311 107.028 84.5311 108.069 84.6657L108.019 84.6994ZM104.893 96.2093V91.2621C105.902 91.2621 106.927 91.2621 107.935 91.2621C108.744 91.3423 109.461 91.8158 109.854 92.5284C110.247 93.241 110.264 94.1014 109.901 94.8295C109.606 95.5856 108.896 96.0988 108.086 96.142C107.028 96.142 105.935 96.142 104.843 96.142" fill="#0099A8"/>
<path d="M37.5764 98.4136C39.0209 98.225 40.2529 97.274 40.8028 95.9232C41.0924 95.1909 41.2185 94.4041 41.1724 93.6178C41.144 92.3877 40.579 91.2316 39.6265 90.4543C39.4416 90.3028 39.24 90.1682 39.0215 90.0168C40.3139 89.1479 40.9728 87.5974 40.7019 86.0624C40.6421 84.5963 39.7561 83.2915 38.4166 82.6969C37.8364 82.4272 37.2075 82.2783 36.5681 82.2594C35.2406 82.2594 33.9131 82.2594 32.5856 82.2594C32.1854 82.2478 31.7995 82.4091 31.5262 82.7021C31.2529 82.9951 31.1185 83.3916 31.1573 83.7907C31.1573 88.177 31.1573 92.5577 31.1573 96.9328C31.1108 97.3425 31.2496 97.7515 31.5358 98.0479C31.822 98.3442 32.2256 98.4969 32.636 98.4641H35.9968C36.5086 98.4582 37.0194 98.4189 37.526 98.3463L37.5764 98.4136ZM33.7787 84.5311H35.9632C36.4839 84.507 36.9996 84.642 37.442 84.9181C38.1616 85.4463 38.4984 86.3526 38.299 87.2234C38.179 88.0982 37.4921 88.7861 36.6186 88.9062C35.8288 88.9903 35.0222 88.9062 34.2324 88.9903H33.577V84.5311H33.8291H33.7787ZM33.577 96.1756V91.262H34.8709C35.4698 91.2281 36.0701 91.2281 36.669 91.262C37.4922 91.3488 38.2184 91.8401 38.606 92.5726C38.9936 93.305 38.9919 94.1826 38.6014 94.9135C38.3057 95.7185 37.5581 96.2684 36.7026 96.3102C35.6943 96.3102 34.6861 96.3102 33.6611 96.3102" fill="#0099A8"/>
<path d="M64.8481 98.5147H67.6712C68.2332 98.5083 68.7943 98.4689 69.3516 98.3969C71.923 98.0722 73.8877 95.9413 74.0063 93.3487C74.1071 92.3896 74.0063 91.4304 74.1071 89.9833C74.1071 89.2597 74.1072 88.0818 73.8887 86.9038C73.6179 84.6712 71.9049 82.8872 69.6877 82.5287C69.0155 82.4163 68.3358 82.3544 67.6544 82.3436C66.747 82.3436 65.8228 82.3436 64.9154 82.3436C64.5239 82.3146 64.1385 82.4541 63.8562 82.7272C63.5738 83.0004 63.4212 83.3811 63.4366 83.774V97.1181C63.4229 97.4927 63.562 97.8568 63.8219 98.1266C64.0818 98.3964 64.4402 98.5486 64.8145 98.5484L64.8481 98.5147ZM66.1084 84.649C66.8814 84.649 67.6544 84.649 68.4106 84.649C69.2886 84.653 70.1275 85.0132 70.7355 85.6475C71.3436 86.2818 71.6688 87.1358 71.637 88.0145C71.721 89.6972 71.637 91.3799 71.637 92.9449C71.6776 94.3149 70.828 95.5536 69.5365 96.0075C69.075 96.1601 68.5939 96.2451 68.1081 96.2599C67.4024 96.2599 66.6966 96.2599 65.9908 96.2599H65.8228V84.6826H66.1084" fill="#0099A8"/>
<path d="M86.5923 98.582C86.9993 98.3295 87.2223 97.863 87.1637 97.3872V83.4037C87.172 83.3141 87.172 83.224 87.1637 83.1344C87.1347 82.6965 86.8616 82.3124 86.4579 82.1416C86.0769 81.9802 85.6399 82.025 85.2994 82.2603C84.9589 82.4955 84.7621 82.8887 84.7775 83.3027C84.7775 84.9855 84.7775 86.8196 84.7775 88.5697V88.9062H78.8961V88.5529C78.8961 86.786 78.8961 85.0191 78.8961 83.2522C78.91 82.9372 78.7935 82.6303 78.574 82.4041C78.3545 82.178 78.0515 82.0525 77.7366 82.0575C77.4173 82.0575 77.1112 82.1856 76.887 82.4134C76.6628 82.6411 76.539 82.9493 76.5435 83.2691V97.5218C76.5308 97.9333 76.7304 98.3224 77.072 98.5516C77.4135 98.7807 77.8488 98.8176 78.2239 98.6493C78.7037 98.4494 78.9922 97.9543 78.9297 97.4377V91.2621H84.8111V91.5818C84.8111 93.5506 84.8111 95.5194 84.8111 97.4882C84.7872 97.9281 85.0069 98.3456 85.383 98.5743C85.759 98.8031 86.2303 98.806 86.6091 98.582" fill="#0099A8"/>
<path d="M51.0701 98.464C52.4671 98.0924 53.5957 97.0627 54.0948 95.7043C54.4034 94.9225 54.5575 94.0881 54.5485 93.2475C54.5485 89.882 54.5485 86.6512 54.5485 83.353V83.1847C54.525 82.8474 54.3598 82.5359 54.094 82.3274C53.8281 82.1189 53.4865 82.033 53.1538 82.0909C52.5175 82.2177 52.0812 82.8075 52.1456 83.454C52.1456 86.6175 52.1456 89.781 52.1456 92.9446C52.1565 93.374 52.117 93.8033 52.0279 94.2235C51.8812 95.1586 51.237 95.9391 50.3475 96.2596C49.4523 96.5877 48.47 96.5877 47.5749 96.2596C46.7416 96.0105 46.1023 95.3383 45.8945 94.4927C45.7604 93.9762 45.6926 93.4446 45.6928 92.9109C45.6928 89.781 45.6928 86.6512 45.6928 83.5213C45.6847 83.2567 45.6336 82.9953 45.5416 82.7472C45.3277 82.2515 44.7888 81.9817 44.2645 82.1078C43.7111 82.2192 43.3115 82.7037 43.3066 83.2689V88.4349C43.3066 89.9998 43.3066 91.5479 43.3066 93.096C43.3063 93.7352 43.3739 94.3727 43.5083 94.9975C43.7872 96.5357 44.853 97.8138 46.3146 98.363C47.8228 98.9342 49.4779 98.9875 51.0197 98.5145" fill="#0099A8"/>
<path d="M28.7201 94.9638C27.3757 90.9925 26.0482 87.0044 24.6871 83.0332C24.6112 82.8019 24.4783 82.5935 24.3006 82.4274C23.9532 82.1279 23.4761 82.0291 23.0386 82.166C22.601 82.3029 22.265 82.6562 22.1497 83.1005C20.6541 87.6439 19.125 92.1704 17.6126 96.7138C17.5118 96.9999 17.4278 97.3028 17.3438 97.5888C17.3743 97.7606 17.4192 97.9295 17.4782 98.0936C17.6992 98.5367 18.1703 98.7972 18.6624 98.7487C19.1546 98.7002 19.5658 98.3526 19.6963 97.8749C19.9988 96.9157 20.3013 95.9734 20.5869 95.0142C20.5869 94.846 20.7046 94.7787 20.8894 94.7787H25.9306C26.1154 94.7787 26.1827 94.7787 26.2331 95.0142C26.5523 96.0071 26.8548 96.9999 27.1741 97.9927C27.3653 98.5502 27.9433 98.8758 28.5184 98.7499C29.053 98.6825 29.4552 98.2293 29.4595 97.6898C29.4613 97.4586 29.4155 97.2294 29.325 97.0167C29.1234 96.3268 28.8713 95.6537 28.6528 94.9638H28.7201ZM21.2927 92.5238L23.3764 85.9106L25.4601 92.5238H21.2927Z" fill="#0099A8"/>
<path d="M96.1211 83.0334C95.98 82.4534 95.4569 82.0483 94.8608 82.0573C94.2683 82.0697 93.7519 82.4644 93.5837 83.0334L90.3742 92.625C89.87 94.1395 89.3491 95.6539 88.8618 97.1852C88.75 97.4794 88.7642 97.8066 88.9009 98.0899C89.0376 98.3733 89.2848 98.5877 89.5844 98.6829C89.8894 98.7928 90.2264 98.7699 90.5138 98.6196C90.8011 98.4693 91.0125 98.2055 91.0967 97.892C91.3992 96.916 91.7185 95.94 92.0041 94.964C92.0041 94.7789 92.1386 94.7453 92.3066 94.7453H97.3478C97.5327 94.7453 97.6167 94.7453 97.6671 94.964L98.5745 97.8752C98.6744 98.2159 98.9167 98.4966 99.2388 98.645C99.561 98.7934 99.9315 98.7949 100.255 98.6492C100.547 98.5276 100.777 98.2917 100.891 97.9962C101.005 97.7006 100.994 97.3712 100.86 97.0843L96.1211 83.0334ZM92.7603 92.4904C93.4493 90.3028 94.1214 88.1321 94.8104 85.9782C95.4826 88.1489 96.1715 90.3028 96.8605 92.5072H92.6931" fill="#0099A8"/>
<path d="M114.991 97.6395C115.007 98.0313 115.232 98.3844 115.579 98.565C115.948 98.7512 116.387 98.7272 116.733 98.5019C117.079 98.2766 117.28 97.8841 117.26 97.4712V83.2521C117.295 82.7942 117.066 82.3564 116.669 82.1258C116.272 81.8953 115.779 81.9128 115.4 82.1709C115.02 82.429 114.822 82.882 114.89 83.3362V97.4207C114.881 97.4934 114.881 97.5669 114.89 97.6395" fill="#0099A8"/>
<path d="M150.667 97.0841C150.734 97.7464 151.28 98.257 151.944 98.2789C153.406 98.2789 154.851 98.2789 156.296 98.2789C157.323 98.2671 158.317 97.9117 159.119 97.2692C160.616 95.8735 161.092 93.6941 160.312 91.8003C159.937 90.9498 159.294 90.2463 158.481 89.7979L158.75 89.5623C159.465 89.0406 159.952 88.2633 160.111 87.3916C160.179 86.8328 160.179 86.2676 160.111 85.7088C160.015 84.5577 159.395 83.5149 158.43 82.8818C157.525 82.302 156.462 82.0196 155.389 82.0741C154.313 82.0741 153.221 82.0741 152.146 82.0741C151.677 81.9805 151.193 82.1273 150.856 82.4653C150.518 82.8034 150.372 83.288 150.465 83.7568C150.465 88.0647 150.465 92.3725 150.465 96.6803C150.457 96.826 150.457 96.9721 150.465 97.1178L150.667 97.0841ZM156.011 84.4636C156.978 84.5911 157.699 85.4213 157.691 86.3987C157.814 87.3683 157.238 88.2905 156.313 88.6031C156.004 88.7092 155.681 88.766 155.355 88.7714C154.532 88.7714 153.675 88.7714 152.851 88.7714V84.3121C153.944 84.3121 155.019 84.3121 156.061 84.4468L156.011 84.4636ZM156.061 91.1777C156.957 91.2195 157.739 91.7972 158.044 92.6417C158.394 93.4777 158.279 94.4364 157.741 95.1658C157.419 95.6532 156.894 95.9686 156.313 96.024C155.187 96.1081 154.061 96.024 152.952 96.125C152.952 94.4422 152.952 92.7595 152.952 91.1609C154.028 91.1609 155.069 91.1609 156.095 91.1609" fill="#0099A8"/>
<path d="M147.962 82.8482C147.936 82.5119 147.765 82.2036 147.494 82.0033C147.223 81.803 146.879 81.7306 146.55 81.8049C145.965 81.9297 145.562 82.4695 145.609 83.067V92.6417C145.634 92.9554 145.634 93.2704 145.609 93.5841C145.52 94.7059 144.764 95.6629 143.694 96.0072C142.997 96.2282 142.254 96.2573 141.543 96.0914C140.532 95.9386 139.704 95.2082 139.425 94.2235C139.291 93.7127 139.224 93.1867 139.224 92.6586C139.224 89.5118 139.224 86.382 139.224 83.2352C139.24 83.0843 139.24 82.9319 139.224 82.7809C139.186 82.4421 138.997 82.1387 138.709 81.9557C138.422 81.7726 138.068 81.7296 137.745 81.8386C137.196 81.991 136.835 82.5156 136.888 83.0838V88.2161C136.888 89.6801 136.888 91.1441 136.888 92.5913C136.873 93.3164 136.952 94.0403 137.123 94.7452C137.452 96.3309 138.608 97.6167 140.148 98.1106C141.414 98.5159 142.765 98.5797 144.063 98.2957C145.727 98.0377 147.112 96.8781 147.659 95.2836C147.966 94.4145 148.109 93.4958 148.079 92.5744V83.1848C148.088 83.0727 148.088 82.9602 148.079 82.8482" fill="#0099A8"/>
<path d="M132.702 82.6463C132.052 82.3089 131.334 82.1247 130.602 82.1078C129.308 82.1078 128.031 82.1078 126.753 82.1078C126.293 82.053 125.833 82.2125 125.505 82.5408C125.178 82.869 125.018 83.3296 125.073 83.7905C125.073 88.2778 125.073 92.7315 125.073 97.1514V97.4375C125.065 97.8622 125.3 98.2541 125.678 98.4472C126.047 98.6227 126.481 98.5937 126.824 98.3707C127.166 98.1477 127.369 97.7625 127.358 97.3534V91.8508H127.661C128.484 91.8508 129.341 91.8508 130.148 91.8508C130.673 91.8457 131.196 91.7894 131.711 91.6826C133.042 91.4255 134.14 90.4858 134.601 89.2089C134.931 88.3347 135.046 87.3941 134.937 86.4661C134.88 84.8745 133.967 83.4387 132.551 82.7136L132.702 82.6463ZM132.332 88.4012C131.951 89.1695 131.156 89.6433 130.299 89.6128C129.358 89.6128 128.4 89.6128 127.459 89.6128H127.358V84.4131H127.997C128.736 84.4131 129.459 84.4131 130.198 84.4131C131.078 84.3957 131.891 84.878 132.299 85.6584C132.736 86.5144 132.736 87.5284 132.299 88.3844" fill="#0099A8"/>
<path d="M181.736 97.9928C183.289 98.6886 185.045 98.7786 186.66 98.2452C187.281 98.1081 187.858 97.819 188.34 97.4038C188.665 97.1418 188.809 96.7156 188.71 96.3101C188.63 95.9035 188.333 95.5739 187.937 95.4519C187.574 95.3498 187.185 95.4179 186.878 95.637C186.259 96.0197 185.555 96.245 184.828 96.2932C183.792 96.408 182.762 96.035 182.039 95.2836C181.486 94.6323 181.192 93.7993 181.215 92.9446V87.7786C181.198 87.4479 181.198 87.1165 181.215 86.7858C181.298 85.8596 181.833 85.0343 182.644 84.5814C183.691 84.0485 184.918 83.9994 186.005 84.4468C186.408 84.5814 186.761 84.817 187.147 84.9684C187.525 85.1274 187.961 85.0333 188.24 84.7328C188.539 84.4549 188.662 84.0347 188.559 83.6391C188.443 83.2527 188.168 82.9343 187.803 82.764C186.513 82.0342 185.02 81.7447 183.551 81.9395C182.594 82.0307 181.679 82.3732 180.896 82.9323C179.585 83.9104 178.812 85.4514 178.812 87.0887C178.812 88.132 178.812 89.1921 178.812 90.2354C178.812 91.0431 178.812 91.834 178.812 92.6417C178.818 93.1541 178.858 93.6657 178.93 94.173C179.14 95.8379 180.186 97.2794 181.703 97.9928" fill="#0099A8"/>
<path d="M166.328 98.279H171.252C171.729 98.3056 172.161 97.9984 172.294 97.5386C172.442 97.1795 172.399 96.7694 172.178 96.4497C171.957 96.13 171.59 95.9443 171.202 95.9568H165.404V83.2858C165.41 83.064 165.382 82.8426 165.32 82.6295C165.152 82.0928 164.614 81.7624 164.06 81.8555C163.452 81.9424 163.018 82.4883 163.068 83.1007V96.8655C163.055 97.2401 163.194 97.6042 163.454 97.874C163.714 98.1438 164.072 98.2961 164.446 98.2958H166.328" fill="#0099A8"/>
<path d="M176.343 83.0165C176.369 82.5658 176.136 82.1398 175.742 81.9196C175.349 81.6994 174.864 81.7239 174.495 81.9825C174.125 82.2412 173.936 82.6885 174.007 83.1343V97.2524C173.975 97.7002 174.204 98.1261 174.595 98.3462C174.966 98.5753 175.435 98.5765 175.807 98.3492C176.179 98.1219 176.393 97.7047 176.36 97.2693V90.1681C176.36 87.7786 176.36 85.406 176.36 83.0165" fill="#0099A8"/>
<path d="M28.4338 109.772C28.3972 109.452 28.23 109.163 27.972 108.971C27.7141 108.78 27.3884 108.704 27.0727 108.762C26.4556 108.857 26.0204 109.419 26.0812 110.041V115.628H20.1494V115.291C20.1494 113.508 20.1494 111.741 20.1494 109.957C20.1622 109.589 19.9996 109.236 19.7111 109.007C19.4227 108.778 19.0428 108.699 18.6875 108.796C18.1039 108.937 17.7201 109.495 17.7969 110.092V124.21C17.7886 124.277 17.7886 124.345 17.7969 124.412C17.8031 124.824 18.0269 125.202 18.385 125.404C18.7515 125.579 19.1816 125.551 19.5233 125.332C19.8649 125.113 20.0698 124.734 20.0654 124.328V118.017H26.014V124.109C26.0057 124.243 26.0057 124.378 26.014 124.513C26.0826 125.025 26.477 125.433 26.9865 125.518C27.496 125.603 28.0013 125.346 28.2322 124.883C28.312 124.644 28.3518 124.394 28.3498 124.142C28.3498 119.481 28.3498 114.82 28.3498 110.159C28.3582 110.03 28.3582 109.901 28.3498 109.772" fill="#0099A8"/>
<path d="M95.684 109.638C95.6508 109.322 95.4781 109.038 95.2135 108.863C94.8289 108.619 94.3379 108.619 93.9532 108.863C93.556 109.079 93.3199 109.506 93.3483 109.957V115.594H87.3997V115.258C87.3997 113.474 87.3997 111.69 87.3997 109.924C87.4109 109.559 87.2505 109.21 86.9664 108.982C86.6822 108.754 86.3075 108.672 85.9545 108.762C85.3574 108.889 84.9561 109.452 85.0303 110.058C85.0303 114.77 85.0303 119.465 85.0303 124.176V124.395C84.999 124.853 85.232 125.288 85.6298 125.515C86.0277 125.742 86.5202 125.721 86.8973 125.461C87.2745 125.201 87.4697 124.747 87.3997 124.294V117.984H93.3315V119.869C93.3315 121.299 93.3315 122.729 93.3315 124.176C93.3212 124.585 93.5237 124.971 93.8663 125.194C94.209 125.417 94.6427 125.446 95.0119 125.27C95.4217 125.011 95.6495 124.541 95.6 124.059V109.957C95.6083 109.84 95.6083 109.722 95.6 109.604" fill="#0099A8"/>
<path d="M41.0871 122.897H35.2729V117.967H40.4485C40.6049 117.984 40.7627 117.984 40.919 117.967C41.3835 117.887 41.7397 117.51 41.7928 117.041C41.9178 116.543 41.6802 116.025 41.2215 115.796C41 115.695 40.7592 115.643 40.5157 115.645H35.2561V111.32H40.9022C41.2198 111.334 41.529 111.215 41.7554 110.992C41.9818 110.768 42.105 110.46 42.0953 110.142C42.1095 109.828 41.9925 109.523 41.7724 109.299C41.5523 109.076 41.2492 108.954 40.9358 108.964H34.315C33.9119 108.948 33.5214 109.107 33.2443 109.4C32.9672 109.694 32.8307 110.093 32.8699 110.495C32.8699 114.921 32.8699 119.363 32.8699 123.789C32.8353 124.187 32.9746 124.58 33.2517 124.867C33.5289 125.155 33.9167 125.308 34.315 125.287H41.0366C41.4517 125.31 41.8387 125.076 42.0113 124.698C42.1912 124.339 42.1738 123.914 41.9653 123.571C41.7568 123.229 41.3866 123.019 40.9862 123.015" fill="#0099A8"/>
<path d="M54.0434 112.885C53.6737 111.791 53.3208 110.714 52.9511 109.637C52.8516 109.294 52.6146 109.007 52.2963 108.844C51.9781 108.682 51.6069 108.658 51.2707 108.779C50.8299 108.972 50.5102 109.367 50.4137 109.839C49.1534 113.609 47.9099 117.378 46.6496 121.13C46.3303 122.073 46.0111 123.015 45.7086 123.974C45.6105 124.275 45.6416 124.604 45.7945 124.881C45.9474 125.159 46.2083 125.361 46.5152 125.438C46.8251 125.519 47.1546 125.472 47.4296 125.308C47.7045 125.143 47.9019 124.875 47.9771 124.563C48.2796 123.604 48.5821 122.645 48.8677 121.686C48.8677 121.534 48.9686 121.45 49.1534 121.45H54.3795C54.5307 121.45 54.5979 121.45 54.6483 121.669C54.9508 122.645 55.2533 123.621 55.5725 124.614C55.699 125.13 56.1681 125.487 56.6984 125.472C56.9966 125.495 57.2912 125.395 57.5135 125.194C57.7358 124.994 57.8664 124.711 57.8747 124.412C57.8805 124.158 57.8348 123.906 57.7403 123.671L54.1106 112.885H54.0434ZM49.6575 119.195C50.3465 116.974 51.0355 114.753 51.758 112.464C52.4638 114.753 53.1696 116.94 53.8753 119.195H49.6575Z" fill="#0099A8"/>
<path d="M80.9136 108.897H71.8898C71.6666 108.901 71.4476 108.959 71.2513 109.065C70.7851 109.321 70.561 109.868 70.7135 110.378C70.839 110.897 71.3062 111.26 71.8394 111.253H75.2002V124.294C75.2242 124.721 75.4738 125.103 75.855 125.295C76.2361 125.488 76.6909 125.462 77.048 125.228C77.4052 124.994 77.6104 124.586 77.5864 124.16V111.253H80.9472C81.2679 111.262 81.5784 111.14 81.8068 110.914C82.0353 110.689 82.1618 110.379 82.1571 110.058C82.162 109.743 82.0368 109.439 81.8109 109.22C81.585 109 81.2786 108.883 80.964 108.897" fill="#0099A8"/>
<path d="M70.0254 122.881H64.1944V122.493C64.1944 118.388 64.1944 114.282 64.1944 110.176V109.772C64.2056 109.318 63.9588 108.897 63.5575 108.685C63.1562 108.474 62.6699 108.508 62.3025 108.775C61.935 109.041 61.75 109.492 61.8251 109.94V114.551C61.8251 117.58 61.8251 120.626 61.8251 123.671C61.7965 124.074 61.939 124.47 62.2174 124.761C62.4958 125.053 62.8843 125.213 63.287 125.203H70.0086C70.4344 125.236 70.8361 125.001 71.0169 124.614C71.1968 124.256 71.1794 123.83 70.9709 123.487C70.7623 123.145 70.3922 122.935 69.9918 122.931" fill="#0099A8"/>
<path d="M144.937 108.611C144.401 108.822 144.076 109.369 144.147 109.94V119.868L143.878 119.414L138.198 109.318C137.926 108.746 137.281 108.455 136.673 108.63C136.064 108.805 135.672 109.395 135.745 110.024V120.02C135.745 121.4 135.745 122.763 135.745 124.143C135.738 124.571 135.96 124.971 136.328 125.19C136.697 125.409 137.154 125.414 137.526 125.203C137.942 124.948 138.177 124.478 138.131 123.991C138.131 120.777 138.131 117.563 138.131 114.349V114.063C138.207 114.095 138.267 114.156 138.299 114.231L142.517 121.669C143.072 122.662 143.626 123.671 144.197 124.664C144.415 125.081 144.845 125.343 145.315 125.343C145.785 125.343 146.215 125.081 146.432 124.664C146.532 124.436 146.584 124.19 146.584 123.941C146.584 119.24 146.584 114.551 146.584 109.873C146.592 109.817 146.592 109.76 146.584 109.705C146.594 109.296 146.391 108.91 146.049 108.687C145.706 108.464 145.272 108.435 144.903 108.611" fill="#0099A8"/>
<path d="M171.133 118.186C171.133 118.102 171.049 118.018 170.999 117.95H171.1H171.318C172.515 117.601 173.478 116.71 173.923 115.544C174.21 114.771 174.308 113.94 174.208 113.121C174.172 111.652 173.385 110.305 172.125 109.553C171.426 109.14 170.634 108.914 169.823 108.897C168.361 108.897 166.882 108.897 165.42 108.897C164.979 108.88 164.553 109.056 164.253 109.379C163.952 109.702 163.808 110.141 163.857 110.58C163.857 115.09 163.857 119.599 163.857 124.042C163.849 124.159 163.849 124.278 163.857 124.395C163.888 124.806 164.139 125.167 164.513 125.338C164.887 125.516 165.328 125.484 165.673 125.253C166.018 125.021 166.215 124.625 166.193 124.21C166.193 122.393 166.193 120.592 166.193 118.775V118.405H167.991C168.206 118.387 168.409 118.509 168.495 118.708L172.108 124.883C172.35 125.311 172.834 125.54 173.318 125.455C173.785 125.398 174.167 125.056 174.276 124.597C174.39 124.2 174.316 123.771 174.074 123.436L171.133 118.186ZM166.344 115.982V111.068H169.318C169.798 111.046 170.276 111.138 170.713 111.337C171.444 111.696 171.906 112.441 171.906 113.255C171.936 113.697 171.891 114.141 171.772 114.568C171.548 115.391 170.808 115.967 169.957 115.982C168.781 116.066 167.604 115.982 166.428 115.982" fill="#0099A8"/>
<path d="M130.803 122.763H125.006V117.816H130.198C130.343 117.833 130.49 117.833 130.635 117.816C131.048 117.761 131.387 117.462 131.492 117.058C131.63 116.69 131.571 116.276 131.337 115.96C131.103 115.644 130.725 115.469 130.333 115.493H124.989V111.169H130.602C131.066 111.215 131.507 110.957 131.694 110.529C131.866 110.165 131.841 109.738 131.626 109.397C131.412 109.056 131.038 108.848 130.635 108.847H124.082C123.844 108.848 123.609 108.899 123.393 108.998C122.846 109.253 122.522 109.828 122.586 110.428C122.586 114.815 122.586 119.212 122.586 123.621V123.823C122.613 124.568 123.22 125.161 123.964 125.169H130.82C131.317 125.202 131.768 124.878 131.896 124.395C132.038 124.035 131.989 123.627 131.765 123.311C131.541 122.995 131.173 122.814 130.786 122.83" fill="#0099A8"/>
<path d="M187.45 122.729H181.636V117.799H186.845H187.299C187.707 117.717 188.032 117.41 188.139 117.008C188.269 116.641 188.208 116.234 187.974 115.922C187.741 115.611 187.368 115.437 186.98 115.46H181.636V111.118H187.282C187.685 111.117 188.059 110.909 188.273 110.568C188.488 110.227 188.513 109.8 188.341 109.436C188.13 109.006 187.672 108.757 187.198 108.813H180.813C180.351 108.751 179.887 108.909 179.557 109.238C179.228 109.568 179.071 110.033 179.132 110.496C179.132 114.854 179.132 119.195 179.132 123.554C179.124 123.671 179.124 123.79 179.132 123.907C179.175 124.599 179.735 125.145 180.426 125.169C182.779 125.169 185.131 125.169 187.484 125.169C187.937 125.161 188.329 124.851 188.442 124.412C188.582 124.05 188.533 123.642 188.31 123.324C188.087 123.006 187.72 122.821 187.333 122.83" fill="#0099A8"/>
<path d="M116.857 122.208C116.476 122.102 116.067 122.176 115.748 122.409C114.882 122.937 113.864 123.156 112.858 123.032C111.683 122.952 110.683 122.145 110.354 121.013C110.219 120.56 110.151 120.089 110.152 119.616C110.152 117.933 110.152 116.251 110.152 114.568C110.127 114.221 110.127 113.872 110.152 113.525C110.228 112.583 110.77 111.742 111.597 111.287C112.644 110.751 113.872 110.702 114.958 111.152C115.345 111.303 115.714 111.539 116.101 111.674C116.518 111.918 117.05 111.826 117.361 111.455C117.669 111.16 117.774 110.712 117.63 110.311C117.485 109.948 117.209 109.653 116.857 109.486C115.491 108.747 113.921 108.475 112.387 108.712C109.818 109.014 107.866 111.17 107.816 113.76C107.816 114.837 107.816 115.914 107.816 117.008C107.816 117.832 107.816 118.691 107.816 119.498C107.825 119.937 107.859 120.376 107.917 120.811C108.116 122.634 109.287 124.206 110.976 124.917C112.498 125.526 114.186 125.586 115.748 125.085C116.371 124.927 116.948 124.621 117.428 124.193C117.73 123.918 117.862 123.503 117.775 123.104C117.689 122.705 117.396 122.383 117.008 122.258" fill="#0099A8"/>
<path d="M159.656 108.762H150.431C149.999 108.82 149.64 109.121 149.507 109.536C149.38 109.902 149.44 110.306 149.668 110.619C149.896 110.931 150.263 111.112 150.65 111.101H154.01V124.142C154.041 124.674 154.406 125.127 154.918 125.27C155.432 125.432 155.989 125.206 156.245 124.731C156.36 124.484 156.418 124.213 156.413 123.94C156.413 119.801 156.413 115.645 156.413 111.505V111.101H159.774C160.18 111.106 160.559 110.9 160.778 110.558C160.996 110.216 161.023 109.785 160.85 109.418C160.666 108.956 160.202 108.669 159.707 108.712" fill="#0099A8"/>
<path d="M272.754 29.2187C273.244 35.4957 269.911 41.4506 264.307 44.3062C258.703 47.1617 251.934 46.3556 247.155 42.2636C242.377 38.1717 240.531 31.6 242.478 25.6133C244.425 19.6267 249.782 15.4044 256.05 14.9155C260.16 14.5905 264.231 15.9156 267.364 18.5987C270.497 21.2818 272.436 25.1026 272.754 29.2187Z" fill="#1DCAD3"/>
<path d="M228.223 47.83C249.43 51.5488 257.882 59.6091 286.684 40.9476C304.11 29.6564 298.33 61.7631 266.049 83.2011C260.319 87.0041 234.239 96.663 215.923 83.8574C194.078 68.7128 201.69 43.1856 228.223 47.83Z" fill="#1DCAD3"/>
<path d="M226.626 84.7155C213.686 99.6414 213.636 114.298 220.341 121.079C231.6 132.438 246.706 126.767 254.1 116.805C264.888 102.283 258.217 94.0715 277.407 74.3162C292.531 58.7509 251.748 55.8061 226.626 84.7155Z" fill="#0099A8"/>
</svg>
