<svg width="133" height="133" viewBox="0 0 133 133" fill="none" xmlns="http://www.w3.org/2000/svg">
<g clip-path="url(#clip0_109_15614)">
<path d="M66.6643 66.2126C67.8542 70.9185 71.9892 79.7269 70.5019 80.1126C69.1927 78.0964 67.6154 79.0758 66.2669 74.4114C65.5642 71.9817 65.2557 70.7622 65.4963 69.0869C65.6509 68.0074 65.8438 66.8948 66.6643 66.2126Z" fill="#7DB500"/>
<path d="M95.514 96.0037C95.4923 95.9084 93.268 86.3452 86.5786 78.592L87.1628 78.0879C93.983 85.9917 96.2448 95.7361 96.2672 95.8336L95.514 96.0037Z" fill="#373430"/>
<path d="M84.7874 117.526C84.7195 116.519 84.9666 115.425 83.9095 114.463C84.0537 115.715 84.0678 116.725 84.7874 117.526ZM66.3177 101.87C66.7862 99.8841 66.7548 99.1474 66.0619 97.3106C66.4802 98.8018 65.0901 100.321 66.3177 101.87ZM62.0436 65.2547C62.6769 63.4822 62.0122 61.907 61.6329 60.4419C61.669 61.9322 61.6834 63.5552 62.0436 65.2547ZM65.1515 73.8045C66.0196 71.6926 64.9077 67.7219 63.2032 66.6378C62.9207 66.458 62.7109 66.3514 62.3854 66.658C60.7395 68.2073 60.4822 72.4596 62.2112 74.6178C61.5295 72.8204 62.9179 72.3459 63.6613 72.0642C64.6338 71.6958 64.4767 73.1718 65.1515 73.8045V73.8045ZM52.873 115.056C53.1126 114.82 53.5157 114.691 53.4211 114.237C53.4149 114.207 53.2972 114.164 53.256 114.183C52.8535 114.364 52.7849 114.685 52.8991 115.076C52.7979 115.111 52.6968 115.146 52.5956 115.181C52.6881 115.14 52.7806 115.098 52.873 115.056ZM54.5247 112.889C54.8773 112.712 54.8184 112.39 54.8072 112.086L54.8733 112.032L54.8238 112.065C54.6298 112.316 54.3506 112.54 54.5551 112.917C54.2458 112.889 54.1349 113.034 54.1971 113.329C53.9258 113.223 53.7401 113.331 53.653 113.584C53.6335 113.642 53.756 113.819 53.7979 113.814C54.071 113.781 54.1884 113.593 54.1953 113.327C54.3051 113.181 54.4149 113.035 54.5247 112.889V112.889ZM81.6556 101.68C82.0006 102.379 82.6021 103.017 82.1907 103.9C81.6647 104.148 80.9082 104.456 81.0997 105.06C81.6202 106.702 80.5538 108.155 80.729 109.733C80.768 110.086 80.4978 110.502 81.2586 110.614C81.4107 109.984 81.652 109.346 81.6965 108.694C81.734 108.143 81.7351 107.59 82.3467 107.492C82.8247 107.415 83.1079 107.915 83.3387 108.284C83.6082 108.715 83.8828 109.175 84.006 109.659C84.5638 111.859 85.0594 114.074 85.5948 116.28C86.2256 118.876 85.8137 119.734 83.6068 120.348C82.8716 118.749 82.8528 116.895 81.7272 114.908C81.8366 116.805 81.8673 118.195 82.4648 119.535C82.8048 120.298 82.8167 121.096 81.5819 121.05C81.5198 120.937 81.4577 120.824 81.3955 120.711C79.7037 113.175 78.7934 105.448 75.9156 98.1961C76.7281 101.948 77.3097 105.743 78.0445 109.493C78.7789 113.243 79.4379 117.009 80.1336 120.767C78.443 120.82 79.3945 119.271 78.84 118.635C79.0665 117.759 78.1539 117.141 78.3035 116.285C78.3671 115.922 78.5817 115.534 77.9531 115.44C77.4997 115.372 77.2172 115.528 77.0416 115.934C76.6309 116.885 76.4199 117.819 76.7414 118.882C77.7493 122.214 78.1583 125.667 78.6615 129.099C77.6005 129.367 76.6424 130.084 75.4626 129.829C75.0648 128.276 74.7303 126.701 73.8058 125.091C74.0623 126.229 74.0555 127.287 74.5262 128.051C75.4012 129.47 74.7531 130.317 73.7863 131.189C72.8117 131.429 72.0584 131.453 72.0808 130.058C72.0899 129.5 72.1307 128.753 71.4194 128.401C71.3634 127.909 71.3074 127.418 71.2514 126.925C71.1415 126.265 71.3803 125.664 71.5718 125.056C72.1589 125.75 71.7615 126.898 72.7697 127.438C71.9042 123.245 71.5711 118.958 69.9953 114.92C70.1831 116.568 70.371 118.215 70.5588 119.863C69.1174 117.782 68.62 115.369 68.1326 112.954C68.0983 110.462 67.5647 108.035 67.1395 105.597C67.0658 105.174 67.435 103.93 66.1211 104.612C66.1002 104.623 65.5128 104.261 65.6685 103.911C66.0055 103.155 65.3372 102.941 64.9774 102.809C64.3929 102.593 64.1671 103.217 63.9254 103.62C63.5212 104.295 62.9959 104.797 62.23 105.023C61.7358 104.171 60.8254 104.01 60.3078 104.608C59.2547 105.823 57.7493 106.23 56.5297 107.118C55.969 107.526 55.4947 107.921 55.305 108.769C56.4322 108.154 57.3624 107.613 58.3241 107.137C58.6915 106.955 59.0748 106.436 59.504 106.782C59.97 107.158 59.8143 107.782 59.5343 108.189C58.4093 109.822 57.2255 111.416 56.0471 113.013C55.9445 113.152 55.7321 113.232 55.5547 113.291C54.7913 113.542 54.7259 114.178 54.679 114.829C54.4561 115.48 53.7957 115.713 53.3839 116.182C52.4569 116.296 51.5295 116.41 50.6022 116.524C50.6022 116.524 50.6152 116.537 50.6152 116.537C50.7221 115.896 49.9671 115.906 49.8074 115.467C50.4317 114.529 51.3941 113.804 51.8583 112.395C50.5635 113.1 50.0758 114.18 49.2189 114.87C48.9736 114.795 48.7374 114.577 48.4715 114.822L48.4762 114.822C48.6539 114.48 48.4812 114.189 48.3436 113.892C49.1199 113.046 49.8999 112.204 50.6723 111.355C54.714 106.915 58.7489 102.469 62.5288 97.7993C63.4319 98.9134 63.593 100.354 64.2061 101.594C64.4247 102.036 64.7054 102.603 65.3401 102.311C65.8986 102.053 65.5272 101.578 65.4723 101.153C65.1797 98.8848 63.4009 97.1333 63.2849 94.7943C63.2704 94.5072 62.7546 94.2706 62.3214 94.3461C62.2856 94.1572 62.2409 93.9694 62.2163 93.7791C62.1437 93.2226 61.8767 92.5025 62.635 92.3082C63.4565 92.0977 63.3272 93.0146 63.657 93.4075C64.1544 94.0001 63.8434 94.9803 64.8127 95.4548C64.7953 93.7 64.8921 92.0309 64.6447 90.3379C65.7057 91.7835 65.8397 93.6787 67.0463 95.029C66.6988 92.6964 65.2306 90.6308 65.6678 88.1671C65.5879 87.0086 65.1414 85.9545 64.7314 84.8898C64.5233 84.6493 64.2697 84.5413 63.9511 84.624C63.7072 84.4706 63.6783 84.2741 63.8344 84.0405C64.7007 81.9166 63.8344 79.8889 63.4883 77.8322C63.1057 76.9391 62.4511 77.699 61.9417 77.578C61.3673 76.8759 61.4074 75.6087 60.1015 75.5802C60.0141 74.4311 59.7529 73.2603 59.8901 72.1386C60.0173 71.1007 59.716 70.4579 58.9455 69.9043C58.9689 68.3824 57.5391 67.8812 56.7952 66.9061C56.0536 65.9343 54.8452 65.0636 57.1915 64.6899C57.3458 64.6653 57.443 64.2836 57.5665 64.068C57.8302 63.3681 57.2009 63.8463 57.0582 63.6827L57.094 63.6816C55.9568 60.5784 53.9814 57.958 52.1957 55.2303C52.0479 55.0046 51.553 54.7204 51.4558 54.7905C49.5715 56.1509 49.5083 54.1289 48.771 53.3763C48.8042 53.1376 48.8454 52.8924 48.4588 53.0292C48.4588 53.0292 48.4856 53.0487 48.4859 53.0487C48.6864 51.5619 47.0691 51.3893 46.5731 50.4049C45.9546 49.1777 44.6215 48.1167 46.214 46.5563C47.0253 45.7607 46.3632 44.5711 45.0923 44.1605L45.0615 44.1237C45.3271 42.9385 44.6577 41.6763 45.3538 40.5326C46.2468 41.5282 47.9093 41.7189 48.1962 43.3783C48.4194 44.6672 49.1618 45.7892 49.9692 46.7542C51.1419 48.1565 51.6076 49.7014 51.8464 51.4709C52.0877 53.2593 52.5895 55.0516 54.4402 56.2278C54.7736 54.8977 54.0529 53.9541 53.8976 52.9169C53.8235 52.4225 53.7144 51.316 54.2379 51.5699C55.3354 52.1029 54.9445 51.4034 54.9286 51.0011C54.9059 50.4298 54.8094 49.8614 54.6877 48.7953C55.1551 50.138 56.6981 50.3475 56.245 51.6295C55.7649 52.9888 56.5633 53.5363 57.4502 54.2101C58.0578 54.6717 58.8031 55.0097 58.0217 56.2188C57.2313 57.4423 57.5326 58.9702 58.8754 60.0002C58.9686 60.0713 59.0423 60.2107 59.0614 60.3288C59.1109 60.6398 59.2691 61.089 59.1254 61.2457C58.7612 61.6423 58.6322 60.5217 58.0799 61.0301C60.3894 63.3064 59.2702 66.315 59.7948 69.0672C60.4833 68.0029 60.2687 66.8964 60.1752 65.8372C59.9104 62.8315 59.5596 59.8337 59.2948 56.828C59.2196 55.9746 58.8078 54.6583 59.4266 54.3495C60.3081 53.9097 60.9884 55.0899 61.7011 55.6698C61.7644 55.7211 61.9251 55.6521 62.2539 55.6146C61.1354 52.411 57.5456 50.809 57.0821 47.3371C55.6764 46.3725 57.0033 44.5621 55.895 43.5054C55.6258 41.8392 56.2562 39.9869 54.8683 38.5525C54.5164 37.1542 54.11 35.7891 52.722 35.0199C52.0161 34.1084 51.3247 33.185 50.6 32.2886C50.0476 31.6061 50.5949 31.2598 50.9963 30.8799C51.5776 30.3302 51.7546 31.0229 51.967 31.2829C52.6068 32.0676 53.1765 32.9094 53.7899 33.7516C54.3553 33.0622 52.7636 32.1698 54.1768 31.6187C54.6147 32.8159 55.0457 33.9943 55.5055 35.2514C56.7252 34.2615 55.3206 32.5317 56.9007 31.4851C57.392 36.5446 56.361 41.6041 58.5629 46.2396C58.948 44.3714 57.2284 42.7182 58.0882 40.6846C58.7457 41.3177 59.6976 41.6275 59.9331 42.5163C60.5787 44.9568 62.4179 46.9618 62.4775 49.6144C62.4872 50.0506 62.6978 50.5017 63.278 50.5356C63.7943 52.1408 63.8217 53.884 64.6544 55.4001C63.4363 57.7001 64.1992 60.0681 64.4156 62.4169C64.3535 63.6595 64.5258 64.7996 65.7552 65.4771C66.1952 68.8187 67.0001 72.1274 66.4929 75.5495C66.3718 76.3638 66.6276 77.2093 67.2775 77.8398C66.9817 80.5093 67.689 82.9863 68.6499 85.42C68.7399 84.597 68.6257 83.8054 68.5636 83.0094C68.4321 81.3179 69.2684 80.2746 70.958 79.981C71.7922 81.0185 70.7575 81.6357 70.3443 82.3067C69.7565 83.2608 69.25 84.1538 69.6221 85.4536C70.1795 85.0011 70.6087 84.6522 71.0382 84.3034C72.1455 84.7822 72.6635 83.2391 73.7144 83.524C73.8972 84.1008 74.3839 84.7822 73.3687 85.0444C71.9717 85.4052 71.0523 86.4449 70.0141 87.3297C69.8338 86.9299 70.0011 86.4026 69.4812 86.1636C69.6564 87.6987 69.8248 89.1725 69.9927 90.6463C70.169 90.7543 70.3453 90.8623 70.5216 90.9702C70.3027 89.2664 71.1347 88.7662 72.3687 88.7258C72.3662 89.7435 71.8359 90.6867 71.1639 91.1909C70.1091 91.9818 70.0729 92.8969 70.1477 93.9705C69.6897 95.856 70.513 97.5891 70.9067 99.3399C71.4291 101.663 71.4486 104.095 72.394 106.325C72.0255 109.981 72.5971 113.593 72.9161 117.299C73.3655 114.714 74.4792 112.594 76.4784 110.979C76.7226 111.011 77.2024 111.505 77.1645 111.018C77.0579 109.642 77.1598 108.163 76.089 106.768C76.15 107.834 76.1966 108.65 76.2433 109.467C75.3415 108.269 74.7917 106.915 74.4771 105.459C74.5381 102.68 73.6761 100.049 73.1624 97.3637C72.9897 96.4609 72.3532 95.947 71.4334 95.8105C70.7886 94.8318 71.6881 93.9109 71.3171 92.6011C72.126 93.5657 72.7896 94.2584 73.6227 93.4982C74.601 92.6051 73.3597 92.2266 73.0064 91.6824C72.5136 90.924 73.2466 88.421 74.1805 87.8807C75.4322 87.1563 75.4322 87.1563 74.5088 85.9039C73.8141 86.6478 73.6039 87.7533 72.6899 88.3249C72.6195 87.7637 73.0765 87.4297 73.2611 86.9801C73.8669 85.5052 75.0731 84.2853 75.1378 82.5815C75.3658 82.61 75.498 82.571 75.326 82.3164C75.2718 82.4132 75.2176 82.51 75.1634 82.6071C74.8333 82.878 74.5352 83.2192 74.0363 83.1214C73.9558 81.9495 75.1526 81.7606 75.5644 80.8961C76.1797 81.8462 76.1699 82.6544 75.6707 83.4919C75.3535 84.0242 74.8994 84.6136 75.8191 85.0473C76.5435 86.8042 77.2887 88.5528 77.9813 90.3224C78.2204 90.9338 78.6738 91.5647 78.1724 92.266C77.357 92.2638 76.5406 92.2613 75.2902 92.2569C76.3198 93.059 76.011 93.9543 76.2924 94.7119C76.8805 96.2951 77.5026 96.4757 78.9328 95.4382C80.6705 95.8213 80.1347 97.6075 80.8699 98.6219C81.2593 99.1593 80.9089 100.034 81.4866 100.579C81.5433 100.945 81.5993 101.312 81.6556 101.68" fill="#C0E55B"/>
<path d="M87.2709 78.4852C87.2362 78.3935 87.2023 78.3014 87.1676 78.2096C87.0632 78.2537 86.8667 78.3097 86.8707 78.34C86.888 78.4772 86.9624 78.6069 87.0162 78.7398C87.1015 78.656 87.1871 78.5722 87.2709 78.4852ZM76.3595 66.2442C76.2757 66.2662 76.1918 66.2886 76.1084 66.3107C76.1366 66.4844 76.1131 66.6967 76.2067 66.8217C76.3125 66.9629 76.3996 67.2904 76.7807 67.0654C76.6329 66.7776 76.496 66.5107 76.3595 66.2442V66.2442ZM83.6822 74.4235C83.5402 75.6806 84.1916 76.3321 84.5962 77.071C84.5991 77.0771 84.9527 76.9706 85.0246 76.8474C85.547 75.9558 83.9058 75.8915 84.2934 75.0093C84.3169 74.9558 84.0586 74.7782 83.6822 74.4235ZM75.5932 65.7852C75.5427 64.1287 74.891 62.7759 74.0496 61.5184C73.8848 61.6015 73.7201 61.6846 73.5554 61.7676C74.2345 63.1067 74.9137 64.4458 75.5932 65.7852ZM82.8206 78.2136L83.0619 78.452C82.9741 78.3812 82.8863 78.3108 82.7985 78.24C82.8293 77.0551 81.9799 76.482 81.1693 75.8829C81.5399 76.7875 82.0247 77.6112 82.8206 78.2136V78.2136ZM66.8323 48.5631C66.7608 47.4353 65.8653 46.5292 65.97 45.3563C66.3418 45.2617 66.5343 44.9858 66.4454 44.6456C65.8674 42.4315 65.547 40.1971 65.797 37.9307C66.8085 37.9393 66.9039 39.2257 67.8627 39.4908C67.8428 37.6266 66.7413 36.2738 66.1626 34.7339C66.1626 34.7336 66.2576 34.6342 66.2576 34.6342C66.7973 32.6823 66.716 30.5336 68.0617 28.7868C69.0097 30.691 69.7065 32.5751 69.1899 34.687C68.3121 35.0611 68.5068 35.9101 68.5288 36.5356C68.6123 38.875 67.3128 41.2195 69.1307 43.5947C70.0226 44.7608 69.2936 46.8142 70.1324 48.3078C70.3304 50.0633 69.9283 52.0087 71.6837 53.2846C72.0692 52.9354 71.8408 52.5699 71.7498 52.2185C71.4687 51.1315 72.1544 49.8788 72.7458 49.7856C73.8202 49.6162 73.4557 50.9752 73.7187 51.6794C74.3097 53.2608 73.7859 55.2228 75.3559 56.4712C75.832 57.3257 76.3078 58.1801 76.7843 59.0349C76.3363 59.2736 76.7095 59.4932 76.759 59.7612C76.9259 60.6568 77.9786 61.361 77.8507 62.0619C77.3457 64.8315 78.2727 67.4421 78.4353 70.1264C78.1069 70.2315 77.2836 69.74 77.5332 70.4926C77.8645 71.4936 78.579 72.3708 79.1527 73.2863C79.2976 73.5174 79.5552 73.5983 79.7929 73.3773C80.1079 73.0844 79.8416 72.797 79.7611 72.5095C79.6169 70.619 80.2553 68.9552 81.1946 67.1333C82.2176 69.2023 84.322 70.4756 83.8733 72.9544C83.9383 73.2932 83.2414 73.7872 84.0796 73.9689C84.5376 74.1891 84.9914 74.659 85.4643 73.992L85.4874 74.0194C85.111 74.7673 85.2981 75.162 86.1792 75.1227C86.8349 76.209 87.5202 77.279 88.1343 78.3884C88.4374 78.9355 88.7785 79.5964 88.3114 80.1782C87.8775 80.7184 87.2561 80.3248 86.6264 80.0789C86.5087 81.2908 87.009 82.1926 87.3547 83.0914C89.3821 88.3596 92.11 93.3324 93.951 98.6826C94.3379 99.8065 94.3361 101.08 95.1908 102.031C95.573 102.841 95.2313 103.925 95.9892 104.472C97.1474 102.282 95.7862 100.035 95.8469 97.5573C97.2435 98.813 97.819 100.18 98.194 101.594C98.656 103.333 98.5574 105.138 98.5534 106.934C98.548 109.332 99.4602 111.608 99.6365 114.008C99.7329 115.329 99.2535 115.051 98.5176 114.788C98.6759 112.769 98.3966 110.829 97.5263 108.976C97.1091 110.406 97.3309 112.258 96.5101 113.128C95.5586 114.138 95.3953 115.055 95.2952 116.195C94.2743 116.321 93.6569 117.09 92.8697 118.017C92.0684 113.9 91.1021 110.156 89.8579 106.474C89.4761 105.345 88.6069 103.586 90.9511 103.121C90.9691 103.117 90.9182 102.764 90.8994 102.574C92.4124 103.873 91.7339 106.132 93.0691 107.795C93.0074 103.923 91.506 98.2659 89.6292 94.7188C89.6448 97.3566 91.1718 99.5916 90.8593 102.118C89.3402 101.025 89.7221 98.9174 88.4649 97.6498C88.0498 97.2316 86.2168 96.6531 88.302 95.8394C88.4851 95.7679 88.7738 95.0825 88.5624 94.6007C87.8457 92.9659 87.4046 91.1144 86.3385 89.7514C84.9585 87.9873 83.3372 86.4232 82.5099 84.2843C82.3589 83.8931 82.1468 83.3543 82.2996 83.056C82.5428 82.5808 82.8307 83.4504 83.1551 83.2319C83.9795 82.6776 84.8162 83.5819 85.8646 83.1929C84.4668 81.2143 81.9944 81.2269 80.5013 79.7831C78.9497 78.2829 78.6025 76.0519 77.3233 74.3777C77.6289 73.0321 76.7764 71.5175 75.4404 71.0314C74.6207 68.6526 72.1728 66.9401 72.576 64.0536C72.5829 64.0056 72.3838 63.8849 72.2715 63.8705C69.6346 63.5321 70.2054 61.0887 70.3618 59.8634C70.5132 58.6752 70.2939 57.8464 69.9377 56.879C69.769 56.4214 69.3026 56.0339 69.5869 55.4373C70.5876 55.4828 70.3673 57.0068 71.4265 57.0068C71.2787 53.4489 67.8117 51.4497 67.3193 48.0612C67.2796 47.7881 67.1203 48.5046 66.8323 48.5631" fill="#C0E55B"/>
<path d="M74.17 82.8107C74.5168 82.6717 74.8661 82.576 75.2137 82.5175L75.3257 82.3163C75.3795 82.3958 75.4008 82.4521 75.4015 82.494C75.61 82.4669 75.8181 82.4528 76.024 82.4525C76.0648 81.9595 75.9243 81.4521 75.5641 80.896C75.184 81.6948 74.1364 81.9184 74.0417 82.8707C74.0851 82.8515 74.1263 82.8284 74.17 82.8107Z" fill="#C0E55B"/>
<path d="M54.8081 112.085C54.8136 112.078 54.8191 112.072 54.8242 112.065L54.8745 112.031L54.8081 112.085Z" fill="#C0E55B"/>
<path d="M87.2307 94.9636C87.1133 94.8072 87.041 94.7115 86.9688 94.6155C86.8427 94.713 86.704 94.8 86.6018 94.9185C86.5848 94.938 86.7401 95.1792 86.7893 95.1702C86.9374 95.1435 87.0728 95.0438 87.2307 94.9636ZM100.394 118.832C101.025 120.13 99.7227 121.307 100.073 122.9C101.102 121.398 100.93 120.123 100.394 118.832ZM93.3165 121.713C93.6824 124.906 95.8467 125.852 98.7003 124.11C99.3282 123.727 99.5337 123.386 99.4171 122.594C99.145 120.742 98.0743 118.957 98.9467 116.968C99.1114 116.593 98.9232 115.788 98.0201 115.904C94.6571 116.338 92.9411 118.444 93.3165 121.713V121.713ZM98.5175 114.788C99.2534 115.052 99.7328 115.329 99.6363 114.008C99.4604 111.608 98.5479 109.332 98.5537 106.934C98.5576 105.138 98.6559 103.333 98.1942 101.594C97.8192 100.18 97.2437 98.8129 95.8471 97.5573C95.7864 100.035 97.1473 102.282 95.9891 104.472C95.2312 103.925 95.5733 102.841 95.1907 102.031C95.1773 98.9509 95.1116 95.8744 94.5227 92.6502C94.9338 93.0027 95.3818 93.1995 95.5079 93.522C97.5699 98.7996 100.103 103.88 99.985 109.85C99.9232 112.98 101.062 116.125 101.56 119.279C102.202 123.344 98.9994 126.484 94.9288 125.809C93.5582 125.581 92.6507 124.535 92.6416 123.282C92.5994 117.722 90.8075 112.502 89.6237 107.178C88.6017 102.58 87.2686 98.0376 85.2391 93.7419C84.832 92.8802 84.419 91.9565 84.3164 91.0276C83.9866 88.0378 81.4773 86.1996 80.5088 83.5352C79.9766 82.0722 79.0153 80.7595 78.8083 78.696C77.6855 81.0809 76.752 83.0636 75.8189 85.0469C74.8991 84.6135 75.3532 84.0242 75.6704 83.4919C76.17 82.6548 76.1794 81.8462 75.5642 80.896C75.1524 81.7606 73.9555 81.9495 74.0364 83.1213L74.061 83.0946C73.9396 83.247 73.8179 83.3991 73.6965 83.5515L73.7142 83.524C72.6633 83.2391 72.1453 84.7822 71.0376 84.3069C72.1456 82.6273 72.2157 80.4562 73.5849 78.8954C73.5892 79.5216 73.1788 80.3872 74.0758 80.5815C74.4353 80.6595 74.5819 81.4724 75.1032 80.9043C75.7557 80.1929 76.1245 79.1965 75.7152 78.471C75.0848 77.3526 75.5765 76.5278 75.988 75.6722C76.5692 74.4628 75.7203 72.4553 74.2745 71.8822C73.0235 72.5073 73.1423 74.1457 72.0502 74.8879C71.969 74.8272 71.8895 74.7654 71.8104 74.7022C71.9032 74.405 71.9112 74.0316 72.1008 73.8225C74.8572 70.7858 72.9967 68.044 71.5842 65.2709C71.5275 65.1597 71.4748 64.9777 71.3909 64.9589C68.3564 64.2669 68.6736 61.6888 68.6107 59.5867C68.5283 56.8327 67.2065 54.421 66.8886 51.7656C66.7618 50.7057 66.359 49.6396 66.8315 48.5642C67.1201 48.5049 67.2795 47.7881 67.3192 48.0615C67.8116 51.4496 71.279 53.4488 71.4264 57.0067C70.3675 57.0067 70.5875 55.4827 69.5868 55.4372C69.3029 56.0338 69.7693 56.4213 69.9376 56.8792C70.2942 57.8464 70.5135 58.6752 70.3617 59.8633C70.2057 61.0886 69.6345 63.532 72.2717 63.8704C72.3837 63.8849 72.5827 64.0055 72.5762 64.0535C72.1727 66.9401 74.621 68.6529 75.4407 71.031C75.9229 72.2278 76.4146 73.4202 77.3232 74.3776C78.6024 76.0518 78.9496 78.2829 80.5012 79.783C81.9943 81.2268 84.4671 81.2142 85.8648 83.1928C84.8161 83.5818 83.9794 82.6775 83.1553 83.2318C82.8306 83.4503 82.5427 82.5807 82.2999 83.056C82.1471 83.3546 82.3591 83.8931 82.5101 84.2842C83.3374 86.4235 84.9584 87.9876 86.3384 89.7514C87.4045 91.1143 87.8456 92.9658 88.5627 94.601C88.7736 95.0828 88.4854 95.7679 88.3022 95.8394C86.2167 96.653 88.05 97.2315 88.4648 97.6497C89.722 98.9173 89.3401 101.025 90.8617 102.115C90.6843 102.28 90.6598 102.437 90.8993 102.574C90.9181 102.764 90.9694 103.118 90.951 103.121C88.6071 103.586 89.4763 105.345 89.8578 106.475C91.1023 110.156 92.0687 113.9 92.8696 118.017C93.6568 117.09 94.2742 116.321 95.2955 116.195C96.3695 115.727 97.4439 115.257 98.5175 114.788" fill="#373430"/>
<path d="M74.2021 4.2326C73.9954 4.53595 73.826 4.71146 73.7505 4.9202C73.697 5.06754 73.7762 5.29722 74.0164 5.16468C74.1591 5.0856 74.291 4.92092 74.343 4.76671C74.3802 4.65476 74.2783 4.49623 74.2021 4.2326ZM72.0013 12.158C72.683 11.4076 73.7978 10.7445 72.8871 9.39572C72.3293 10.2498 71.9207 11.0923 72.0013 12.158ZM75.5727 7.26828C76.392 6.6103 77.4628 6.37953 77.427 5.26544C77.4191 5.01806 76.3841 4.48683 76.2038 4.61612C75.3682 5.21777 75.4206 6.16141 75.5727 7.26828V7.26828ZM69.1755 15.2222C70.7853 14.106 70.1007 12.5249 70.1408 11.1093C69.3251 12.348 67.8483 13.4357 69.1755 15.2222ZM73.9384 12.1017C72.8965 12.313 72.2032 12.9904 71.5588 13.6567C70.5592 14.691 69.2145 15.6401 69.7301 17.3898C70.2102 19.0203 70.5667 20.6678 70.7683 22.3766C71.5429 18.878 72.769 15.5483 73.9384 12.1017V12.1017ZM66.1623 34.7339C66.7414 36.2738 67.8425 37.6266 67.8627 39.4907C66.9039 39.2257 66.8086 37.9389 65.797 37.9306C65.547 40.1968 65.8675 42.4311 66.4455 44.6456C66.5344 44.9857 66.3418 45.2616 65.9701 45.3563C65.9517 42.564 63.4687 40.8569 62.8987 38.2459C62.3857 35.8975 62.0349 33.5833 62.1863 31.1966C62.2105 30.8138 61.8611 30.2082 62.5287 30.0753C63.0627 29.9687 63.2494 30.5 63.4922 30.8604C63.7288 31.2121 63.9514 31.5736 64.4528 32.3576C64.8292 28.5535 66.4029 25.3878 65.6515 21.857C65.4593 20.9559 65.5521 19.8895 65.844 19.0084C67.0466 15.3775 68.1752 11.7304 70.8612 8.7659C71.984 7.52685 72.2961 5.67063 73.0869 4.13473C73.8621 2.62953 74.917 1.66061 76.2316 0.821697C76.8133 1.32981 76.2605 1.9004 76.6388 2.47135C78.2854 1.72489 79.984 1.04271 81.3156 -0.312261C81.6628 -0.665088 82.0681 -1.24218 82.5974 -0.890434C83.2317 -0.468631 82.6079 0.0275651 82.399 0.430951C81.9872 1.22725 81.346 1.93796 81.0938 2.7729C80.9363 3.29582 78.875 3.91263 81.0006 4.63057C81.2842 4.72627 80.9504 5.329 80.794 5.67352C80.0924 7.22386 79.1098 8.6005 77.7193 9.55534C76.6503 10.2895 76.3198 11.2093 76.094 12.405C75.7179 14.3974 75.0171 16.1832 73.4846 17.7801C72.8163 18.4764 71.6541 19.848 72.8203 21.9534C73.8257 23.7688 72.9724 26.7269 71.3554 28.7889C71.0468 29.1822 70.6892 29.5376 70.3543 29.9106C70.0483 29.1497 70.4063 28.5762 70.842 27.9858C71.583 26.9811 71.967 25.8276 72.0222 24.5828C72.0345 24.3138 72.3279 23.8562 71.5573 23.8898C70.3803 23.9404 69.4187 23.5315 69.376 22.07C69.3468 21.078 69.1062 20.1351 68.4371 19.3489C67.8544 19.6978 67.9361 20.2749 67.5972 20.6844C66.5647 21.9335 67.6192 23.6558 66.8223 25.0194C68.8569 26.1545 68.8103 28.4581 69.7597 30.2031C69.8027 30.2822 70.1191 30.2125 70.3084 30.2125C70.98 32.5787 70.2709 34.7686 69.4179 37.1286C68.8598 36.2488 69.458 35.4197 69.19 34.688C69.7066 32.575 69.0097 30.691 68.0614 28.7868C66.7161 30.5336 66.7974 32.6823 66.2569 34.6346C66.146 33.8899 66.0355 33.1449 65.9249 32.3995C66.2085 31.9795 66.629 31.596 66.3935 30.9019C65.9527 31.4281 65.7071 31.8651 65.9571 32.419C65.0127 33.2803 65.4585 34.0185 66.1623 34.7339" fill="#373430"/>
<path d="M42.6008 35.4623C40.7851 36.8162 40.9155 38.0618 42.9953 39.0932C43.5238 37.7956 42.8883 36.6367 42.5755 35.4417C44.3514 35.1272 44.3677 34.9762 42.7861 32.5628C42.7189 33.6148 42.66 34.5386 42.6008 35.4623ZM36.8528 29.5188C36.9229 29.6571 36.993 29.7958 37.063 29.9341C37.1006 29.8947 37.1743 29.8243 37.1703 29.82C37.0753 29.7095 36.972 29.6055 36.8701 29.5004C36.7011 28.6109 36.6223 27.6492 35.2257 27.4972C35.5887 28.4697 35.8254 29.3028 36.8528 29.5188V29.5188ZM57.0822 47.3371C57.5457 50.809 61.1355 52.411 62.2536 55.6146C61.9252 55.6522 61.7641 55.7212 61.7013 55.6699C60.9885 55.0899 60.3082 53.9097 59.4268 54.3492C58.8079 54.658 59.2198 55.9747 59.2949 56.828C59.5597 59.8338 59.9105 62.8315 60.1753 65.8372C60.2689 66.8961 60.4835 68.0029 59.7949 69.0672C59.2703 66.315 60.3895 63.3064 58.08 61.0298C58.632 60.5217 58.761 61.6423 59.1255 61.2458C59.2693 61.0891 59.111 60.6398 59.0612 60.3285C59.0424 60.2108 58.9687 60.0714 58.8755 59.9999C57.5327 58.9703 57.2314 57.442 58.0218 56.2188C58.8032 55.0094 58.058 54.6717 57.45 54.2102C56.5631 53.536 55.765 52.9888 56.2452 51.6295C56.6978 50.3471 55.1552 50.1381 54.6878 48.795C54.8092 49.8614 54.906 50.4298 54.9287 51.0012C54.9443 51.4035 55.3355 52.103 54.2376 51.5699C53.7145 51.3157 53.8236 52.4222 53.8977 52.917C54.053 53.9541 54.7738 54.8974 54.44 56.2275C52.5892 55.0516 52.0878 53.2593 51.8465 51.471C51.6077 49.7014 51.142 48.1562 49.969 46.7542C49.162 45.7893 48.4192 44.6669 48.1963 43.3784C47.9095 41.719 46.247 41.5283 45.3539 40.5326C44.6574 41.6763 45.3268 42.9385 45.0617 44.1237C43.785 43.4838 44.0187 41.953 43.2312 41.0249C42.6607 39.5529 41.0669 39.0336 40.245 37.7306C38.9156 35.6238 38.8094 35.6909 36.7141 36.9625C36.7874 37.7736 38.1241 37.7476 37.882 38.7689C37.1859 39.0939 36.8904 38.4839 36.5486 38.1333C34.9179 36.4601 33.5151 34.6025 32.0372 32.5325C33.2037 32.4194 34.0469 32.829 34.9092 33.0984C35.4435 32.2479 35.8723 32.5711 36.3911 33.1666C36.8268 33.6668 37.5171 34.51 38.0753 33.8333C38.6197 33.1727 38.0536 32.3133 37.2574 31.8514C36.1465 31.2071 35.2058 30.3819 34.467 29.3198C33.751 28.2902 33.5346 28.8106 33.4613 29.6745C32.7348 28.2953 32.3284 26.893 32.8063 25.3062C33.0849 24.3806 32.0332 23.7595 32 22.4709C35.1961 24.9649 39.2696 25.6634 41.4466 29.1653C42.172 28.6983 41.4256 28.0974 42.0011 27.6221C44.2629 30.5238 44.4887 34.3508 46.1754 37.2918C47.92 40.3344 48.6605 43.9739 51.1315 46.6405C51.6749 46.2765 51.478 45.8767 51.4657 45.5419C51.4469 45.0342 51.6687 44.6319 52.0882 44.4715C52.5834 44.2823 52.6994 44.859 52.8985 45.1248C53.8453 46.388 54.738 47.6921 55.8207 49.2233C56.0942 48.3353 56.3142 47.6018 57.0822 47.3371" fill="#373430"/>
<path d="M95.1171 33.474C95.6196 32.5748 96.0517 31.802 96.4837 31.0291C95.6818 31.6095 93.4394 31.4401 95.1171 33.474ZM91.3087 34.8889C91.9843 34.3797 92.58 34.0096 93.0745 33.5343C93.5355 33.0916 93.7718 32.4852 93.7523 31.8247C93.7461 31.6192 93.6262 31.6084 93.3939 31.6644C92.645 31.8453 91.7317 31.7586 91.4185 32.6651C91.2011 33.2945 90.8532 33.9644 91.3087 34.8889ZM88.8652 28.5908C88.7286 26.3767 89.4247 24.3334 90.096 22.263C91.4785 22.5024 90.515 24.7292 92.2032 24.6125C92.5066 25.8454 91.7108 27.1881 92.5717 28.5229C94.4134 26.2719 93.7855 23.7111 93.9174 21.2944C93.8545 21.3038 93.7916 21.3132 93.7284 21.3222C94.0669 19.9023 94.8024 18.7878 96.2825 18.4177C97.4433 18.1273 97.1004 16.7582 98.2825 16.1523C98.0455 20.0207 100.049 23.6313 98.4978 27.3687C99.2376 27.948 99.3409 26.8472 99.9265 27.0899C99.9417 27.2232 100.023 27.4135 99.971 27.554C98.8868 30.4737 97.3074 33.1035 95.1608 35.3577C94.6019 35.9449 94.309 36.5664 94.1128 37.3111C93.6677 38.9994 93.0312 40.6129 91.8148 41.9076C90.8943 42.8873 90.4695 44.0429 90.3084 45.3549C91.4214 45.8425 91.6602 44.2629 92.8993 44.4615C91.8817 47.3451 91.8271 50.5831 88.7528 52.3537C87.5592 50.5155 87.4602 50.5144 86.0444 52.5205C85.6138 53.1301 85.2045 53.7282 84.2851 53.9683C84.2107 52.1627 84.9849 50.755 86.1055 49.7998C88.2673 47.9569 89.2253 45.5463 90.0407 42.9899C90.1548 42.6327 90.3181 42.2521 90.5678 41.9841C91.7657 40.6985 92.0482 39.2673 91.3781 37.6458C91.4301 37.588 91.4818 37.5303 91.5334 37.4721C91.4951 37.4822 91.4362 37.4812 91.4232 37.505C91.4001 37.549 91.4034 37.6075 91.3954 37.6599C90.6151 37.6151 89.8676 38.0611 89.6061 38.5808C88.6712 40.4406 87.2919 42.1712 87.522 44.4665C87.5708 44.9544 87.8511 45.6121 87.1922 45.8789C86.3504 45.0635 87.177 44.1621 86.9646 43.3095C86.8089 42.6865 87.1687 41.8205 86.1442 41.6085C85.1305 41.3987 85.0246 42.4272 84.8093 42.8638C84.3805 43.7334 83.9788 44.7302 84.176 45.7869C84.3227 46.5727 84.197 47.2841 83.6565 47.8973C82.7993 46.5987 82.5883 45.2054 83.0088 43.7049C83.7136 41.1914 84.2967 38.6249 86.1731 36.6383C86.4346 36.3613 86.7236 36.0027 87.1311 36.0998C87.6427 36.2212 87.4342 36.7231 87.4541 37.0662C87.4833 37.575 87.3995 38.1189 88.0512 38.3042C88.7701 38.5082 88.8702 37.8679 89.1285 37.4692C89.4403 36.9875 89.7242 36.488 90.0208 35.9947C90.7285 34.5202 90.368 32.8478 90.9764 31.3173C91.7917 29.2661 91.2198 28.6392 88.8652 28.5908" fill="#373430"/>
<path d="M52.7435 23.6557C52.5643 25.4199 52.5683 26.6181 53.0788 27.8969C53.9931 26.5459 53.6098 25.3722 52.7435 23.6557ZM51.0153 23.2863C51.5694 21.4019 51.5178 19.7811 51.0182 18.1647C50.9228 17.8567 50.8382 17.4652 50.4958 17.4493C49.9561 17.4244 50.0297 17.9195 49.9748 18.2759C49.7136 19.9743 49.6999 21.6229 51.0153 23.2863V23.2863ZM49.3426 24.4148C48.5392 22.5218 47.64 20.6897 45.8121 18.7732C46.3514 20.8078 46.838 22.2607 47.6324 23.603C48.1346 24.6712 48.826 25.5188 50.2682 25.863C49.8759 25.249 49.6092 24.8319 49.3426 24.4148V24.4148ZM63.2782 50.5359C62.698 50.5016 62.4874 50.0506 62.4773 49.6143C62.4177 46.9618 60.5789 44.9568 59.9329 42.5166C59.6978 41.6275 58.7455 41.3177 58.088 40.6846C57.2286 42.7181 58.9481 44.3714 58.5627 46.2395C56.3612 41.604 57.3922 36.5446 56.9009 31.4851C55.3204 32.5317 56.725 34.2615 55.5057 35.2514C55.0458 33.9942 54.6148 32.8159 54.1766 31.6187C52.7638 32.1698 54.3551 33.0622 53.7897 33.7519C53.1763 32.9094 52.607 32.0676 51.9672 31.2832C51.7548 31.0228 51.5774 30.3302 50.9965 30.8798C50.5948 31.2597 50.0478 31.6061 50.5998 32.2886C51.3249 33.1849 52.0163 34.1084 52.7218 35.0181C53.1586 36.3644 53.7865 37.5962 54.8684 38.5525C56.2564 39.9869 55.626 41.8395 55.8951 43.5054C53.992 41.4538 51.9191 39.5156 51.2573 36.6273C51.2429 36.5659 51.2183 36.463 51.2468 36.4406C53.5961 34.5887 50.7664 34.2572 50.2454 33.3832C48.8853 31.1001 47.7712 28.816 47.2444 26.1465C46.7401 23.5889 45.3908 21.2015 44.8529 18.6465C44.181 15.4576 43.3259 12.2544 43.5618 8.92981C44.4342 10.0916 44.026 11.5101 44.3367 12.7831C44.8457 14.8672 45.1679 17.0448 46.9081 18.8267C47.2853 17.9383 46.8926 17.5161 46.8066 17.0383C46.5364 15.5335 45.5476 14.1904 45.8041 12.5722C45.867 12.7336 45.9298 12.895 45.9927 13.0565C46.0476 12.9918 46.1581 12.881 46.1491 12.8701C46.0519 12.7542 45.9356 12.6538 45.8247 12.5491C45.2279 11.5083 45.7311 10.3281 45.406 9.25266C47.3944 10.0829 47.7061 12.1627 48.7614 13.6928C49.0092 14.0521 48.7906 15.3948 49.9954 14.4844C50.3433 14.2215 50.4329 14.791 50.546 15.034C50.7349 15.4392 50.8621 15.8733 51.0178 16.2944C51.684 18.1015 52.0676 19.9733 53.3298 21.5933C54.5263 23.1288 54.72 25.0627 54.4082 27.0901C54.1813 28.5661 54.3385 30.1778 56.4833 30.384C57.027 30.436 57.4023 30.8791 57.3716 31.4627C57.2939 32.9271 57.8626 34.3359 57.6512 35.8234C57.485 36.9949 58.2325 37.8685 59.0388 38.5796C60.253 39.6503 60.9116 41.0028 61.296 42.5188C61.9719 45.1876 62.6189 47.8632 63.2782 50.5359" fill="#373430"/>
<path d="M60.1015 75.5802C61.4075 75.6087 61.3674 76.876 61.9414 77.5784C61.3034 78.8236 61.8226 79.8517 62.5245 80.8686C62.7308 81.1673 62.9374 81.3323 63.2828 81.233C63.6708 81.1211 63.6632 80.7834 63.6466 80.4707C63.6003 79.5906 63.5422 78.7116 63.4883 77.8322C63.8344 79.8889 64.7007 81.9163 63.8344 84.0387C63.2802 83.7787 62.6094 83.7837 62.9063 84.536C63.471 85.9682 63.7069 87.7587 65.6678 88.1671C65.2307 90.6308 66.6988 92.6965 67.0464 95.0287C65.8398 93.6788 65.7057 91.7835 64.6447 90.3379C64.8922 92.0309 64.7954 93.7001 64.8127 95.4548C63.8434 94.9803 64.1545 94.0002 63.657 93.4076C63.3272 93.0146 63.4565 92.0977 62.635 92.3083C61.8768 92.5026 62.1437 93.2227 62.2163 93.7792C62.2409 93.9695 62.2857 94.1573 62.3211 94.3469C62.1853 94.4971 62.0502 94.6473 61.9147 94.7976C61.8211 94.621 61.7276 94.444 61.6344 94.2674C61.6116 93.7095 61.3757 93.0457 60.845 93.7156C60.0864 94.6726 59.0203 95.496 58.8599 96.8502L58.8895 96.8203C58.2396 96.7961 58.0113 97.1005 58.1876 97.7206L58.2327 97.6714C57.7458 97.4689 57.7078 97.8502 57.6078 98.151C57.3043 98.5515 56.9954 98.9484 56.6985 99.3536C55.6324 100.807 53.8243 101.708 53.4648 103.689L53.4764 103.684C52.7521 103.534 52.6679 104.048 52.5751 104.553L52.5942 104.539C51.8887 104.58 51.5574 105.028 51.3847 105.648C49.8967 107.273 48.098 108.598 46.8043 110.415C46.4561 110.904 45.9662 111.314 46.8664 111.705C46.8281 112.272 47.1742 112.627 47.5597 112.961C47.6536 113.412 47.9748 113.672 48.3436 113.891C48.4813 114.189 48.6543 114.48 48.4762 114.822C46.8552 114.126 46.1981 112.626 45.4864 111.19C45.1378 110.486 45.6024 110.046 46.0887 109.556C51.147 104.47 55.9095 99.129 60.0957 93.2869C60.8016 92.3021 61.2604 91.3498 61.1134 90.1212C60.9306 88.5936 60.9277 87.0661 61.1943 85.5374C61.634 83.0178 60.6051 80.6661 60.293 78.2317C60.1799 77.3501 59.9003 76.4834 60.1015 75.5802Z" fill="#373430"/>
<path d="M80.0607 60.7462C79.9671 62.0607 79.1868 63.4583 80.5364 64.597C80.9887 64.9783 81.2485 65.5583 82.1003 65.3116C83.1317 65.013 82.2568 64.3785 82.4883 63.9845C82.5783 63.8317 82.7744 63.7414 82.9222 63.6233C83.1722 64.091 82.8788 64.4594 82.7466 64.8848C82.3691 66.0989 82.2224 67.2083 83.3608 68.2769C84.9655 69.7839 84.6906 72.1067 85.4647 73.9918C84.9915 74.6588 84.5377 74.189 84.0807 73.9673C84.1935 73.5917 84.2632 73.2255 83.8734 72.9543C84.3221 70.4755 82.2177 69.2025 81.1947 67.1332C80.2554 68.9551 79.617 70.6189 79.7612 72.5094C78.7728 72.0186 79.0383 70.8312 78.4354 70.1263C78.2728 67.442 77.3458 64.8317 77.8508 62.0622C77.9787 61.3608 76.926 60.6566 76.7591 59.761C76.7096 59.4931 76.3364 59.2735 76.7844 59.0348C78.1427 57.7614 77.935 55.5903 79.63 54.17C79.401 56.0966 80.2435 57.7481 79.6857 59.4714C79.5256 59.9669 79.4299 60.4707 80.0607 60.7462Z" fill="#373430"/>
<path d="M72.0501 74.888C71.9692 74.8273 71.8894 74.7656 71.8106 74.702C71.6806 74.8468 71.5343 74.9595 71.3833 75.04C71.4255 75.3062 71.3616 75.5926 71.2015 75.8125C70.9487 76.1595 70.4938 76.2314 70.1156 76.092C70.0275 76.1429 69.9368 76.1892 69.8385 76.2209C69.3407 76.3835 68.8707 76.2841 68.3891 76.114C68.0806 76.0046 67.8642 75.6648 67.8285 75.3521L67.4069 71.6569C67.2291 71.0271 67.0695 70.3988 66.8928 69.8087C66.8347 69.6151 66.8242 69.4241 66.8607 69.2489C66.4253 67.2309 65.9239 65.1414 66.6941 63.1642C67.6034 60.8302 65.3596 59.0458 65.9792 56.8093C66.1735 56.1087 65.7509 55.2582 64.6545 55.4002C63.4363 57.7002 64.1993 60.0678 64.4157 62.417C65.3495 62.2187 65.2545 62.79 65.4286 63.4599C65.6042 64.1363 65.6056 64.8127 65.7548 65.4761C66.1949 68.8188 67.0001 72.1271 66.4929 75.5496C66.3719 76.364 66.6276 77.2094 67.2776 77.8399C67.3794 77.7727 67.4903 77.75 67.6106 77.7716C68.3295 77.9446 67.8606 76.6781 68.7847 76.8872C69.8804 77.135 69.5603 77.9612 69.7547 78.595C70.0607 78.374 70.25 77.8796 70.7706 78.1624C71.2478 77.4427 71.725 76.7229 72.2019 76.0032L72.0501 74.888Z" fill="#373430"/>
<path d="M75.3558 56.471C73.7858 55.2226 74.3096 53.2609 73.719 51.6795C73.4556 50.9753 73.8201 49.6163 72.7461 49.7854C72.1544 49.8789 71.4687 51.1317 71.7501 52.2183C71.8412 52.5697 72.0695 52.9355 71.6836 53.2847C69.9286 52.0088 70.3307 50.0634 70.1328 48.308C71.1439 45.948 70.106 43.5829 69.9861 41.1651C70.5222 42.0358 70.7086 42.7003 71.9365 43.0343C73.0073 43.3258 73.7966 44.9733 74.1055 46.2473C74.707 48.7261 75.8598 51.1472 75.0571 53.86C74.8284 54.6332 75.2388 55.5956 75.3558 56.471Z" fill="#373430"/>
<path d="M83.607 120.348C85.8136 119.735 86.2257 118.877 85.595 116.28C85.0596 114.075 84.5636 111.859 84.0058 109.659C83.883 109.174 83.6084 108.715 83.3389 108.284C83.1077 107.915 82.8249 107.415 82.3469 107.492C81.7349 107.59 81.7339 108.143 81.6966 108.694C81.6522 109.346 81.4109 109.984 81.2588 110.614C80.498 110.502 80.7682 110.086 80.7288 109.733C80.554 108.155 81.6204 106.702 81.0998 105.06C80.908 104.456 81.6649 104.148 82.1905 103.9C83.8075 106.5 86.026 108.827 86.3399 112.05C86.5581 114.286 86.2077 116.542 86.4038 118.805C86.5205 120.153 84.3862 121.445 83.2284 120.825C82.7606 120.575 83.4531 120.507 83.607 120.348Z" fill="#373430"/>
<path d="M54.679 114.829C54.7256 114.177 54.7913 113.542 55.5546 113.291C55.732 113.232 55.9441 113.152 56.047 113.013C57.2255 111.416 58.4093 109.823 59.5339 108.189C59.8142 107.782 59.97 107.158 59.5036 106.782C59.0748 106.435 58.6915 106.955 58.3237 107.137C57.3624 107.613 56.4321 108.154 55.3047 108.769C55.4947 107.921 55.9686 107.526 56.5297 107.118C57.7493 106.23 59.2547 105.823 60.3077 104.608C60.8254 104.01 61.7358 104.172 62.23 105.023C60.6531 109.015 59.8359 113.591 54.679 114.829Z" fill="#373430"/>
<path d="M45.0922 44.1606C46.3631 44.5712 47.0253 45.7608 46.2136 46.5564C44.6215 48.1168 45.9545 49.1779 46.573 50.405C47.069 51.3894 48.6864 51.5621 48.4859 53.0488C48.2948 53.0597 48.0827 53.1308 47.9158 53.0727C44.9087 52.0229 41.4092 46.5961 41.6212 43.2173C43.1447 43.7114 44.7501 43.971 45.3964 45.9479C45.879 44.9916 44.7584 44.7941 45.0922 44.1606Z" fill="#373430"/>
<path d="M78.8399 118.635C79.3944 119.271 78.4425 120.821 80.1347 120.767C80.5555 120.749 80.9757 120.73 81.3955 120.711C81.4576 120.825 81.5197 120.938 81.5819 121.05C81.5457 121.171 81.5085 121.397 81.4738 121.397C78.7156 121.368 79.3258 123.011 79.8493 124.629C80.3702 126.24 80.0324 128.064 81.1484 129.543C81.6104 130.155 81.0284 130.403 80.5295 130.613C78.2709 131.565 75.9643 132.231 73.4691 131.958C72.8506 131.89 72.2209 131.921 71.4229 131.903C72.2065 130.705 70.9713 129.596 71.4193 128.401C72.1306 128.753 72.0894 129.5 72.0808 130.058C72.0584 131.453 72.8116 131.43 73.7863 131.189C74.5164 131.226 75.3299 131.737 75.9469 131.06C76.4715 130.484 75.3848 130.344 75.4621 129.829C76.6424 130.084 77.6004 129.367 78.6611 129.099C80.6578 129.371 77.5076 129.913 79.0419 130.31C79.9616 130.236 80.8481 130.052 80.1354 128.43C79.2026 126.308 79.0242 123.99 78.7279 121.726C78.5975 120.725 78.1618 119.637 78.8399 118.635Z" fill="#373430"/>
<path d="M57.5666 64.0681C57.443 64.2837 57.3458 64.6654 57.1916 64.69C54.8452 65.0637 56.054 65.9341 56.7953 66.9062C57.5391 67.8813 58.969 68.3825 58.9455 69.9044C55.5233 67.5534 53.3756 64.2183 51.522 60.3314C53.0064 60.4607 54.0255 61.0645 54.8419 61.9992C55.4814 62.7312 56.2342 63.2675 57.0944 63.6817C57.094 63.6817 57.0583 63.6828 57.0583 63.6828C57.2277 63.8113 57.3971 63.9399 57.5666 64.0681Z" fill="#373430"/>
<path d="M68.1328 112.954C68.6201 115.369 69.1176 117.782 70.5583 119.859C70.8953 121.589 71.2335 123.322 71.572 125.056C71.3801 125.664 71.1413 126.265 71.2512 126.925C70.2675 125.79 70.4358 124.302 70.1685 122.986C69.3531 118.968 67.6259 115.218 66.8741 111.19C66.5653 109.536 66.1986 107.893 65.8586 106.245C66.0205 106.205 66.1823 106.166 66.3438 106.127C66.9403 108.402 67.5367 110.678 68.1328 112.954Z" fill="#373430"/>
<path d="M45.804 12.572C45.5475 14.1902 46.5362 15.5337 46.8064 17.0385C46.8924 17.5159 47.2851 17.9381 46.908 18.8265C45.1678 17.045 44.8455 14.867 44.3365 12.7829C44.0258 11.5099 44.4341 10.0914 43.5616 8.92998C43.467 8.45762 43.2607 7.81553 43.9066 7.71694C44.9799 7.55298 45.0381 8.60171 45.4062 9.25247C45.731 10.3279 45.2277 11.5085 45.8245 12.5493L45.804 12.572Z" fill="#C0E55B"/>
<path d="M88.8652 28.5906C91.2199 28.639 91.7918 29.2659 90.9764 31.3175C90.3681 32.848 90.7283 34.5201 90.0205 35.9946C88.099 33.7667 88.6976 31.1453 88.8652 28.5906Z" fill="#C0E55B"/>
<path d="M37.8821 38.7689C38.1241 37.7476 36.7871 37.7736 36.7141 36.9625C38.8094 35.6909 38.9156 35.6241 40.2447 37.7306C41.0666 39.0336 42.6608 39.5529 43.2309 41.0249C40.9094 41.5493 39.6078 39.6566 37.8821 38.7689Z" fill="#C0E55B"/>
<path d="M78.9329 95.4382C77.5026 96.4757 76.8805 96.2955 76.2924 94.7119C76.011 93.9543 76.3199 93.0594 75.2903 92.2569C76.5406 92.2613 77.357 92.2638 78.1728 92.266C79.331 93.1063 79.155 94.2666 78.9329 95.4382Z" fill="#373430"/>
<path d="M50.6023 116.524C51.5296 116.41 52.457 116.296 53.384 116.182C52.5968 117.437 51.7114 117.893 50.6023 116.524Z" fill="#373430"/>
<path d="M48.4714 114.822C48.7373 114.577 48.9736 114.794 49.2185 114.868C49.4147 115.067 49.6112 115.267 49.8074 115.467C49.967 115.906 50.7221 115.896 50.6151 116.537C49.5422 116.412 48.7857 115.893 48.4714 114.822Z" fill="#373430"/>
<path d="M81.6556 101.68C81.5993 101.313 81.5429 100.945 81.4866 100.579C82.2669 100.834 82.0931 101.237 81.6556 101.68Z" fill="#373430"/>
<path d="M86.1792 75.1226C85.2984 75.162 85.1113 74.7673 85.4877 74.0194C86.117 74.1371 86.2666 74.5556 86.1792 75.1226Z" fill="#373430"/>
<path d="M93.1091 21.8079C93.1091 21.8079 93.1005 21.7421 93.1015 21.7417C93.0542 21.7348 93.0058 21.7275 92.9578 21.7206C93.0083 21.7497 93.0586 21.7788 93.1091 21.8079Z" fill="#373430"/>
<path d="M48.459 53.0294C48.8452 52.8925 48.8044 53.1377 48.7708 53.3764C48.6678 53.2605 48.5634 53.1449 48.459 53.0294Z" fill="#373430"/>
<path d="M72.6896 88.325C73.604 87.7533 73.8142 86.6475 74.5089 85.904C75.4319 87.1564 75.4319 87.1564 74.1802 87.8808C73.2467 88.4211 72.5137 90.9241 73.0061 91.6825C73.3594 92.2267 74.601 92.6051 73.6227 93.4982C72.7897 94.2584 72.1261 93.5658 71.3172 92.6012C71.6882 93.911 70.7887 94.8319 71.4335 95.8109C71.7857 96.544 72.3135 97.2446 72.457 98.0164C72.9284 100.557 73.6784 103.012 74.4771 105.459C74.7918 106.915 75.3413 108.269 76.2426 109.466C76.321 109.969 76.3997 110.474 76.4785 110.979C74.4793 112.594 73.3655 114.714 72.9161 117.299C72.5971 113.593 72.0256 109.981 72.3945 106.324C72.8417 105.9 72.9013 105.51 72.7196 104.839C72.4653 103.9 72.1535 102.963 71.9479 101.998C71.3764 99.3186 71.2803 96.5234 70.1474 93.9706C70.0727 92.8969 70.1088 91.9815 71.1637 91.1909C71.836 90.6868 72.3659 89.7435 72.3688 88.7259L72.3479 88.7519C72.6242 88.7237 72.7247 88.5554 72.712 88.2965L72.6896 88.325Z" fill="#373430"/>
<path d="M81.3957 120.711C80.9759 120.73 80.5558 120.749 80.1349 120.767C79.438 117.009 78.7791 113.243 78.0447 109.494C77.3095 105.743 76.7282 101.948 75.9158 98.1963C78.7936 105.448 79.7036 113.175 81.3957 120.711Z" fill="#ECEFEE"/>
<path d="M65.1514 73.8043C64.4766 73.172 64.6341 71.6957 63.6612 72.064C62.9181 72.3457 61.5298 72.8203 62.2115 74.6176C60.4825 72.4595 60.7397 68.2071 62.3856 66.6579C62.7111 66.3513 62.921 66.4582 63.2035 66.638C64.9079 67.7221 66.0199 71.6928 65.1514 73.8043Z" fill="#373430"/>
<path d="M78.84 118.635C78.1619 119.637 78.5976 120.725 78.728 121.726C79.0242 123.99 79.2027 126.308 80.1355 128.43C80.8482 130.052 79.9617 130.236 79.0419 130.31C77.5077 129.913 80.6579 129.371 78.6612 129.099C78.1583 125.667 77.749 122.214 76.7411 118.882C76.4199 117.818 76.6309 116.885 77.0413 115.934C77.2172 115.528 77.4997 115.372 77.9531 115.44C78.5817 115.534 78.3668 115.921 78.3035 116.285C78.154 117.141 79.0665 117.758 78.84 118.635Z" fill="#ECEFEE"/>
<path d="M48.3434 113.892C47.9745 113.672 47.6537 113.412 47.5598 112.961C49.6107 110.87 51.6951 108.809 53.7052 106.679C56.6643 103.545 59.5702 100.36 62.4986 97.1967L62.5286 97.7991C58.7487 102.469 54.7138 106.915 50.6721 111.356C49.8997 112.204 49.1197 113.046 48.3434 113.892Z" fill="#ECEFEE"/>
<path d="M73.5849 78.8955C72.2157 80.456 72.1456 82.6271 71.038 84.3067C70.6088 84.652 70.1797 85.0008 69.6222 85.4537C69.2501 84.154 69.7566 83.2609 70.3444 82.3064C70.7577 81.6354 71.7923 81.0182 70.9582 79.9811C70.9582 79.9811 70.9741 79.967 70.9744 79.9666C72.435 79.6044 72.5073 78.2346 73.004 77.1729C73.6828 76.4351 73.7435 75.3001 74.6051 74.6789C74.7102 74.6775 74.8182 74.6616 74.919 74.6822C74.9599 74.6901 75.0242 74.7981 75.0101 74.8259C74.3508 76.1184 74.5025 77.6951 73.5849 78.8955Z" fill="#ECEFEE"/>
<path d="M75.1378 82.5813C75.0731 84.2851 73.8669 85.5054 73.2611 86.9802C73.0765 87.4295 72.6195 87.7639 72.6899 88.3251C72.6895 88.3251 72.7123 88.2966 72.7123 88.2966C72.5909 88.4482 72.4692 88.6003 72.3478 88.7516L72.3687 88.726C71.1347 88.766 70.3027 89.2666 70.5216 90.9704C70.3453 90.8624 70.169 90.7544 69.9927 90.6465C69.8248 89.1723 69.6564 87.6985 69.4812 86.1634C70.0011 86.4028 69.8338 86.93 70.0141 87.3295C71.0523 86.4447 71.9717 85.4053 73.3687 85.0442C74.3838 84.782 73.8972 84.1009 73.7144 83.5242L73.6967 83.5516C74.0338 83.5715 74.0988 83.374 74.0612 83.0945L74.0363 83.1215C74.5352 83.2194 74.8333 82.8781 75.1634 82.6069L75.1378 82.5813Z" fill="#373430"/>
<path d="M71.572 125.056C71.2335 123.322 70.8954 121.589 70.5583 119.859C70.3712 118.215 70.183 116.568 69.9951 114.92C71.5709 118.958 71.904 123.245 72.7696 127.438C71.7613 126.899 72.1591 125.75 71.572 125.056Z" fill="#ECEFEE"/>
<path d="M69.7547 78.5951C70.0607 78.374 70.25 77.8797 70.7709 78.1624C70.8432 78.7633 70.2063 79.4444 70.9739 79.967L70.958 79.9811C69.2684 80.2747 68.4318 81.318 68.5636 83.0095C68.6258 83.8055 68.7399 84.5971 68.65 85.4197C67.689 82.9864 66.9817 80.5094 67.2775 77.8399C67.3794 77.7728 67.4903 77.75 67.6099 77.7717C67.6803 78.5286 67.2869 79.5809 68.2323 79.8774C69.0325 80.1288 69.5853 79.4369 69.7547 78.5951Z" fill="#ECEFEE"/>
<path d="M62.5287 97.7993L62.4987 97.1969C62.304 96.397 62.1093 95.5971 61.9146 94.7975C62.05 94.6473 62.1851 94.4971 62.321 94.3469C62.7545 94.2707 63.2707 94.5072 63.2848 94.7943C63.4008 97.1334 65.1796 98.8848 65.4722 101.153C65.5271 101.578 65.8985 102.053 65.3404 102.311C64.7053 102.603 64.4246 102.036 64.206 101.594C63.593 100.354 63.4318 98.9134 62.5287 97.7993Z" fill="#373430"/>
<path d="M70.1474 93.9707C71.28 96.5236 71.3761 99.3187 71.9476 101.998C72.1535 102.963 72.4653 103.9 72.7196 104.839C72.9013 105.51 72.8417 105.899 72.3941 106.324C71.4487 104.095 71.4292 101.663 70.9068 99.3397C70.513 97.5893 69.6897 95.8558 70.1474 93.9707Z" fill="#ECEFEE"/>
<path d="M74.4771 105.459C73.6783 103.012 72.9284 100.557 72.4569 98.0165C72.3139 97.2444 71.7857 96.5442 71.4338 95.8107C72.3532 95.9472 72.9898 96.4611 73.1625 97.3636C73.6762 100.049 74.5381 102.68 74.4771 105.459Z" fill="#ECEFEE"/>
<path d="M63.4885 77.8324C63.542 78.7117 63.6005 79.5907 63.6464 80.4704C63.663 80.7835 63.6706 81.1212 63.2826 81.2331C62.9376 81.3325 62.7306 81.1671 62.5247 80.8684C61.8224 79.8515 61.3036 78.8237 61.9416 77.5781C62.4513 77.6987 63.1059 76.9393 63.4885 77.8324Z" fill="#ECEFEE"/>
<path d="M75.4624 129.829C75.3847 130.344 76.4717 130.484 75.9472 131.06C75.3302 131.737 74.5166 131.226 73.7861 131.189C74.7529 130.317 75.401 129.47 74.526 128.051C74.0553 127.287 74.0621 126.229 73.8056 125.091C74.7305 126.701 75.0646 128.276 75.4624 129.829Z" fill="#ECEFEE"/>
<path d="M65.6678 88.1672C63.7069 87.7587 63.471 85.9682 62.906 84.536C62.6094 83.7837 63.2802 83.7787 63.834 84.0387C63.6783 84.2742 63.7072 84.4706 63.9511 84.6237C63.9952 84.9867 64.0111 85.3612 64.3503 85.6035C64.2527 85.996 64.2318 86.359 64.7039 86.5349C64.8 86.6703 64.8965 86.8061 64.9926 86.9415C65.0262 86.8945 65.0941 86.8108 65.0883 86.8053C64.9753 86.6988 64.8539 86.6009 64.7343 86.5016C64.7422 86.1647 64.7401 85.8314 64.4402 85.5941C64.5374 85.3594 64.6342 85.1246 64.7314 84.8899C65.1414 85.9545 65.5879 87.0087 65.6678 88.1672Z" fill="#ECEFEE"/>
<path d="M62.0438 65.2548C61.6836 63.5553 61.6692 61.9324 61.6331 60.4416C62.012 61.9071 62.6767 63.4824 62.0438 65.2548Z" fill="#ECEFEE"/>
<path d="M76.4785 110.979C76.3998 110.474 76.321 109.969 76.243 109.466C76.1968 108.65 76.1502 107.834 76.0891 106.768C77.1599 108.163 77.058 109.642 77.1646 111.018C77.2025 111.505 76.7228 111.011 76.4785 110.979Z" fill="#ECEFEE"/>
<path d="M54.8684 38.5527C53.7864 37.5964 53.1589 36.3642 52.7222 35.0183C54.1098 35.7893 54.5162 37.1544 54.8684 38.5527Z" fill="#ECEFEE"/>
<path d="M64.4158 62.4171C65.3493 62.2188 65.2546 62.7898 65.4288 63.46C65.6047 64.1364 65.6054 64.8129 65.755 65.4759C64.5256 64.7995 64.3533 63.6598 64.4158 62.4171Z" fill="#ECEFEE"/>
<path d="M66.3177 101.87C65.0901 100.321 66.4803 98.8018 66.0619 97.3107C66.7548 99.1474 66.7862 99.8841 66.3177 101.87Z" fill="#373430"/>
<path d="M49.8076 115.467C49.6114 115.267 49.4149 115.067 49.2188 114.868C50.0757 114.18 50.5634 113.1 51.8581 112.395C51.3943 113.805 50.4319 114.529 49.8076 115.467Z" fill="#ECEFEE"/>
<path d="M84.7873 117.526C84.0677 116.725 84.0536 115.715 83.9094 114.463C84.9665 115.425 84.7194 116.519 84.7873 117.526Z" fill="#ECEFEE"/>
<path d="M52.9015 115.077C52.7848 114.685 52.8535 114.364 53.2559 114.183C53.2971 114.164 53.4149 114.207 53.421 114.237C53.5157 114.691 53.1125 114.82 52.873 115.056L52.9015 115.077Z" fill="#ECEFEE"/>
<path d="M52.8731 115.055C52.7807 115.097 52.6882 115.139 52.5957 115.181C52.6969 115.146 52.798 115.11 52.9002 115.075C52.9017 115.076 52.8731 115.055 52.8731 115.055Z" fill="#ECEFEE"/>
<path d="M54.1953 113.327C54.1884 113.593 54.0706 113.781 53.7975 113.814C53.756 113.819 53.6332 113.642 53.653 113.584C53.7397 113.331 53.9254 113.223 54.1967 113.329L54.1953 113.327Z" fill="#ECEFEE"/>
<path d="M54.8081 112.085C54.8186 112.39 54.8774 112.712 54.5248 112.889L54.5556 112.917C54.3504 112.54 54.63 112.316 54.824 112.065L54.8081 112.085Z" fill="#ECEFEE"/>
<path d="M57.5664 64.0681C57.397 63.9399 57.2275 63.8113 57.0581 63.6827C57.2008 63.8463 57.8301 63.3682 57.5664 64.0681Z" fill="#ECEFEE"/>
<path d="M64.7315 84.89C64.6343 85.1247 64.5371 85.3595 64.4403 85.592C64.4403 85.5895 64.3504 85.6036 64.3504 85.6036C64.0108 85.3613 63.9952 84.9868 63.9512 84.6238C64.2698 84.5411 64.5231 84.6495 64.7315 84.89Z" fill="#373430"/>
<path d="M54.8241 112.065L54.8744 112.031C54.8744 112.031 54.8073 112.086 54.8076 112.086C54.808 112.085 54.8241 112.065 54.8241 112.065Z" fill="#ECEFEE"/>
<path d="M75.1636 82.607C75.2174 82.5098 75.272 82.4131 75.3258 82.3163C75.4981 82.5712 75.3659 82.6099 75.1379 82.5814L75.1636 82.607Z" fill="#373430"/>
<path d="M54.5247 112.889C54.4149 113.035 54.305 113.181 54.1952 113.327L54.197 113.329C54.1349 113.034 54.2458 112.889 54.555 112.917C54.5554 112.917 54.5247 112.889 54.5247 112.889Z" fill="#ECEFEE"/>
<path d="M90.8996 102.574C90.6601 102.437 90.6843 102.28 90.862 102.115C91.172 99.5917 89.6449 97.3566 89.6294 94.7189C91.5061 98.266 93.0075 103.923 93.0693 107.796C91.7344 106.133 92.4125 103.873 90.8996 102.574Z" fill="#ECEFEE"/>
<path d="M98.5177 114.788C97.4437 115.258 96.3697 115.727 95.2957 116.195C95.3954 115.055 95.559 114.138 96.5102 113.128C97.331 112.258 97.1095 110.406 97.5264 108.976C98.3967 110.829 98.676 112.769 98.5177 114.788Z" fill="#ECEFEE"/>
<path d="M78.4353 70.1264C79.0382 70.8314 78.7727 72.0188 79.7611 72.5095C79.8417 72.797 80.1079 73.0845 79.7929 73.3773C79.5552 73.5983 79.2976 73.5175 79.1528 73.2863C78.5791 72.3709 77.8645 71.4937 77.5332 70.4926C77.2836 69.74 78.1069 70.2315 78.4353 70.1264Z" fill="#ECEFEE"/>
<path d="M75.5933 65.785C74.9138 64.4459 74.2346 63.1065 73.5554 61.7674C73.7202 61.6847 73.8849 61.6016 74.05 61.5182C74.8914 62.7757 75.5427 64.1288 75.5933 65.785Z" fill="#ECEFEE"/>
<path d="M77.3234 74.3776C76.4145 73.4203 75.9232 72.2278 75.4409 71.0306C76.7765 71.5174 77.6291 73.032 77.3234 74.3776Z" fill="#ECEFEE"/>
<path d="M83.6823 74.4236C84.0588 74.7783 84.3171 74.9556 84.2932 75.0094C83.9056 75.8916 85.5468 75.9556 85.0248 76.8476C84.9529 76.9707 84.5992 77.0772 84.596 77.0711C84.1913 76.3322 83.54 75.6807 83.6823 74.4236Z" fill="#ECEFEE"/>
<path d="M82.8206 78.2134C82.0248 77.6114 81.54 76.7873 81.1697 75.8831C81.9803 76.4818 82.8293 77.0549 82.7986 78.2398L82.8206 78.2134Z" fill="#ECEFEE"/>
<path d="M76.3595 66.244C76.496 66.5105 76.6329 66.7774 76.7807 67.0652C76.3996 67.2902 76.3125 66.963 76.2067 66.8218C76.1131 66.6969 76.1366 66.4845 76.1084 66.3108C76.1918 66.2884 76.276 66.2664 76.3595 66.244Z" fill="#ECEFEE"/>
<path d="M87.2717 78.487C87.1871 78.5722 87.1015 78.656 87.0162 78.7398C86.9624 78.6073 86.888 78.4773 86.8707 78.34C86.8667 78.3097 87.0632 78.2537 87.1676 78.2097C87.2023 78.3014 87.2362 78.3935 87.2717 78.487Z" fill="#ECEFEE"/>
<path d="M83.8732 72.9542C84.263 73.2255 84.1937 73.5916 84.0806 73.9676C83.2414 73.787 83.9386 73.293 83.8732 72.9542Z" fill="#ECEFEE"/>
<path d="M82.7986 78.24C82.8864 78.3108 82.9742 78.3815 83.0619 78.452L82.8206 78.2136L82.7986 78.24Z" fill="#ECEFEE"/>
<path d="M93.3165 121.713C92.9411 118.444 94.6571 116.338 98.0204 115.904C98.9236 115.788 99.1114 116.593 98.9467 116.968C98.0742 118.957 99.1454 120.742 99.4174 122.594C99.5337 123.386 99.3285 123.727 98.7003 124.111C95.8467 125.852 93.6828 124.906 93.3165 121.713Z" fill="#ECEFEE"/>
<path d="M74.2746 71.8824C74.3121 72.0243 74.3493 72.1662 74.3869 72.3074C73.8262 73.3605 73.2656 74.4143 72.7049 75.4684C72.6316 75.6262 72.5586 75.7844 72.4852 75.9422H72.4878C72.378 75.8942 72.2826 75.9148 72.202 76.0032C72.1514 75.6313 72.1009 75.2597 72.0503 74.8881C73.1424 74.1456 73.0239 72.5075 74.2746 71.8824Z" fill="#ECEFEE"/>
<path d="M100.394 118.832C100.93 120.123 101.102 121.398 100.073 122.9C99.723 121.307 101.025 120.13 100.394 118.832Z" fill="#ECEFEE"/>
<path d="M87.2308 94.9636C87.073 95.0438 86.9375 95.1435 86.7894 95.1702C86.7402 95.1793 86.5849 94.938 86.6019 94.9185C86.7041 94.8 86.8428 94.713 86.9689 94.6155C87.0412 94.7116 87.1134 94.8073 87.2308 94.9636Z" fill="#C0E55B"/>
<path d="M74.061 83.0946C74.0986 83.3737 74.0339 83.5713 73.6965 83.5514C73.8179 83.399 73.9397 83.247 74.061 83.0946Z" fill="#C0E55B"/>
<path d="M73.9384 12.1018C72.7694 15.5485 71.5429 18.8781 70.7684 22.3768C70.5668 20.6679 70.2106 19.0204 69.7301 17.3899C69.2146 15.6402 70.5592 14.6911 71.5592 13.6568C72.2033 12.9906 72.8965 12.3131 73.9384 12.1018Z" fill="#C0E55B"/>
<path d="M65.925 32.3997C66.0356 33.1447 66.1458 33.8901 66.2567 34.6348C66.2574 34.634 66.1627 34.7337 66.1624 34.7337C65.4583 34.0187 65.0128 33.2805 65.9568 32.4192L65.925 32.3997Z" fill="#C0E55B"/>
<path d="M65.9572 32.419C65.7072 31.865 65.9529 31.4281 66.3936 30.9019C66.6292 31.596 66.2087 31.9795 65.9254 32.3995L65.9572 32.419Z" fill="#C0E55B"/>
<path d="M91.3955 37.6599C91.4031 37.6075 91.4002 37.549 91.4233 37.5049C91.436 37.4811 91.4949 37.4822 91.5335 37.4721C91.4815 37.5302 91.4302 37.588 91.3782 37.6458L91.3955 37.6599Z" fill="#C0E55B"/>
<path d="M47.6323 23.6028C48.5192 23.2048 48.7056 24.2828 49.3422 24.4139C49.6091 24.8317 49.8757 25.2492 50.2681 25.8631C48.8259 25.5186 48.1345 24.671 47.6323 23.6028Z" fill="#ECEFEE"/>
<path d="M45.8245 12.5491C45.9355 12.6538 46.0518 12.7538 46.149 12.8701C46.158 12.8809 46.0478 12.9918 45.9929 13.0565C45.93 12.895 45.8668 12.7336 45.804 12.5718L45.8245 12.5491Z" fill="#C0E55B"/>
<path d="M53.4649 103.689C53.9183 103.542 54.372 103.395 55.3279 103.085C52.3641 106.274 49.7981 109.162 46.8669 111.704C45.9659 111.313 46.4561 110.904 46.8044 110.415C48.098 108.598 49.8967 107.273 51.3855 105.647C51.974 105.479 52.4418 105.181 52.5939 104.54C52.5939 104.54 52.5747 104.553 52.5751 104.553C53.1033 104.499 53.4472 104.255 53.4761 103.684L53.4649 103.689Z" fill="#ECEFEE"/>
<path d="M61.6343 94.2673C60.6358 95.0492 60.1427 96.3735 58.8599 96.8502C59.0203 95.4959 60.0863 94.6729 60.845 93.7155C61.3757 93.046 61.6116 93.7097 61.6343 94.2673Z" fill="#ECEFEE"/>
<path d="M52.5942 104.54C52.4421 105.181 51.9742 105.479 51.3857 105.647C51.5573 105.028 51.8886 104.58 52.5942 104.54Z" fill="#C0E55B"/>
<path d="M53.4763 103.684C53.447 104.255 53.1035 104.499 52.575 104.552C52.6678 104.048 52.752 103.534 53.4763 103.684Z" fill="#C0E55B"/>
<path d="M58.8895 96.8203C58.9523 97.3519 58.6211 97.5758 58.1876 97.7202C58.0113 97.1005 58.2396 96.7961 58.8895 96.8203Z" fill="#ECEFEE"/>
<path d="M58.2327 97.6714C58.2052 98.0672 57.8887 98.086 57.6077 98.151C57.7077 97.8502 57.746 97.4688 58.2327 97.6714Z" fill="#ECEFEE"/>
<path d="M72.3479 88.7518C72.4693 88.6001 72.5907 88.4484 72.712 88.2968C72.7247 88.5557 72.6243 88.724 72.3479 88.7518Z" fill="#C0E55B"/>
<path d="M73.004 77.1732C72.8317 76.7629 72.6598 76.353 72.4878 75.9424C72.4878 75.9424 72.4853 75.9424 72.4856 75.9424C72.749 75.872 72.766 75.6885 72.7049 75.4682C73.2656 74.4145 73.8263 73.3607 74.3869 72.3073C75.7041 72.9826 73.9607 73.9392 74.6051 74.6774C73.7435 75.3 73.6828 76.435 73.004 77.1732Z" fill="#373430"/>
<path d="M64.3502 85.6036C64.3502 85.6036 64.4402 85.5895 64.4402 85.5921C64.74 85.8311 64.7422 86.1648 64.7342 86.5014L64.7039 86.535C64.2317 86.3587 64.2523 85.9958 64.3502 85.6036Z" fill="#C0E55B"/>
<path d="M64.7342 86.5015C64.8538 86.6008 64.9752 86.6987 65.0882 86.8052C65.094 86.8106 65.0261 86.8944 64.9925 86.9417C64.8964 86.8059 64.8 86.6705 64.7039 86.5347L64.7342 86.5015Z" fill="#C0E55B"/>
<path d="M72.7049 75.4684C72.7659 75.6883 72.749 75.8721 72.4856 75.9422C72.5586 75.7844 72.6315 75.6262 72.7049 75.4684Z" fill="#C0E55B"/>
<path d="M73.585 78.8956C74.5025 77.6951 74.3508 76.1184 75.0101 74.8259C75.0242 74.7981 74.9599 74.6902 74.9191 74.6822C74.8183 74.6616 74.7103 74.6775 74.6051 74.6775C73.9607 73.9394 75.7041 72.9824 74.3866 72.3078C74.3494 72.1662 74.3122 72.0243 74.2746 71.8824C75.7203 72.4555 76.5697 74.463 75.988 75.6721C75.5769 76.5276 75.0849 77.3528 75.7153 78.4709C76.1246 79.1967 75.7561 80.1931 75.1033 80.9042C74.5824 81.4722 74.4354 80.6593 74.0759 80.5813C73.1789 80.387 73.5897 79.5214 73.585 78.8956Z" fill="#6EA144"/>
<path d="M57.1513 40.1936C56.9627 37.3457 57.1852 34.4155 56.9009 31.4849C55.3204 32.5314 56.725 34.2616 55.5057 35.2515C55.0459 33.994 54.6149 32.8156 54.1767 31.6185C52.7634 32.1699 54.3551 33.0623 53.7898 33.7517C53.1763 32.9095 52.6066 32.0677 51.9668 31.283C51.7548 31.0226 51.5774 30.3303 50.9961 30.8796C50.5948 31.2595 50.0475 31.6058 50.5998 32.2887C51.3249 33.1851 52.0163 34.1081 52.7219 35.0196C54.1098 35.7892 54.5162 37.1543 54.8685 38.5526C56.2561 39.987 55.626 41.8393 55.8952 43.5055C56.0581 43.6608 56.164 43.8334 56.2376 44.0162C56.4894 43.702 56.7857 43.4185 57.1278 43.1744C56.7785 42.221 56.7756 41.1275 57.1513 40.1936Z" fill="#6EA144"/>
<path d="M65.1512 73.8044C64.4764 73.172 64.6339 71.6957 63.661 72.0641C62.9179 72.3457 61.5296 72.8203 62.2113 74.6176C60.4823 72.4595 60.7395 68.2072 62.3854 66.6579C62.7109 66.3513 62.9208 66.4582 63.2033 66.638C64.9077 67.7222 66.0197 71.6928 65.1512 73.8044ZM61.6329 60.4417C62.0122 61.9072 62.6766 63.4821 62.0436 65.2549C61.6835 63.5554 61.669 61.9321 61.6329 60.4417ZM66.3177 101.869C65.0898 100.321 66.4799 98.8016 66.0616 97.3105C66.7545 99.1476 66.7859 99.8839 66.3177 101.869ZM54.5396 112.879C54.3785 112.536 54.6209 112.32 54.8069 112.086C54.8181 112.385 54.873 112.701 54.5396 112.879ZM54.1967 113.326C54.1404 113.053 54.2397 112.916 54.5016 112.92C54.3998 113.055 54.2983 113.191 54.1967 113.326ZM53.7975 113.814C53.756 113.819 53.6332 113.642 53.6527 113.584C53.7394 113.331 53.9247 113.223 54.1949 113.328C54.1881 113.594 54.0703 113.781 53.7975 113.814ZM52.8908 115.041C52.7907 114.667 52.8655 114.359 53.256 114.183C53.2972 114.164 53.4146 114.207 53.4208 114.237C53.5132 114.68 53.1317 114.814 52.8908 115.041V115.041ZM78.0442 109.494C77.4011 106.21 76.8751 102.893 76.209 99.5997C75.3741 97.5799 74.3918 95.62 73.4009 93.6656C72.669 94.1271 72.0527 93.4785 71.3172 92.601C71.6882 93.9108 70.7886 94.8317 71.4335 95.8107C72.3529 95.9469 72.9894 96.4611 73.1621 97.3636C73.6762 100.049 74.5378 102.68 74.4767 105.459C74.7917 106.916 75.3412 108.269 76.2429 109.467C76.1963 108.65 76.1497 107.834 76.0887 106.768C77.1594 108.163 77.0579 109.642 77.1645 111.018C77.2021 111.505 76.7223 111.011 76.4781 110.979C74.4789 112.594 73.3655 114.714 72.9161 117.299C72.5971 113.593 72.0256 109.982 72.3937 106.324C71.4487 104.095 71.4292 101.663 70.9068 99.3397C70.513 97.5889 69.6897 95.8559 70.1474 93.9708C70.0726 92.8971 70.1087 91.9816 71.1636 91.1908C71.4046 91.0102 71.6253 90.7715 71.8121 90.4952C71.6477 90.1586 71.4851 89.8217 71.3255 89.4833C71.2554 89.3345 71.1965 89.1832 71.1452 89.0305C70.6459 89.3432 70.3884 89.9329 70.5217 90.9705C70.3454 90.8621 70.1691 90.7545 69.9928 90.6462L69.4812 86.1634C70.0011 86.4029 69.8335 86.9297 70.0141 87.3295C70.3826 87.0157 70.7366 86.6827 71.1018 86.3671C71.362 85.4072 71.8977 84.5141 72.6177 83.8276C72.1426 84.1624 71.6936 84.5867 71.0383 84.3032C70.6087 84.6521 70.1792 85.0009 69.6218 85.4534C69.25 84.1537 69.7565 83.261 70.3443 82.3065C70.7576 81.6355 71.7919 81.0184 70.9577 79.9812C69.2681 80.2748 68.4318 81.3177 68.5636 83.0096C68.6258 83.8052 68.7399 84.5968 68.65 85.4198C67.689 82.9862 66.9817 80.5092 67.2772 77.84C66.6277 77.2091 66.3719 76.3637 66.4925 75.5497C67.0001 72.1273 66.1949 68.8189 65.7549 65.477C64.5255 64.7995 64.3532 63.6598 64.4157 62.4171C64.2079 60.1662 63.5042 57.899 64.5165 55.6896C63.7246 55.7192 63.0534 55.5213 62.5064 55.1757C62.3626 55.1916 62.2221 55.2006 62.0852 55.2028C62.1444 55.3382 62.204 55.4729 62.2535 55.6145C61.9252 55.652 61.764 55.721 61.7012 55.6701C61.4996 55.5061 61.3005 55.2941 61.0986 55.0843C60.5238 54.9352 60.0376 54.6513 59.6467 54.2747C59.5744 54.2898 59.5015 54.3118 59.4267 54.349C58.8078 54.6582 59.2197 55.9745 59.2948 56.8282C59.5596 59.8336 59.91 62.8317 60.1752 65.837C60.2684 66.8963 60.4834 68.0031 59.7948 69.0674C59.7619 68.8948 59.7356 68.7211 59.7142 68.5466C59.7067 69.1631 59.6124 69.7691 59.4451 70.3534C59.841 70.8138 59.9845 71.3667 59.8902 72.1388C59.7525 73.2605 60.0137 74.4309 60.1012 75.5801C61.4071 75.6089 61.367 76.8762 61.9414 77.5782C62.4511 77.6988 63.1057 76.9394 63.4883 77.8324C63.8344 79.8891 64.7003 81.9165 63.8344 84.0407C63.678 84.274 63.7072 84.4704 63.9511 84.6239C64.2697 84.5412 64.523 84.6495 64.7314 84.8901C65.1414 85.9543 65.588 87.0085 65.6678 88.167C65.2303 90.631 66.6988 92.6963 67.0464 95.0289C65.8394 93.679 65.7054 91.7837 64.6443 90.3381C64.8918 92.0311 64.7954 93.6999 64.8127 95.455C63.8431 94.9801 64.1541 94 63.6567 93.4074C63.3268 93.0148 63.4562 92.0976 62.635 92.3081C61.8764 92.5027 62.1434 93.2228 62.216 93.779C62.2405 93.9693 62.2857 94.1571 62.3215 94.3463C62.7546 94.2709 63.2705 94.5074 63.2846 94.7941C63.4005 97.1336 65.1794 98.8851 65.4724 101.153C65.5269 101.578 65.8983 102.053 65.3401 102.31C64.705 102.603 64.4243 102.037 64.2058 101.595C63.5927 100.355 63.432 98.9136 62.5285 97.7991C58.7486 102.469 54.7137 106.915 50.6719 111.355C49.8996 112.204 49.12 113.046 48.3433 113.892C48.4805 114.187 48.6514 114.477 48.4784 114.816C48.7414 114.582 48.9755 114.795 49.2186 114.87C50.0755 114.18 50.5632 113.1 51.8579 112.395C51.3937 113.805 50.4317 114.53 49.8074 115.467C49.9653 115.903 50.7066 115.898 50.6152 116.522C51.5379 116.409 52.4609 116.295 53.3835 116.182C53.7954 115.712 54.4558 115.48 54.679 114.829C54.7256 114.178 54.791 113.542 55.5547 113.291C55.7321 113.233 55.9441 113.152 56.0467 113.013C57.2255 111.416 58.409 109.823 59.534 108.189C59.8143 107.782 59.9697 107.158 59.5036 106.782C59.0748 106.436 58.6915 106.955 58.3238 107.137C57.3621 107.614 56.4322 108.154 55.3047 108.77C55.4947 107.921 55.9687 107.526 56.5294 107.118C57.7494 106.23 59.2547 105.824 60.3074 104.608C60.8251 104.011 61.7355 104.172 62.2301 105.023C62.9959 104.797 63.5212 104.295 63.9254 103.62C64.1671 103.217 64.3929 102.593 64.9774 102.808C65.3372 102.942 66.0052 103.154 65.6682 103.911C65.5125 104.261 66.1002 104.622 66.1208 104.612C67.4351 103.93 67.0655 105.174 67.1392 105.597C67.5644 108.035 68.098 110.462 68.1327 112.953C68.62 115.37 69.1175 117.782 70.5589 119.863L69.995 114.92C71.5708 118.958 71.9038 123.245 72.7694 127.438C71.7611 126.898 72.1585 125.75 71.5718 125.056C71.38 125.665 71.1416 126.265 71.2511 126.926C71.307 127.417 71.363 127.909 71.4194 128.402C72.1307 128.753 72.0895 129.5 72.0805 130.058C72.0585 131.453 72.8117 131.429 73.786 131.189C74.7527 130.317 75.4008 129.47 74.5259 128.051C74.0551 127.287 74.062 126.229 73.8055 125.091C74.7303 126.701 75.0645 128.276 75.4622 129.829C76.6425 130.084 77.6005 129.366 78.6612 129.099C78.1583 125.667 77.749 122.214 76.7411 118.882C76.4196 117.819 76.6306 116.885 77.0413 115.933C77.2169 115.527 77.4997 115.372 77.9531 115.44C78.5817 115.534 78.3668 115.922 78.3032 116.285C78.1536 117.141 79.0665 117.759 78.84 118.635C79.3945 119.271 78.4426 120.82 80.1337 120.766C79.4379 117.009 78.779 113.243 78.0442 109.494" fill="#6EA144"/>
<path d="M84.7874 117.526C84.0678 116.725 84.0537 115.715 83.9096 114.463C84.9666 115.425 84.7195 116.519 84.7874 117.526ZM84.006 109.659C83.8829 109.175 83.6083 108.715 83.3388 108.284C83.108 107.915 82.8247 107.415 82.3468 107.492C81.7352 107.59 81.7341 108.143 81.6965 108.694C81.6521 109.346 81.4108 109.984 81.2587 110.614C80.4979 110.502 80.7681 110.086 80.7291 109.733C80.5896 108.477 81.2352 107.299 81.2424 106.042C79.8013 105.781 78.4492 104.974 77.7498 103.719C79.2981 109.303 80.1272 115.061 81.3956 120.711C81.4577 120.824 81.5199 120.937 81.582 121.05C82.8168 121.096 82.8049 120.298 82.4649 119.535C81.8674 118.195 81.8367 116.805 81.7272 114.908C82.8529 116.895 82.8717 118.749 83.6069 120.348C85.8138 119.735 86.2256 118.876 85.5949 116.28C85.0595 114.074 84.5638 111.859 84.006 109.659" fill="#6EA144"/>
<path d="M46.2139 46.5562C44.6214 48.1167 45.9545 49.1777 46.5733 50.4048C47.0661 51.3828 48.6639 51.5608 48.4873 53.0216C48.8398 52.9093 48.803 53.1444 48.7708 53.3762C49.5085 54.1288 49.5714 56.1508 51.4561 54.7904C51.5533 54.72 52.0478 55.0049 52.1956 55.2303C53.6486 57.4494 55.2193 59.6018 56.3696 61.9965C58.0725 63.2543 59.2773 65.1968 59.6339 67.4297C59.6361 67.4434 59.6372 67.4568 59.6393 67.4705C59.5728 65.1932 59.9489 62.8722 58.0801 61.0301C58.6321 60.5216 58.7611 61.6422 59.1252 61.2457C59.2694 61.0889 59.1108 60.64 59.0613 60.3284C59.0425 60.2107 58.9688 60.0713 58.8753 60.0001C57.5325 58.9702 57.2315 57.4422 58.022 56.2187C58.8034 55.0096 58.0577 54.6716 57.4501 54.2101C56.5632 53.5362 55.7648 52.9887 56.2453 51.6294C56.698 50.3474 55.155 50.1376 54.6879 48.7952C54.8093 49.8613 54.9061 50.4297 54.9285 51.001C54.9444 51.4033 55.3356 52.1029 54.2378 51.5698C53.7143 51.316 53.8234 52.4225 53.8978 52.9169C54.0532 53.954 54.7735 54.8977 54.4401 56.2277C52.5894 55.0515 52.0876 53.2596 51.8462 51.4709C51.6078 49.7013 51.1421 48.1564 49.9691 46.7541C49.1621 45.7892 48.4193 44.6671 48.1964 43.3782C47.9092 41.7188 46.2471 41.5282 45.3541 40.5325C44.6576 41.6762 45.327 42.9384 45.0618 44.1236C45.0614 44.1236 45.0925 44.1605 45.0925 44.1605C46.3631 44.5711 47.0256 45.7606 46.2139 46.5562Z" fill="#6EA144"/>
<path d="M85.0248 76.8476C84.9529 76.9707 84.5993 77.0772 84.596 77.0711C84.1914 76.3322 83.5404 75.6807 83.6824 74.4236C84.0588 74.7783 84.3171 74.9556 84.2936 75.0094C83.9056 75.8916 85.5468 75.9556 85.0248 76.8476ZM82.798 78.1946C82.0159 77.594 81.5361 76.7782 81.1695 75.883C81.9697 76.4738 82.8052 77.0411 82.798 78.1946V78.1946ZM76.2069 66.8218C76.1133 66.6968 76.1364 66.4845 76.1082 66.3108C76.192 66.2884 76.2755 66.2664 76.3597 66.244C76.4962 66.5105 76.6331 66.7774 76.7809 67.0655C76.3998 67.2905 76.3127 66.963 76.2069 66.8218V66.8218ZM75.5934 65.785C74.9139 64.4459 74.2347 63.1068 73.5556 61.7677C73.7203 61.6847 73.885 61.6016 74.0498 61.5182C74.8911 62.7756 75.5429 64.1288 75.5934 65.785V65.785ZM87.1678 78.2097C87.2021 78.3015 87.2364 78.3932 87.2711 78.4849C87.187 78.5723 87.1017 78.6557 87.0164 78.7395C86.9622 78.607 86.8882 78.477 86.8705 78.3398C86.8669 78.3098 87.0634 78.2538 87.1678 78.2097ZM98.5536 106.934C98.5576 105.138 98.6558 103.333 98.1941 101.593C97.8192 100.18 97.2437 98.8128 95.847 97.5571C95.7864 100.035 97.1476 102.283 95.9894 104.472C95.2315 103.925 95.5732 102.842 95.191 102.031C94.3359 101.08 94.3377 99.8062 93.9512 98.6827C92.1098 93.3322 89.3823 88.3598 87.3549 83.0915C87.0092 82.1927 86.5085 81.2909 86.6266 80.079C87.2563 80.3245 87.8773 80.7185 88.3115 80.1783C88.7787 79.5965 88.4373 78.9356 88.1342 78.3885C87.52 77.2791 86.8351 76.2087 86.1787 75.1224C85.2983 75.1621 85.1112 74.7671 85.4876 74.0192C85.4876 74.0195 85.4645 73.9917 85.4645 73.9917C84.9916 74.6587 84.5375 74.1893 84.0798 73.9686C83.2413 73.787 83.9385 73.2929 83.8731 72.9542C84.3222 70.4757 82.2175 69.2024 81.1944 67.1334C80.2555 68.9553 79.6171 70.6187 79.7613 72.5096C79.8415 72.7967 80.1081 73.0845 79.7931 73.3774C79.555 73.5981 79.2974 73.5172 79.1529 73.2864C78.5792 72.3709 77.8647 71.4934 77.5334 70.4923C77.2838 69.7397 78.1071 70.2316 78.4355 70.1265C78.2729 67.4422 77.3459 64.8316 77.8509 62.062C77.9788 61.3611 76.9261 60.6569 76.7592 59.7613C76.7094 59.4929 76.3365 59.2737 76.7841 59.0347C76.308 58.1802 75.8322 57.3254 75.3557 56.471C73.7861 55.2229 74.3099 53.2609 73.7189 51.6795C73.4559 50.9753 73.82 49.6163 72.746 49.7853C72.1546 49.8789 71.4689 51.1316 71.75 52.2183C71.841 52.5697 72.0694 52.9355 71.6839 53.2847C69.9285 52.0088 70.3306 50.0634 70.1326 48.3079C69.2938 46.8139 70.0228 44.7605 69.1305 43.5944C67.5374 41.5125 68.339 39.4544 68.5048 37.4021C68.1089 37.4255 67.7339 37.4089 67.3806 37.3551C67.653 38.0113 67.8545 38.7054 67.8629 39.4909C66.9041 39.2258 66.8087 37.9391 65.7972 37.9304C65.5472 40.1969 65.868 42.4312 66.4456 44.6457C66.5345 44.9859 66.342 45.2618 65.9702 45.356C65.8651 46.5293 66.761 47.4354 66.8325 48.5632C67.1201 48.5047 67.2798 47.7879 67.3195 48.0613C67.8119 51.4494 71.2789 53.449 71.4267 57.0069C70.3675 57.0069 70.5878 55.4826 69.5871 55.4371C69.3028 56.0336 69.7692 56.4211 69.9379 56.8791C70.2941 57.8462 70.5134 58.6753 70.362 59.8635C70.2056 61.0888 69.6345 63.5322 72.2717 63.8706C72.384 63.885 72.5831 64.0057 72.5762 64.0537C72.1727 66.9399 74.6209 68.6527 75.4406 71.0315C76.7769 71.5176 77.6288 73.0322 77.3235 74.3778C78.6027 76.0516 78.9499 78.2831 80.5015 79.7832C81.9942 81.2267 84.467 81.2144 85.8647 83.1927C85.6108 83.2873 85.3691 83.3046 85.1372 83.2862C86.3369 84.6303 87.5544 85.9384 88.0861 87.7307C88.5146 89.1748 88.2801 90.5829 87.3824 91.5984C87.804 92.5771 88.1353 93.6265 88.5626 94.6009C88.774 95.0826 88.4853 95.768 88.3022 95.8392C86.217 96.6528 88.05 97.2317 88.4647 97.6499C89.7223 98.9175 89.3401 101.025 90.8591 102.118C91.172 99.5914 89.645 97.3567 89.6298 94.7186C91.5058 98.266 93.0076 103.923 93.0693 107.796C91.7341 106.132 92.4126 103.873 90.8996 102.574C90.918 102.764 90.9693 103.117 90.9509 103.121C88.6071 103.586 89.4762 105.345 89.8581 106.475C91.1023 110.156 92.0686 113.9 92.8703 118.017C93.6571 117.09 94.2745 116.321 95.2954 116.196C95.3955 115.055 95.5588 114.138 96.5103 113.128C97.3307 112.258 97.1093 110.406 97.5262 108.976C98.3968 110.829 98.6761 112.769 98.5178 114.789C99.2537 115.052 99.7331 115.329 99.6363 114.008C99.4604 111.608 98.5482 109.332 98.5536 106.934" fill="#6EA144"/>
<path d="M83.6567 47.8973C84.1971 47.2841 84.3228 46.5727 84.1758 45.7869C83.9789 44.7302 84.3806 43.7335 84.8091 42.8639C85.0248 42.4272 85.1306 41.3987 86.1443 41.6086C87.1688 41.8205 86.809 42.6865 86.9644 43.3095C87.1771 44.1621 86.3506 45.0635 87.192 45.879C87.8509 45.6121 87.5709 44.9545 87.5218 44.4666C87.292 42.1712 88.6713 40.4407 89.6062 38.5808C89.8674 38.0611 90.6152 37.6151 91.3956 37.6599L91.3782 37.6458C92.0484 39.2677 91.7655 40.6985 90.5679 41.9841C90.3179 42.2521 90.1546 42.6327 90.0408 42.9899C89.2255 45.5464 88.2674 47.9573 86.1053 49.7998C84.985 50.755 84.2105 52.1627 84.2849 53.9683C85.2043 53.7282 85.614 53.1301 86.0442 52.5205C87.46 50.5145 87.5594 50.5155 88.7526 52.3537C88.279 54.2865 86.9275 55.7462 85.8531 57.303C84.6252 59.0834 83.3521 60.7139 83.661 63.0273C83.7412 63.6322 83.1115 63.3549 82.9222 63.6236C82.7745 63.7417 82.5783 63.832 82.4884 63.9847C82.2568 64.3783 83.1318 65.0132 82.1 65.3119C81.2485 65.5582 80.9888 64.9782 80.5365 64.5968C79.1868 63.4585 79.9671 62.0606 80.0607 60.7464C81.8851 57.7981 82.6105 54.3825 84.0837 51.2844C84.2697 50.8926 83.894 50.799 83.6751 50.5762C82.8287 49.7164 82.5837 48.7965 83.6567 47.8973Z" fill="#6EA144"/>
<path d="M70.3085 30.2125C70.1192 30.2125 69.8028 30.2822 69.7598 30.2031C68.8108 28.4581 68.857 26.1545 66.8228 25.0194C67.6197 23.6558 66.5652 21.9336 67.5977 20.6844C67.9362 20.2749 67.8549 19.6978 68.4372 19.3489C69.1063 20.1351 69.3469 21.0784 69.3761 22.0701C69.4188 23.5316 70.3808 23.9404 71.5578 23.8898C72.328 23.8562 72.0346 24.3141 72.0227 24.5828C71.9671 25.8277 71.5831 26.9811 70.8421 27.9858C70.4064 28.5762 70.0484 29.1497 70.3544 29.9106C70.3884 30.0186 70.3728 30.1194 70.3085 30.2125Z" fill="#6EA144"/>
<path d="M33.4612 29.6744C33.5345 28.8106 33.7509 28.2902 34.4669 29.3202C35.2057 30.3819 36.1464 31.2074 37.2573 31.8517C38.0531 32.3136 38.6196 33.1731 38.0748 33.8336C37.517 34.5104 36.8263 33.6667 36.391 33.1666C35.8719 32.5711 35.443 32.2479 34.9091 33.0983C34.9185 31.7506 33.5602 30.9792 33.4612 29.6744Z" fill="#6EA144"/>
<path d="M93.7285 21.3224C93.7918 21.3134 93.8546 21.304 93.9171 21.2946C93.7856 23.7113 94.4135 26.2721 92.5718 28.523C91.7109 27.1883 92.5068 25.8456 92.2029 24.6127C91.9504 23.483 92.7784 22.6918 93.1014 21.7424C93.1003 21.7427 93.109 21.8081 93.109 21.8081C93.3153 21.646 93.5223 21.4842 93.7285 21.3224Z" fill="#6EA144"/>
<path d="M69.1756 15.2222C67.8483 13.4361 69.3251 12.348 70.1409 11.1093C70.1008 12.5249 70.7854 14.106 69.1756 15.2222Z" fill="#6EA144"/>
<path d="M75.5728 7.26837C75.4207 6.1615 75.3683 5.2175 76.2039 4.61621C76.3842 4.48656 77.4192 5.01815 77.4272 5.26553C77.4629 6.37962 76.3925 6.61039 75.5728 7.26837Z" fill="#6EA144"/>
<path d="M72.0014 12.158C71.9205 11.0923 72.3295 10.2498 72.8872 9.39571C73.798 10.7445 72.6831 11.4076 72.0014 12.158Z" fill="#6EA144"/>
<path d="M42.5753 35.4418C42.8885 36.6368 43.5236 37.796 42.9954 39.0932C40.9157 38.0618 40.7849 36.8163 42.6006 35.4624L42.5753 35.4418Z" fill="#6EA144"/>
<path d="M42.6007 35.4623C42.66 34.5386 42.7189 33.6148 42.7861 32.5628C44.3676 34.9763 44.3514 35.1272 42.5754 35.4418L42.6007 35.4623Z" fill="#6EA144"/>
<path d="M91.3086 34.8891C90.8531 33.9646 91.201 33.2943 91.4185 32.6652C91.7317 31.7584 92.6449 31.8455 93.3938 31.6646C93.6261 31.6086 93.7461 31.619 93.7522 31.8245C93.7717 32.485 93.5354 33.0914 93.0745 33.5345C92.5799 34.0097 91.9842 34.3799 91.3086 34.8891Z" fill="#6EA144"/>
<path d="M95.1171 33.4741C93.4394 31.4402 95.6818 31.6095 96.4838 31.0292C96.0517 31.802 95.6196 32.5748 95.1171 33.4741Z" fill="#6EA144"/>
<path d="M51.0151 23.2861C49.6998 21.6231 49.7135 19.9745 49.9751 18.2757C50.0296 17.9196 49.9559 17.4245 50.4956 17.4494C50.8381 17.4653 50.923 17.8568 51.018 18.1645C51.5176 19.7809 51.5693 21.4017 51.0151 23.2861Z" fill="#6EA144"/>
<path d="M47.6324 23.6028C46.838 22.2604 46.3514 20.808 45.812 18.773C47.64 20.6899 48.5392 22.5219 49.3422 24.4139C48.7057 24.2828 48.5193 23.2048 47.6324 23.6028Z" fill="#6EA144"/>
<path d="M52.7435 23.6558C53.6098 25.3722 53.9931 26.5459 53.0788 27.8969C52.5683 26.6181 52.5643 25.4199 52.7435 23.6558Z" fill="#6EA144"/>
<path d="M61.9146 94.7976C62.1093 95.5971 62.304 96.397 62.4983 97.1969C59.57 100.36 56.664 103.545 53.7053 106.679C51.6949 108.809 49.6108 110.869 47.5596 112.961C47.1741 112.628 46.828 112.272 46.867 111.704C49.7979 109.162 52.3639 106.274 55.3281 103.086C54.3718 103.395 53.9184 103.542 53.4647 103.689C53.8238 101.708 55.6323 100.808 56.6983 99.3536C56.9953 98.9484 57.3042 98.5519 57.6076 98.1511C57.8887 98.086 58.2051 98.0673 58.2326 97.6715C58.2326 97.6715 58.1874 97.7206 58.1874 97.7202C58.621 97.5758 58.9522 97.3519 58.8894 96.8203L58.8597 96.8502C60.1426 96.3736 60.6357 95.0493 61.6342 94.2674C61.7274 94.444 61.821 94.621 61.9146 94.7976Z" fill="#6EA144"/>
<path d="M72.202 76.0033C72.2825 75.9145 72.3779 75.8942 72.4877 75.9426C72.6597 76.3529 72.8316 76.7631 73.004 77.173C72.5072 78.2347 72.435 79.6045 70.9744 79.9667C70.2064 79.4442 70.8429 78.7634 70.7707 78.1625C71.2479 77.4428 71.7251 76.723 72.202 76.0033Z" fill="#6EA144"/>
<path d="M69.7549 78.5951C69.5854 79.4369 69.0327 80.1288 68.2325 79.8775C67.2871 79.581 67.6805 78.5286 67.6101 77.7717C68.3297 77.9447 67.8608 76.6778 68.7849 76.8873C69.8806 77.135 69.5605 77.9613 69.7549 78.5951Z" fill="#6EA144"/>
<path d="M96.9626 118.328C96.9626 118.328 98.0236 120.75 97.5142 123.165C97.0052 125.58 94.1711 122.392 94.1711 122.392" fill="#6EA144"/>
<path d="M97.0924 123.444C96.0105 123.567 94.4986 121.907 94.3234 121.709C94.2529 121.63 94.2594 121.508 94.3393 121.437C94.4191 121.366 94.5409 121.374 94.612 121.453C95.0643 121.962 96.3966 123.243 97.1257 123.046C97.3663 122.983 97.5332 122.736 97.622 122.314C98.1115 119.99 97.0924 117.618 97.0823 117.594C97.0397 117.496 97.0841 117.383 97.1813 117.34C97.281 117.296 97.393 117.342 97.4356 117.439C97.4801 117.54 98.5154 119.946 97.9999 122.394C97.8782 122.97 97.6173 123.315 97.2243 123.419C97.1813 123.431 97.1372 123.439 97.0924 123.444Z" fill="#373430"/>
<path d="M64.528 57.7148C64.5053 57.6021 62.2647 46.42 60.5437 43.6938L61.1961 43.2821C62.993 46.1282 65.192 57.0983 65.2849 57.5642L64.528 57.7148Z" fill="#373430"/>
<path d="M56.8798 64.3508L47.5691 52.5522L48.1753 52.074L57.486 63.873L56.8798 64.3508Z" fill="#373430"/>
<path d="M72.9063 50.7814C72.6838 50.4008 67.4867 41.3696 69.5415 33.0332L70.2908 33.2174C68.3104 41.2533 73.5201 50.3015 73.5728 50.3921L72.9063 50.7814Z" fill="#373430"/>
<path d="M76.8558 60.1411C76.8276 60.1444 76.8013 60.1455 76.7763 60.1465L76.7424 59.3755C76.7128 59.3773 76.6947 59.3849 76.6943 59.3853C77.617 58.9454 80.9622 50.3533 83.6627 42.3004L84.3949 42.5456C84.3805 42.5886 82.9253 46.9204 81.3091 51.2038C78.1582 59.5528 77.2904 60.0917 76.8558 60.1411Z" fill="#373430"/>
<path d="M84.8713 40.6186L84.2734 40.1303C84.3056 40.0913 87.4774 36.1647 88.1895 31.699C88.6024 29.1078 89.7147 22.2015 89.7147 22.2015L90.477 22.3243C90.477 22.3243 89.3647 29.2295 88.9514 31.8203C88.2057 36.4959 85.0072 40.4525 84.8713 40.6186Z" fill="#373430"/>
<path d="M56.8653 49.2149C56.4975 47.2233 51.8123 37.5731 51.7646 37.4759L52.4593 37.1386C52.6541 37.5395 57.2381 46.9809 57.625 49.0748L56.8653 49.2149Z" fill="#373430"/>
<path d="M83.2411 106.267L64.0947 62.5575L64.7367 62.2765L83.8827 105.986L83.2411 106.267Z" fill="#323024"/>
<path d="M83.899 73.0607C82.1317 73.8125 80.7066 75.0512 79.3457 76.3788C77.9242 77.7655 76.4737 78.985 74.7379 79.9666C72.9894 80.9547 71.1321 81.7156 69.2576 82.4281C67.4108 83.1301 65.3361 84.1315 63.3654 83.3847C62.4807 83.0496 61.445 83.7567 61.2109 84.6075C60.9407 85.592 61.5465 86.4247 62.4341 86.7613C64.7151 87.6255 67.1381 86.9444 69.3244 86.1304C71.4844 85.3265 73.6494 84.4905 75.697 83.4277C77.7009 82.3873 79.518 81.0695 81.1491 79.5094C82.5602 78.1599 83.8383 76.8619 85.667 76.0841C86.5373 75.7139 86.7295 74.4312 86.2953 73.6887C85.7682 72.7884 84.7729 72.6887 83.899 73.0607Z" fill="#231F20"/>
<path d="M83.8991 72.5104C80.1882 74.0933 77.8718 77.7089 74.4345 79.7363C72.6162 80.8089 70.6694 81.6222 68.7009 82.3733C66.8191 83.0909 64.6765 84.1472 62.6646 83.3848C61.7799 83.0497 60.7438 83.7565 60.5101 84.6076C60.2395 85.5917 60.8453 86.4249 61.7333 86.7611C64.1227 87.6664 66.6356 86.8774 68.9115 86.0222C71.1159 85.1941 73.3279 84.3343 75.4019 83.2115C77.4026 82.1295 79.159 80.7446 80.8067 79.1863C82.303 77.7714 83.7437 76.3539 85.6671 75.5338C86.5374 75.1629 86.7299 73.8816 86.2953 73.1384C85.7686 72.2385 84.7726 72.1377 83.8991 72.5104Z" fill="#C39746"/>
<path d="M84.7829 70.1316C82.793 70.3703 80.912 71.1666 79.2122 72.2146C77.3333 73.3727 75.7543 74.991 74.065 76.3987C72.3454 77.8313 70.5301 79.1635 68.5161 80.1559C67.5793 80.6171 66.6 80.9768 65.5866 81.2288C65.0664 81.3581 64.5397 81.4646 64.0054 81.512C63.8569 81.525 63.2601 81.4733 63.2005 81.5481C63.2121 81.5506 63.2229 81.5531 63.2341 81.5557C63.3443 81.738 63.4765 81.9045 63.6312 82.0555C63.1243 79.8605 59.7462 80.7897 60.2534 82.9865C60.9112 85.8365 64.794 85.0731 66.8052 84.5307C69.2841 83.8622 71.5969 82.6058 73.6716 81.1143C75.8782 79.5283 77.8279 77.6565 79.9402 75.9585C81.2071 74.9397 83.2732 73.8144 84.7829 73.6331C85.7221 73.5208 86.5346 72.9091 86.5346 71.8824C86.5346 71.0236 85.7283 70.0182 84.7829 70.1316Z" fill="#231F20"/>
<path d="M84.3175 69.5787C80.103 70.1807 77.0811 73.3655 74.0465 76.0169C72.3587 77.4918 70.5875 78.8703 68.5937 79.911C67.6656 80.3957 66.7054 80.7854 65.6946 81.062C65.1798 81.2028 64.652 81.3249 64.122 81.3928C63.872 81.4249 63.5498 81.3729 63.3182 81.448C63.329 81.4538 63.3399 81.4596 63.3507 81.4657C62.8963 81.3122 63.0231 81.4852 63.7308 81.985C63.1733 79.8031 59.7938 80.7279 60.353 82.9157C61.0929 85.8109 65.0071 84.942 67.0533 84.3136C69.5767 83.5386 71.8685 82.1934 73.954 80.5976C76.0786 78.9717 77.9351 77.0559 80.0022 75.3687C81.4187 74.2124 83.3916 73.2203 85.2484 72.9553C86.1859 72.8213 86.6996 71.6303 86.4716 70.8015C86.1949 69.7946 85.2575 69.4443 84.3175 69.5787Z" fill="#C39746"/>
<g opacity="0.789993">
<g opacity="0.789993">
<path opacity="0.789993" d="M86.6617 73.5803C86.4041 74.0548 85.9247 74.4019 85.2185 74.3983C84.2955 74.3932 83.1344 74.1939 82.2832 74.6012C81.8664 74.8006 81.5325 75.2076 81.206 75.5279C80.7139 76.0104 80.2324 76.5047 79.7367 76.9843C77.8795 78.7799 75.7419 80.3714 73.5321 81.7076C71.6835 82.8257 69.6572 83.7989 67.5403 84.3164C67.4243 84.3818 67.3062 84.4334 67.1898 84.4518C66.6884 84.5302 66.1837 84.61 65.678 84.6837C65.3991 84.809 65.1216 84.9368 64.8341 85.0426C63.9291 85.3745 62.9787 85.4554 62.0322 85.2828C61.4249 85.1719 60.8606 84.9065 60.344 84.5652C60.5362 85.0333 60.9278 85.415 61.4339 85.6284C63.7886 86.6204 66.3286 85.9235 68.6342 85.1521C70.8675 84.4052 73.1094 83.6263 75.2235 82.5804C77.2614 81.5722 79.0677 80.2522 80.7714 78.7553C82.3186 77.396 83.8099 76.0324 85.7618 75.2827C86.416 75.0317 86.7148 74.2679 86.6617 73.5803Z" fill="#948953"/>
</g>
</g>
<g opacity="0.789993">
<g opacity="0.789993">
<path opacity="0.789993" d="M86.6881 70.4345C86.428 70.6298 86.0903 70.7494 85.6748 70.7479C84.2637 70.7425 82.7999 70.6204 81.4242 70.9986C80.0912 71.3647 78.8763 72.2661 77.808 73.1173C75.6275 74.8544 73.7323 76.9193 71.5301 78.63C69.5287 80.1851 67.2629 81.3667 64.7673 81.8809C63.4303 82.1565 61.7266 82.3779 60.2783 82.0044C61.0984 84.597 64.8407 83.9112 66.8399 83.3767C69.39 82.6946 71.7288 81.4338 73.8718 79.9149C76.0545 78.3682 77.9796 76.521 80.1067 74.9107C81.5644 73.8067 83.5727 72.8876 85.4378 72.6905C86.3796 72.5911 86.9363 71.4196 86.7391 70.5829C86.7264 70.5294 86.7044 70.4847 86.6881 70.4345Z" fill="#948953"/>
</g>
</g>
</g>
<defs>
<clipPath id="clip0_109_15614">
<rect width="133" height="133" fill="white"/>
</clipPath>
</defs>
</svg>
