<svg width="113" height="34" viewBox="0 0 113 34" fill="none" xmlns="http://www.w3.org/2000/svg">
<path d="M20.6287 15.2908C19.8668 16.2051 19.162 16.948 18.5144 17.5195C17.8858 18.0909 17.3049 18.529 16.7715 18.8338C16.2382 19.1385 15.7429 19.3386 15.2858 19.4338C14.8477 19.5481 14.4476 19.5862 14.0857 19.5481C13.7619 19.529 13.4667 19.4433 13.2 19.2909C12.9524 19.1576 12.7238 18.9957 12.5143 18.8052C12.3238 18.5957 12.1524 18.3766 12 18.148C11.8476 17.9004 11.7333 17.6718 11.6571 17.4623C11.0476 18.0719 10.3904 18.5862 9.68562 19.0052C8.98085 19.4052 8.25702 19.5957 7.51414 19.5767C6.99985 19.5576 6.54269 19.4528 6.14268 19.2624C5.72362 19.0719 5.36171 18.8433 5.05694 18.5766C4.75217 18.2909 4.50454 17.9861 4.31406 17.6623C4.12358 17.3385 3.99025 17.0242 3.91406 16.7194C3.74262 16.0528 3.71405 15.367 3.82834 14.6623C3.94263 13.9575 4.16168 13.2622 4.4855 12.5765C4.80932 11.8908 5.21885 11.2431 5.7141 10.6336C6.20935 10.024 6.75222 9.50022 7.34271 9.06212C7.9332 8.60496 8.55226 8.24305 9.1999 7.97637C9.86658 7.7097 10.5142 7.58588 11.1428 7.60493C11.8285 7.62398 12.419 7.72875 12.9143 7.91923C13.4286 8.10971 13.8667 8.38591 14.2286 8.74782C14.4381 8.424 14.7048 8.23352 15.0286 8.17638C15.3715 8.10018 15.762 8.07162 16.2001 8.09066C16.6953 8.10971 17.1144 8.17638 17.4572 8.29067C17.8192 8.40496 18.0477 8.63353 18.143 8.97639C18.2001 9.24307 18.143 9.58593 17.9715 10.005C17.8954 10.1764 17.8192 10.3669 17.743 10.5764C17.6858 10.7669 17.6096 10.9384 17.5144 11.0907V11.0622C17.2096 11.7669 16.8953 12.5098 16.5715 13.2908C16.2667 14.0527 16.0191 14.6718 15.8286 15.148C15.7715 15.3004 15.7905 15.4337 15.8858 15.548C16.0001 15.6432 16.1239 15.7004 16.2572 15.7194C16.5048 15.6051 16.781 15.4527 17.0858 15.2623C17.3906 15.0718 17.6858 14.8623 17.9715 14.6337C18.2573 14.4051 18.5144 14.1765 18.743 13.9479C18.9716 13.7003 19.143 13.4908 19.2573 13.3194L20.6002 11.205C20.8478 10.9955 21.105 10.8907 21.3716 10.8907C21.5812 10.8907 21.7716 10.9479 21.9431 11.0622C22.1335 11.1574 22.2859 11.2907 22.4002 11.4622C22.5145 11.6145 22.5812 11.7955 22.6002 12.005C22.6193 12.2146 22.5717 12.4241 22.4574 12.6336L21.9431 13.4622L21.7716 13.6908C21.6383 13.9003 21.4764 14.1384 21.2859 14.4051C21.1145 14.6718 20.8954 14.967 20.6287 15.2908V15.2908ZM9.59991 15.748C10.3999 15.748 11.2761 14.8051 12.2285 12.9193C12.2285 12.9003 12.2285 12.8813 12.2285 12.8622C12.2476 12.8432 12.2571 12.8241 12.2571 12.8051C12.4095 12.4622 12.5428 12.1384 12.6571 11.8336C12.7714 11.5098 12.8476 11.2241 12.8857 10.9764C12.9428 10.7288 12.9619 10.5288 12.9428 10.3764C12.9428 10.205 12.8952 10.1098 12.8 10.0907C12.3809 9.99546 11.9714 10.024 11.5714 10.1764C11.1904 10.3098 10.838 10.5193 10.5142 10.805C10.1904 11.0907 9.89515 11.4336 9.62848 11.8336C9.38086 12.2336 9.17133 12.6336 8.99989 13.0336C8.82846 13.4337 8.71417 13.8241 8.65703 14.2051C8.59988 14.567 8.60941 14.8718 8.6856 15.1194C8.74275 15.3099 8.85703 15.4718 9.02847 15.6051C9.1999 15.7194 9.39038 15.767 9.59991 15.748V15.748Z" fill="url(#paint0_linear_190_22404)"/>
<path d="M28.1713 15.2908C27.4093 16.2052 26.7045 16.948 26.0569 17.5195C25.4093 18.0909 24.8188 18.529 24.2854 18.8338C23.7521 19.1386 23.2664 19.3386 22.8283 19.4338C22.3902 19.5481 21.9997 19.5862 21.6568 19.5481C21.2377 19.529 20.8663 19.4243 20.5425 19.2338C20.2187 19.0433 19.9425 18.8243 19.7139 18.5766C19.4853 18.31 19.3139 18.0433 19.1996 17.7766C19.0663 17.51 18.9901 17.2814 18.971 17.0909C18.9139 16.7099 18.952 16.2052 19.0853 15.5766C19.2187 14.948 19.4187 14.2337 19.6853 13.4337C19.952 12.6336 20.2663 11.786 20.6282 10.8907C20.9901 9.97644 21.3711 9.07165 21.7711 8.17639C22.1711 7.26208 22.5711 6.36683 22.9711 5.49062C23.3711 4.6144 23.7426 3.81438 24.0854 3.09056V3.11912L24.5997 1.97623L25.1426 0.861924C25.3521 0.461914 25.6188 0.214293 25.9426 0.119053C26.2664 0.0238125 26.6855 -0.0142863 27.1998 0.00476183C27.7331 0.042858 28.1617 0.128575 28.4855 0.261911C28.8284 0.3762 29.0475 0.595252 29.1427 0.919069C29.2379 1.14765 29.1999 1.47146 29.0284 1.89052C28.9141 2.13815 28.7141 2.61435 28.4284 3.31913C28.1427 4.00486 27.8093 4.80488 27.4284 5.71919C27.0474 6.6335 26.6379 7.59542 26.1998 8.60497C25.7807 9.61452 25.3807 10.5765 24.9997 11.4908C24.6378 12.386 24.314 13.167 24.0283 13.8337C23.7616 14.5004 23.5902 14.9385 23.514 15.148C23.4568 15.2813 23.4664 15.4051 23.5426 15.5194C23.6188 15.6337 23.7045 15.7004 23.7997 15.7194C24.0473 15.6242 24.314 15.4813 24.5997 15.2908C24.9045 15.1004 25.1998 14.8908 25.4855 14.6623C25.7712 14.4337 26.0283 14.2051 26.2569 13.9765C26.5045 13.7289 26.6855 13.5099 26.7998 13.3194L28.1713 11.1765C28.3427 11.005 28.5236 10.9098 28.7141 10.8907C28.9046 10.8527 29.076 10.8717 29.2284 10.9479C29.3999 11.0241 29.5522 11.1479 29.6856 11.3193C29.8189 11.4908 29.9142 11.6717 29.9713 11.8622C30.0665 12.2241 30.0665 12.4908 29.9713 12.6622L29.5999 13.1765C29.3903 13.5194 29.1618 13.8813 28.9141 14.2623C28.6855 14.6242 28.4379 14.967 28.1713 15.2908V15.2908Z" fill="url(#paint1_linear_190_22404)"/>
<path d="M35.686 15.2904C34.9241 16.2048 34.2193 16.9476 33.5717 17.5191C32.9431 18.0905 32.3622 18.5286 31.8288 18.8334C31.2955 19.1382 30.8097 19.3382 30.3716 19.4334C29.9335 19.5477 29.543 19.5858 29.2002 19.5477C28.7811 19.5096 28.4192 19.3858 28.1144 19.1763C27.7906 18.9477 27.5239 18.6905 27.3144 18.4048C27.0858 18.1 26.9144 17.8048 26.8001 17.5191C26.6668 17.2143 26.5906 16.9762 26.5715 16.8048C26.4763 15.7762 26.6192 14.7762 27.0001 13.8047C27.362 12.8142 27.8192 11.757 28.3716 10.6332L29.2002 8.91886C29.3907 8.51885 29.6478 8.28075 29.9716 8.20456C30.3145 8.10932 30.7335 8.07123 31.2288 8.09028C31.724 8.10933 32.1431 8.176 32.486 8.29028C32.8479 8.40457 33.0765 8.63314 33.1717 8.97601C33.2098 9.0903 33.2193 9.24268 33.2003 9.43316C33.2003 9.6046 33.1527 9.79508 33.0574 10.0046L30.8574 15.119L30.8288 15.0904C30.7907 15.2428 30.8193 15.3762 30.9145 15.4905C31.0288 15.6047 31.1621 15.6809 31.3145 15.719C31.5621 15.6047 31.8383 15.4524 32.1431 15.2619C32.4479 15.0714 32.7431 14.8619 33.0288 14.6333C33.3146 14.4047 33.5717 14.1761 33.8003 13.9476C34.0289 13.6999 34.2003 13.4904 34.3146 13.319L35.686 11.1761C35.8575 11.0046 36.0956 10.9189 36.4004 10.9189C36.667 10.9189 36.8956 11.0142 37.0861 11.2046C37.2956 11.3761 37.4385 11.5951 37.5147 11.8618C37.6099 12.2237 37.6099 12.4904 37.5147 12.6618L37.2004 13.119C36.9908 13.4618 36.7527 13.8238 36.4861 14.2047C36.2384 14.5857 35.9718 14.9476 35.686 15.2904V15.2904ZM31.4288 6.69024C31.0478 6.34738 30.8002 5.94737 30.6859 5.49022C30.5907 5.10925 30.5812 4.74734 30.6574 4.40447C30.7335 4.04256 30.924 3.73779 31.2288 3.49017H31.2002C31.6764 3.05206 32.2098 2.83301 32.8003 2.83301C33.1241 2.83301 33.4479 2.89968 33.7717 3.03301C34.0955 3.1473 34.3908 3.31873 34.6575 3.54731C35.0194 3.90922 35.2575 4.29971 35.3718 4.71877C35.486 5.09973 35.4956 5.47117 35.4003 5.83308C35.3241 6.19499 35.1527 6.50928 34.886 6.77595C34.4289 7.19501 33.8765 7.40454 33.2288 7.40454C32.5622 7.40454 31.9621 7.16644 31.4288 6.69024V6.69024Z" fill="url(#paint2_linear_190_22404)"/>
<path d="M58.744 15.2908C57.9821 16.2051 57.2773 16.948 56.6296 17.5195C56.0011 18.0909 55.4201 18.529 54.8867 18.8338C54.3534 19.1385 53.8582 19.3386 53.401 19.4338C52.9629 19.5481 52.5629 19.5862 52.201 19.5481C51.8771 19.529 51.5819 19.4433 51.3152 19.2909C51.0676 19.1576 50.839 18.9957 50.6295 18.8052C50.439 18.5957 50.2676 18.3766 50.1152 18.148C49.9628 17.9004 49.8485 17.6718 49.7723 17.4623C49.1628 18.0719 48.5056 18.5862 47.8009 19.0052C47.0961 19.4052 46.3723 19.5957 45.6294 19.5767C45.1151 19.5576 44.6579 19.4528 44.2579 19.2624C43.8389 19.0719 43.4769 18.8433 43.1722 18.5766C42.8674 18.2909 42.6198 17.9861 42.4293 17.6623C42.2388 17.3385 42.1055 17.0242 42.0293 16.7194C41.8579 16.0528 41.8293 15.367 41.9436 14.6623C42.0579 13.9575 42.2769 13.2622 42.6007 12.5765C42.9246 11.8908 43.3341 11.2431 43.8293 10.6336C44.3246 10.024 44.8675 9.50022 45.4579 9.06212C46.0484 8.60496 46.6675 8.24305 47.3151 7.97637C47.9818 7.7097 48.6295 7.58588 49.258 7.60493C49.9438 7.62398 50.5343 7.72875 51.0295 7.91923C51.5438 8.10971 51.9819 8.38591 52.3438 8.74782C52.5534 8.424 52.82 8.23352 53.1438 8.17638C53.4867 8.10018 53.8772 8.07162 54.3153 8.09066C54.8106 8.10971 55.2296 8.17638 55.5725 8.29067C55.9344 8.40496 56.163 8.63353 56.2582 8.97639C56.3154 9.24307 56.2582 9.58593 56.0868 10.005C56.0106 10.1764 55.9344 10.3669 55.8582 10.5764C55.8011 10.7669 55.7249 10.9384 55.6296 11.0907V11.0622C55.3248 11.7669 55.0106 12.5098 54.6867 13.2908C54.382 14.0527 54.1343 14.6718 53.9439 15.148C53.8867 15.3004 53.9058 15.4337 54.001 15.548C54.1153 15.6432 54.2391 15.7004 54.3724 15.7194C54.6201 15.6051 54.8963 15.4527 55.201 15.2623C55.5058 15.0718 55.8011 14.8623 56.0868 14.6337C56.3725 14.4051 56.6296 14.1765 56.8582 13.9479C57.0868 13.7003 57.2582 13.4908 57.3725 13.3194L58.7154 11.205C58.963 10.9955 59.2202 10.8907 59.4869 10.8907C59.6964 10.8907 59.8869 10.9479 60.0583 11.0622C60.2488 11.1574 60.4012 11.2907 60.5155 11.4622C60.6297 11.6145 60.6964 11.7955 60.7155 12.005C60.7345 12.2146 60.6869 12.4241 60.5726 12.6336L60.0583 13.4622L59.8869 13.6908C59.7535 13.9003 59.5916 14.1384 59.4011 14.4051C59.2297 14.6718 59.0107 14.967 58.744 15.2908V15.2908ZM47.7151 15.748C48.5152 15.748 49.3914 14.8051 50.3438 12.9193C50.3438 12.9003 50.3438 12.8813 50.3438 12.8622C50.3628 12.8432 50.3724 12.8241 50.3724 12.8051C50.5247 12.4622 50.6581 12.1384 50.7724 11.8336C50.8866 11.5098 50.9628 11.2241 51.0009 10.9764C51.0581 10.7288 51.0771 10.5288 51.0581 10.3764C51.0581 10.205 51.0105 10.1098 50.9152 10.0907C50.4962 9.99546 50.0866 10.024 49.6866 10.1764C49.3057 10.3098 48.9533 10.5193 48.6295 10.805C48.3056 11.0907 48.0104 11.4336 47.7437 11.8336C47.4961 12.2336 47.2866 12.6336 47.1151 13.0336C46.9437 13.4337 46.8294 13.8241 46.7723 14.2051C46.7151 14.567 46.7246 14.8718 46.8008 15.1194C46.858 15.3099 46.9723 15.4718 47.1437 15.6051C47.3151 15.7194 47.5056 15.767 47.7151 15.748V15.748Z" fill="url(#paint3_linear_190_22404)"/>
<path d="M66.2884 15.2908C65.5265 16.2052 64.8217 16.948 64.1741 17.5195C63.5265 18.0909 62.936 18.529 62.4026 18.8338C61.8693 19.1386 61.3836 19.3386 60.9455 19.4338C60.5073 19.5481 60.1169 19.5862 59.774 19.5481C59.3549 19.529 58.9835 19.4243 58.6597 19.2338C58.3359 19.0433 58.0597 18.8243 57.8311 18.5766C57.6025 18.31 57.4311 18.0433 57.3168 17.7766C57.1835 17.51 57.1073 17.2814 57.0882 17.0909C57.0311 16.7099 57.0692 16.2052 57.2025 15.5766C57.3358 14.948 57.5358 14.2337 57.8025 13.4337C58.0692 12.6336 58.3835 11.786 58.7454 10.8907C59.1073 9.97644 59.4883 9.07165 59.8883 8.17639C60.2883 7.26208 60.6883 6.36683 61.0883 5.49062C61.4883 4.6144 61.8598 3.81438 62.2026 3.09056V3.11912L62.7169 1.97623L63.2598 0.861924C63.4693 0.461914 63.736 0.214293 64.0598 0.119053C64.3836 0.0238125 64.8027 -0.0142863 65.317 0.00476183C65.8503 0.042858 66.2789 0.128575 66.6027 0.261911C66.9456 0.3762 67.1647 0.595252 67.2599 0.919069C67.3551 1.14765 67.317 1.47146 67.1456 1.89052C67.0313 2.13815 66.8313 2.61435 66.5456 3.31913C66.2599 4.00486 65.9265 4.80488 65.5456 5.71919C65.1646 6.6335 64.7551 7.59542 64.317 8.60497C63.8979 9.61452 63.4979 10.5765 63.1169 11.4908C62.755 12.386 62.4312 13.167 62.1455 13.8337C61.8788 14.5004 61.7074 14.9385 61.6312 15.148C61.574 15.2813 61.5836 15.4051 61.6598 15.5194C61.7359 15.6337 61.8217 15.7004 61.9169 15.7194C62.1645 15.6242 62.4312 15.4813 62.7169 15.2908C63.0217 15.1004 63.3169 14.8908 63.6027 14.6623C63.8884 14.4337 64.1455 14.2051 64.3741 13.9765C64.6217 13.7289 64.8027 13.5099 64.917 13.3194L66.2884 11.1765C66.4599 11.005 66.6408 10.9098 66.8313 10.8907C67.0218 10.8527 67.1932 10.8717 67.3456 10.9479C67.517 11.0241 67.6694 11.1479 67.8028 11.3193C67.9361 11.4908 68.0313 11.6717 68.0885 11.8622C68.1837 12.2241 68.1837 12.4908 68.0885 12.6622L67.717 13.1765C67.5075 13.5194 67.2789 13.8813 67.0313 14.2623C66.8027 14.6242 66.5551 14.967 66.2884 15.2908V15.2908Z" fill="url(#paint4_linear_190_22404)"/>
<path d="M77.3445 14.0909C77.2303 14.3766 77.1065 14.6719 76.9731 14.9766C76.8398 15.2624 76.6969 15.5671 76.5445 15.891L75.8874 17.2338L75.1731 18.7482C74.9635 19.1672 74.6969 19.4244 74.3731 19.5196C74.0492 19.6149 73.6111 19.6434 73.0587 19.6053C72.5063 19.5672 72.0682 19.5006 71.7444 19.4053C71.4206 19.3291 71.2111 19.1291 71.1158 18.8053C71.0206 18.5196 71.0777 18.1577 71.2873 17.7196C71.7635 16.6148 72.1444 15.729 72.4301 15.0624C72.7349 14.3957 72.973 13.8814 73.1444 13.5195C73.3159 13.1385 73.4397 12.8623 73.5159 12.6909C73.6111 12.5194 73.6968 12.367 73.773 12.2337C74.154 11.4337 74.3159 10.9194 74.2588 10.6908C74.2397 10.5956 74.1445 10.6051 73.973 10.7194C73.8207 10.8337 73.6206 11.0432 73.373 11.348C73.1254 11.6528 72.8302 12.0432 72.4873 12.5194C72.1635 12.9956 71.8206 13.548 71.4587 14.1766L71.3444 14.4052C71.192 14.7862 71.0206 15.1671 70.8301 15.5481C70.6587 15.929 70.4682 16.3291 70.2587 16.7481L69.9158 17.4624L69.6586 18.0339L69.3158 18.7482C69.1063 19.1863 68.8396 19.4434 68.5158 19.5196C68.211 19.6149 67.7824 19.6434 67.23 19.6053C66.7157 19.5672 66.2967 19.5006 65.9728 19.4053C65.63 19.3101 65.4109 19.0815 65.3157 18.7196C65.2776 18.5672 65.2776 18.4148 65.3157 18.2624C65.3347 18.091 65.3824 17.91 65.4585 17.7196L67.3443 13.3766L67.3729 13.4052L67.4586 13.2052C67.4014 13.2242 67.3157 13.2337 67.2014 13.2337C66.9348 13.2337 66.7062 13.1575 66.5157 13.0052C66.3252 12.8337 66.1919 12.6147 66.1157 12.348C66.0776 12.1956 66.0681 12.0242 66.0871 11.8337C66.1062 11.6242 66.1633 11.4242 66.2586 11.2337C66.4681 10.8527 66.7157 10.4718 67.0014 10.0908C67.2681 9.70984 67.5538 9.35745 67.8586 9.03364C68.1824 8.70982 68.5158 8.4241 68.8586 8.17648C69.2205 7.9098 69.5825 7.7098 69.9444 7.57646C70.2301 7.48122 70.5158 7.43359 70.8015 7.43359C71.3539 7.43359 71.8301 7.59551 72.2301 7.91933C72.6301 8.22409 72.9063 8.63363 73.0587 9.14793C73.0587 9.16698 73.0587 9.18603 73.0587 9.20507C73.0778 9.20507 73.0873 9.21459 73.0873 9.23364C73.4873 8.79553 73.9064 8.43362 74.3445 8.1479C74.7826 7.86218 75.2207 7.70979 75.6588 7.69074C76.3255 7.6717 76.935 7.80504 77.4874 8.09076C78.0589 8.37648 78.4493 8.80506 78.6589 9.3765C79.0779 8.91935 79.516 8.53839 79.9732 8.23362C80.4494 7.9098 80.9542 7.72884 81.4875 7.69074C82.1923 7.65265 82.8494 7.79551 83.459 8.11933C84.0685 8.44315 84.4685 8.92887 84.659 9.5765C84.7352 9.84318 84.7733 10.1194 84.7733 10.4051C84.7733 10.6718 84.6971 10.9575 84.5447 11.2623V11.2337L83.7161 13.2909L83.3161 14.2623C83.2399 14.4147 83.1637 14.5766 83.0875 14.7481C83.0114 14.9004 82.9542 15.0528 82.9161 15.2052C82.8209 15.4147 82.7542 15.5862 82.7161 15.7195C82.6971 15.8529 82.6971 15.9576 82.7161 16.0338C82.7352 16.0338 82.7733 16.0243 82.8304 16.0052C82.8685 15.9862 82.9066 15.9767 82.9447 15.9767C83.0018 15.9767 83.0495 15.9671 83.0875 15.9481C83.3352 15.891 83.6114 15.7671 83.9161 15.5767C84.24 15.3671 84.5447 15.1385 84.8304 14.8909C85.1162 14.6242 85.3828 14.3481 85.6305 14.0623C85.8781 13.7766 86.0781 13.529 86.2305 13.3195L87.6305 11.1765C87.8019 10.9861 88.0496 10.8908 88.3734 10.8908C88.5639 10.8908 88.7448 10.948 88.9163 11.0623C89.1067 11.1575 89.2591 11.2908 89.3734 11.4623C89.4877 11.6146 89.5544 11.7956 89.5734 12.0051C89.6115 12.2147 89.5734 12.4242 89.4591 12.6337L89.0305 13.2623C88.821 13.5861 88.602 13.929 88.3734 14.2909C88.1448 14.6338 87.8972 14.9671 87.6305 15.2909C86.8876 16.1862 86.1924 16.91 85.5448 17.4624C84.8971 17.9958 84.2971 18.4243 83.7447 18.7482C83.2114 19.0529 82.7256 19.2625 82.2875 19.3767C81.8494 19.491 81.4589 19.5482 81.1161 19.5482C80.7161 19.5672 80.3446 19.5101 80.0018 19.3767C79.6779 19.2434 79.3922 19.072 79.1446 18.8624C78.897 18.6339 78.697 18.3862 78.5446 18.1196C78.3922 17.8339 78.2874 17.5577 78.2303 17.291C78.116 16.7195 78.116 16.2052 78.2303 15.7481C78.3636 15.2719 78.5636 14.729 78.8303 14.1195C78.9446 13.8528 79.0589 13.5671 79.1732 13.2623C79.2875 12.9385 79.4113 12.6433 79.5446 12.3766L79.5732 12.4051L80.2875 10.6908C80.3446 10.5956 80.2875 10.6337 80.116 10.8051C79.9446 10.9765 79.7065 11.2242 79.4017 11.548C79.097 11.8718 78.7636 12.2623 78.4017 12.7194C78.0398 13.1575 77.6969 13.5957 77.3731 14.0338L77.3445 14.0909V14.0909Z" fill="url(#paint5_linear_190_22404)"/>
<path d="M95.1743 15.2904C94.4124 16.2048 93.7076 16.9476 93.06 17.5191C92.4314 18.0905 91.8504 18.5286 91.3171 18.8334C90.7837 19.1382 90.298 19.3382 89.8599 19.4334C89.4218 19.5477 89.0313 19.5858 88.6885 19.5477C88.2694 19.5096 87.9075 19.3858 87.6027 19.1763C87.2789 18.9477 87.0122 18.6905 86.8027 18.4048C86.5741 18.1 86.4027 17.8048 86.2884 17.5191C86.1551 17.2143 86.0789 16.9762 86.0598 16.8048C85.9646 15.7762 86.1074 14.7762 86.4884 13.8047C86.8503 12.8142 87.3075 11.757 87.8599 10.6332L88.6885 8.91886C88.8789 8.51885 89.1361 8.28075 89.4599 8.20456C89.8028 8.10932 90.2218 8.07123 90.7171 8.09028C91.2123 8.10933 91.6314 8.176 91.9743 8.29028C92.3362 8.40457 92.5647 8.63314 92.66 8.97601C92.6981 9.0903 92.7076 9.24268 92.6886 9.43316C92.6886 9.6046 92.6409 9.79508 92.5457 10.0046L90.3456 15.119L90.3171 15.0904C90.279 15.2428 90.3075 15.3762 90.4028 15.4905C90.5171 15.6047 90.6504 15.6809 90.8028 15.719C91.0504 15.6047 91.3266 15.4524 91.6314 15.2619C91.9362 15.0714 92.2314 14.8619 92.5171 14.6333C92.8028 14.4047 93.06 14.1761 93.2886 13.9476C93.5171 13.6999 93.6886 13.4904 93.8029 13.319L95.1743 11.1761C95.3458 11.0046 95.5839 10.9189 95.8886 10.9189C96.1553 10.9189 96.3839 11.0142 96.5744 11.2046C96.7839 11.3761 96.9267 11.5951 97.0029 11.8618C97.0982 12.2237 97.0982 12.4904 97.0029 12.6618L96.6886 13.119C96.4791 13.4618 96.241 13.8238 95.9743 14.2047C95.7267 14.5857 95.46 14.9476 95.1743 15.2904ZM90.9171 6.69024C90.5361 6.34738 90.2885 5.94737 90.1742 5.49022C90.079 5.10925 90.0694 4.74734 90.1456 4.40447C90.2218 4.04256 90.4123 3.73779 90.7171 3.49017H90.6885C91.1647 3.05206 91.6981 2.83301 92.2885 2.83301C92.6124 2.83301 92.9362 2.89968 93.26 3.03301C93.5838 3.1473 93.8791 3.31873 94.1457 3.54731C94.5076 3.90922 94.7457 4.29971 94.86 4.71877C94.9743 5.09973 94.9839 5.47117 94.8886 5.83308C94.8124 6.19499 94.641 6.50928 94.3743 6.77595C93.9172 7.19501 93.3648 7.40454 92.7171 7.40454C92.0504 7.40454 91.4504 7.16644 90.9171 6.69024V6.69024Z" fill="url(#paint6_linear_190_22404)"/>
<path d="M101.431 14.2046C101.164 14.738 101.002 15.1475 100.945 15.4332C100.888 15.6999 100.907 15.8237 101.002 15.8047C101.059 15.8047 101.164 15.7666 101.316 15.6904C101.469 15.5952 101.65 15.4618 101.859 15.2904C102.069 15.1189 102.297 14.9094 102.545 14.6618C102.812 14.4142 103.059 14.1285 103.288 13.8046L105.031 11.176C105.202 10.9855 105.45 10.8903 105.774 10.8903C105.964 10.8903 106.155 10.9379 106.345 11.0331C106.535 11.1284 106.688 11.2522 106.802 11.4046C106.935 11.557 107.021 11.7284 107.059 11.9189C107.097 12.0903 107.059 12.2713 106.945 12.4617L106.516 13.0903C106.25 13.4903 105.974 13.9094 105.688 14.3475C105.402 14.7856 105.097 15.2142 104.774 15.6332C104.431 16.0714 104.04 16.5285 103.602 17.0047C103.183 17.4619 102.735 17.8904 102.259 18.2905C101.783 18.6714 101.288 18.9762 100.773 19.2048C100.278 19.4524 99.7829 19.5667 99.2877 19.5476C98.7162 19.5286 98.202 19.3667 97.7448 19.0619C97.2876 18.7381 96.9543 18.3286 96.7448 17.8333C96.5162 17.2047 96.4876 16.5952 96.6591 16.0047C96.8305 15.4142 97.0495 14.8427 97.3162 14.2904L97.3448 14.3189L97.4591 14.0618C97.5734 13.8142 97.6781 13.5761 97.7734 13.3475C97.8686 13.1189 97.9258 12.8998 97.9448 12.6903C98.002 12.4617 97.9924 12.2236 97.9162 11.976C97.8972 11.8998 97.8496 11.7855 97.7734 11.6331L97.6305 11.776V11.7474L97.5734 11.8332L97.4305 12.0046L96.9734 12.6332C96.7448 12.9951 96.4686 13.176 96.1448 13.176C95.8781 13.176 95.64 13.0903 95.4305 12.9189C95.2019 12.7284 95.0495 12.4998 94.9733 12.2332C94.859 11.8903 94.9352 11.557 95.2019 11.2331C95.4495 10.8522 95.64 10.5093 95.7733 10.2045C95.9067 9.88072 95.8686 9.56643 95.659 9.26167L95.5733 9.09023L95.4876 8.94737V9.00452C95.4495 8.90928 95.4114 8.81403 95.3733 8.71879C95.3162 8.6045 95.2781 8.49973 95.259 8.40449C95.24 8.30925 95.2305 8.18545 95.2305 8.03306C95.2114 7.88068 95.2305 7.70924 95.2876 7.51876C95.3257 7.32828 95.4114 7.1378 95.5447 6.94732C95.6781 6.73779 95.8781 6.52826 96.1448 6.31873C96.5829 5.99491 97.0115 5.83301 97.4305 5.83301C97.9258 5.83301 98.3258 6.00444 98.6305 6.34731C98.9543 6.67112 99.1639 7.02351 99.2591 7.40447C99.2591 7.44257 99.2496 7.50924 99.2306 7.60448C99.2306 7.68067 99.2306 7.75687 99.2306 7.83306C99.2306 7.90925 99.2306 7.97592 99.2306 8.03306C99.2306 8.09021 99.2401 8.10926 99.2591 8.09021C99.2591 8.10926 99.2496 8.1283 99.2306 8.14734C99.2306 8.14734 99.2306 8.16639 99.2306 8.20449C99.2306 8.26163 99.2496 8.33783 99.2877 8.43307C99.3448 8.52831 99.4782 8.6807 99.6877 8.89022C99.7258 8.90927 99.7448 8.92832 99.7448 8.94737C99.7639 8.96642 99.7829 8.97594 99.802 8.97594L100.231 9.40452V9.37595C100.535 9.66167 100.812 9.93787 101.059 10.2045C101.307 10.4712 101.497 10.7093 101.631 10.9188C101.84 11.1855 101.973 11.4427 102.031 11.6903C102.088 11.9379 102.097 12.1855 102.059 12.4332C102.04 12.6617 101.983 12.8998 101.888 13.1475C101.793 13.376 101.697 13.6046 101.602 13.8332L101.431 14.2046V14.2046Z" fill="url(#paint7_linear_190_22404)"/>
<path d="M106.745 12.7482C106.593 12.9387 106.393 13.0149 106.145 12.9768C105.898 12.9196 105.66 12.8149 105.431 12.6625C105.203 12.4911 105.022 12.2911 104.888 12.0625C104.755 11.8339 104.745 11.6339 104.86 11.4625C105.26 10.8529 105.66 10.3291 106.06 9.89099C106.441 9.43384 106.831 9.1005 107.231 8.89097C107.784 8.64335 108.307 8.51953 108.803 8.51953C109.279 8.51953 109.717 8.61478 110.117 8.80526C110.536 8.99574 110.907 9.25288 111.231 9.5767C111.574 9.88147 111.86 10.2434 112.088 10.6624C112.317 11.0815 112.498 11.5101 112.631 11.9482C113.012 13.2435 113.098 14.4054 112.888 15.434C112.679 16.4435 112.25 17.3388 111.603 18.1198C110.955 18.9007 110.127 19.5674 109.117 20.1198C108.107 20.6913 106.984 21.1675 105.745 21.5484C104.488 21.9484 103.164 22.2723 101.774 22.5199C100.364 22.7675 98.9453 22.958 97.5167 23.0913C94.5071 23.377 91.2308 23.6532 87.6879 23.9199C84.1259 24.2056 80.4115 24.4818 76.5447 24.7485C72.678 25.0152 68.716 25.2818 64.6587 25.5485C60.6015 25.8342 56.5728 26.1009 52.5727 26.3485C49.4488 26.5581 46.2964 26.7676 43.1153 26.9771C39.9153 27.1867 36.7533 27.3962 33.6294 27.6057C30.5055 27.8152 27.4578 28.0248 24.4863 28.2343C21.5148 28.4629 18.7052 28.6819 16.0575 28.8915H16.0861C14.6004 29.0248 13.1527 29.2343 11.7431 29.5201C10.3145 29.8248 8.92403 30.1772 7.57161 30.5772C6.2192 30.9772 4.91441 31.4153 3.65723 31.8915C2.38101 32.3868 1.16193 32.8916 0 33.4059C1.39051 30.4344 3.63818 28.1105 6.74302 26.4343C9.82881 24.7771 13.8765 23.7866 18.8862 23.4628C20.7338 23.3675 22.8577 23.2723 25.2578 23.177C27.6578 23.0818 30.2388 22.9866 33.0008 22.8913C35.7437 22.7961 38.62 22.6913 41.6296 22.577C44.6392 22.4818 47.6869 22.3865 50.7727 22.2913L55.0014 22.1484C57.5919 22.0532 60.2205 21.958 62.8873 21.8627C65.5349 21.7865 68.1636 21.7008 70.7732 21.6056C73.3637 21.5103 75.8971 21.4151 78.3734 21.3198C80.8496 21.2246 83.2116 21.1294 85.4592 21.0341C87.7069 20.9389 89.8022 20.8341 91.7451 20.7198C93.688 20.6246 95.4214 20.5294 96.9452 20.4341C99.5929 20.2627 101.831 19.9389 103.66 19.4627C105.488 18.9865 106.936 18.3769 108.003 17.634C109.088 16.8912 109.822 16.034 110.203 15.0626C110.584 14.0911 110.66 13.0339 110.431 11.891C110.317 11.5863 110.146 11.3196 109.917 11.091C109.688 10.8434 109.441 10.7196 109.174 10.7196C108.793 10.7196 108.393 10.8625 107.974 11.1482C107.574 11.4339 107.203 11.9101 106.86 12.5768L106.745 12.7482Z" fill="url(#paint8_linear_190_22404)"/>
<path d="M106.745 12.7482C106.593 12.9387 106.393 13.0149 106.145 12.9768C105.898 12.9196 105.66 12.8149 105.431 12.6625C105.203 12.4911 105.022 12.2911 104.888 12.0625C104.755 11.8339 104.745 11.6339 104.86 11.4625C105.26 10.8529 105.66 10.3291 106.06 9.89099C106.441 9.43384 106.831 9.1005 107.231 8.89097C107.784 8.64335 108.307 8.51953 108.803 8.51953C109.279 8.51953 109.717 8.61478 110.117 8.80526C110.536 8.99574 110.907 9.25288 111.231 9.5767C111.574 9.88147 111.86 10.2434 112.088 10.6624C112.317 11.0815 112.498 11.5101 112.631 11.9482C113.012 13.2435 113.098 14.4054 112.888 15.434C112.679 16.4435 112.25 17.3388 111.603 18.1198C110.955 18.9007 110.127 19.5674 109.117 20.1198C108.107 20.6913 106.984 21.1675 105.745 21.5484C104.488 21.9484 103.164 22.2723 101.774 22.5199C100.364 22.7675 98.9453 22.958 97.5167 23.0913C94.5071 23.377 91.2308 23.6532 87.6879 23.9199C84.1259 24.2056 80.4115 24.4818 76.5447 24.7485C72.678 25.0152 68.716 25.2818 64.6587 25.5485C60.6015 25.8342 56.5728 26.1009 52.5727 26.3485C49.4488 26.5581 46.2964 26.7676 43.1153 26.9771C39.9153 27.1867 36.7533 27.3962 33.6294 27.6057C30.5055 27.8152 27.4578 28.0248 24.4863 28.2343C21.5148 28.4629 18.7052 28.6819 16.0575 28.8915H16.0861C14.6004 29.0248 13.1527 29.2343 11.7431 29.5201C10.3145 29.8248 8.92403 30.1772 7.57161 30.5772C6.2192 30.9772 4.91441 31.4153 3.65723 31.8915C2.38101 32.3868 1.16193 32.8916 0 33.4059C1.39051 30.4344 3.63818 28.1105 6.74302 26.4343C9.82881 24.7771 13.8765 23.7866 18.8862 23.4628C20.7338 23.3675 22.8577 23.2723 25.2578 23.177C27.6578 23.0818 30.2388 22.9866 33.0008 22.8913C35.7437 22.7961 38.62 22.6913 41.6296 22.577C44.6392 22.4818 47.6869 22.3865 50.7727 22.2913L55.0014 22.1484C57.5919 22.0532 60.2205 21.958 62.8873 21.8627C65.5349 21.7865 68.1636 21.7008 70.7732 21.6056C73.3637 21.5103 75.8971 21.4151 78.3734 21.3198C80.8496 21.2246 83.2116 21.1294 85.4592 21.0341C87.7069 20.9389 89.8022 20.8341 91.7451 20.7198C93.688 20.6246 95.4214 20.5294 96.9452 20.4341C99.5929 20.2627 101.831 19.9389 103.66 19.4627C105.488 18.9865 106.936 18.3769 108.003 17.634C109.088 16.8912 109.822 16.034 110.203 15.0626C110.584 14.0911 110.66 13.0339 110.431 11.891C110.317 11.5863 110.146 11.3196 109.917 11.091C109.688 10.8434 109.441 10.7196 109.174 10.7196C108.793 10.7196 108.393 10.8625 107.974 11.1482C107.574 11.4339 107.203 11.9101 106.86 12.5768L106.745 12.7482Z" fill="url(#paint9_linear_190_22404)"/>
<defs>
<linearGradient id="paint0_linear_190_22404" x1="11.3189" y1="28.2736" x2="253.211" y2="-43.267" gradientUnits="userSpaceOnUse">
<stop stop-color="white"/>
<stop offset="1" stop-color="white"/>
</linearGradient>
<linearGradient id="paint1_linear_190_22404" x1="11.3183" y1="28.2737" x2="253.211" y2="-43.267" gradientUnits="userSpaceOnUse">
<stop stop-color="white"/>
<stop offset="1" stop-color="white"/>
</linearGradient>
<linearGradient id="paint2_linear_190_22404" x1="11.3187" y1="28.2732" x2="253.211" y2="-43.2674" gradientUnits="userSpaceOnUse">
<stop stop-color="white"/>
<stop offset="1" stop-color="white"/>
</linearGradient>
<linearGradient id="paint3_linear_190_22404" x1="11.3189" y1="28.2736" x2="253.211" y2="-43.267" gradientUnits="userSpaceOnUse">
<stop stop-color="white"/>
<stop offset="1" stop-color="white"/>
</linearGradient>
<linearGradient id="paint4_linear_190_22404" x1="11.3204" y1="28.2737" x2="253.213" y2="-43.267" gradientUnits="userSpaceOnUse">
<stop stop-color="white"/>
<stop offset="1" stop-color="white"/>
</linearGradient>
<linearGradient id="paint5_linear_190_22404" x1="11.3191" y1="28.2737" x2="253.211" y2="-43.2669" gradientUnits="userSpaceOnUse">
<stop stop-color="white"/>
<stop offset="1" stop-color="white"/>
</linearGradient>
<linearGradient id="paint6_linear_190_22404" x1="11.3199" y1="28.2733" x2="253.212" y2="-43.2673" gradientUnits="userSpaceOnUse">
<stop stop-color="white"/>
<stop offset="1" stop-color="white"/>
</linearGradient>
<linearGradient id="paint7_linear_190_22404" x1="11.3189" y1="28.2732" x2="253.211" y2="-43.2674" gradientUnits="userSpaceOnUse">
<stop stop-color="white"/>
<stop offset="1" stop-color="white"/>
</linearGradient>
<linearGradient id="paint8_linear_190_22404" x1="11.3193" y1="28.2739" x2="253.211" y2="-43.2667" gradientUnits="userSpaceOnUse">
<stop stop-color="white"/>
<stop offset="1" stop-color="white"/>
</linearGradient>
<linearGradient id="paint9_linear_190_22404" x1="11.3193" y1="28.2739" x2="253.211" y2="-43.2667" gradientUnits="userSpaceOnUse">
<stop stop-color="white"/>
<stop offset="1" stop-color="white"/>
</linearGradient>
</defs>
</svg>
