<svg width="98" height="42" viewBox="0 0 98 42" fill="none" xmlns="http://www.w3.org/2000/svg">
<path d="M81.6606 6.85889C81.5695 6.86165 81.4909 6.96783 81.4219 7.17901C81.1403 8.05413 80.976 9.00249 80.9263 10.0253C80.9097 10.3165 80.903 10.7195 80.903 11.2316C80.903 12.467 80.9526 14.6714 81.0506 17.8406C81.1514 21.0167 81.1996 22.8497 81.1996 23.3424C81.1996 24.3625 81.0354 25.1576 80.7042 25.7277C80.4226 26.2108 79.8925 26.7326 79.114 27.2916C78.8062 27.5194 78.4169 27.7637 77.9449 28.0259C77.7589 28.1419 77.6458 28.2657 77.6007 28.4H77.5944C77.4467 28.9824 77.3459 29.4035 77.2948 29.6658C77.2134 29.9681 77.3376 30.175 77.6688 30.2896C78.9512 30.6554 80.2404 31.0129 81.5352 31.3566C83.4331 31.8894 84.3813 32.2635 84.3813 32.476C84.3813 32.6776 83.6924 33.1828 82.3121 33.9917C80.7703 34.9192 79.2093 35.7059 77.6288 36.3533C75.5887 37.1635 73.8772 37.5694 72.4982 37.5694C70.6224 37.5694 69.2365 36.9648 68.3379 35.7542C67.6436 34.8419 67.2931 33.7321 67.2931 32.4222C67.2931 30.9328 67.8134 29.0832 68.8459 26.8761C68.9977 26.5476 69.0722 26.3144 69.0722 26.1791C69.0722 26.1308 69.0557 26.0989 69.0212 26.0782C68.9232 26.081 68.7409 26.2867 68.4759 26.7008C67.1508 28.763 66.4883 31.1771 66.4883 33.946C66.4883 35.6741 66.9038 37.0683 67.7306 38.1311C68.712 39.4245 70.1765 40.0705 72.1324 40.0705C73.5583 40.0705 75.5404 39.4991 78.0774 38.3535C80.4999 37.2616 82.3094 36.1753 83.502 35.0945C84.0983 34.5479 84.5856 33.8743 84.968 33.0793C85.2854 32.4015 85.4414 31.8286 85.4414 31.3621C85.4414 30.6995 85.0839 30.1779 84.3689 29.7941C83.7908 29.4903 82.4557 29.0437 80.3751 28.4546C81.3966 27.252 81.9064 25.5265 81.9064 23.2791C81.9064 22.8691 81.8457 21.2224 81.7214 18.3444C81.5986 15.4665 81.535 13.3283 81.535 11.9259C81.535 11.2495 81.5489 10.6822 81.5723 10.224C81.5889 9.98518 81.6152 9.84581 81.647 9.80026C81.7132 9.80302 81.7932 10.3994 81.8829 11.5892C82.0265 14.2187 82.1659 16.8398 82.3039 19.4555C82.5055 22.8207 82.7787 24.8746 83.1251 25.6172C83.5392 26.513 84.1121 27.2337 84.8409 27.7761C85.3461 28.1529 86.0915 28.5393 87.0743 28.9451V28.8518L87.0963 28.9617C87.5008 29.1287 88.1054 29.2102 88.9088 29.2102C90.4823 29.2102 92.0572 28.7698 93.628 27.8823C94.5321 27.3785 95.6874 26.5393 97.0954 25.3592C97.4681 24.6607 97.7468 24.0299 97.9277 23.4695C98.0353 23.2349 98.0229 23.1147 97.8904 23.1119C97.8075 23.123 97.6751 23.2044 97.4929 23.359C96.5998 24.1403 95.6266 24.8318 94.5748 25.4337C93.2815 26.1735 92.2338 26.5421 91.4319 26.5393C89.8735 26.542 88.5927 25.8478 87.5919 24.4537C86.7748 23.3135 86.3648 22.1527 86.362 20.9739C86.8948 20.5046 87.7312 20.1071 88.8797 19.7785C90.0267 19.4528 91.1449 19.2886 92.2367 19.2858C92.9848 19.2886 93.8378 19.4624 94.7971 19.8075C95.047 19.9 95.2292 19.9455 95.3437 19.9428C95.4362 19.9455 95.4803 19.9221 95.4803 19.8683C95.4803 19.7965 95.3617 19.6584 95.1201 19.4583C93.6901 18.2602 92.0627 17.6611 90.2393 17.6584C88.8631 17.6611 87.7105 18.067 86.783 18.8745C85.7022 19.8283 85.1585 21.1906 85.1557 22.9615C85.1581 23.9364 85.5172 24.9444 86.2326 25.9834C85.8177 25.7084 85.4152 25.3793 85.0259 24.9934C84.4296 24.4081 84.0086 23.3687 83.7588 21.878C83.6028 20.9173 83.4785 19.3037 83.386 17.0331C83.2798 14.4671 83.1556 12.5691 83.012 11.3434C82.7898 9.35025 82.4185 7.92994 81.8968 7.08105C81.8057 6.93611 81.7269 6.86164 81.6606 6.85889Z" fill="url(#paint0_linear_190_28230)"/>
<path d="M63.3807 11.8748C63.3807 11.0825 63.2592 10.4282 63.0107 9.91476C63.0107 9.62765 63.244 8.93888 63.705 7.85257C63.763 7.72282 63.8127 7.65657 63.8527 7.65381C63.9066 7.65656 63.9645 7.72558 64.028 7.86362C64.1605 8.14934 64.4683 8.92784 64.9473 10.2005C65.4539 11.5283 65.7479 12.3441 65.8293 12.6464C65.8956 12.8797 65.9287 13.055 65.9287 13.1681C65.9287 13.5339 65.5781 13.3172 64.8728 12.5111C64.7913 12.3979 64.7486 12.4476 64.7486 12.6602C64.7486 12.7361 64.9321 15.2842 65.2952 20.3002C65.6609 25.3204 65.8404 28.1445 65.8404 28.7698C65.8404 30.705 65.5491 32.4014 64.9611 33.8645C64.8355 34.1668 64.7361 34.378 64.6616 34.5105C64.5443 34.712 64.4753 34.741 64.449 34.5989C64.4173 34.4498 64.4311 34.1364 64.4863 33.6547C64.5636 32.9949 64.6009 32.2233 64.6009 31.3441C64.6009 30.5518 64.3993 27.2804 63.9908 21.5328C63.585 15.7866 63.3807 12.5677 63.3807 11.8748Z" fill="url(#paint1_linear_190_28230)"/>
<path d="M56.3004 0C56.2535 0.0027608 56.1914 0.0690703 56.1238 0.198819C55.6573 1.29617 55.424 1.98496 55.4212 2.26654C55.6779 2.78278 55.8049 3.43705 55.8021 4.23211C55.8048 6.6725 55.9319 9.4689 56.1845 12.6174C56.5792 17.7433 57.0175 21.3337 57.5047 23.3976L57.4433 23.4252C55.8256 24.3901 54.4583 24.8614 53.3389 24.8586V24.8613C52.7679 24.8282 52.1735 24.6044 51.7895 24.2065C51.4403 23.8435 51.2651 23.4694 51.2651 23.0857C51.2651 22.9877 51.2843 22.8207 51.3161 22.5875C51.3506 22.3569 51.3658 22.1982 51.3658 22.1126C51.3658 21.9332 51.3078 21.8406 51.1905 21.8379C51.109 21.8406 50.9766 21.8987 50.793 22.0119C49.6361 22.7799 48.6364 23.3438 47.7908 23.7069V23.7C47.2787 23.9181 46.8867 24.3735 46.612 25.0651C46.405 25.5896 46.3014 26.1018 46.3014 26.5945C46.3014 26.7063 46.3649 26.8788 46.4864 27.1162C46.7859 27.6145 47.0855 28.1155 47.3822 28.6193C47.846 29.4006 48.0765 29.8728 48.0765 30.0342C48.0765 30.2275 47.5768 30.6912 46.5747 31.4256C45.2648 32.3987 43.5188 33.4726 41.3324 34.6458C39.734 35.5072 37.738 36.4485 35.3431 37.4658C31.8896 38.9317 30.0028 39.7391 29.6798 39.8882C28.9165 40.2374 28.4873 40.4528 28.3865 40.5315C28.323 40.5853 28.323 40.6143 28.3865 40.6198C28.4555 40.6294 28.5949 40.6227 28.8075 40.595C28.9828 40.5715 29.2657 40.5286 29.6536 40.4707C30.2761 40.3727 31.8123 40.0262 34.261 39.4272C36.573 38.8654 37.7712 38.581 37.8526 38.581C38.2929 38.581 39.7312 37.8813 42.1647 36.4831C44.9736 34.8764 46.9696 33.4063 48.1511 32.0619C48.459 31.7168 48.7128 31.1868 48.9088 30.4718C49.0675 29.8948 49.145 29.3965 49.145 28.9796C49.145 28.6594 48.92 28.0811 48.47 27.2488C48.0367 26.4498 47.8118 26.0199 47.7943 25.9485C48.4615 25.6691 49.3206 25.1484 50.3747 24.3873V24.9325C50.3747 25.6171 50.5914 26.1735 51.0221 26.6027C51.511 27.0747 52.3706 27.3221 53.335 27.347V27.3495C53.3526 27.3495 53.3712 27.3481 53.389 27.3479C53.4251 27.3485 53.461 27.3495 53.4974 27.3495V27.3446C54.6554 27.2942 56.1686 26.7112 58.0258 25.5882C58.2909 26.2287 58.6938 26.8125 59.2321 27.3398C59.9444 28.0438 60.6967 28.3944 61.4918 28.3944C62.0646 28.3944 62.5228 28.135 62.8707 27.6118C63.2199 27.0928 63.3925 26.4302 63.3925 25.6241C63.3925 24.6578 63.1881 23.878 62.7782 23.2845C62.3696 22.6937 61.8107 22.3969 61.1054 22.3941C60.2581 22.3967 59.4781 22.5423 58.7707 22.8304C58.2598 21.2846 57.8474 17.9278 57.5413 12.7638C57.2887 8.68495 57.1618 6.10379 57.159 5.02163C57.1617 4.81044 57.2046 4.75939 57.286 4.87395C58.0231 5.67177 58.3889 5.88563 58.3889 5.51709C58.3889 5.42185 58.3516 5.23689 58.2757 4.96083C58.2011 4.69029 57.9098 3.88969 57.406 2.56045C56.9077 1.2878 56.5889 0.509385 56.4523 0.22504C56.404 0.0773471 56.3543 0.00275622 56.3004 0ZM60.737 24.8709C61.0125 24.8733 61.2351 24.9092 61.4049 24.9782C61.8604 25.1714 62.0881 25.3936 62.0881 25.649C62.0881 25.8257 61.9266 25.914 61.6036 25.9112C60.7768 25.914 60.1598 25.5979 59.7512 24.9644C60.1329 24.8995 60.4614 24.8684 60.737 24.8709Z" fill="url(#paint2_linear_190_28230)"/>
<path d="M39.7332 8.05664C38.9726 8.0594 38.4026 8.33125 38.0216 8.87785C37.6931 9.32783 37.5262 9.87448 37.5262 10.5149C37.5262 10.9152 37.5925 11.2547 37.725 11.5335C38.0107 12.116 38.2288 12.5302 38.3792 12.7759C36.2908 13.4757 34.1071 14.7166 31.8199 16.5027C30.8951 17.2343 30.3113 17.7522 30.0946 18.1124L30.0601 18.1673C29.6819 18.8906 29.392 19.4622 29.1904 19.8818C29.1752 19.919 29.167 19.948 29.1642 19.9687C29.167 20.0694 29.4086 20.1413 29.8862 20.1813C32.4301 20.3828 34.9878 20.6864 37.5635 21.0977C34.6745 22.7086 32.5915 23.5064 31.3561 23.5036C30.6881 23.5064 30.158 23.4112 29.766 23.2179C29.6018 23.1379 29.2705 22.8949 28.7722 22.4863C28.6397 22.38 28.5183 22.3276 28.4009 22.3248C28.2449 22.3276 28.0462 22.4739 27.8046 22.7596C27.3174 23.3504 26.9226 23.7645 26.6231 24.0019C26.1455 24.3953 25.4539 24.7791 24.5512 25.1573V25.1656C24.4021 25.2194 24.3096 25.2429 24.2751 25.2401C23.8583 24.3608 23.3848 23.6362 22.852 23.0675C22.2529 22.4201 21.6885 22.0943 21.153 22.0916C20.4876 22.0943 19.8471 22.4601 19.2315 23.1889C18.5662 23.973 18.2322 24.8798 18.2322 25.9082C18.2322 27.2388 19.2164 27.9041 21.1764 27.9013C22.0943 27.904 22.7982 27.8212 23.2965 27.6514C23.4138 27.9385 23.4718 28.2187 23.4718 28.4976C23.4718 29.4969 21.2039 31.221 16.6641 33.6752C15.0574 34.5214 13.0615 35.4598 10.6763 36.4868C7.21589 37.9665 5.32622 38.7769 5.01013 38.9259C4.10188 39.3235 3.64648 39.5567 3.64648 39.6229C3.66167 39.6381 3.70444 39.6464 3.76794 39.6464C3.91839 39.6464 4.32411 39.5995 4.9839 39.4988C5.59676 39.4008 7.12625 39.0529 9.57216 38.4538C11.8718 37.892 13.0698 37.6091 13.1678 37.6091C13.5819 37.6091 14.9539 36.9465 17.2866 35.6159C19.9313 34.1072 21.7754 32.7586 22.8176 31.5605C23.3476 30.967 23.7602 30.1955 24.057 29.2472C24.2751 28.5363 24.3815 27.9386 24.3815 27.4555L24.5512 27.4058V27.392C25.3725 27.0469 26.0296 26.5996 26.5251 26.0517C26.8246 25.6638 27.1186 25.2802 27.4071 24.8951C27.5396 24.7308 27.6279 24.6494 27.6666 24.6465C27.7011 24.6493 27.7259 24.7308 27.7411 24.8951C27.8418 25.9082 28.0006 26.6576 28.2159 27.1449C28.5872 27.9482 29.265 28.6329 30.2505 29.1947C30.5666 29.3769 30.7861 29.4666 30.9117 29.4666C31.0276 29.4666 31.1422 29.3341 31.2582 29.0691C31.4652 28.5819 31.5688 28.0201 31.5688 27.381C31.5688 26.8303 31.4997 26.3664 31.3561 25.9896C31.9455 25.9896 32.96 25.6349 34.3583 24.9144C36.4633 23.8308 37.7539 23.1889 38.2343 22.9874C40.2481 22.1551 42.6429 21.7369 45.4256 21.7341C45.5581 21.7369 45.6727 21.6444 45.7625 21.4581L46.6459 19.7465C46.6956 19.6485 46.719 19.5766 46.719 19.5338C46.719 19.4386 46.483 19.3889 46.0123 19.3862C44.1889 19.3889 41.7637 19.1971 38.7312 18.8133C36.3391 18.4848 35.0279 18.4214 34.4868 18.3221L32.5588 18.1673C32.8057 17.9635 32.9996 17.796 33.1327 17.6704C33.9636 17.03 35.1699 16.3439 36.7572 15.6123C37.8491 15.103 38.7022 14.74 39.3151 14.5233C39.4794 15.1058 39.638 15.3944 39.7871 15.3916C39.9858 15.3944 40.0591 15.0133 40.0094 14.25C41.3497 13.8207 42.4925 13.4647 43.4338 13.179C43.6823 12.5689 43.8921 11.9145 44.0564 11.2147C44.0564 10.6874 43.4685 10.0249 42.291 9.22434C41.1827 8.44861 40.3322 8.0594 39.7332 8.05664ZM38.8049 10.4069C39.1635 10.4135 39.6551 10.5467 40.2798 10.8103C41.05 11.1333 41.4351 11.3928 41.4351 11.5889C41.1218 11.7586 40.4014 12.0236 39.2723 12.3838C38.843 11.5419 38.56 10.9373 38.4275 10.5716C38.3957 10.5081 38.4454 10.457 38.5779 10.4224C38.6465 10.4105 38.7222 10.4054 38.8049 10.4069ZM20.6104 24.296C21.0976 24.2988 21.6333 24.6963 22.2185 25.4872C21.8003 25.5714 21.4069 25.6142 21.037 25.6114C20.0155 25.6141 19.5048 25.3781 19.5048 24.9033C19.5048 24.5002 19.8733 24.2988 20.6104 24.296ZM29.0856 25.3202C29.4665 25.421 29.8378 25.6776 30.2036 26.0848C30.5693 26.4961 30.7489 26.8785 30.7489 27.2305C30.4369 27.2098 30.0794 26.9806 29.6819 26.5486C29.2843 26.1193 29.0856 25.7122 29.0856 25.3202Z" fill="url(#paint3_linear_190_28230)"/>
<path d="M3.8231 36.6126C2.09495 36.6126 1.22949 35.4697 1.22949 33.1825C1.22949 31.4474 1.59527 29.6793 2.32132 27.8793C2.48005 27.4929 2.59324 27.2969 2.66778 27.2941C2.7023 27.3051 2.71885 27.3465 2.71885 27.4183C2.71885 27.5453 2.68158 27.7372 2.60704 27.9911C2.10323 29.7745 1.84925 31.1286 1.84925 32.0534C1.84925 32.7505 2.0563 33.2833 2.46901 33.6546C2.81961 33.9693 3.24613 34.1266 3.74856 34.1266C4.85143 34.1266 6.96883 33.1107 10.0994 31.0706C12.94 29.2265 14.5854 28.0892 15.0312 27.6544C15.2065 27.4929 15.2907 27.3369 15.2907 27.1823C15.2907 26.9628 15.0768 26.684 14.6447 26.35C14.1147 25.9483 13.2575 25.4624 12.0732 24.8979C10.7826 24.2947 9.81779 23.7771 9.18008 23.345C8.06065 22.5845 7.08339 21.6334 6.24554 20.4878C6.13926 20.3511 5.91703 20.1786 5.57471 19.9771C5.38699 19.8708 5.29175 19.6251 5.29175 19.2317V17.7299C5.29175 17.5919 5.30694 17.4994 5.33868 17.4566C5.38975 17.4014 5.52226 17.4249 5.73621 17.5312L8.29668 18.761C8.39744 18.8135 8.48716 18.859 8.56998 18.8977C8.98269 19.142 9.13729 19.3228 9.03101 19.4443C8.90678 19.5878 8.42919 19.632 7.59963 19.5795C8.54652 20.5181 9.78328 21.3477 11.3154 22.0655C13.1871 22.953 14.2969 23.5203 14.6447 23.766C15.466 24.3416 15.8732 25.323 15.8732 26.7116C15.8732 27.0028 15.8497 27.2886 15.8001 27.5674C15.6772 28.3404 15.5295 28.8842 15.3542 29.1975C15.23 29.4308 14.965 29.7317 14.5592 30.103C13.8221 30.7849 12.2292 31.9347 9.78604 33.5566C6.74935 35.5939 4.76171 36.6126 3.8231 36.6126Z" fill="url(#paint4_linear_190_28230)"/>
<path d="M82.8369 39.2406L83.4704 37.9321C83.5201 37.8341 83.574 37.783 83.6319 37.7803C83.7147 37.7831 84.0695 38.0011 84.7003 38.4304C85.3311 38.8652 85.643 39.1164 85.643 39.1882C85.643 39.4739 85.3684 40.0605 84.8121 40.9564C84.7458 41.064 84.6741 41.093 84.5995 41.0433C84.0529 40.6375 83.4387 40.211 82.7499 39.7638C82.5194 40.2828 82.2916 40.7259 82.0653 41.0889C82.0018 41.2048 81.93 41.2311 81.8541 41.1731C81.2357 40.7038 80.5952 40.2621 79.9299 39.848C79.901 39.8245 79.901 39.7734 79.9299 39.7003L80.725 38.0757C80.7774 37.9777 80.8313 37.9266 80.8865 37.9238C80.9638 37.9267 81.2661 38.1074 81.7961 38.4621C82.3262 38.8196 82.6726 39.0791 82.8369 39.2406Z" fill="url(#paint5_linear_190_28230)"/>
<path d="M86.3306 12.5994C89.4542 11.4482 92.7173 10.2487 96.1197 8.99678C96.2522 8.94985 96.3323 8.93329 96.3558 8.94709C96.3903 8.97331 96.382 9.04509 96.3295 9.15828C96.1805 9.5213 96.0618 9.73939 95.972 9.81116C93.1148 10.8574 89.762 12.1508 85.9082 13.6954C85.9938 13.3627 86.1346 12.9969 86.3306 12.5994H86.3306Z" fill="url(#paint6_linear_190_28230)"/>
<path d="M71.754 19.294C72.2205 19.2954 72.6388 19.5714 73.0046 20.1208C73.3759 20.6716 73.6326 21.3838 73.7803 22.27C73.7996 22.3597 73.8079 22.4149 73.8051 22.4314C73.8231 22.4577 73.8369 22.4577 73.8424 22.4314C73.852 22.4149 73.8741 22.3597 73.9031 22.27C73.979 21.7454 74.1626 20.96 74.4511 19.911C74.7672 19.1629 75.1109 18.7874 75.4822 18.7847C75.6727 18.7874 75.8645 18.9144 76.0523 19.1684C76.2193 19.3934 76.3007 19.577 76.3007 19.715C76.3007 19.824 76.2717 19.9635 76.2138 20.136C76.1392 20.3693 76.055 20.4838 75.9543 20.4811C75.9115 20.4838 75.8218 20.3983 75.681 20.2285C75.5402 20.0587 75.3952 19.9745 75.2462 19.9717C74.9149 19.9745 74.6085 20.7488 74.3269 22.2934C74.2027 22.967 74.0646 23.4405 73.9155 23.7193C73.8106 23.907 73.7195 23.9995 73.6436 23.9995C73.5801 23.9995 73.5456 23.9153 73.5429 23.7427C73.5457 23.4722 73.3883 22.9477 73.0736 22.1637C72.7602 21.381 72.5352 20.9918 72.4 20.989C72.313 20.9918 72.255 21.0208 72.2274 21.0774C72.204 21.1353 72.1294 21.1616 72.0024 21.1588C71.8644 21.1616 71.6794 21.058 71.4517 20.8496C71.2267 20.6426 71.1121 20.4728 71.1094 20.3458C71.1122 20.2892 71.2074 20.1015 71.3951 19.7785C71.587 19.4583 71.7057 19.2954 71.754 19.294H71.754Z" fill="url(#paint7_linear_190_28230)"/>
<path d="M69.8418 25.3645C69.8694 25.3176 69.8929 25.2803 69.9191 25.2569C69.9453 25.2403 69.9564 25.2458 69.9564 25.2693C69.9715 25.2955 69.9715 25.3356 69.9564 25.3935C69.7341 26.6137 69.3683 27.2224 68.8618 27.2224C68.3262 27.2224 68.0584 26.778 68.0557 25.8849C68.0585 24.7876 68.3773 23.6336 69.0122 22.4259C69.1723 22.1291 69.2648 21.9759 69.2966 21.9648C69.3076 21.9676 69.309 21.9731 69.309 21.9773C69.309 22.0366 69.2621 22.2064 69.1668 22.4811C68.7403 23.7303 68.525 24.6012 68.5222 25.0995C68.525 25.7814 68.7155 26.1196 69.0923 26.1196C69.3145 26.1196 69.5644 25.8684 69.8418 25.3645L69.8418 25.3645Z" fill="url(#paint8_linear_190_28230)"/>
<path d="M51.458 35.0434L52.0915 33.7348C52.1426 33.6368 52.195 33.5858 52.253 33.583C52.3358 33.5858 52.6906 33.8039 53.3214 34.2331C53.9522 34.6666 54.2655 34.9191 54.2655 34.9909C54.2655 35.2766 53.9895 35.8619 53.4332 36.7577C53.3669 36.8668 53.2952 36.8958 53.2206 36.8461C52.6754 36.4403 52.0598 36.0137 51.371 35.5651C51.1405 36.0855 50.9127 36.5272 50.6877 36.8902C50.6243 37.0076 50.5525 37.0338 50.4752 36.9758C49.8582 36.5065 49.2163 36.0634 48.551 35.6507C48.5221 35.6259 48.5221 35.5762 48.551 35.5016L49.3461 33.877C49.3985 33.779 49.4524 33.7293 49.5076 33.7266C49.5849 33.7294 49.8872 33.9088 50.4172 34.2649C50.9472 34.6224 51.2937 34.8819 51.458 35.0434Z" fill="url(#paint9_linear_190_28230)"/>
<path d="M46.5231 16.5377C46.9897 16.5404 47.4093 16.8151 47.775 17.3645C48.145 17.9152 48.4031 18.6288 48.5508 19.5136C48.5701 19.6033 48.577 19.6585 48.5742 19.6751C48.5936 19.7013 48.606 19.7013 48.6115 19.6751C48.6225 19.6585 48.6433 19.6033 48.6723 19.5136C48.7495 18.9891 48.9331 18.2037 49.2216 17.1547C49.5363 16.4079 49.8814 16.0311 50.2527 16.0283C50.4432 16.0311 50.6337 16.1581 50.8228 16.412C50.9884 16.6384 51.0712 16.8206 51.0712 16.9586C51.0712 17.0677 51.0423 17.2071 50.9843 17.3796C50.9097 17.6129 50.8242 17.7275 50.7234 17.7247C50.682 17.7275 50.5909 17.6419 50.4515 17.4721C50.3107 17.3037 50.1644 17.2181 50.0167 17.2154C49.6854 17.2181 49.3776 17.9925 49.0974 19.5371C48.9718 20.2107 48.8351 20.6855 48.6861 20.9629C48.5798 21.1507 48.4901 21.2445 48.4128 21.2445C48.3493 21.2445 48.3147 21.1589 48.312 20.9864C48.3148 20.7172 48.1588 20.1913 47.8427 19.4073C47.5307 18.6261 47.3057 18.2354 47.1705 18.2341C47.0821 18.2354 47.0242 18.2658 46.9979 18.321C46.9745 18.379 46.8999 18.4052 46.7729 18.4025C46.6349 18.4052 46.4499 18.3017 46.2208 18.0933C45.9958 17.8862 45.8826 17.7164 45.8799 17.5895C45.8827 17.5342 45.9779 17.3451 46.1656 17.0221C46.3561 16.7019 46.4762 16.5404 46.5231 16.5377Z" fill="url(#paint10_linear_190_28230)"/>
<path d="M53.6788 39.652C56.8038 38.5022 60.0655 37.3014 63.4693 36.0508C63.6019 36.0025 63.6805 35.9873 63.7054 35.9997C63.7399 36.026 63.7316 36.0977 63.6778 36.2123C63.5301 36.5753 63.4114 36.792 63.3203 36.8638C60.463 37.9115 57.1116 39.2034 53.2578 40.7494C53.342 40.4154 53.4828 40.0496 53.6788 39.652H53.6788Z" fill="url(#paint11_linear_190_28230)"/>
<path d="M32.8165 9.1641C35.9415 8.0143 39.2032 6.81343 42.607 5.56287C42.7395 5.51456 42.8182 5.49937 42.8417 5.51318C42.8762 5.5394 42.8693 5.61118 42.8155 5.72436C42.6678 6.08739 42.5477 6.30547 42.458 6.37587C39.6007 7.42353 36.248 8.71688 32.3955 10.2614C32.4797 9.92741 32.6205 9.56163 32.8165 9.1641H32.8165Z" fill="url(#paint12_linear_190_28230)"/>
<path d="M26.7218 12.6354C27.1883 12.6382 27.6065 12.9142 27.9723 13.4636C28.3436 14.0143 28.6004 14.7266 28.7494 15.6127C28.7674 15.7024 28.7757 15.7577 28.7729 15.7742C28.7922 15.8004 28.8046 15.8004 28.8102 15.7742C28.8212 15.7577 28.8419 15.7024 28.8709 15.6127C28.9482 15.0868 29.1304 14.3028 29.4203 13.2538C29.735 12.5056 30.0801 12.1302 30.45 12.1274C30.6418 12.1302 30.8323 12.2572 31.02 12.5112C31.1871 12.7362 31.2699 12.9197 31.2699 13.0578C31.2699 13.1654 31.2409 13.3062 31.1815 13.4788C31.1084 13.712 31.0228 13.8266 30.922 13.8238C30.8806 13.8266 30.7895 13.741 30.6487 13.5712C30.5093 13.4015 30.363 13.3173 30.2153 13.3145C29.884 13.3173 29.5762 14.0916 29.2947 15.6362C29.1704 16.3098 29.0324 16.7832 28.8847 17.0621C28.7784 17.2498 28.6887 17.3423 28.6114 17.3423C28.5479 17.3423 28.5134 17.2581 28.5106 17.0855C28.5135 16.815 28.3574 16.2905 28.0413 15.5064C27.7294 14.7238 27.503 14.3346 27.3691 14.3318C27.2808 14.3346 27.2228 14.3635 27.1966 14.4201C27.1717 14.4781 27.0986 14.5043 26.9716 14.5016C26.8336 14.5043 26.6472 14.4008 26.4195 14.1924C26.1945 13.9853 26.0799 13.8156 26.0771 13.6886C26.08 13.632 26.1765 13.4443 26.3643 13.1213C26.5547 12.801 26.6734 12.6382 26.7218 12.6354Z" fill="url(#paint13_linear_190_28230)"/>
<path d="M0.64323 12.7208C1.10977 12.7235 1.52939 12.9996 1.89379 13.5476C2.2651 14.0983 2.52321 14.8119 2.67091 15.6967C2.68886 15.7864 2.69712 15.843 2.69437 15.8582C2.7137 15.8844 2.7261 15.8844 2.73163 15.8582C2.74266 15.843 2.76337 15.7864 2.79237 15.6967C2.86967 15.1722 3.05325 14.3882 3.34173 13.3378C3.65644 12.591 4.00152 12.2142 4.37282 12.2114C4.56331 12.2142 4.75379 12.3412 4.94151 12.5965C5.10853 12.8215 5.19135 13.0037 5.19135 13.1418C5.19135 13.2508 5.16237 13.3916 5.10439 13.5627C5.02985 13.796 4.94427 13.9106 4.84351 13.9078C4.8021 13.9106 4.711 13.8264 4.57159 13.6566C4.4308 13.4868 4.28448 13.4013 4.13679 13.3985C3.80552 13.4012 3.49771 14.1756 3.2175 15.7202C3.0919 16.3938 2.95387 16.8686 2.80618 17.146C2.69989 17.3351 2.61017 17.4276 2.53287 17.4276C2.46937 17.4276 2.43487 17.342 2.43211 17.1709C2.43493 16.9003 2.2789 16.3758 1.96281 15.5904C1.65085 14.8092 1.42586 14.4199 1.29059 14.4172C1.20225 14.4199 1.14428 14.4489 1.11805 14.5041C1.09459 14.5621 1.02005 14.5897 0.893061 14.5869C0.755032 14.5897 0.568688 14.4862 0.340937 14.2764C0.115946 14.0693 0.00275974 13.8995 0 13.7726C0.00282688 13.7173 0.0980021 13.5296 0.285724 13.2052C0.47621 12.885 0.596295 12.7235 0.643225 12.7208H0.64323Z" fill="url(#paint14_linear_190_28230)"/>
<path d="M3.48281 25.6198C3.50903 25.5715 3.53251 25.5342 3.55873 25.5108C3.58495 25.4942 3.596 25.4997 3.596 25.5232C3.61257 25.5508 3.61257 25.5895 3.596 25.6488C3.37377 26.8676 3.00799 27.4764 2.50141 27.4764C1.96586 27.4764 1.69808 27.0319 1.69531 26.1388C1.69814 25.0415 2.01693 23.8889 2.65325 22.6798C2.81198 22.383 2.90447 22.2298 2.93621 22.2188C2.94724 22.2215 2.95003 22.227 2.95003 22.2326C2.95003 22.2905 2.90171 22.4603 2.80647 22.7364C2.37995 23.9842 2.16463 24.8565 2.16187 25.3548C2.1647 26.0353 2.35649 26.3749 2.73194 26.3749C2.95416 26.3749 3.204 26.1223 3.48283 25.6198L3.48281 25.6198Z" fill="url(#paint15_linear_190_28230)"/>
<defs>
<linearGradient id="paint0_linear_190_28230" x1="26.1691" y1="7.85682" x2="28.0799" y2="0.605112" gradientUnits="userSpaceOnUse">
<stop stop-color="white"/>
<stop offset="1" stop-color="white"/>
</linearGradient>
<linearGradient id="paint1_linear_190_28230" x1="51.756" y1="47.4341" x2="60.9093" y2="12.6959" gradientUnits="userSpaceOnUse">
<stop stop-color="white"/>
<stop offset="1" stop-color="white"/>
</linearGradient>
<linearGradient id="paint2_linear_190_28230" x1="26.1693" y1="7.85676" x2="28.0801" y2="0.605059" gradientUnits="userSpaceOnUse">
<stop stop-color="white"/>
<stop offset="1" stop-color="white"/>
</linearGradient>
<linearGradient id="paint3_linear_190_28230" x1="26.1686" y1="7.85647" x2="28.0794" y2="0.604764" gradientUnits="userSpaceOnUse">
<stop stop-color="white"/>
<stop offset="1" stop-color="white"/>
</linearGradient>
<linearGradient id="paint4_linear_190_28230" x1="51.7561" y1="47.4339" x2="60.9093" y2="12.6957" gradientUnits="userSpaceOnUse">
<stop stop-color="white"/>
<stop offset="1" stop-color="white"/>
</linearGradient>
<linearGradient id="paint5_linear_190_28230" x1="51.7567" y1="47.4339" x2="60.91" y2="12.6957" gradientUnits="userSpaceOnUse">
<stop stop-color="white"/>
<stop offset="1" stop-color="white"/>
</linearGradient>
<linearGradient id="paint6_linear_190_28230" x1="51.7569" y1="47.434" x2="60.9101" y2="12.6958" gradientUnits="userSpaceOnUse">
<stop stop-color="white"/>
<stop offset="1" stop-color="white"/>
</linearGradient>
<linearGradient id="paint7_linear_190_28230" x1="51.7564" y1="47.4341" x2="60.9096" y2="12.6959" gradientUnits="userSpaceOnUse">
<stop stop-color="white"/>
<stop offset="1" stop-color="white"/>
</linearGradient>
<linearGradient id="paint8_linear_190_28230" x1="51.7559" y1="47.434" x2="60.9091" y2="12.6958" gradientUnits="userSpaceOnUse">
<stop stop-color="white"/>
<stop offset="1" stop-color="white"/>
</linearGradient>
<linearGradient id="paint9_linear_190_28230" x1="51.7564" y1="47.4341" x2="60.9097" y2="12.696" gradientUnits="userSpaceOnUse">
<stop stop-color="white"/>
<stop offset="1" stop-color="white"/>
</linearGradient>
<linearGradient id="paint10_linear_190_28230" x1="51.7562" y1="47.4343" x2="60.9094" y2="12.696" gradientUnits="userSpaceOnUse">
<stop stop-color="white"/>
<stop offset="1" stop-color="white"/>
</linearGradient>
<linearGradient id="paint11_linear_190_28230" x1="51.7564" y1="47.434" x2="60.9096" y2="12.6957" gradientUnits="userSpaceOnUse">
<stop stop-color="white"/>
<stop offset="1" stop-color="white"/>
</linearGradient>
<linearGradient id="paint12_linear_190_28230" x1="51.7561" y1="47.4343" x2="60.9093" y2="12.6961" gradientUnits="userSpaceOnUse">
<stop stop-color="white"/>
<stop offset="1" stop-color="white"/>
</linearGradient>
<linearGradient id="paint13_linear_190_28230" x1="51.7568" y1="47.4341" x2="60.91" y2="12.6959" gradientUnits="userSpaceOnUse">
<stop stop-color="white"/>
<stop offset="1" stop-color="white"/>
</linearGradient>
<linearGradient id="paint14_linear_190_28230" x1="51.7565" y1="47.4339" x2="60.9097" y2="12.6957" gradientUnits="userSpaceOnUse">
<stop stop-color="white"/>
<stop offset="1" stop-color="white"/>
</linearGradient>
<linearGradient id="paint15_linear_190_28230" x1="51.7567" y1="47.434" x2="60.91" y2="12.6958" gradientUnits="userSpaceOnUse">
<stop stop-color="white"/>
<stop offset="1" stop-color="white"/>
</linearGradient>
</defs>
</svg>
