<svg width="34" height="34" viewBox="0 0 34 34" fill="none" xmlns="http://www.w3.org/2000/svg">
<g clip-path="url(#clip0_75_10480)">
<path d="M2.99317 7.36768C1.8969 8.95886 1.06377 10.7455 0.558594 12.6658H8.29157L2.99317 7.36768Z" fill="#29337A"/>
<path d="M12.2372 0.680542C10.2785 1.25097 8.46455 2.16119 6.86719 3.3484L12.2372 8.71843V0.680542Z" fill="#29337A"/>
<path d="M7.26758 30.9354C8.76588 31.9838 10.4398 32.7955 12.2382 33.3192V25.9655L7.26758 30.9354Z" fill="#29337A"/>
<path d="M0.753906 22.0196C1.316 23.8403 2.17734 25.5295 3.27814 27.0321L8.29064 22.0196H0.753906Z" fill="#29337A"/>
<path d="M3.27501 6.97278C3.17998 7.1027 3.08631 7.23448 2.9945 7.36763L8.2929 12.6657H0.559924C0.434599 13.1427 0.332315 13.6289 0.248047 14.1217H10.4245L3.27501 6.97278Z" fill="white"/>
<path d="M6.87305 30.6547C7.00239 30.7511 7.13533 30.8428 7.26733 30.9352L12.238 25.9651V33.3188C12.7155 33.4584 13.2005 33.5789 13.6939 33.6758V23.834L6.87305 30.6547Z" fill="white"/>
<path d="M0.376953 20.5635C0.482467 21.0568 0.607003 21.5427 0.754364 22.0194H8.29117L3.27867 27.0319C3.82382 27.7768 4.42834 28.4758 5.08519 29.1221L13.6438 20.5635H0.376953Z" fill="white"/>
<path d="M12.2386 0.680329V8.71822L6.86846 3.34848C6.12813 3.89902 5.43612 4.51021 4.79492 5.17186L13.6942 14.0712V0.323303C13.2011 0.420778 12.7161 0.541581 12.2386 0.680329Z" fill="white"/>
<path d="M12.2385 21.9681L12.1875 22.0195H12.2385V21.9681Z" fill="#D32030"/>
<path d="M13.6426 20.5635H13.6935V20.5122L13.6426 20.5635Z" fill="#D32030"/>
<path d="M20.1858 14.1213H20.1367V14.1707L20.1858 14.1213Z" fill="#D32030"/>
<path d="M12.2885 12.6657L12.2383 12.6152V12.6657H12.2885Z" fill="#D32030"/>
<path d="M13.6934 14.0712V14.1214H13.7436L13.6934 14.0712Z" fill="#D32030"/>
<path d="M21.5918 29.5557V33.3665C23.4136 32.8565 25.1122 32.0526 26.6314 31.0052L22.5023 26.876C22.1723 28.0353 22.0516 28.6347 21.5918 29.5557Z" fill="#252F6C"/>
<path d="M22.5241 7.78575L27.0317 3.27813C25.4123 2.09221 23.5752 1.18845 21.5918 0.632812V4.54746C22.122 5.60907 22.1665 6.41571 22.5241 7.78575Z" fill="#252F6C"/>
<path d="M30.6506 27.131C31.7858 25.6039 32.6705 23.8801 33.2452 22.0194H25.5391L30.6506 27.131Z" fill="#252F6C"/>
<path d="M33.4398 12.6657C32.9238 10.7048 32.0657 8.88466 30.9348 7.26849L25.5371 12.6657H33.4398Z" fill="#252F6C"/>
<path d="M23.5176 20.8517L24.6858 22.0199L30.2775 27.6116C30.4045 27.4527 30.5306 27.2943 30.652 27.1314L25.5404 22.0199H33.2466C33.3934 21.5434 33.5182 21.0573 33.6234 20.5639H23.6268C23.6105 20.7703 23.5372 20.6466 23.5176 20.8517Z" fill="#E7E7E7"/>
<path d="M22.3486 8.63857L27.4166 3.56993C27.2896 3.47145 27.1625 3.37348 27.0328 3.27844L22.5251 7.78606C22.5719 7.96428 22.3051 8.45603 22.3486 8.63857Z" fill="#E7E7E7"/>
<path d="M21.5927 4.23445V0.632754C21.1157 0.499102 20.6301 0.385836 20.1367 0.293457V2.05031C20.6784 2.6376 21.164 3.37526 21.5927 4.23445Z" fill="#E7E7E7"/>
<path d="M23.4029 14.1215H33.753C33.6689 13.6287 33.5664 13.1429 33.4411 12.6656H25.5384L30.9362 7.26843C30.4055 6.51038 29.8158 5.79748 29.1716 5.1369L23.0918 11.2161C23.2555 12.3188 23.3288 12.9592 23.4029 14.1215Z" fill="#E7E7E7"/>
<path d="M22.2578 26.6299L26.6329 31.0054C27.3605 30.5043 28.0458 29.9465 28.6852 29.341L22.9305 23.586C22.7468 24.6503 22.5289 25.6783 22.2578 26.6299Z" fill="#E7E7E7"/>
<path d="M20.1367 31.7477V33.7058C20.6301 33.614 21.1154 33.5002 21.5927 33.3665V29.5557C21.1637 30.4153 20.6781 31.1612 20.1367 31.7477Z" fill="#E7E7E7"/>
<path d="M23.091 11.2162L29.1702 5.13695C28.6229 4.57486 28.0361 4.05173 27.4155 3.56989L22.6387 8.34753C22.851 9.23493 22.9474 10.2507 23.091 11.2162Z" fill="#D71F28"/>
<path d="M16.1523 0.0209593C16.4356 0.00724962 16.718 0 17.0005 0C16.7163 0 16.4334 0.00724962 16.1523 0.0209593Z" fill="#D32030"/>
<path d="M17 34C16.7174 34 16.435 33.9923 16.1523 33.9786C16.4334 33.9928 16.7158 34 17 34Z" fill="#D32030"/>
<path d="M17 33.9999C18.0726 33.9999 19.12 33.896 20.1373 33.7057V31.7476C19.2443 32.7155 18.1996 33.9999 17 33.9999Z" fill="#D32030"/>
<path d="M33.7508 14.1213H23.5352C23.6705 16.2534 23.6541 18.4459 23.4863 20.5635H33.6214C33.8668 19.4138 33.9983 18.2225 33.9983 17.0002C33.9983 16.0182 33.9108 15.0578 33.7508 14.1213Z" fill="#D71F28"/>
<path d="M23.517 20.8516C23.4225 21.8561 23.0934 22.6388 22.9297 23.5863L28.6844 29.341C29.2537 28.8014 29.786 28.2243 30.2766 27.6116L24.6851 22.0195L23.517 20.8516Z" fill="#D71F28"/>
<path d="M20.1374 2.17661V0.293646C19.1203 0.103864 18.0729 0 17 0C18.1996 0 19.2443 1.20897 20.1374 2.17661Z" fill="#D32030"/>
<path d="M21.5918 30.291C22.0516 29.3698 22.4459 28.3093 22.7761 27.1502L21.5918 25.9659V30.291Z" fill="#29337A"/>
<path d="M22.9234 7.38644C22.5653 6.0164 22.122 4.7709 21.5918 3.70929V8.7175L22.9234 7.38644Z" fill="#29337A"/>
<path d="M23.8481 21.1812C23.8674 20.9761 23.8849 20.7703 23.9015 20.5635H23.2305L23.8481 21.1812Z" fill="white"/>
<path d="M21.5927 8.71741V3.70893C21.1637 2.84974 20.6784 2.11157 20.1367 1.52478V10.8492L23.0606 7.92533C23.0166 7.7428 22.9704 7.564 22.9242 7.38578L21.5927 8.71741Z" fill="white"/>
<path d="M20.1855 14.1214H23.9488C23.875 12.9591 23.7575 11.8156 23.5939 10.7132L20.1855 14.1214Z" fill="white"/>
<path d="M20.1367 32.4746C20.6784 31.8873 21.1637 31.1497 21.5927 30.2905V25.9654L22.7769 27.1497C23.0486 26.1976 23.2764 25.1805 23.4606 24.1162L20.1368 20.7926L20.1367 32.4746Z" fill="white"/>
<path d="M20.1371 32.4749V20.7928L23.4607 24.1167C23.6241 23.1689 23.7528 22.1859 23.8469 21.1812L23.2293 20.5636H23.9003C24.0681 18.446 24.0845 16.2535 23.9492 14.1215H20.186L23.5941 10.7133C23.4505 9.74751 23.2729 8.81339 23.0605 7.9257L20.1371 10.8496V1.52515C19.244 0.557216 18.1993 0 16.9997 0C16.717 0 16.4347 0.00724962 16.1515 0.0209593C15.3154 0.0628061 14.4954 0.165665 13.6949 0.323505V14.0713L4.79537 5.17199C4.24856 5.73624 3.73994 6.33746 3.27446 6.97284L8.96742 12.6658L10.4239 14.1218H0.247492C0.0880721 15.058 0 16.0184 0 17.0003C0 18.223 0.132072 19.4139 0.376837 20.5636H13.6439L5.08529 29.1222C5.64573 29.6728 6.24242 30.1855 6.87408 30.6546L13.6947 23.834V33.676C14.4951 33.8338 15.3156 33.9366 16.1518 33.9785C16.4345 33.9922 16.7168 34 16.9995 34C18.1993 34 19.244 33.4428 20.1371 32.4749Z" fill="#E51D35"/>
</g>
<defs>
<clipPath id="clip0_75_10480">
<rect width="34" height="34" fill="white"/>
</clipPath>
</defs>
</svg>
