<svg width="413" height="138" viewBox="0 0 413 138" fill="none" xmlns="http://www.w3.org/2000/svg">
<g clip-path="url(#clip0_1055_12874)">
<path d="M380.111 0.0004485H32.9073C31.6417 0.0004485 30.3913 0.0004485 29.129 0.0073485C28.0724 0.0142485 27.0242 0.034293 25.9574 0.0511635C23.6399 0.0784247 21.3279 0.282232 19.0413 0.660813C16.758 1.04764 14.5462 1.77691 12.4808 2.82396C10.4178 3.87988 8.53287 5.25193 6.89427 6.89034C5.24706 8.52415 3.87399 10.4126 2.82785 12.4831C1.77882 14.5495 1.05141 16.7638 0.670766 19.0496C0.286498 21.3324 0.0797201 23.6416 0.0522876 25.9565C0.0202593 27.0142 0.016877 28.0755 0 29.1334V108.878C0.016877 109.949 0.0202593 110.987 0.0522876 112.058C0.0797285 114.373 0.286506 116.682 0.670766 118.965C1.05036 121.252 1.77781 123.467 2.82785 125.535C3.87351 127.598 5.24678 129.479 6.89427 131.104C8.52666 132.75 10.4128 134.123 12.4808 135.17C14.5462 136.22 16.7578 136.954 19.0413 137.347C21.3282 137.722 23.6401 137.926 25.9574 137.957C27.0242 137.98 28.0724 137.994 29.129 137.994C30.3913 138 31.6418 138 32.9073 138H380.111C381.352 138 382.612 138 383.852 137.994C384.904 137.994 385.983 137.98 387.034 137.957C389.347 137.928 391.655 137.724 393.937 137.347C396.228 136.951 398.447 136.218 400.523 135.17C402.589 134.122 404.473 132.749 406.104 131.104C407.747 129.473 409.124 127.593 410.182 125.535C411.224 123.466 411.945 121.25 412.319 118.965C412.704 116.682 412.918 114.373 412.96 112.058C412.973 110.987 412.973 109.949 412.973 108.878C413 107.624 413 106.378 413 105.104V32.9001C413 31.6367 413 30.3834 412.973 29.1334C412.973 28.0755 412.973 27.0142 412.96 25.9563C412.918 23.6413 412.704 21.3326 412.319 19.0494C411.944 16.765 411.223 14.5508 410.182 12.483C408.052 8.33287 404.674 4.95474 400.523 2.82365C398.447 1.77916 396.228 1.05008 393.937 0.660502C391.655 0.280253 389.347 0.0763753 387.034 0.0506805C385.983 0.0338445 384.904 0.0136275 383.852 0.0069C382.612 0 381.352 0 380.111 0V0.0004485Z" fill="#A6A6A6" fill-opacity="0.3"/>
<path d="M29.1465 134.981C28.095 134.981 27.0688 134.968 26.0255 134.944C23.8642 134.916 21.708 134.728 19.5745 134.381C17.5851 134.039 15.6579 133.402 13.8565 132.491C12.0717 131.588 10.4437 130.404 9.03503 128.984C7.60598 127.581 6.41622 125.953 5.51292 124.166C4.59966 122.367 3.96763 120.439 3.63885 118.449C3.28379 116.31 3.09169 114.148 3.0642 111.98C3.04232 111.252 3.01367 108.83 3.01367 108.83V29.1328C3.01367 29.1328 3.04418 26.7474 3.06437 26.0466C3.09069 23.8824 3.28168 21.7233 3.63567 19.588C3.96506 17.5922 4.59758 15.6585 5.51133 13.8537C6.41131 12.0677 7.59446 10.439 9.01491 9.0308C10.4338 7.6092 12.0669 6.41889 13.8548 5.50328C15.6521 4.59553 17.5756 3.96293 19.561 3.62669C21.7015 3.27674 23.8652 3.08754 26.034 3.06068L29.1482 3.01855H383.836L386.988 3.06237C389.137 3.0879 391.281 3.27541 393.402 3.62331C395.407 3.96377 397.351 4.60078 399.168 5.51339C402.75 7.35861 405.665 10.2779 407.503 13.8621C408.403 15.6544 409.025 17.5724 409.351 19.5509C409.709 21.7037 409.909 23.8798 409.95 26.0618C409.96 27.0388 409.96 28.0883 409.96 29.1328C409.988 30.4265 409.988 31.6579 409.988 32.8995V105.103C409.988 106.357 409.988 107.58 409.96 108.813C409.96 109.935 409.96 110.962 409.947 112.02C409.907 114.163 409.71 116.301 409.357 118.415C409.035 120.419 408.406 122.363 407.493 124.176C406.584 125.944 405.401 127.558 403.988 128.957C402.578 130.385 400.947 131.576 399.158 132.485C397.346 133.402 395.405 134.042 393.402 134.381C391.268 134.73 389.112 134.918 386.95 134.944C385.94 134.968 384.881 134.981 383.853 134.981L380.112 134.988L29.1465 134.981Z" fill="#A09A92" fill-opacity="0.2"/>
<path d="M85.4864 70.0365C85.5235 67.1569 86.2887 64.3335 87.7107 61.829C89.1328 59.3245 91.1654 57.2202 93.6197 55.7119C92.0606 53.4861 90.0038 51.6544 87.6126 50.3622C85.2214 49.07 82.5618 48.3529 79.8449 48.2679C74.0492 47.6598 68.4307 51.7346 65.4773 51.7346C62.4668 51.7346 57.9197 48.3283 53.0232 48.429C49.856 48.5313 46.7693 49.4519 44.0639 51.1012C41.3585 52.7505 39.1266 55.0722 37.5857 57.8402C30.9108 69.3922 35.8897 86.3698 42.2836 95.7076C45.4827 100.28 49.2214 105.388 54.1135 105.207C58.9007 105.008 60.6886 102.155 66.4672 102.155C72.1921 102.155 73.8696 105.207 78.8609 105.091C83.9978 105.008 87.2343 100.499 90.3211 95.8828C92.6196 92.6248 94.3883 89.0239 95.5617 85.2137C92.5773 83.9519 90.0305 81.8399 88.2388 79.141C86.4471 76.442 85.4899 73.2756 85.4864 70.0365V70.0365Z" fill="white"/>
<path d="M76.0585 42.1286C78.8593 38.7676 80.2392 34.4475 79.905 30.0859C75.626 30.5352 71.6733 32.5795 68.8346 35.8116C67.4467 37.3905 66.3837 39.2274 65.7064 41.2173C65.0291 43.2072 64.7507 45.3109 64.8873 47.4084C67.0276 47.4304 69.145 46.9667 71.08 46.0521C73.0151 45.1376 74.7173 43.7961 76.0585 42.1286Z" fill="white"/>
<path d="M146 93.6315H129.663L125.74 105.211H118.82L134.294 62.3691H141.483L156.957 105.211H149.919L146 93.6315ZM131.355 88.288H144.304L137.921 69.4949H137.742L131.355 88.288Z" fill="white"/>
<path d="M190.376 89.5945C190.376 99.301 185.178 105.537 177.335 105.537C175.349 105.641 173.373 105.184 171.634 104.217C169.895 103.251 168.464 101.814 167.504 100.072H167.355V115.544H160.941V73.9752H167.15V79.1704H167.268C168.272 77.4369 169.728 76.0079 171.48 75.0355C173.232 74.0632 175.214 73.5838 177.217 73.6483C185.148 73.6484 190.376 79.9149 190.376 89.5945ZM183.783 89.5945C183.783 83.2707 180.514 79.1131 175.525 79.1131C170.625 79.1131 167.328 83.3582 167.328 89.5945C167.328 95.8881 170.625 100.103 175.525 100.103C180.514 100.103 183.783 95.9757 183.783 89.5945Z" fill="white"/>
<path d="M224.766 89.5945C224.766 99.301 219.569 105.537 211.726 105.537C209.739 105.641 207.763 105.184 206.025 104.217C204.286 103.251 202.854 101.814 201.894 100.072H201.746V115.544H195.332V73.9751H201.54V79.1703H201.658C202.663 77.4368 204.118 76.0079 205.87 75.0355C207.622 74.0632 209.605 73.5838 211.608 73.6483C219.539 73.6483 224.766 79.9149 224.766 89.5945ZM218.174 89.5945C218.174 83.2706 214.904 79.1131 209.916 79.1131C205.015 79.1131 201.719 83.3582 201.719 89.5945C201.719 95.888 205.015 100.103 209.916 100.103C214.904 100.103 218.174 95.9756 218.174 89.5945H218.174Z" fill="white"/>
<path d="M247.497 93.2748C247.973 97.5233 252.101 100.313 257.743 100.313C263.15 100.313 267.039 97.5232 267.039 93.6925C267.039 90.3671 264.693 88.376 259.139 87.0115L253.584 85.6739C245.714 83.7737 242.061 80.0946 242.061 74.1245C242.061 66.7326 248.505 61.6553 257.656 61.6553C266.712 61.6553 272.921 66.7326 273.13 74.1245H266.655C266.267 69.849 262.732 67.2683 257.565 67.2683C252.398 67.2683 248.862 69.8794 248.862 73.6798C248.862 76.7086 251.121 78.4909 256.645 79.8553L261.367 81.0143C270.16 83.093 273.814 86.624 273.814 92.8905C273.814 100.906 267.427 105.926 257.268 105.926C247.764 105.926 241.346 101.024 240.932 93.2745L247.497 93.2748Z" fill="white"/>
<path d="M287.656 66.5869V73.9788H293.598V79.0561H287.656V96.2758C287.656 98.9509 288.845 100.197 291.457 100.197C292.163 100.185 292.867 100.136 293.567 100.049V105.096C292.393 105.315 291.199 105.415 290.005 105.393C283.678 105.393 281.211 103.017 281.211 96.9596V79.0561H276.668V73.9788H281.211V66.5869H287.656Z" fill="white"/>
<path d="M297.039 89.5981C297.039 79.7704 302.829 73.5947 311.859 73.5947C320.919 73.5947 326.682 79.7702 326.682 89.5981C326.682 99.4529 320.949 105.602 311.859 105.602C302.772 105.602 297.039 99.4528 297.039 89.5981ZM320.147 89.5981C320.147 82.8565 317.056 78.8775 311.859 78.8775C306.662 78.8775 303.574 82.8868 303.574 89.5981C303.574 96.3667 306.662 100.315 311.859 100.315C317.056 100.315 320.147 96.3667 320.147 89.5981H320.147Z" fill="white"/>
<path d="M331.971 73.9749H338.088V79.2913H338.236C338.65 77.6309 339.623 76.1635 340.992 75.1358C342.361 74.1081 344.042 73.5827 345.753 73.648C346.492 73.6454 347.229 73.7257 347.95 73.8872V79.8843C347.017 79.5993 346.044 79.4684 345.068 79.4969C344.136 79.4591 343.208 79.6233 342.345 79.9783C341.483 80.3332 340.708 80.8705 340.073 81.5532C339.438 82.2359 338.958 83.0479 338.667 83.9334C338.375 84.819 338.279 85.757 338.385 86.6832V105.21H331.971L331.971 73.9749Z" fill="white"/>
<path d="M377.521 96.04C376.658 101.71 371.134 105.602 364.066 105.602C354.976 105.602 349.334 99.5135 349.334 89.7464C349.334 79.9489 355.006 73.5947 363.797 73.5947C372.442 73.5947 377.878 79.5311 377.878 89.0018V91.1985H355.809V91.5859C355.707 92.7355 355.851 93.8935 356.231 94.9832C356.611 96.0728 357.219 97.0691 358.014 97.9059C358.809 98.7427 359.773 99.4008 360.842 99.8366C361.911 100.272 363.061 100.476 364.214 100.433C365.73 100.575 367.251 100.224 368.551 99.4328C369.852 98.6412 370.861 97.4513 371.431 96.0399L377.521 96.04ZM355.839 86.7175H371.461C371.518 85.6839 371.362 84.6496 371 83.6794C370.639 82.7092 370.081 81.8242 369.361 81.0798C368.642 80.3354 367.776 79.7477 366.818 79.3537C365.861 78.9596 364.832 78.7677 363.797 78.7899C362.752 78.7837 361.717 78.9843 360.75 79.3802C359.784 79.776 358.905 80.3593 358.165 81.0964C357.425 81.8334 356.839 82.7096 356.44 83.6744C356.04 84.6392 355.836 85.6735 355.839 86.7176V86.7175Z" fill="white"/>
<path d="M130.55 30.123C131.895 30.0265 133.244 30.2296 134.501 30.7175C135.757 31.2055 136.89 31.9661 137.817 32.9446C138.744 33.9231 139.442 35.0951 139.861 36.376C140.28 37.6569 140.409 39.0147 140.24 40.3517C140.24 46.9282 136.684 50.7086 130.55 50.7086H123.111V30.123H130.55ZM126.31 47.7973H130.193C131.153 47.8547 132.115 47.6972 133.007 47.3363C133.9 46.9754 134.7 46.4201 135.351 45.7109C136.001 45.0017 136.485 44.1565 136.768 43.2366C137.051 42.3168 137.124 41.3456 136.984 40.3936C137.114 39.4454 137.033 38.4802 136.746 37.5671C136.459 36.6541 135.974 35.8157 135.325 35.1121C134.676 34.4086 133.879 33.8572 132.992 33.4976C132.104 33.138 131.149 32.979 130.193 33.032H126.31V47.7973Z" fill="white"/>
<path d="M143.853 42.9375C143.755 41.9165 143.872 40.8865 144.196 39.9133C144.52 38.9402 145.044 38.0455 145.734 37.2865C146.424 36.5276 147.265 35.9212 148.203 35.5063C149.141 35.0913 150.156 34.877 151.182 34.877C152.208 34.877 153.223 35.0913 154.161 35.5063C155.099 35.9212 155.94 36.5276 156.63 37.2865C157.32 38.0455 157.844 38.9402 158.168 39.9133C158.492 40.8865 158.609 41.9165 158.511 42.9375C158.611 43.9594 158.495 44.9909 158.172 45.9656C157.849 46.9403 157.326 47.8367 156.635 48.5971C155.945 49.3576 155.103 49.9652 154.164 50.3811C153.225 50.7969 152.209 51.0117 151.182 51.0117C150.155 51.0117 149.139 50.7969 148.2 50.3811C147.261 49.9652 146.419 49.3576 145.729 48.5971C145.038 47.8367 144.515 46.9403 144.192 45.9656C143.869 44.9909 143.753 43.9594 143.853 42.9375V42.9375ZM155.356 42.9375C155.356 39.57 153.843 37.6008 151.187 37.6008C148.521 37.6008 147.021 39.57 147.021 42.9375C147.021 46.3319 148.521 48.286 151.187 48.286C153.843 48.286 155.356 46.3184 155.356 42.9375H155.356Z" fill="white"/>
<path d="M177.995 50.7089H174.813L171.601 39.2673H171.358L168.16 50.7089H165.008L160.725 35.1738H163.836L166.62 47.028H166.849L170.044 35.1738H172.986L176.181 47.028H176.424L179.195 35.1738H182.262L177.995 50.7089Z" fill="white"/>
<path d="M185.865 35.1726H188.818V37.6405H189.047C189.436 36.7541 190.092 36.0111 190.923 35.5149C191.754 35.0188 192.72 34.7943 193.685 34.8727C194.441 34.8159 195.2 34.9299 195.906 35.2062C196.612 35.4825 197.247 35.9141 197.764 36.469C198.281 37.0239 198.666 37.6879 198.891 38.4118C199.116 39.1357 199.175 39.9009 199.064 40.6508V50.7075H195.997V41.4207C195.997 38.9242 194.912 37.6826 192.643 37.6826C192.13 37.6587 191.617 37.746 191.141 37.9387C190.664 38.1313 190.235 38.4246 189.883 38.7985C189.53 39.1725 189.263 39.6181 189.099 40.105C188.935 40.5919 188.878 41.1085 188.932 41.6194V50.7077H185.865L185.865 35.1726Z" fill="white"/>
<path d="M203.951 29.1094H207.018V50.7089H203.951V29.1094Z" fill="white"/>
<path d="M211.283 42.9319C211.185 41.9109 211.302 40.8808 211.626 39.9076C211.95 38.9344 212.474 38.0397 213.164 37.2807C213.854 36.5218 214.695 35.9154 215.633 35.5004C216.572 35.0854 217.586 34.8711 218.613 34.8711C219.639 34.8711 220.653 35.0854 221.592 35.5004C222.53 35.9154 223.371 36.5218 224.061 37.2807C224.751 38.0397 225.275 38.9344 225.599 39.9076C225.923 40.8808 226.04 41.9109 225.942 42.9319C226.042 43.9539 225.926 44.9854 225.603 45.9601C225.28 46.9348 224.756 47.8312 224.066 48.5916C223.376 49.352 222.534 49.9596 221.595 50.3754C220.656 50.7913 219.64 51.0061 218.613 51.0061C217.585 51.0061 216.569 50.7913 215.63 50.3754C214.691 49.9596 213.849 49.352 213.159 48.5916C212.469 47.8312 211.945 46.9348 211.622 45.9601C211.299 44.9854 211.183 43.9539 211.283 42.9319V42.9319ZM222.786 42.9319C222.786 39.5644 221.273 37.5952 218.617 37.5952C215.951 37.5952 214.451 39.5644 214.451 42.9319C214.451 46.3263 215.951 48.2804 218.617 48.2804C221.273 48.2804 222.786 46.3128 222.786 42.9319H222.786Z" fill="white"/>
<path d="M229.17 46.3185C229.17 43.5221 231.253 41.91 234.95 41.6809L239.16 41.4383V40.0974C239.16 38.4566 238.075 37.5301 235.978 37.5301C234.266 37.5301 233.08 38.1585 232.739 39.2568H229.77C230.083 36.5885 232.594 34.877 236.12 34.877C240.016 34.877 242.214 36.8159 242.214 40.0974V50.7119H239.261V48.5287H239.018C238.526 49.3118 237.834 49.9503 237.014 50.3788C236.194 50.8073 235.275 51.0106 234.35 50.9679C233.698 51.0357 233.038 50.9661 232.415 50.7636C231.791 50.5611 231.216 50.2302 230.728 49.7921C230.24 49.3541 229.849 48.8186 229.581 48.2204C229.312 47.6221 229.172 46.9742 229.17 46.3185V46.3185ZM239.16 44.9911V43.6923L235.365 43.9349C233.225 44.078 232.254 44.8058 232.254 46.1753C232.254 47.5735 233.467 48.3872 235.136 48.3872C235.625 48.4366 236.118 48.3873 236.588 48.2421C237.057 48.0969 237.493 47.8587 237.868 47.5419C238.243 47.225 238.551 46.8359 238.773 46.3977C238.995 45.9595 239.127 45.4811 239.16 44.9911V44.9911Z" fill="white"/>
<path d="M246.246 42.9347C246.246 38.0259 248.771 34.9161 252.697 34.9161C253.668 34.8714 254.632 35.1039 255.476 35.5866C256.32 36.0692 257.009 36.782 257.463 37.6416H257.692V29.1094H260.759V50.7089H257.82V48.2545H257.578C257.089 49.1083 256.376 49.8123 255.515 50.29C254.655 50.7678 253.681 51.0012 252.697 50.965C248.744 50.9651 246.246 47.8553 246.246 42.9347ZM249.414 42.9347C249.414 46.2297 250.968 48.2125 253.567 48.2125C256.152 48.2125 257.75 46.2011 257.75 42.9482C257.75 39.7104 256.135 37.6704 253.567 37.6704C250.985 37.6704 249.414 39.6666 249.414 42.9347H249.414Z" fill="white"/>
<path d="M273.449 42.9375C273.351 41.9165 273.468 40.8865 273.792 39.9133C274.116 38.9402 274.639 38.0455 275.329 37.2865C276.02 36.5276 276.861 35.9212 277.799 35.5063C278.737 35.0913 279.752 34.877 280.778 34.877C281.804 34.877 282.818 35.0913 283.757 35.5063C284.695 35.9212 285.536 36.5276 286.226 37.2865C286.916 38.0455 287.44 38.9402 287.764 39.9133C288.088 40.8865 288.204 41.9165 288.107 42.9375C288.206 43.9594 288.091 44.9909 287.768 45.9656C287.445 46.9403 286.921 47.8367 286.231 48.5971C285.541 49.3576 284.699 49.9652 283.76 50.3811C282.821 50.7969 281.805 51.0117 280.778 51.0117C279.751 51.0117 278.735 50.7969 277.796 50.3811C276.856 49.9652 276.015 49.3576 275.324 48.5971C274.634 47.8367 274.111 46.9403 273.788 45.9656C273.465 44.9909 273.349 43.9594 273.449 42.9375V42.9375ZM284.952 42.9375C284.952 39.57 283.439 37.6008 280.783 37.6008C278.117 37.6008 276.617 39.57 276.617 42.9375C276.617 46.3319 278.117 48.286 280.783 48.286C283.439 48.286 284.952 46.3184 284.952 42.9375Z" fill="white"/>
<path d="M292.221 35.1726H295.173V37.6405H295.402C295.791 36.7541 296.447 36.0111 297.278 35.5149C298.11 35.0188 299.075 34.7943 300.04 34.8727C300.796 34.8159 301.556 34.9299 302.262 35.2062C302.968 35.4825 303.603 35.9141 304.119 36.469C304.636 37.0239 305.021 37.6879 305.246 38.4118C305.471 39.1357 305.53 39.9009 305.419 40.6508V50.7075H302.352V41.4207C302.352 38.9242 301.267 37.6826 298.999 37.6826C298.485 37.6587 297.973 37.746 297.496 37.9387C297.02 38.1313 296.591 38.4246 296.238 38.7985C295.886 39.1725 295.618 39.6181 295.454 40.105C295.29 40.5919 295.233 41.1085 295.288 41.6194V50.7077H292.221V35.1726Z" fill="white"/>
<path d="M322.751 31.3057V35.2442H326.118V37.8266H322.751V45.8149C322.751 47.4422 323.421 48.1547 324.948 48.1547C325.339 48.1535 325.729 48.1299 326.118 48.084V50.6378C325.567 50.7363 325.009 50.7887 324.449 50.7944C321.038 50.7944 319.68 49.595 319.68 46.5999V37.8265H317.213V35.244H319.68V31.3057H322.751Z" fill="white"/>
<path d="M330.307 29.1094H333.347V37.6704H333.589C333.997 36.7757 334.671 36.0285 335.519 35.5305C336.367 35.0325 337.348 34.8079 338.328 34.8875C339.08 34.8465 339.832 34.9721 340.531 35.2551C341.229 35.5382 341.856 35.9718 342.367 36.5249C342.878 37.0781 343.261 37.7372 343.488 38.4553C343.715 39.1733 343.781 39.9326 343.68 40.679V50.709H340.61V41.4354C340.61 38.954 339.454 37.6973 337.287 37.6973C336.76 37.6541 336.23 37.7265 335.733 37.9095C335.237 38.0926 334.787 38.3818 334.414 38.7569C334.041 39.1321 333.755 39.5841 333.576 40.0814C333.396 40.5786 333.327 41.1092 333.374 41.6358V50.7089H330.307L330.307 29.1094Z" fill="white"/>
<path d="M361.565 46.5117C361.149 47.9315 360.246 49.1597 359.015 49.9813C357.784 50.8029 356.303 51.1657 354.831 51.0061C353.807 51.0332 352.79 50.8371 351.849 50.4317C350.909 50.0262 350.068 49.421 349.385 48.6581C348.702 47.8951 348.193 46.9928 347.894 46.0136C347.595 45.0344 347.512 44.0019 347.652 42.9876C347.516 41.9703 347.6 40.9355 347.898 39.9534C348.197 38.9713 348.703 38.0647 349.382 37.2951C350.062 36.5255 350.899 35.9108 351.837 35.4926C352.774 35.0745 353.791 34.8626 354.818 34.8714C359.142 34.8714 361.751 37.8246 361.751 42.7029V43.7727H350.777V43.9445C350.729 44.5146 350.8 45.0884 350.987 45.6292C351.174 46.17 351.472 46.6658 351.861 47.0848C352.251 47.5038 352.724 47.8368 353.25 48.0624C353.776 48.2881 354.343 48.4013 354.916 48.395C355.649 48.483 356.392 48.351 357.051 48.0156C357.709 47.6802 358.253 47.1567 358.613 46.5116L361.565 46.5117ZM350.777 41.5052H358.626C358.665 40.9838 358.594 40.4601 358.418 39.9677C358.242 39.4753 357.965 39.0252 357.605 38.6462C357.245 38.2672 356.809 37.9677 356.326 37.767C355.843 37.5663 355.324 37.4688 354.801 37.4808C354.27 37.4741 353.744 37.5737 353.253 37.7736C352.761 37.9735 352.315 38.2697 351.94 38.6448C351.565 39.0198 351.269 39.4661 351.069 39.9574C350.869 40.4487 350.77 40.9749 350.777 41.5052H350.777Z" fill="white"/>
</g>
<defs>
<clipPath id="clip0_1055_12874">
<rect width="413" height="138" fill="white"/>
</clipPath>
</defs>
</svg>
