<svg width="413" height="139" viewBox="0 0 413 139" fill="none" xmlns="http://www.w3.org/2000/svg">
<g clip-path="url(#clip0_1055_12780)">
<path d="M32.9073 0.000448673C31.6417 0.000448673 30.3913 0.000448673 29.129 0.00735133C28.0724 0.014254 27.0242 0.0343062 25.9573 0.0511832C23.6398 0.0784641 21.3278 0.282349 19.0413 0.661067C16.758 1.04804 14.5462 1.77759 12.4808 2.82505C10.4178 3.88137 8.53287 5.25395 6.89427 6.89299C5.24706 8.52743 3.87399 10.4166 2.82785 12.4879C1.77882 14.5551 1.05141 16.7702 0.670766 19.0569C0.286498 21.3406 0.0797201 23.6507 0.0522876 25.9664C0.0202593 27.0246 0.016877 28.0863 0 29.1446V108.92C0.016877 109.991 0.0202593 111.029 0.0522876 112.101C0.0797288 114.417 0.286507 116.727 0.670766 119.011C1.05036 121.299 1.77781 123.515 2.82785 125.583C3.87351 127.647 5.24678 129.529 6.89427 131.154C8.52666 132.801 10.4128 134.174 12.4808 135.222C14.5462 136.273 16.7578 137.007 19.0413 137.4C21.3282 137.775 23.6401 137.979 25.9574 138.01C27.0242 138.033 28.0724 138.047 29.1292 138.047C30.3913 138.054 31.6418 138.054 32.9073 138.054H380.111C381.352 138.054 382.612 138.054 383.852 138.047C384.904 138.047 385.983 138.033 387.034 138.01C389.347 137.981 391.655 137.777 393.937 137.4C396.228 137.004 398.447 136.27 400.523 135.222C402.589 134.174 404.473 132.8 406.104 131.154C407.747 129.523 409.124 127.642 410.182 125.583C411.224 123.513 411.945 121.297 412.319 119.011C412.704 116.727 412.918 114.417 412.96 112.101C412.973 111.029 412.973 109.991 412.973 108.92C413 107.666 413 106.419 413 105.144V32.9128C413 31.6488 413 30.3951 412.973 29.1446C412.973 28.0863 412.973 27.0246 412.96 25.9663C412.918 23.6504 412.704 21.3408 412.319 19.0568C411.944 16.7714 411.223 14.5564 410.182 12.4878C408.052 8.33608 404.674 4.95664 400.523 2.82474C398.447 1.77984 396.228 1.05049 393.937 0.660757C391.655 0.280361 389.347 0.0764043 387.034 0.0507C385.983 0.0338575 384.904 0.0136327 383.852 0.00690266C382.612 0 381.352 0 380.111 0" fill="#A6A6A6" fill-opacity="0.3"/>
<path d="M383.836 3.01953L386.988 3.06336C389.137 3.0889 391.281 3.27648 393.402 3.62451C395.407 3.96511 397.351 4.60236 399.168 5.51532C402.75 7.36126 405.665 10.2817 407.503 13.8673C408.403 15.6603 409.025 17.579 409.35 19.5583C409.709 21.7119 409.909 23.8888 409.95 26.0716C409.96 27.0491 409.96 28.099 409.96 29.1438C409.988 30.4381 409.988 31.6699 409.988 32.9119V105.144C409.988 106.398 409.988 107.621 409.96 108.855C409.96 109.977 409.96 111.005 409.947 112.063C409.907 114.207 409.709 116.345 409.357 118.46C409.035 120.466 408.406 122.41 407.493 124.224C406.584 125.993 405.401 127.606 403.988 129.006C402.578 130.435 400.947 131.626 399.158 132.535C397.346 133.454 395.405 134.093 393.402 134.433C391.268 134.781 389.112 134.97 386.95 134.996C385.939 135.019 384.881 135.033 383.853 135.033L380.112 135.04L29.1465 135.033C28.095 135.033 27.0688 135.019 26.0255 134.996C23.8643 134.968 21.708 134.78 19.5745 134.433C17.5851 134.09 15.658 133.453 13.8566 132.542C12.0717 131.639 10.4437 130.454 9.03507 129.033C7.60601 127.63 6.41625 126.002 5.51295 124.214C4.59969 122.414 3.96766 120.485 3.63888 118.494C3.28382 116.355 3.09172 114.191 3.06423 112.023C3.04235 111.295 3.01367 108.871 3.01367 108.871V29.1438C3.01367 29.1438 3.04422 26.7575 3.06441 26.0565C3.09073 23.8914 3.28171 21.7314 3.6357 19.5953C3.9651 17.5988 4.59761 15.6643 5.51136 13.8589C6.41133 12.0721 7.59448 10.4427 9.01494 9.03392C10.4338 7.61183 12.067 6.42112 13.8549 5.50521C15.6521 4.59711 17.5757 3.96427 19.561 3.6279C21.7015 3.27782 23.8653 3.08854 26.034 3.06167L29.1482 3.01953" fill="#A09A92" fill-opacity="0.2"/>
<path d="M370.186 70.0654C370.223 67.1848 370.988 64.3603 372.41 61.8548C373.832 59.3492 375.865 57.2441 378.319 55.7353C376.76 53.5087 374.703 51.6762 372.312 50.3835C369.921 49.0908 367.261 48.3735 364.544 48.2885C358.748 47.6801 353.13 51.7565 350.177 51.7565C347.166 51.7565 342.619 48.3489 337.722 48.4496C334.555 48.5519 331.469 49.4729 328.763 51.1229C326.058 52.7728 323.826 55.0954 322.285 57.8644C315.61 69.4209 320.589 86.405 326.983 95.7464C330.182 100.321 333.921 105.43 338.813 105.249C343.6 105.05 345.388 102.196 351.166 102.196C356.891 102.196 358.569 105.249 363.56 105.134C368.697 105.05 371.934 100.539 375.02 95.9217C377.319 92.6624 379.088 89.0602 380.261 85.2484C377.277 83.9862 374.73 81.8733 372.938 79.1734C371.146 76.4734 370.189 73.3058 370.186 70.0654V70.0654Z" fill="white"/>
<path d="M360.758 42.1439C363.559 38.7816 364.938 34.46 364.604 30.0967C360.325 30.5461 356.373 32.5912 353.534 35.8245C352.146 37.4041 351.083 39.2417 350.406 41.2323C349.728 43.2229 349.45 45.3275 349.587 47.4258C351.727 47.4478 353.844 46.9839 355.779 46.069C357.714 45.1541 359.416 43.8121 360.758 42.1439V42.1439Z" fill="white"/>
<path d="M59.3569 93.668H43.0204L39.0973 105.252H32.1777L47.6514 62.3936H54.8405L70.3142 105.252H63.2767L59.3569 93.668ZM44.7124 88.3224H57.6618L51.2782 69.5221H51.0995L44.7124 88.3224Z" fill="white"/>
<path d="M103.733 89.6299C103.733 99.3402 98.5356 105.579 90.6926 105.579C88.7059 105.683 86.73 105.225 84.9912 104.258C83.2525 103.291 81.8211 101.854 80.8611 100.112H80.7127V115.589H74.2988V74.0046H80.5071V79.2018H80.625C81.6292 77.4676 83.0848 76.0381 84.8368 75.0654C86.5888 74.0926 88.5717 73.613 90.5746 73.6776C98.5053 73.6776 103.733 79.9466 103.733 89.6299ZM97.1403 89.6299C97.1403 83.3036 93.8709 79.1445 88.8827 79.1445C83.9821 79.1445 80.6858 83.3912 80.6858 89.6299C80.6858 95.9259 83.9821 100.142 88.8827 100.142C93.871 100.142 97.1403 96.0135 97.1403 89.6299H97.1403Z" fill="white"/>
<path d="M138.124 89.63C138.124 99.3402 132.926 105.579 125.083 105.579C123.097 105.683 121.121 105.225 119.382 104.258C117.643 103.291 116.212 101.854 115.252 100.112H115.103V115.589H108.689V74.0046H114.898V79.2018H115.016C116.02 77.4676 117.475 76.0381 119.227 75.0654C120.979 74.0926 122.962 73.613 124.965 73.6776C132.896 73.6777 138.124 79.9467 138.124 89.63ZM131.531 89.63C131.531 83.3037 128.262 79.1445 123.273 79.1445C118.373 79.1445 115.077 83.3913 115.077 89.63C115.077 95.9259 118.373 100.142 123.273 100.142C128.262 100.142 131.531 96.0136 131.531 89.63Z" fill="white"/>
<path d="M160.855 93.3103C161.33 97.5604 165.459 100.351 171.101 100.351C176.507 100.351 180.396 97.5603 180.396 93.7281C180.396 90.4015 178.051 88.4096 172.496 87.0445L166.942 85.7066C159.072 83.8057 155.418 80.1251 155.418 74.1527C155.418 66.758 161.863 61.6787 171.013 61.6787C180.07 61.6787 186.278 66.758 186.487 74.1527H180.012C179.625 69.8756 176.089 67.2939 170.922 67.2939C165.755 67.2939 162.22 69.906 162.22 73.7078C162.22 76.7379 164.478 78.5208 170.002 79.8857L174.724 81.0451C183.517 83.1247 187.171 86.657 187.171 92.9259C187.171 100.944 180.784 105.966 170.626 105.966C161.121 105.966 154.704 101.062 154.289 93.3101L160.855 93.3103Z" fill="white"/>
<path d="M201.013 66.6094V74.0041H206.955V79.0834H201.013V96.3097C201.013 98.9858 202.203 100.233 204.815 100.233C205.52 100.221 206.224 100.171 206.925 100.084V105.133C205.75 105.353 204.557 105.452 203.362 105.43C197.036 105.43 194.569 103.054 194.569 96.9938V79.0834H190.025V74.0041H194.569V66.6094H201.013Z" fill="white"/>
<path d="M210.396 89.6297C210.396 79.7981 216.187 73.6201 225.216 73.6201C234.276 73.6201 240.039 79.798 240.039 89.6297C240.039 99.4882 234.306 105.639 225.216 105.639C216.13 105.639 210.396 99.4882 210.396 89.6297ZM233.504 89.6297C233.504 82.8855 230.413 78.905 225.216 78.905C220.019 78.905 216.932 82.9158 216.932 89.6297C216.932 96.4009 220.019 100.351 225.216 100.351C230.413 100.351 233.504 96.4009 233.504 89.6297H233.504Z" fill="white"/>
<path d="M245.328 74.0043H251.445V79.3228H251.594C252.008 77.6617 252.981 76.1937 254.35 75.1656C255.718 74.1376 257.399 73.612 259.11 73.6773C259.849 73.6747 260.586 73.755 261.307 73.9166V79.916C260.374 79.6309 259.401 79.4999 258.426 79.5284C257.494 79.4906 256.565 79.6549 255.703 80.01C254.84 80.3651 254.065 80.9026 253.43 81.5856C252.795 82.2685 252.316 83.0808 252.024 83.9667C251.733 84.8526 251.637 85.791 251.742 86.7175V105.252H245.328L245.328 74.0043Z" fill="white"/>
<path d="M290.878 96.074C290.016 101.746 284.491 105.639 277.424 105.639C268.334 105.639 262.691 99.5489 262.691 89.778C262.691 79.9768 268.364 73.6201 277.154 73.6201C285.799 73.6201 291.236 79.5588 291.236 89.0331V91.2307H269.166V91.6182C269.064 92.7682 269.208 93.9267 269.588 95.0168C269.969 96.1069 270.577 97.1035 271.372 97.9407C272.167 98.7778 273.131 99.4362 274.2 99.8721C275.269 100.308 276.418 100.511 277.572 100.469C279.088 100.611 280.609 100.26 281.909 99.4681C283.209 98.6762 284.219 97.4858 284.788 96.0739L290.878 96.074ZM269.196 86.748H284.818C284.873 85.7627 284.733 84.7762 284.407 83.8449C284.081 82.9136 283.574 82.0557 282.916 81.3202C282.258 80.5847 281.462 79.986 280.573 79.5582C279.683 79.1305 278.718 78.8821 277.733 78.8272C277.54 78.8165 277.347 78.8132 277.154 78.8173C276.115 78.8111 275.085 79.0096 274.123 79.4014C273.161 79.7932 272.286 80.3707 271.547 81.1008C270.808 81.831 270.22 82.6996 269.817 83.6569C269.413 84.6143 269.203 85.6417 269.196 86.6805C269.196 86.703 269.196 86.7255 269.196 86.748Z" fill="white"/>
<path d="M185.661 55.51H183.406C179.016 55.51 174.385 54.6085 174.385 48.5333C174.679 45.8015 175.305 43.1157 176.248 40.5352L179.166 41.3172L178.744 42.6704C178.12 44.5737 177.707 46.5397 177.512 48.5332C177.512 52.7125 181.511 52.7125 184.218 52.7125H186.112C187.465 52.7125 189.329 52.1716 189.329 50.4577V38.5803H192.548V47.4816C193.241 47.7758 193.989 47.9189 194.742 47.9012H195.854V50.6684H194.742C193.999 50.6632 193.26 50.552 192.548 50.3381V50.7592C192.548 52.3216 191.345 55.51 185.661 55.51ZM183.827 35.3329C183.449 35.3128 183.085 35.1825 182.779 34.9579C182.474 34.7333 182.242 34.4244 182.11 34.0692C181.978 33.7139 181.953 33.3279 182.038 32.9587C182.123 32.5895 182.315 32.2533 182.588 31.9914C182.862 31.7296 183.207 31.5535 183.579 31.4851C183.952 31.4166 184.336 31.4587 184.685 31.6061C185.034 31.7535 185.333 31.9998 185.543 32.3147C185.754 32.6296 185.868 32.9992 185.871 33.3781C185.885 33.8838 185.697 34.3744 185.349 34.7418C185.002 35.1092 184.522 35.3233 184.016 35.3371C183.953 35.3388 183.89 35.3374 183.827 35.3329V35.3329Z" fill="white"/>
<path d="M199.486 47.9007C199.115 46.5802 198.942 45.2121 198.973 43.841C198.878 42.9342 198.977 42.0176 199.264 41.152C199.55 40.2864 200.018 39.4917 200.635 38.8205C201.252 38.1494 202.005 37.6172 202.843 37.2592C203.682 36.9013 204.587 36.7259 205.498 36.7445C209.769 36.7445 211.424 40.2329 211.424 44.3836C211.424 47.4507 210.34 51.5997 206.161 51.5997C204.783 51.4667 203.428 51.1534 202.131 50.6679H195.305V47.9007L199.486 47.9007ZM202.733 48.022C203.755 48.4542 204.843 48.7084 205.95 48.7736C207.814 48.7736 208.326 46.3974 208.326 44.2926C208.326 42.2787 207.755 39.392 205.318 39.392C203.124 39.392 202.162 41.4362 202.162 44.023C202.121 45.3789 202.314 46.7317 202.733 48.022V48.022Z" fill="white"/>
<path d="M232.647 55.5092H230.392C226 55.5092 221.369 54.6076 221.369 48.5324C221.664 45.8008 222.29 43.1151 223.233 40.5343L226.152 41.3163L225.73 42.6695C225.106 44.5727 224.692 46.5388 224.497 48.5323C224.497 52.7117 228.497 52.7117 231.204 52.7117H233.098C234.45 52.7117 236.314 52.1707 236.314 50.4568V30.3994H239.532V47.4808C240.226 47.7748 240.974 47.9178 241.726 47.9004H242.839V50.6675H241.726C240.983 50.6622 240.244 50.5509 239.532 50.3372V50.7583C239.532 52.3207 238.329 55.5092 232.647 55.5092Z" fill="white"/>
<path d="M253.658 36.8965V45.3462C253.658 48.9239 251.521 50.6681 247.281 50.6681H242.289V47.901H247.163C249.717 47.901 250.408 46.7887 250.408 44.8946V36.8965H253.658ZM245.599 57.4039C245.22 57.3835 244.856 57.2529 244.551 57.0281C244.247 56.8034 244.014 56.4943 243.883 56.139C243.751 55.7838 243.726 55.3978 243.812 55.0287C243.897 54.6596 244.088 54.3235 244.362 54.0618C244.636 53.8001 244.98 53.6242 245.353 53.5559C245.726 53.4876 246.11 53.5297 246.459 53.6772C246.808 53.8246 247.106 54.071 247.317 54.3858C247.527 54.7006 247.641 55.0702 247.645 55.449C247.652 55.7155 247.603 55.9806 247.502 56.2272C247.4 56.4737 247.248 56.6963 247.055 56.8805C246.863 57.0646 246.633 57.2064 246.383 57.2965C246.132 57.3867 245.865 57.4233 245.599 57.4039H245.599ZM250.651 57.4039C250.273 57.3841 249.908 57.254 249.603 57.0296C249.297 56.8053 249.064 56.4964 248.933 56.1412C248.801 55.786 248.776 55.3999 248.86 55.0306C248.945 54.6613 249.136 54.3249 249.41 54.0629C249.684 53.8009 250.028 53.6247 250.401 53.5561C250.774 53.4875 251.158 53.5295 251.507 53.6769C251.856 53.8243 252.155 54.0706 252.366 54.3855C252.576 54.7004 252.69 55.0701 252.693 55.449C252.707 55.9548 252.52 56.4453 252.172 56.8127C251.824 57.1801 251.344 57.3942 250.838 57.408C250.776 57.4097 250.714 57.4083 250.651 57.4039H250.651Z" fill="white"/>
<path d="M256.057 55.1796C256.516 55.2359 256.977 55.2657 257.439 55.2689C260.088 55.2689 261.41 53.7354 261.41 50.638V38.5499H264.659V47.9012H267.635V50.6683H264.628C264.664 52.7183 263.922 54.7059 262.552 56.2312C261.091 57.454 259.225 58.0869 257.321 58.0058C256.637 57.9949 255.954 57.9448 255.275 57.8558L256.057 55.1796ZM262.882 35.6328C262.504 35.6124 262.14 35.4818 261.835 35.257C261.53 35.0323 261.298 34.7232 261.166 34.3679C261.035 34.0127 261.01 33.6267 261.095 33.2576C261.181 32.8885 261.372 32.5524 261.646 32.2907C261.92 32.029 262.264 31.8531 262.637 31.7848C263.009 31.7164 263.394 31.7586 263.743 31.9061C264.092 32.0535 264.39 32.2999 264.6 32.6147C264.811 32.9295 264.925 33.2991 264.928 33.6779C264.936 33.9445 264.887 34.2096 264.786 34.4563C264.684 34.7029 264.532 34.9255 264.34 35.1097C264.147 35.294 263.917 35.4357 263.666 35.5258C263.415 35.6159 263.148 35.6523 262.882 35.6328Z" fill="white"/>
<path d="M278.305 50.6683C277.008 50.6281 275.74 50.2773 274.607 49.6454C273.05 50.4788 271.282 50.8346 269.525 50.6683H267.088V47.9012H269.707C272.171 47.9012 272.653 47.5102 272.653 45.7071V36.8968H275.871V47.3603C276.63 47.7251 277.463 47.9102 278.305 47.9012H280.32V50.6684L278.305 50.6683ZM274.125 33.8886C273.747 33.8682 273.383 33.7376 273.078 33.5129C272.773 33.2881 272.541 32.9791 272.409 32.6238C272.278 32.2685 272.253 31.8826 272.338 31.5135C272.423 31.1444 272.615 30.8082 272.889 30.5465C273.163 30.2848 273.507 30.109 273.88 30.0406C274.252 29.9723 274.637 30.0145 274.986 30.1619C275.334 30.3094 275.633 30.5557 275.843 30.8706C276.054 31.1854 276.168 31.555 276.171 31.9338C276.179 32.2003 276.13 32.4655 276.029 32.7121C275.927 32.9588 275.775 33.1814 275.582 33.3656C275.39 33.5498 275.16 33.6916 274.909 33.7817C274.658 33.8718 274.391 33.9082 274.125 33.8886V33.8886Z" fill="white"/>
<path d="M288.016 36.8968V45.3464C288.016 48.9242 285.883 50.6684 281.643 50.6684H279.775V47.9012H281.521C284.076 47.9012 284.767 46.789 284.767 44.8948V36.8968H288.016ZM283.233 33.8886C282.855 33.8682 282.491 33.7376 282.186 33.5129C281.881 33.2881 281.649 32.9791 281.517 32.6238C281.386 32.2685 281.361 31.8826 281.446 31.5135C281.532 31.1444 281.723 30.8082 281.997 30.5465C282.271 30.2848 282.615 30.109 282.988 30.0406C283.36 29.9723 283.745 30.0145 284.094 30.1619C284.443 30.3094 284.741 30.5557 284.952 30.8706C285.162 31.1854 285.276 31.555 285.279 31.9338C285.287 32.2003 285.238 32.4655 285.137 32.7121C285.035 32.9588 284.883 33.1814 284.691 33.3656C284.498 33.5498 284.268 33.6916 284.017 33.7817C283.766 33.8718 283.499 33.9082 283.233 33.8886V33.8886ZM288.286 33.8886C287.907 33.8682 287.543 33.7376 287.239 33.5129C286.934 33.2881 286.701 32.9791 286.57 32.6238C286.438 32.2685 286.414 31.8826 286.499 31.5135C286.584 31.1444 286.775 30.8082 287.049 30.5465C287.323 30.2848 287.667 30.109 288.04 30.0406C288.413 29.9723 288.797 30.0145 289.146 30.1619C289.495 30.3094 289.793 30.5557 290.004 30.8706C290.214 31.1854 290.328 31.555 290.332 31.9338C290.339 32.2003 290.29 32.4655 290.189 32.7121C290.088 32.9588 289.936 33.1814 289.743 33.3656C289.55 33.5498 289.321 33.6916 289.07 33.7817C288.819 33.8718 288.552 33.9082 288.286 33.8886Z" fill="white"/>
</g>
<defs>
<clipPath id="clip0_1055_12780">
<rect width="413" height="138.054" fill="white"/>
</clipPath>
</defs>
</svg>
