<svg width="413" height="123" viewBox="0 0 413 123" fill="none" xmlns="http://www.w3.org/2000/svg">
<path d="M397.433 122.404H15.8737C7.4794 122.404 0.611328 115.536 0.611328 107.142V15.5676C0.611328 7.17333 7.4794 0.305255 15.8737 0.305255H397.433C405.828 0.305255 412.696 7.17333 412.696 15.5676V107.142C412.696 115.536 405.828 122.404 397.433 122.404Z" fill="#A09A92" fill-opacity="0.3"/>
<path d="M397.433 0.305255H15.8737C7.4794 0.305255 0.611328 7.17333 0.611328 15.5676V107.142C0.611328 115.536 7.4794 122.404 15.8737 122.404H397.433C405.828 122.404 412.696 115.536 412.696 107.142V15.5676C412.696 7.17333 405.828 0.305255 397.433 0.305255ZM397.433 2.74724C404.503 2.74724 410.254 8.49932 410.254 15.5676V107.142C410.254 114.211 404.503 119.964 397.433 119.964H15.8737C8.80539 119.964 3.05331 114.211 3.05331 107.142V15.5676C3.05331 8.49932 8.80539 2.74724 15.8737 2.74724H397.433Z" fill="#A6A6A6" fill-opacity="0.2"/>
<path d="M327.031 91.8798H332.727V53.7201H327.031V91.8798ZM378.334 67.4661L371.805 84.0102H371.609L364.833 67.4661H358.697L368.859 90.5895L363.066 103.452H369.009L384.668 67.4661H378.334ZM346.033 87.5456C344.165 87.5456 341.564 86.613 341.564 84.3047C341.564 81.3594 344.806 80.2303 347.602 80.2303C350.108 80.2303 351.283 80.7703 352.806 81.5075C352.364 85.0416 349.32 87.5456 346.033 87.5456V87.5456ZM346.72 66.6312C342.596 66.6312 338.325 68.4483 336.558 72.4739L341.613 74.5844C342.693 72.4739 344.705 71.7859 346.817 71.7859C349.763 71.7859 352.757 73.5542 352.806 76.6961V77.0884C351.774 76.4993 349.568 75.6159 346.866 75.6159C341.417 75.6159 335.868 78.6097 335.868 84.2068C335.868 89.3126 340.337 92.6023 345.343 92.6023C349.174 92.6023 351.283 90.884 352.611 88.8715H352.806V91.8166H358.304V77.1861C358.304 70.4123 353.249 66.6312 346.72 66.6312V66.6312ZM311.518 72.1113H303.417V59.0311H311.518C315.777 59.0311 318.194 62.5568 318.194 65.5711C318.194 68.5283 315.777 72.1113 311.518 72.1113ZM311.372 53.7201H297.724V91.8798H303.417V77.4223H311.372C317.684 77.4223 323.89 72.8519 323.89 65.5711C323.89 58.2906 317.684 53.7201 311.372 53.7201ZM236.949 87.5526C233.015 87.5526 229.72 84.258 229.72 79.733C229.72 75.1604 233.015 71.8158 236.949 71.8158C240.834 71.8158 243.883 75.1604 243.883 79.733C243.883 84.258 240.834 87.5526 236.949 87.5526V87.5526ZM243.49 69.6028H243.293C242.015 68.0787 239.555 66.7017 236.457 66.7017C229.966 66.7017 224.016 72.4059 224.016 79.733C224.016 87.0114 229.966 92.6667 236.457 92.6667C239.555 92.6667 242.015 91.2894 243.293 89.7168H243.49V91.5852C243.49 96.5528 240.834 99.2081 236.556 99.2081C233.065 99.2081 230.901 96.6993 230.015 94.5852L225.048 96.6505C226.475 100.093 230.261 104.322 236.556 104.322C243.244 104.322 248.899 100.387 248.899 90.7983V67.4886H243.49V69.6028ZM252.833 91.8798H258.538V53.7189H252.833V91.8798ZM266.947 79.2907C266.799 74.2743 270.832 71.7179 273.733 71.7179C275.997 71.7179 277.914 72.8482 278.552 74.4724L266.947 79.2907ZM284.651 74.9636C283.57 72.0613 280.273 66.7017 273.536 66.7017C266.848 66.7017 261.292 71.9636 261.292 79.6842C261.292 86.9625 266.799 92.6667 274.175 92.6667C280.127 92.6667 283.57 89.0275 284.995 86.9134L280.569 83.9622C279.095 86.1265 277.077 87.5526 274.175 87.5526C271.274 87.5526 269.209 86.2244 267.881 83.6188L285.24 76.4385L284.651 74.9636ZM146.348 70.6852V76.1928H159.527C159.134 79.2907 158.101 81.5526 156.527 83.1265C154.61 85.045 151.61 87.1591 146.348 87.1591C138.234 87.1591 131.891 80.6189 131.891 72.5048C131.891 64.3907 138.234 57.8495 146.348 57.8495C150.725 57.8495 153.921 59.5711 156.282 61.7842L160.167 57.8996C156.872 54.7516 152.495 52.342 146.348 52.342C135.234 52.342 125.891 61.3907 125.891 72.5048C125.891 83.6188 135.234 92.6667 146.348 92.6667C152.348 92.6667 156.872 90.7006 160.412 87.0114C164.051 83.3722 165.183 78.2581 165.183 74.1278C165.183 72.8482 165.085 71.669 164.887 70.6852H146.348ZM180.166 87.5526C176.231 87.5526 172.838 84.3069 172.838 79.6842C172.838 75.0124 176.231 71.8158 180.166 71.8158C184.1 71.8158 187.493 75.0124 187.493 79.6842C187.493 84.3069 184.1 87.5526 180.166 87.5526V87.5526ZM180.166 66.7017C172.986 66.7017 167.134 72.1602 167.134 79.6842C167.134 87.1591 172.986 92.6667 180.166 92.6667C187.346 92.6667 193.198 87.1591 193.198 79.6842C193.198 72.1602 187.346 66.7017 180.166 66.7017ZM208.595 87.5526C204.661 87.5526 201.268 84.3069 201.268 79.6842C201.268 75.0124 204.661 71.8158 208.595 71.8158C212.528 71.8158 215.922 75.0124 215.922 79.6842C215.922 84.3069 212.528 87.5526 208.595 87.5526ZM208.595 66.7017C201.414 66.7017 195.563 72.1602 195.563 79.6842C195.563 87.1591 201.414 92.6667 208.595 92.6667C215.774 92.6667 221.626 87.1591 221.626 79.6842C221.626 72.1602 215.774 66.7017 208.595 66.7017Z" fill="white"/>
<path d="M32.6922 99.1729L32.4654 98.9558C31.5771 98.016 31.0527 96.5566 31.0527 94.6668V95.1115V27.603C31.0527 27.5969 31.0527 27.5923 31.0527 27.5874C31.0527 27.5932 31.0527 27.5981 31.0527 27.6042V28.0502C31.0527 26.0038 31.6641 24.4623 32.6886 23.538L70.5081 61.3566L32.6922 99.1729ZM31.0527 27.5838C31.0527 27.4156 31.0573 27.2523 31.0659 27.0914C31.0573 27.251 31.0527 27.4156 31.0527 27.5838ZM31.0659 27.0841C31.0659 27.0819 31.0659 27.0795 31.0668 27.077C31.0659 27.0795 31.0659 27.0819 31.0659 27.0841ZM31.0668 27.0627C31.0668 27.0615 31.0668 27.0603 31.0668 27.059C31.0668 27.0603 31.0668 27.0615 31.0668 27.0627Z" fill="url(#paint0_linear_1055_12807)"/>
<path d="M83.1124 74.415L83.3999 74.2517L98.3354 65.7655C99.7594 64.956 100.708 63.9747 101.182 62.9362C100.71 63.9747 99.7603 64.9572 98.3354 65.7668L83.3999 74.253L83.1124 74.415V74.415ZM83.1161 73.9679L70.5078 61.3575L83.1148 48.7492L98.3354 57.3963C100.268 58.4945 101.353 59.91 101.535 61.3562C101.535 61.3575 101.535 61.3599 101.535 61.362C101.353 62.8049 100.268 64.2216 98.3354 65.3196L83.1161 73.9679" fill="url(#paint1_linear_1055_12807)"/>
<path d="M35.3879 100.613C34.3314 100.613 33.4096 100.27 32.6907 99.6212L32.6919 99.62C33.4108 100.269 34.3339 100.613 35.3903 100.613C35.4819 100.613 35.575 100.611 35.6693 100.606C35.5738 100.611 35.4795 100.613 35.3879 100.613V100.613ZM35.3891 100.166C34.3327 100.167 33.4108 99.8227 32.6919 99.174V99.1731L70.5078 61.3569L83.1161 73.9673L38.8088 99.142C37.5829 99.837 36.4215 100.166 35.3891 100.166V100.166ZM32.6813 99.613C32.6144 99.5522 32.5488 99.4878 32.4844 99.421L32.6813 99.613Z" fill="url(#paint2_linear_1055_12807)"/>
<path d="M70.509 61.3574L32.6895 23.5388C33.4083 22.8914 34.3289 22.548 35.3842 22.548C36.4193 22.548 37.5817 22.8782 38.81 23.5745L83.116 48.7492L70.509 61.3574V61.3574ZM83.4011 48.4644L38.81 23.1288C37.5817 22.4323 36.4193 22.102 35.3842 22.102C35.3793 22.102 35.3759 22.102 35.3711 22.102C35.3772 22.102 35.3817 22.102 35.3891 22.102C36.4217 22.102 37.5829 22.431 38.81 23.1276L83.4011 48.4644V48.4644Z" fill="url(#paint3_linear_1055_12807)"/>
<path d="M35.669 100.606C36.6287 100.552 37.6913 100.221 38.8085 99.5881L83.1122 74.4147L38.8085 99.5881C37.6922 100.222 36.6287 100.552 35.669 100.606V100.606ZM32.6904 99.6214L32.681 99.6132C32.6843 99.6156 32.688 99.619 32.6904 99.6214ZM32.4841 99.4212L32.4648 99.4022V99.401C32.4722 99.408 32.478 99.4151 32.4841 99.4212Z" fill="#A09A92" fill-opacity="0.3"/>
<path d="M83.1133 74.415L83.4008 74.2517L83.1133 74.415Z" fill="url(#paint4_linear_1055_12807)"/>
<path d="M35.39 100.613C34.3336 100.613 33.4105 100.269 32.6916 99.62L32.6904 99.6212C32.688 99.6188 32.6843 99.6154 32.681 99.613L32.4841 99.421C32.478 99.4149 32.4722 99.4079 32.4648 99.4008L32.6916 99.174C33.4105 99.8227 34.3324 100.167 35.3888 100.166C36.4212 100.166 37.5826 99.837 38.8085 99.142L83.1158 73.9673L83.3997 74.2512L83.1121 74.4145L38.8085 99.588C37.6913 100.221 36.6287 100.551 35.669 100.606C35.5747 100.611 35.4816 100.613 35.39 100.613" fill="url(#paint5_linear_1055_12807)"/>
<path d="M32.4654 99.4023C31.5771 98.4625 31.0527 97.0031 31.0527 95.1133V95.1121C31.0527 97.0031 31.5771 98.4613 32.4654 99.4011V99.4023" fill="#A09A92" fill-opacity="0.3"/>
<path d="M32.4654 99.4014C31.5771 98.4615 31.0527 97.0033 31.0527 95.1123V94.6676C31.0527 96.5574 31.5771 98.0168 32.4654 98.9566L32.6922 99.1737L32.4654 99.4014" fill="url(#paint6_linear_1055_12807)"/>
<path d="M32.4648 99.4014L32.6917 99.1737V99.1746L32.4648 99.4014" fill="url(#paint7_linear_1055_12807)"/>
<path d="M101.182 62.9355C101.416 62.4203 101.535 61.891 101.535 61.3614C101.535 61.3605 101.535 61.3592 101.535 61.3592C101.535 61.8898 101.416 62.4191 101.182 62.9355Z" fill="#A09A92" fill-opacity="0.3"/>
<path d="M83.4011 74.251L83.1172 73.9671L98.3365 65.3188C100.269 64.2208 101.355 62.8042 101.536 61.3613C101.536 61.8909 101.418 62.4202 101.183 62.9354C100.71 63.9739 99.7605 64.9553 98.3365 65.7648L83.4011 74.251Z" fill="url(#paint8_linear_1055_12807)"/>
<path d="M101.534 61.3574V61.3562C101.533 59.7595 100.466 58.163 98.3351 56.9515L83.3997 48.4653H83.3984L83.3997 48.4644L98.3351 56.9503C100.468 58.1618 101.537 59.7607 101.534 61.3574Z" fill="#A6A6A6" fill-opacity="0.2"/>
<path d="M101.535 61.3555C101.354 59.9092 100.269 58.4938 98.3358 57.3955L83.1152 48.7484L83.3991 48.4646H83.4003L98.3358 56.9507C100.467 58.1623 101.534 59.7587 101.535 61.3555Z" fill="url(#paint9_linear_1055_12807)"/>
<path d="M31.0527 27.5879C31.0527 27.5867 31.0527 27.5855 31.0527 27.5842C31.0527 27.5855 31.0527 27.5867 31.0527 27.5879ZM31.0659 27.0919C31.0659 27.0894 31.0659 27.087 31.0659 27.0845C31.0659 27.087 31.0659 27.0894 31.0659 27.0919ZM31.0668 27.0775C31.0668 27.0726 31.0668 27.0681 31.0668 27.0632C31.0668 27.0681 31.0668 27.0726 31.0668 27.0775ZM31.0668 27.0595C31.2435 23.9237 32.9486 22.1124 35.3607 22.1017C34.3149 22.1078 33.4041 22.4512 32.691 23.0937V23.0925L32.6824 23.1011C32.6074 23.1688 32.5359 23.2406 32.4654 23.3144C31.6641 24.1621 31.1587 25.4319 31.0668 27.0595Z" fill="#A6A6A6" fill-opacity="0.2"/>
<path d="M31.0527 28.0508V27.6048C31.0527 27.5987 31.0527 27.5938 31.0527 27.588C31.0527 27.5868 31.0527 27.5856 31.0527 27.5844C31.0527 27.4162 31.0573 27.2516 31.0659 27.092C31.0659 27.0896 31.0659 27.0871 31.0659 27.0847C31.0659 27.0825 31.0659 27.0801 31.0668 27.0777C31.0668 27.0728 31.0668 27.0682 31.0668 27.0633C31.0668 27.0621 31.0668 27.0609 31.0668 27.0596C31.1587 25.4321 31.6641 24.1622 32.4654 23.3146L32.6886 23.5386C31.6641 24.4629 31.0527 26.0044 31.0527 28.0508V28.0508ZM32.6824 23.1012L32.691 23.0926C32.6886 23.0963 32.6849 23.0987 32.6824 23.1012Z" fill="url(#paint10_linear_1055_12807)"/>
<path d="M83.1146 48.749L38.8085 23.5743C37.5802 22.8781 36.4178 22.5478 35.3827 22.5478C34.3275 22.5478 33.4068 22.8912 32.688 23.5386L32.4648 23.3146C32.5354 23.2407 32.6068 23.169 32.6819 23.1012C32.6843 23.0988 32.688 23.0963 32.6904 23.0939C33.4035 22.4513 34.3143 22.1079 35.3601 22.1018C35.3626 22.1018 35.3659 22.1018 35.3696 22.1018C35.3745 22.1018 35.3778 22.1018 35.3827 22.1018C36.4178 22.1018 37.5802 22.4321 38.8085 23.1287L83.3997 48.4642L83.3984 48.4651L83.1146 48.749Z" fill="url(#paint11_linear_1055_12807)"/>
<path d="M218.262 26.2358C217.737 26.9907 217.016 27.8097 216.098 28.6958C215.102 27.9089 214.297 27.1815 213.685 26.5148C214.834 25.3677 215.615 24.5475 216.032 24.0563C216.742 24.8326 217.484 25.5585 218.262 26.2358V26.2358ZM215.589 44.583C213.674 44.583 212.183 44.0345 211.111 42.9338C210.041 41.837 209.504 40.2808 209.504 38.2705C209.504 37.6255 209.546 37.0174 209.629 36.4414C209.71 35.8691 209.889 35.0309 210.16 33.9256L211.392 34.2211C211.138 35.2049 211.012 36.0013 211.012 36.6142C211.012 38.2537 211.424 39.5296 212.244 40.4417C213.063 41.355 214.204 41.812 215.668 41.812C217.332 41.812 218.986 41.4075 220.638 40.5992C222.29 39.7897 223.393 38.7952 223.949 37.6148C222.485 34.4119 221.753 32.2751 221.753 31.2046C221.753 30.6237 221.917 30.099 222.244 29.6305C222.572 29.1607 223.142 28.6851 223.949 28.2034C224.047 28.9916 224.304 30.4403 224.719 32.5483L224.736 32.6796C225.479 33.0501 226.293 33.2376 227.181 33.2376L227.457 33.5166V35.5162L227.181 35.7952C226.424 35.7952 225.748 35.6579 225.148 35.385L225.195 36.352C225.195 37.7293 224.758 39.0467 223.884 40.3034C223.011 41.5601 221.812 42.5882 220.295 43.3858C218.775 44.1834 217.207 44.583 215.589 44.583" fill="white"/>
<path d="M218.26 26.2352L218.01 26.0612C217.501 26.7932 216.793 27.6006 215.884 28.4757L216.096 28.6952L216.286 28.4556C215.299 27.6757 214.506 26.9578 213.909 26.3079L213.684 26.5142L213.9 26.73C215.052 25.5796 215.834 24.759 216.263 24.2523L216.031 24.0558L215.805 24.2606C216.523 25.0466 217.273 25.7798 218.06 26.4654L218.26 26.2352L218.01 26.0612L218.26 26.2352L218.461 26.0051C217.692 25.3351 216.958 24.6171 216.256 23.8494L216.022 23.5942L215.798 23.8577C215.393 24.336 214.613 25.1537 213.468 26.2984L213.262 26.506L213.46 26.7206C214.086 27.4037 214.903 28.1406 215.907 28.9348L216.117 29.0994L216.309 28.9147C217.236 28.0191 217.971 27.1867 218.511 26.4104L218.667 26.1852L218.461 26.0051L218.26 26.2352ZM215.587 44.5824V44.2772C213.728 44.2748 212.336 43.7513 211.328 42.7198C210.326 41.6933 209.809 40.229 209.808 38.2699C209.808 37.6381 209.848 37.0441 209.929 36.4848L209.93 36.479L209.929 36.4836C210.007 35.9317 210.184 35.0969 210.454 33.9977L210.158 33.925L210.087 34.2217L211.318 34.5175L211.39 34.2205L211.094 34.1442C210.837 35.1436 210.705 35.9604 210.705 36.6137C210.704 38.302 211.133 39.6637 212.015 40.6451C212.895 41.6313 214.143 42.12 215.667 42.1167C217.381 42.1167 219.083 41.6991 220.77 40.8716C222.46 40.044 223.626 39.008 224.224 37.744L224.284 37.6164L224.226 37.4876C222.765 34.3054 222.048 32.1555 222.057 31.204C222.058 30.6818 222.2 30.226 222.494 29.8042C222.781 29.3903 223.317 28.9324 224.104 28.4651L223.948 28.2029L223.645 28.241C223.745 29.0444 224.003 30.4944 224.418 32.6073L224.717 32.5477L224.414 32.5896L224.432 32.7205L224.455 32.8805L224.598 32.9519C225.384 33.3454 226.248 33.5422 227.179 33.5422V33.237L226.962 33.4516L227.151 33.6411V35.389L226.962 35.5789L227.179 35.7947V35.4894C226.459 35.4894 225.828 35.3594 225.273 35.1066L224.817 34.8991L224.889 36.367L225.194 36.3514H224.889C224.888 37.6631 224.475 38.9137 223.632 40.1289C222.789 41.3413 221.631 42.337 220.152 43.1145C218.671 43.8908 217.155 44.276 215.587 44.2772V44.5824V44.8877C217.255 44.8877 218.876 44.4738 220.435 43.656C221.989 42.8392 223.229 41.7778 224.133 40.4769C225.037 39.1786 225.501 37.794 225.499 36.3514V36.3441L225.452 35.3688L225.146 35.3844L225.02 35.6622C225.663 35.9555 226.385 36.0999 227.179 36.0999H227.306L227.673 35.7315L227.761 35.642V33.516V33.3896L227.395 33.0212L227.306 32.9317H227.179C226.334 32.9317 225.571 32.7553 224.871 32.4058L224.735 32.679L225.038 32.6384L225.02 32.5072L225.019 32.4977L225.016 32.4891C224.603 30.3835 224.348 28.9361 224.251 28.1656L224.193 27.7019L223.792 27.9403C222.963 28.4364 222.361 28.93 221.993 29.4547C221.63 29.9721 221.445 30.5661 221.447 31.204C221.455 32.3951 222.204 34.5175 223.67 37.7406L223.948 37.6142L223.673 37.4842C223.154 38.5813 222.115 39.5327 220.502 40.3242C218.886 41.1148 217.28 41.5062 215.667 41.5062C214.264 41.5025 213.229 41.0791 212.469 40.2372C211.712 39.3954 211.317 38.2055 211.316 36.6137C211.316 36.0425 211.435 35.2651 211.684 34.2968L211.762 33.9952L210.23 33.628L209.934 33.5575L209.861 33.8521C209.59 34.9623 209.408 35.8066 209.326 36.3991V36.3966C209.24 36.9882 209.197 37.6118 209.197 38.2699C209.195 40.3316 209.752 41.9805 210.89 43.1469C212.028 44.3153 213.617 44.8898 215.587 44.8877V44.5824" fill="white"/>
<path d="M238.619 33.2373C238.573 31.8493 238.311 30.5209 237.832 29.2522C237.351 27.9849 236.874 27.3515 236.407 27.3515C235.976 27.3515 235.58 27.4769 235.208 27.7284C234.835 27.98 234.465 28.3676 234.094 28.8921C233.72 29.4168 233.219 30.3017 232.584 31.5486C234.158 32.411 236.171 32.9747 238.619 33.2373V33.2373ZM227.339 35.7949L227.059 35.5159V33.5162L227.339 33.2373C228.191 33.2373 228.909 33.0309 229.493 32.6231C230.077 32.2116 230.584 31.5868 231.011 30.7452L231.685 29.4C232.546 27.5639 233.39 26.2691 234.215 25.5154C235.04 24.7605 235.948 24.3838 236.93 24.3838C237.587 24.3838 238.24 24.7831 238.889 25.581C239.539 26.3774 240.064 27.4064 240.463 28.6619C240.863 29.9189 241.063 31.1326 241.063 32.3023C241.063 32.9903 240.934 33.6176 240.684 34.1792C240.433 34.7418 239.99 35.2797 239.358 35.7949C238.011 35.7949 236.582 35.6075 235.068 35.2366C233.553 34.8661 232.289 34.3844 231.272 33.794C230.749 34.5046 230.177 35.0162 229.551 35.3261C228.93 35.6399 228.191 35.7949 227.339 35.7949" fill="white"/>
<path d="M238.619 33.2377L238.923 33.2279C238.878 31.8079 238.61 30.445 238.117 29.1452C237.61 27.8696 237.176 27.1028 236.407 27.0466C235.917 27.0457 235.453 27.1922 235.037 27.4761C234.622 27.7576 234.231 28.1712 233.845 28.716C233.455 29.2658 232.952 30.1577 232.313 31.4095L232.179 31.6745L232.438 31.8161C234.059 32.7047 236.11 33.2758 238.586 33.5405L238.935 33.5786L238.923 33.2279L238.619 33.2377L238.651 32.9336C236.232 32.6748 234.259 32.118 232.732 31.281L232.584 31.549L232.858 31.6876C233.488 30.4474 233.988 29.5686 234.342 29.0689C234.701 28.5634 235.049 28.2035 235.379 27.9816C235.709 27.7597 236.038 27.6571 236.407 27.6571C236.573 27.6001 237.093 28.0997 237.546 29.361C238.013 30.5976 238.27 31.8915 238.314 33.2471L238.619 33.2377L238.651 32.9336L238.619 33.2377ZM227.339 35.7953L227.554 35.5783L227.364 35.3897V33.643L227.554 33.4535L227.339 33.2377V33.5429C228.24 33.5429 229.026 33.3222 229.669 32.8738V32.8726C230.306 32.4245 230.841 31.7566 231.284 30.8827L231.957 29.5378L231.96 29.5341L231.961 29.5304C232.812 27.7133 233.646 26.4471 234.422 25.7399C235.205 25.028 236.027 24.6907 236.931 24.6895C237.453 24.6871 238.03 25.0103 238.652 25.7734C239.272 26.5341 239.782 27.5262 240.173 28.7554C240.564 29.9859 240.757 31.1675 240.758 32.3027C240.757 32.9538 240.637 33.5344 240.405 34.0554C240.181 34.5612 239.771 35.0655 239.165 35.5579L239.359 35.7953V35.4901C238.038 35.4901 236.635 35.3076 235.141 34.9416C233.648 34.5756 232.41 34.1021 231.427 33.531L231.191 33.3937L231.029 33.6131C230.524 34.2963 229.987 34.7697 229.415 35.0536L229.413 35.0548C228.844 35.3408 228.155 35.4901 227.339 35.4901V35.7953L227.554 35.5783L227.339 35.7953V36.1006C228.228 36.1006 229.017 35.9382 229.688 35.5997L229.686 35.6009C230.366 35.2633 230.974 34.7151 231.52 33.9758L231.273 33.7944L231.12 34.0591C232.17 34.6671 233.46 35.1574 234.996 35.5341C236.53 35.9098 237.982 36.1006 239.359 36.1006H239.466L239.551 36.0313C240.209 35.4959 240.687 34.9236 240.963 34.3036C241.233 33.7001 241.369 33.0289 241.369 32.3027C241.369 31.0985 241.163 29.8537 240.755 28.5707C240.347 27.2866 239.807 26.2228 239.127 25.3882C238.45 24.5558 237.72 24.0815 236.931 24.079C235.867 24.0766 234.877 24.4939 234.009 25.2905C233.134 26.0918 232.28 27.4151 231.409 29.2719L231.685 29.4004L231.412 29.2633L230.739 30.6083V30.6073C230.329 31.4181 229.85 31.9987 229.319 32.3732C228.793 32.7404 228.143 32.9312 227.339 32.9324H227.213L226.843 33.2996L226.754 33.3891V35.5163V35.6427L227.124 36.0111L227.213 36.1006H227.339V35.7953" fill="white"/>
<path d="M253.964 29.827C254.862 30.5914 255.857 31.0993 256.951 31.3508C258.043 31.6036 259.25 31.7394 260.573 31.7611L259.706 26.3512L259.687 26.2856C257.012 27.2037 255.104 28.3841 253.964 29.827ZM259.407 34.4833C258.185 34.3734 257.344 34.2675 256.886 34.1637C256.427 34.0599 255.947 33.9122 255.449 33.7202C254.951 33.5294 254.442 33.2861 253.917 32.9903C253.391 32.6957 252.995 32.411 252.727 32.1378L252.324 31.3841C252.324 31.0898 252.477 30.5807 252.778 29.8591C253.079 29.1378 253.326 28.6073 253.524 28.2684C253.862 27.646 254.602 26.9284 255.744 26.1128C256.886 25.2984 258.095 24.6354 259.378 24.1213L259.262 23.2035C260.037 22.5048 260.851 21.9181 261.704 21.4495L262.016 32.3511C263.032 32.9415 264.196 33.2373 265.507 33.2373L265.787 33.5163V35.5159L265.507 35.7949C264.153 35.7949 263.053 35.541 262.213 35.0318C261.372 34.5248 260.887 33.8047 260.754 32.8758L260.639 32.1713L259.407 34.4833" fill="white"/>
<path d="M253.962 29.8274L253.766 30.06C254.696 30.8528 255.739 31.387 256.881 31.6495C257.997 31.9068 259.225 32.0442 260.567 32.0667L260.931 32.0725L260.003 26.286L259.98 26.2051L259.896 25.8913L259.588 25.9963C256.879 26.9276 254.916 28.1281 253.723 29.6379L253.541 29.8693L253.766 30.06L253.962 29.8274L254.202 30.0158C255.286 28.6409 257.141 27.4807 259.786 26.5747L259.686 26.286L259.391 26.3659L259.406 26.416L260.27 31.8103L260.572 31.7615L260.576 31.4562C259.271 31.4346 258.084 31.3 257.018 31.0542C255.973 30.8134 255.025 30.3305 254.162 29.5948L253.962 29.8274L254.202 30.0158L253.962 29.8274ZM259.406 34.4837L259.433 34.1797C258.218 34.071 257.38 33.9639 256.95 33.8659C256.508 33.7658 256.043 33.6226 255.558 33.4355H255.557C255.075 33.2508 254.579 33.0145 254.065 32.7249C253.556 32.4398 253.18 32.1669 252.943 31.9248L252.726 32.1382L252.995 31.995L252.592 31.2417L252.323 31.3845H252.628C252.623 31.1855 252.761 30.6812 253.058 29.9776C253.357 29.2621 253.602 28.7386 253.786 28.4227L253.787 28.4203L253.79 28.4157C254.085 27.8659 254.796 27.1611 255.92 26.3611C257.042 25.561 258.231 24.9099 259.49 24.4044L259.709 24.3174L259.563 23.1657L259.26 23.2039L259.464 23.4304C260.224 22.746 261.019 22.1737 261.849 21.717L261.702 21.4499L261.397 21.4582L261.714 32.5304L261.861 32.6165C262.927 33.2352 264.148 33.5429 265.506 33.5429V33.2377L265.29 33.4535L265.481 33.643V35.3897L265.29 35.5783L265.506 35.7953V35.4901C264.188 35.4901 263.146 35.2419 262.37 34.7709L262.369 34.7697C261.595 34.2987 261.18 33.6788 261.056 32.8332V32.8299L260.939 32.1214L260.791 31.2319L259.137 34.3393L259.406 34.4837L259.433 34.1797L259.406 34.4837L259.675 34.6266L260.907 32.3146L260.637 32.1717L260.336 32.2218L260.453 32.9263L260.753 32.8763L260.451 32.9193C260.59 33.9315 261.146 34.752 262.054 35.2932H262.053C262.958 35.8405 264.114 36.1006 265.506 36.1006H265.631L266.001 35.7331L266.091 35.6427V33.5167V33.3891L265.72 33.0206L265.631 32.9324H265.506C264.238 32.9312 263.134 32.6485 262.167 32.0881L262.014 32.3515L262.32 32.3433L261.992 20.9408L261.554 21.1816C260.679 21.6633 259.847 22.2631 259.056 22.9771L258.937 23.0833L259.073 24.1599L259.377 24.1218L259.263 23.8382C257.958 24.3617 256.726 25.0366 255.565 25.8638C254.406 26.695 253.638 27.4261 253.254 28.1236L253.522 28.2689L253.258 28.1162C253.048 28.4776 252.799 29.0143 252.495 29.7426C252.191 30.4819 252.024 30.9935 252.018 31.3845V31.4608L252.457 32.2825L252.477 32.3219L252.509 32.3528C252.807 32.6568 253.225 32.9526 253.766 33.2578C254.301 33.5582 254.825 33.8088 255.338 34.0054H255.337C255.848 34.2023 256.341 34.3537 256.817 34.462C257.307 34.5719 258.15 34.6778 259.379 34.7877L259.581 34.8054L259.675 34.6266L259.406 34.4837" fill="white"/>
<path d="M276.707 39.5649C276.301 40.198 275.629 40.959 274.69 41.8436C273.718 41.0673 272.978 40.3854 272.475 39.7951C272.978 39.336 273.7 38.5814 274.639 37.5319C274.835 37.7514 275.526 38.4288 276.707 39.5649ZM271.639 40.0408C271.234 40.6858 270.572 41.4513 269.654 42.3359C268.65 41.5264 267.908 40.8445 267.426 40.2862C268.014 39.7389 268.737 38.9855 269.59 38.0243C269.785 38.2307 270.471 38.9031 271.639 40.0408ZM274.639 28.1538C274.946 28.1538 275.22 28.242 275.461 28.4163C275.057 29.3892 274.701 30.2036 274.395 30.8595C274.087 31.5152 273.903 31.8812 273.837 31.9575C274.59 32.4392 275.294 32.7719 275.944 32.9581C276.594 33.144 277.302 33.2371 278.068 33.2371L278.346 33.5161V35.5158L278.068 35.7948C276.002 35.7948 274.23 35.1449 272.755 33.8427L272.212 34.564C271.985 34.8168 271.172 35.0839 269.781 35.3677C268.384 35.6528 267.016 35.7948 265.673 35.7948L265.393 35.5158V33.5161L265.673 33.2371C267.06 33.2371 268.239 33.1773 269.205 33.057C270.174 32.9352 270.856 32.7338 271.255 32.4502C271.655 32.1651 272.241 31.2756 273.016 29.778L273.608 28.6953C273.803 28.3339 274.149 28.1538 274.639 28.1538" fill="white"/>
<path d="M276.707 39.5655L276.451 39.401C276.069 39.9996 275.41 40.7472 274.48 41.6223L274.69 41.8442L274.881 41.607C273.918 40.8378 273.191 40.1641 272.707 39.5979L272.476 39.7957L272.681 40.021C273.2 39.5478 273.924 38.7893 274.866 37.7365L274.64 37.5326L274.412 37.7365C274.628 37.9761 275.312 38.6452 276.497 39.7862L276.707 39.5655L276.451 39.401L276.707 39.5655L276.921 39.3461C275.743 38.2124 275.044 37.5277 274.866 37.3287L274.639 37.0759L274.412 37.3287C273.477 38.3745 272.758 39.1245 272.269 39.5704L272.051 39.7682L272.243 39.9938C272.767 40.6064 273.518 41.2993 274.499 42.0826L274.707 42.2484L274.9 42.067C275.85 41.1718 276.537 40.3992 276.964 39.7301L277.101 39.5204L276.921 39.3461L276.707 39.5655ZM271.64 40.0414L271.382 39.8793C270.998 40.4907 270.351 41.242 269.443 42.1174L269.655 42.3366L269.846 42.0994C268.851 41.2969 268.119 40.622 267.656 40.0878L267.426 40.2868L267.632 40.5112C268.234 39.9532 268.961 39.1934 269.818 38.2276L269.59 38.025L269.368 38.235C269.576 38.4532 270.257 39.1208 271.428 40.2597L271.64 40.0414L271.382 39.8793L271.64 40.0414L271.853 39.8219C270.686 38.6867 269.997 38.0106 269.811 37.8152L269.582 37.5732L269.361 37.8223C268.512 38.7786 267.797 39.5274 267.217 40.0628L267.001 40.2642L267.195 40.4874C267.698 41.068 268.45 41.7584 269.464 42.5741L269.674 42.7432L269.867 42.556C270.796 41.6604 271.472 40.8833 271.899 40.2035L272.03 39.9947L271.853 39.8219L271.64 40.0414ZM274.64 28.1545V28.4597L275.284 28.6648L275.462 28.417L275.18 28.3001C274.776 29.2708 274.423 30.0815 274.119 30.7314C273.966 31.0568 273.843 31.3107 273.753 31.4884L273.643 31.6972L273.611 31.7521L273.602 31.7628L273.649 31.7961L273.606 31.7591L273.602 31.7628L273.649 31.7961L273.606 31.7591L273.376 32.0262L273.673 32.2158C274.447 32.7094 275.174 33.0552 275.862 33.2521C276.543 33.4475 277.278 33.543 278.069 33.543V33.2378L277.852 33.4536L278.041 33.6431V35.3898L277.852 35.5784L278.069 35.7954V35.4902C276.066 35.4877 274.381 34.8678 272.957 33.6144L272.709 33.3962L271.969 34.3824L272.212 34.5647L271.986 34.3608C271.919 34.4801 271.087 34.8067 269.719 35.0692C268.343 35.3507 266.996 35.4902 265.673 35.4902V35.7954L265.888 35.5784L265.698 35.3898V33.6431L265.888 33.4536L265.673 33.2378V33.543C267.071 33.543 268.259 33.4832 269.243 33.3592C270.235 33.2329 270.954 33.0363 271.434 32.6987C271.936 32.3254 272.497 31.4325 273.289 29.9182L273.017 29.7787L273.285 29.924L273.876 28.8425C274.025 28.5873 274.22 28.4695 274.64 28.4597V28.1545V27.8492C274.081 27.8398 273.586 28.0843 273.34 28.5492L272.75 29.6319L272.747 29.6355L272.746 29.638C271.988 31.1187 271.375 32.0061 271.078 32.2014C270.759 32.434 270.113 32.6392 269.167 32.7549C268.219 32.8727 267.053 32.9325 265.673 32.9325H265.547L265.177 33.2997L265.088 33.3892V35.5164V35.6428L265.458 36.0112L265.547 36.1007H265.673C267.038 36.1007 268.428 35.9563 269.842 35.6678C271.258 35.3614 272.054 35.1538 272.44 34.7698L272.448 34.7591L272.999 34.0271L272.756 33.8434L272.553 34.0723C274.081 35.4233 275.938 36.1028 278.069 36.1007H278.194L278.563 35.7332L278.652 35.6428V33.5167V33.3892L278.282 33.0207L278.194 32.9325H278.069C277.327 32.9325 276.649 32.8431 276.03 32.6654C275.416 32.4899 274.738 32.1706 274.002 31.7008L273.838 31.9582L274.069 32.1587L274.297 31.7649C274.393 31.5766 274.517 31.3193 274.671 30.9899C274.981 30.3281 275.337 29.5104 275.743 28.5348L275.837 28.3108L275.642 28.17C275.349 27.9591 275.005 27.848 274.64 27.8492V28.1545" fill="white"/>
<path d="M278.584 35.7949L278.307 35.5159V33.5162L278.584 33.2373C279.851 33.2373 281.078 32.9473 282.26 32.3679C281.964 30.0071 281.609 25.755 281.191 19.6131L280.865 15.137C281.53 14.4477 282.284 13.8253 283.13 13.2673C283.27 16.3387 283.386 21.1644 283.471 27.7452L283.587 32.3511C284.601 32.9415 285.767 33.2373 287.079 33.2373L287.372 33.5162V35.5159L287.079 35.7949C285.44 35.7949 284.155 35.3954 283.224 34.5977C282.406 35.0568 281.667 35.3715 281.011 35.541C280.358 35.7088 279.549 35.7949 278.584 35.7949" fill="white"/>
<path d="M278.585 35.7953L278.802 35.5783L278.612 35.3897V33.643L278.802 33.4535L278.585 33.2377V33.5429C279.901 33.5429 281.173 33.241 282.394 32.6424L282.59 32.546L282.562 32.3302C282.269 29.9837 281.912 25.7316 281.497 19.5922L281.167 15.1148L280.865 15.1374L281.082 15.3496C281.735 14.6771 282.471 14.069 283.298 13.523L283.13 13.2678L282.825 13.2821C282.965 16.3477 283.081 21.1706 283.167 27.749L283.289 32.5304L283.435 32.6153C284.498 33.2352 285.722 33.5429 287.08 33.5429V33.2377L286.869 33.4593L287.068 33.6476V35.3851L286.869 35.5734L287.08 35.7953V35.4901C285.487 35.4889 284.284 35.1036 283.423 34.3668L283.261 34.2273L283.075 34.3323C282.275 34.7816 281.558 35.0856 280.935 35.2468C280.316 35.4052 279.531 35.4901 278.585 35.4901V35.7953L278.802 35.5783L278.585 35.7953V36.1006C279.568 36.1006 280.398 36.0145 281.088 35.8369C281.781 35.658 282.541 35.3326 283.374 34.864L283.225 34.5982L283.026 34.8295C284.024 35.6867 285.392 36.1018 287.08 36.1006H287.199L287.584 35.738L287.678 35.6473V33.5167V33.3842L287.288 33.0158L287.199 32.9324H287.08C285.813 32.9312 284.705 32.6485 283.741 32.0881L283.588 32.3515L283.893 32.3445L283.777 27.7371L283.472 27.7457L283.777 27.7408C283.692 21.1587 283.576 16.3321 283.435 13.2546L283.411 12.7168L282.962 13.0138C282.098 13.5825 281.329 14.2192 280.645 14.9253L280.548 15.0229L280.887 19.6349V19.6337C281.305 25.778 281.659 30.0326 281.955 32.4065L282.26 32.3683L282.123 32.0942C280.981 32.6546 279.806 32.9324 278.585 32.9324H278.46L278.09 33.2996L278.002 33.3891V35.5163V35.6427L278.371 36.0111L278.46 36.1006H278.585V35.7953" fill="white"/>
<path d="M287.25 35.7949L286.973 35.5159V33.5162L287.25 33.2373C288.694 33.2373 290.089 33.2037 291.429 33.1381C290.898 32.7876 290.428 32.3084 290.028 31.6954C289.631 31.0825 289.433 30.4326 289.433 29.7446C289.433 28.7932 289.692 27.7941 290.211 26.7446C290.73 25.6955 291.402 24.8487 292.217 24.2025C293.041 23.5575 293.896 23.2355 294.793 23.2355C295.568 23.2355 296.313 23.43 297.021 23.8173C297.733 24.2062 298.557 24.8094 299.497 25.6299L298.908 26.6946C298.026 26.3573 297.379 26.1436 296.976 26.0554C296.57 25.9672 296.127 25.9244 295.645 25.9244C294.268 25.9244 292.83 26.3344 291.335 27.1537C291.335 28.1158 291.564 28.9934 292.031 29.7852C292.495 30.5782 293.172 31.215 294.054 31.6954C294.943 32.1771 295.987 32.4503 297.186 32.5157C298.038 32.3404 298.853 32.1307 299.628 31.8838C300.407 31.6393 301.493 31.2425 302.891 30.6961C303.2 30.98 303.352 31.3783 303.352 31.892L303.319 32.2367C303.187 32.9903 302.723 33.4662 301.924 33.6628C299.259 34.3294 297.241 34.7873 295.874 35.0318C294.509 35.2784 293.105 35.4668 291.67 35.598C290.233 35.7293 288.758 35.7949 287.25 35.7949" fill="white"/>
<path d="M287.25 35.7953L287.467 35.5783L287.275 35.3897V33.643L287.467 33.4535L287.25 33.2377V33.5429C288.697 33.5429 290.098 33.5093 291.444 33.4437L292.381 33.3973L291.597 32.8836C291.102 32.5591 290.666 32.1119 290.284 31.5289C289.915 30.9602 289.738 30.376 289.738 29.745C289.738 28.851 289.982 27.8971 290.486 26.88C290.986 25.8662 291.627 25.058 292.406 24.4426V24.4438C293.187 23.8321 293.972 23.5424 294.793 23.5412C295.516 23.5424 296.209 23.7213 296.878 24.0848H296.875C297.555 24.4581 298.367 25.0494 299.295 25.8604L299.497 25.6303L299.231 25.4822L298.639 26.5485L298.908 26.695L299.014 26.4102C298.126 26.0689 297.473 25.8531 297.039 25.7579C296.609 25.6648 296.145 25.6196 295.644 25.6196C294.207 25.6196 292.717 26.0488 291.188 26.887L291.029 26.974V27.1541C291.029 28.1641 291.273 29.1013 291.768 29.9407C292.259 30.7838 292.983 31.4608 293.908 31.9642L293.911 31.9654L293.908 31.9642C294.842 32.4709 295.931 32.7535 297.171 32.8204L297.21 32.8225L297.247 32.8155C298.111 32.6391 298.935 32.4257 299.72 32.1751C300.51 31.9272 301.603 31.5289 303.004 30.9804L302.891 30.6965L302.683 30.9196C302.919 31.1415 303.044 31.4358 303.047 31.8924H303.352L303.047 31.8641L303.013 32.2087L303.318 32.2371L303.016 32.1846C302.891 32.8332 302.564 33.1766 301.85 33.3674C299.188 34.0328 297.174 34.4895 295.821 34.7316C294.463 34.9773 293.068 35.1632 291.64 35.2944C290.214 35.4245 288.752 35.4901 287.25 35.4901V35.7953L287.467 35.5783L287.25 35.7953V36.1006C288.767 36.1006 290.251 36.035 291.698 35.9025C293.141 35.7703 294.555 35.5817 295.928 35.3326C297.308 35.0856 299.329 34.6265 301.997 33.9602C302.882 33.7563 303.483 33.1495 303.618 32.2896L303.621 32.2777L303.654 31.9211L303.657 31.9068V31.8924C303.66 31.3213 303.477 30.8207 303.099 30.4724L302.958 30.3424L302.781 30.4117C301.386 30.9578 300.303 31.3525 299.536 31.5921V31.5933C298.77 31.8366 297.967 32.0442 297.125 32.2169L297.186 32.5161L297.204 32.2108C296.038 32.1476 295.04 31.8842 294.198 31.4276H294.201C293.358 30.9685 292.729 30.3735 292.293 29.6306C291.856 28.8867 291.64 28.0674 291.64 27.1541H291.334L291.481 27.4224C292.943 26.6211 294.329 26.2301 295.644 26.2301C296.108 26.2301 296.53 26.2716 296.911 26.3553C297.281 26.4352 297.922 26.6449 298.798 26.9813L299.045 27.0753L299.762 25.778L299.884 25.5622L299.698 25.4001C298.749 24.5702 297.906 23.9551 297.171 23.5494H297.168C296.42 23.1395 295.62 22.9307 294.793 22.9307C293.822 22.9295 292.891 23.2848 292.03 23.9633L292.021 23.9682L292.027 23.9646C291.173 24.6395 290.474 25.5253 289.936 26.6092C289.402 27.6907 289.127 28.7377 289.127 29.745C289.127 30.4929 289.344 31.2069 289.775 31.8628C290.193 32.5054 290.69 33.0182 291.264 33.3937L291.429 33.1385L291.417 32.8344C290.08 32.8988 288.688 32.9324 287.25 32.9324H287.125L286.756 33.2996L286.664 33.3891V35.5163V35.6427L287.036 36.0111L287.125 36.1006H287.25V35.7953" fill="white"/>
<path d="M328.254 37.6148L327.403 32.1881C326.454 26.5041 325.828 22.5441 325.526 20.3085C325.226 18.0753 325.077 16.6028 325.077 15.891C325.077 15.1373 325.251 14.5531 325.602 14.1367C325.95 13.7207 326.508 13.4322 327.272 13.2677L327.372 13.6611C327.403 13.7814 327.769 14.9786 328.468 17.2527L327.681 17.9404L327.748 18.4651L328.844 28.4168C329.042 29.8701 329.192 31.2641 329.289 32.5972L329.305 32.664C330.025 33.0468 330.849 33.2376 331.765 33.2376L332.043 33.5166V35.5162L331.765 35.7952C330.956 35.7952 330.193 35.6151 329.469 35.2537L329.5 36.352C329.5 37.74 329.069 39.0635 328.206 40.3202C327.342 41.5757 326.154 42.601 324.646 43.3929C323.139 44.1859 321.582 44.583 319.976 44.583C318.062 44.583 316.573 44.0345 315.501 42.9338C314.43 41.837 313.893 40.2809 313.893 38.2705C313.893 37.6255 313.935 37.0174 314.018 36.4414C314.097 35.8691 314.277 35.0309 314.549 33.9256L315.779 34.2211C315.529 35.2049 315.401 36.0013 315.401 36.6142C315.401 38.2537 315.813 39.5296 316.631 40.4417C317.452 41.355 318.593 41.812 320.056 41.812C321.118 41.812 322.22 41.6258 323.371 41.2537C324.515 40.8831 325.529 40.3752 326.402 39.7299C327.278 39.0837 327.897 38.3788 328.254 37.6148" fill="white"/>
<path d="M328.255 37.6142L328.557 37.5663L327.703 32.1399V32.1375C326.756 26.4559 326.131 22.4959 325.828 20.2673C325.529 18.0402 325.383 16.5653 325.383 15.8904C325.383 15.1795 325.544 14.6764 325.834 14.333V14.3318C326.124 13.9872 326.613 13.7213 327.336 13.5662L327.272 13.2671L326.976 13.3434L327.077 13.7369L327.373 13.6606L327.077 13.7344C327.113 13.8846 327.477 15.0616 328.179 17.3412L328.469 17.2521L328.267 17.0219L327.483 17.71L327.361 17.8171L327.446 18.5003L328.542 28.4532V28.4577C328.737 29.9055 328.887 31.2923 328.985 32.6192L328.988 32.643L329.006 32.7303L329.036 32.8673L329.162 32.933C329.931 33.3417 330.807 33.5422 331.765 33.5422V33.237L331.549 33.4516L331.738 33.6411V35.389L331.549 35.5789L331.765 35.7947V35.4894C331.002 35.4882 330.288 35.32 329.607 34.9803L329.152 34.7526L329.195 36.3597L329.5 36.3514H329.195C329.195 37.6762 328.789 38.9329 327.956 40.1466C327.12 41.3581 325.978 42.3502 324.507 43.1228C323.035 43.8944 321.533 44.276 319.977 44.2772C318.118 44.2748 316.726 43.7513 315.722 42.721V42.7198C314.717 41.6921 314.198 40.229 314.198 38.2699C314.198 37.6381 314.238 37.0441 314.321 36.4848V36.4778V36.4836C314.397 35.9317 314.574 35.0969 314.846 33.9977L314.549 33.925L314.476 34.2217L315.709 34.5175L315.78 34.2205L315.484 34.1454C315.23 35.1436 315.096 35.9592 315.096 36.6137C315.096 38.302 315.523 39.6637 316.405 40.6451C317.284 41.6313 318.533 42.12 320.056 42.1167C321.155 42.1167 322.291 41.9234 323.466 41.5443C324.638 41.1637 325.682 40.6417 326.585 39.975C327.489 39.3072 328.145 38.5669 328.53 37.7428L328.569 37.6582L328.557 37.5663L328.255 37.6142L327.977 37.4854C327.648 38.1912 327.068 38.8603 326.222 39.4839C325.377 40.1075 324.394 40.6011 323.276 40.9634C322.153 41.3261 321.082 41.5062 320.056 41.5062C318.655 41.5025 317.617 41.0791 316.86 40.2372C316.103 39.3954 315.706 38.2055 315.706 36.6137C315.706 36.0438 315.828 35.2651 316.076 34.2956L316.152 33.9952L314.62 33.628L314.324 33.5575L314.253 33.8521C313.979 34.9623 313.799 35.8066 313.716 36.3991V36.3966C313.631 36.9882 313.588 37.6118 313.588 38.2699C313.585 40.3316 314.143 41.9805 315.285 43.1469C316.418 44.3153 318.008 44.8898 319.977 44.8877C321.634 44.8877 323.243 44.4762 324.79 43.663C326.335 42.8523 327.565 41.7922 328.46 40.4924C329.354 39.1927 329.806 37.8026 329.806 36.3514V36.3478L329.775 35.2449L329.47 35.2532L329.336 35.5264C330.096 35.9079 330.911 36.0999 331.765 36.0999H331.894L332.26 35.7315L332.348 35.642V33.516V33.3896L331.982 33.0212L331.894 32.9318H331.765C330.889 32.9318 330.12 32.7504 329.449 32.3927L329.305 32.6634L329.601 32.5954L329.586 32.5297L329.29 32.5966L329.595 32.5752C329.494 31.2337 329.345 29.8338 329.146 28.3756L328.844 28.4162L329.149 28.3826L328.05 18.4288L328.005 18.0628L328.67 17.481L328.82 17.351L328.762 17.1614C328.063 14.8959 327.69 13.6773 327.669 13.5879V13.5842L327.565 13.1908L327.495 12.9069L327.208 12.9689C326.405 13.1419 325.776 13.453 325.367 13.9408V13.9395C324.955 14.4286 324.772 15.0925 324.772 15.8904C324.772 16.6379 324.922 18.108 325.224 20.3485C325.526 22.5927 326.152 26.5524 327.101 32.2376V32.2343L327.953 37.6619L328.255 37.6142L327.977 37.4854L328.255 37.6142Z" fill="white"/>
<path d="M345.569 33.2373C348.487 33.2373 351.475 32.2797 354.534 30.367C353.859 29.1866 353.044 28.2663 352.092 27.6054C351.143 26.944 350.203 26.6134 349.275 26.6134C348.212 26.6134 346.952 27.1286 345.483 28.1637C344.021 29.1952 342.431 30.7223 340.715 32.7446C342.464 33.0727 344.079 33.2373 345.569 33.2373V33.2373ZM358.325 35.7949C357.373 35.7949 356.427 35.6041 355.489 35.2214C354.546 34.8374 353.777 34.3352 353.176 33.7116C352.181 34.3581 350.963 34.8661 349.528 35.2366C348.09 35.6075 346.656 35.7949 345.224 35.7949C343.606 35.7949 341.943 35.6194 340.239 35.2702C338.533 34.9195 337.181 34.4665 336.173 33.9097L335.599 34.5642C334.858 35.3847 333.634 35.7949 331.927 35.7949L331.646 35.5159V33.5162L331.927 33.2373C332.932 33.2373 333.731 33.0535 334.32 32.6887C334.913 32.3215 335.508 31.613 336.106 30.5651L336.631 29.6301C336.863 29.2367 337.217 29.0401 337.7 29.0401C338.014 29.0401 338.276 29.1439 338.484 29.3511C338.014 30.4888 337.681 31.2638 337.483 31.6787C338.032 31.9424 338.591 32.1603 339.159 32.3359C343.444 26.6515 347.095 23.8103 350.111 23.8103C350.743 23.8103 351.524 24.0667 352.455 24.5804C353.383 25.0945 354.213 25.755 354.946 26.5633C355.679 27.3731 356.042 28.0825 356.042 28.6955C356.042 30.0499 355.615 31.2589 354.751 32.3191C355.767 32.932 356.958 33.2373 358.325 33.2373L358.618 33.5162V35.5159L358.325 35.7949" fill="white"/>
<path d="M345.569 33.2377V33.5429C348.555 33.5429 351.604 32.5628 354.696 30.6263L354.947 30.4712L354.8 30.216C354.104 29.0036 353.262 28.046 352.27 27.3556C351.281 26.6675 350.279 26.3076 349.275 26.3086C348.112 26.311 346.803 26.862 345.31 27.9135C343.814 28.9676 342.212 30.513 340.484 32.5484L340.142 32.9489L340.661 33.0457C342.425 33.3759 344.058 33.5429 345.569 33.5429V33.2377V32.9324C344.104 32.9324 342.508 32.77 340.771 32.4459L340.716 32.745L340.948 32.9431C342.654 30.934 344.229 29.4233 345.661 28.4132C347.099 27.3962 348.314 26.9157 349.275 26.9191C350.13 26.9191 351.006 27.2222 351.919 27.8565C352.828 28.4871 353.613 29.372 354.272 30.5201L354.535 30.3674L354.373 30.1089C351.351 31.9987 348.42 32.9324 345.569 32.9324V33.2377ZM358.326 35.7953V35.4901C357.413 35.4901 356.509 35.3076 355.606 34.9379C354.693 34.5682 353.964 34.089 353.396 33.4999L353.222 33.3198L353.011 33.4568C352.05 34.0805 350.862 34.5777 349.452 34.9416C348.039 35.3063 346.632 35.4901 345.224 35.4901C343.628 35.4901 341.986 35.317 340.301 34.9712C338.616 34.6256 337.288 34.1784 336.32 33.643L336.104 33.5225L335.371 34.3643L335.6 34.5646L335.374 34.3607C334.718 35.0893 333.588 35.4889 331.928 35.4901V35.7953L332.145 35.5783L331.952 35.3897V33.643L332.145 33.4535L331.928 33.2377V33.5429C332.969 33.5417 333.823 33.3546 334.483 32.9477C335.142 32.5353 335.759 31.789 336.372 30.7169L336.375 30.7121L336.897 29.7798L336.632 29.6306L336.894 29.7856C337.087 29.4779 337.303 29.354 337.7 29.3458L338.271 29.5686L338.485 29.3516L338.204 29.2347C337.734 30.3699 337.401 31.1437 337.209 31.549L337.077 31.8247L337.352 31.9547C337.914 32.2239 338.485 32.4483 339.071 32.6272L339.275 32.6904L339.403 32.5197C343.662 26.8525 347.297 24.0946 350.111 24.116C350.661 24.1135 351.403 24.3461 352.306 24.8479C353.207 25.3452 354.009 25.9832 354.721 26.7689C355.432 27.5512 355.743 28.2093 355.737 28.6959C355.737 29.9859 355.337 31.1153 354.513 32.1263L354.29 32.3995L354.593 32.5805C355.661 33.2258 356.915 33.5429 358.326 33.5429V33.2377L358.115 33.4593L358.313 33.6476V35.3851L358.115 35.5734L358.326 35.7953V35.4901V35.7953L358.533 36.017L358.829 35.738L358.924 35.6473V33.5167V33.3842L358.533 33.0158L358.445 32.9324H358.326C357.004 32.9312 355.872 32.6379 354.907 32.0573L354.751 32.3195L354.986 32.5127C355.893 31.4037 356.351 30.1147 356.348 28.6959C356.345 27.9578 355.93 27.1971 355.173 26.3598C354.419 25.5265 353.561 24.8446 352.602 24.3138C351.647 23.7869 350.826 23.5067 350.111 23.5055C346.894 23.5256 343.225 26.4517 338.915 32.1513L339.159 32.3363L339.248 32.0442C338.695 31.8735 338.152 31.6602 337.615 31.405L337.483 31.6791L337.761 31.8103C337.963 31.3833 338.295 30.6083 338.768 29.4685L338.848 29.2789L338.701 29.1345C338.439 28.8711 338.082 28.7316 337.7 28.7353C337.135 28.7255 336.641 28.9963 336.369 29.4755L336.366 29.4779L335.841 30.4154V30.4141C335.258 31.4395 334.681 32.1095 334.159 32.4291H334.162C333.637 32.7536 332.896 32.9324 331.928 32.9324H331.803L331.433 33.2996L331.342 33.3891V35.5163V35.6427L331.714 36.0111L331.803 36.1006H331.928C333.677 36.1006 334.999 35.6809 335.826 34.7697L335.829 34.7685L336.403 34.1104L336.174 33.9101L336.024 34.1772C337.071 34.7554 338.454 35.2145 340.179 35.5685C341.9 35.9239 343.585 36.1006 345.224 36.1006C346.684 36.1006 348.143 35.911 349.605 35.5328C351.064 35.1562 352.312 34.6363 353.341 33.9684L353.176 33.712L352.956 33.9245C353.591 34.5826 354.4 35.1085 355.374 35.5041C356.348 35.9 357.334 36.1006 358.326 36.1006H358.445L358.533 36.017L358.326 35.7953" fill="white"/>
<path d="M358.494 35.7949L358.213 35.5159V33.5162L358.494 33.2373C361.784 33.2373 364.37 32.9522 366.25 32.3847L368.118 31.7443C369.388 31.2638 370.514 30.936 371.497 30.7605C370.621 30.3243 369.757 29.7675 368.903 29.0889C367.996 28.3783 367.263 27.8835 366.702 27.6054C366.137 27.3255 365.56 27.1869 364.968 27.1869C363.9 27.1869 362.935 27.4601 362.083 28.0074L361.296 28.4986C360.969 28.1708 360.807 27.7343 360.807 27.1869C360.807 26.3454 361.177 25.668 361.922 25.154C362.663 24.6403 363.643 24.3838 364.855 24.3838C365.566 24.3838 366.284 24.5377 367.01 24.8429C367.737 25.1482 368.582 25.6512 369.544 26.3512C370.713 27.2132 371.708 27.8618 372.529 28.2947C373.347 28.7251 374.18 29.034 375.02 29.2202C375.862 29.4061 377.086 29.4992 378.692 29.4992L377.413 31.9744C376.714 31.8862 376.088 31.8267 375.527 31.7943L375.414 31.7776L374.727 31.7943C373.951 31.7943 373.207 31.9088 372.505 32.1378C371.799 32.3679 370.704 32.8664 369.217 33.6307C367.544 34.494 366.033 35.07 364.684 35.3596C363.332 35.6493 361.268 35.7949 358.494 35.7949" fill="white"/>
<path d="M358.492 35.7953L358.709 35.5783L358.517 35.3897V33.643L358.709 33.4535L358.492 33.2377V33.5429C361.801 33.5417 364.411 33.2578 366.337 32.6772L366.343 32.676L368.214 32.0344L368.221 32.0319L368.224 32.031C369.481 31.5539 370.589 31.2319 371.548 31.0628L372.46 30.9004L371.633 30.488C370.775 30.0622 369.93 29.5161 369.094 28.851L369.091 28.8497C368.175 28.1306 367.43 27.6275 366.835 27.3317V27.333C366.233 27.0335 365.605 26.8821 364.967 26.8821C363.846 26.8809 362.818 27.1709 361.917 27.7502L362.082 28.0079L361.92 27.7478L361.133 28.2405L361.294 28.499L361.511 28.2832C361.246 28.0161 361.114 27.6776 361.111 27.1874C361.117 26.4374 361.417 25.8818 362.094 25.4059V25.405C362.772 24.9362 363.682 24.6895 364.854 24.6895C365.519 24.6895 366.197 24.8327 366.89 25.1248C367.586 25.4157 368.413 25.9081 369.365 26.5985L369.362 26.5973C370.537 27.4654 371.545 28.1211 372.384 28.5646C373.227 29.0069 374.084 29.3253 374.954 29.5185C375.833 29.713 377.073 29.8036 378.691 29.8049V29.4996L378.419 29.3589L377.143 31.8341L377.412 31.9749L377.451 31.6721C376.746 31.5838 376.111 31.5231 375.543 31.4895L375.525 31.7948L375.571 31.492L375.455 31.4764L375.431 31.4727L374.716 31.4895L374.725 31.7948V31.4895C373.92 31.4895 373.144 31.6089 372.409 31.8485C371.67 32.0893 370.571 32.5915 369.075 33.3592C367.421 34.2129 365.931 34.7792 364.619 35.0606C363.306 35.3433 361.258 35.4901 358.492 35.4901V35.7953L358.709 35.5783L358.492 35.7953V36.1006C361.279 36.0994 363.355 35.9574 364.747 35.658C366.13 35.3613 367.665 34.7734 369.356 33.9016C370.834 33.1409 371.923 32.6473 372.598 32.4291C373.269 32.2099 373.978 32.1 374.725 32.1H374.728L375.394 32.0832L375.482 32.0964L375.495 32.0988H375.507C376.059 32.1312 376.679 32.1907 377.375 32.2777L377.586 32.3039L378.962 29.6391L379.194 29.1944H378.691C377.097 29.1944 375.885 29.1 375.086 28.9224C374.274 28.7423 373.468 28.4444 372.668 28.0247C371.871 27.6037 370.885 26.9633 369.725 26.1059L369.722 26.1049C368.749 25.3965 367.888 24.8815 367.128 24.5619C366.368 24.2423 365.608 24.079 364.854 24.079C363.599 24.079 362.555 24.3437 361.746 24.9029C360.934 25.4551 360.495 26.2539 360.501 27.1874C360.498 27.7921 360.687 28.3262 361.078 28.7148L361.252 28.8867L362.244 28.2667L362.247 28.2631V28.2643C363.05 27.749 363.95 27.4938 364.967 27.4926C365.51 27.4926 366.038 27.619 366.563 27.8791V27.8803C367.094 28.14 367.818 28.6254 368.715 29.329L368.712 29.3278C369.579 30.0182 370.461 30.5869 371.359 31.0353L371.496 30.7609L371.441 30.4605C370.434 30.6406 369.289 30.9733 368.007 31.4596L368.117 31.7447L368.016 31.4562L366.151 32.0964L366.249 32.3851L366.16 32.093C364.326 32.6473 361.765 32.9324 358.492 32.9324H358.367L357.998 33.2996L357.906 33.3891V35.5163V35.6427L358.279 36.0111L358.367 36.1006H358.492V35.7953" fill="white"/>
<path d="M382.947 24.6128V26.7114C382.947 28.8756 382.87 31.8111 382.718 35.5159L381.176 35.7949C381.033 27.9479 380.728 21.4327 380.257 16.2518L380.242 15.825C380.242 15.1144 380.419 14.5491 380.773 14.1294C381.127 13.7072 381.689 13.4212 382.455 13.2673L382.553 13.6608C382.586 13.7811 382.953 14.9783 383.652 17.2524L382.748 18.0225L382.764 18.1858C382.886 20.5896 382.947 22.7337 382.947 24.6128" fill="white"/>
<path d="M382.945 24.6135H382.64V26.7121C382.64 28.869 382.564 31.8012 382.411 35.5044L382.716 35.5166L382.661 35.216L381.12 35.495L381.175 35.7956L381.48 35.7895C381.337 27.9376 381.031 21.4166 380.561 16.225L380.256 16.2525L380.561 16.2418L380.546 15.815L380.241 15.8257H380.546C380.549 15.1627 380.708 14.6798 381.004 14.327H381.007C381.3 13.975 381.788 13.7128 382.512 13.5672L382.454 13.2681L382.158 13.3419L382.255 13.7354V13.7391V13.7415C382.295 13.881 382.658 15.0651 383.36 17.3422L383.65 17.2531L383.452 17.0205L382.552 17.7906L382.429 17.8932L382.46 18.2152L382.762 18.1865L382.457 18.2021C382.579 20.6022 382.64 22.7402 382.64 24.6135H382.945H383.251C383.251 22.7271 383.19 20.5797 383.067 18.1709V18.1651V18.1532L383.849 17.4841L384.001 17.3544L383.944 17.1624C383.244 14.8932 382.875 13.6841 382.845 13.5815L382.552 13.6615L382.848 13.5876L382.75 13.1942L382.68 12.9115L382.393 12.9686C381.587 13.131 380.955 13.4396 380.537 13.9335H380.54C380.128 14.4198 379.936 15.0672 379.936 15.8257V15.8303L379.951 16.2631V16.2717V16.2799C380.421 21.4502 380.726 27.9581 380.87 35.8002L380.876 36.1592L382.771 35.817L383.009 35.7727L383.022 35.5298C383.171 31.8213 383.251 28.8833 383.251 26.7121V24.6135H382.945" fill="white"/>
<defs>
<linearGradient id="paint0_linear_1055_12807" x1="67.1547" y1="26.8908" x2="15.9265" y2="78.119" gradientUnits="userSpaceOnUse">
<stop stop-color="#00A0FF"/>
<stop offset="0.00657445" stop-color="#00A1FF"/>
<stop offset="0.2601" stop-color="#00BEFF"/>
<stop offset="0.5122" stop-color="#00D2FF"/>
<stop offset="0.7604" stop-color="#00DFFF"/>
<stop offset="1" stop-color="#00E3FF"/>
</linearGradient>
<linearGradient id="paint1_linear_1055_12807" x1="103.89" y1="61.3593" x2="30.0289" y2="61.3593" gradientUnits="userSpaceOnUse">
<stop stop-color="#FFE000"/>
<stop offset="0.4087" stop-color="#FFBD00"/>
<stop offset="0.7754" stop-color="#FFA500"/>
<stop offset="1" stop-color="#FF9C00"/>
</linearGradient>
<linearGradient id="paint2_linear_1055_12807" x1="76.3948" y1="68.3633" x2="6.92566" y2="137.832" gradientUnits="userSpaceOnUse">
<stop stop-color="#FF3A44"/>
<stop offset="1" stop-color="#C31162"/>
</linearGradient>
<linearGradient id="paint3_linear_1055_12807" x1="22.887" y1="0.843322" x2="53.9078" y2="31.8641" gradientUnits="userSpaceOnUse">
<stop stop-color="#32A071"/>
<stop offset="0.0685" stop-color="#2DA771"/>
<stop offset="0.4762" stop-color="#15CF74"/>
<stop offset="0.8009" stop-color="#06E775"/>
<stop offset="1" stop-color="#00F076"/>
</linearGradient>
<linearGradient id="paint4_linear_1055_12807" x1="103.89" y1="61.3593" x2="30.031" y2="61.3593" gradientUnits="userSpaceOnUse">
<stop stop-color="#CCB300"/>
<stop offset="0.4087" stop-color="#CC9700"/>
<stop offset="0.7754" stop-color="#CC8400"/>
<stop offset="1" stop-color="#CC7D00"/>
</linearGradient>
<linearGradient id="paint5_linear_1055_12807" x1="76.3945" y1="68.3633" x2="6.92535" y2="137.832" gradientUnits="userSpaceOnUse">
<stop stop-color="#CC2E36"/>
<stop offset="1" stop-color="#9C0E4E"/>
</linearGradient>
<linearGradient id="paint6_linear_1055_12807" x1="67.1547" y1="26.8917" x2="15.9266" y2="78.1199" gradientUnits="userSpaceOnUse">
<stop stop-color="#008DE0"/>
<stop offset="0.00657445" stop-color="#008DE0"/>
<stop offset="0.2601" stop-color="#00A7E0"/>
<stop offset="0.5122" stop-color="#00B8E0"/>
<stop offset="0.7604" stop-color="#00C4E0"/>
<stop offset="1" stop-color="#00C7E0"/>
</linearGradient>
<linearGradient id="paint7_linear_1055_12807" x1="76.396" y1="68.3649" x2="6.92926" y2="137.836" gradientUnits="userSpaceOnUse">
<stop stop-color="#E0333C"/>
<stop offset="1" stop-color="#AB0F56"/>
</linearGradient>
<linearGradient id="paint8_linear_1055_12807" x1="103.891" y1="61.3585" x2="30.03" y2="61.3585" gradientUnits="userSpaceOnUse">
<stop stop-color="#E0C500"/>
<stop offset="0.4087" stop-color="#E0A600"/>
<stop offset="0.7754" stop-color="#E09100"/>
<stop offset="1" stop-color="#E08900"/>
</linearGradient>
<linearGradient id="paint9_linear_1055_12807" x1="103.89" y1="61.3585" x2="30.0294" y2="61.3585" gradientUnits="userSpaceOnUse">
<stop stop-color="#FFE840"/>
<stop offset="0.4087" stop-color="#FFCE40"/>
<stop offset="0.7754" stop-color="#FFBC40"/>
<stop offset="1" stop-color="#FFB540"/>
</linearGradient>
<linearGradient id="paint10_linear_1055_12807" x1="67.1546" y1="26.8915" x2="15.9264" y2="78.1195" gradientUnits="userSpaceOnUse">
<stop stop-color="#40B8FF"/>
<stop offset="0.00657445" stop-color="#40B9FF"/>
<stop offset="0.2601" stop-color="#40CEFF"/>
<stop offset="0.5122" stop-color="#40DDFF"/>
<stop offset="0.7604" stop-color="#40E7FF"/>
<stop offset="1" stop-color="#40EAFF"/>
</linearGradient>
<linearGradient id="paint11_linear_1055_12807" x1="22.8856" y1="0.843162" x2="53.9064" y2="31.8639" gradientUnits="userSpaceOnUse">
<stop stop-color="#65B895"/>
<stop offset="0.0685" stop-color="#62BD95"/>
<stop offset="0.4762" stop-color="#50DB97"/>
<stop offset="0.8009" stop-color="#44ED98"/>
<stop offset="1" stop-color="#40F498"/>
</linearGradient>
</defs>
</svg>
