<svg width="418" height="124" viewBox="0 0 418 124" fill="none" xmlns="http://www.w3.org/2000/svg">
<path d="M401.626 123.383H15.4472C6.95122 123.383 0 116.443 0 107.96V15.4226C0 6.94002 6.95122 -0.000282288 15.4472 -0.000282288H401.626C410.122 -0.000282288 417.073 6.94002 417.073 15.4226V107.96C417.073 116.443 410.122 123.383 401.626 123.383Z" fill="#A09A92" fill-opacity="0.3"/>
<path d="M401.626 -0.00028038H15.4472C6.95122 -0.00028038 0 6.94002 0 15.4226V107.96C0 116.443 6.95122 123.383 15.4472 123.383H401.626C410.122 123.383 417.073 116.443 417.073 107.96V15.4226C417.073 6.94002 410.122 -0.00028038 401.626 -0.00028038ZM401.626 2.46738C408.781 2.46738 414.602 8.27996 414.602 15.4226V107.96C414.602 115.104 408.781 120.916 401.626 120.916H15.4472C8.29327 120.916 2.47154 115.104 2.47154 107.96V15.4226C2.47154 8.27996 8.29327 2.46738 15.4472 2.46738H401.626Z" fill="#A6A6A6" fill-opacity="0.2"/>
<path d="M146.496 31.5964C146.496 34.1807 145.729 36.2387 144.194 37.7739C142.45 39.5994 140.178 40.5127 137.384 40.5127C134.709 40.5127 132.434 39.5873 130.563 37.7341C128.689 35.8821 127.754 33.5857 127.754 30.8456C127.754 28.1044 128.689 25.8091 130.563 23.9559C132.434 22.1039 134.709 21.1773 137.384 21.1773C138.711 21.1773 139.982 21.4364 141.189 21.9534C142.396 22.4716 143.364 23.1595 144.088 24.021L142.459 25.6487C141.232 24.1848 139.542 23.4534 137.384 23.4534C135.433 23.4534 133.746 24.1379 132.322 25.5078C130.897 26.8792 130.186 28.6574 130.186 30.8456C130.186 33.0338 130.897 34.8121 132.322 36.1835C133.746 37.5533 135.433 38.2378 137.384 38.2378C139.454 38.2378 141.18 37.5496 142.561 36.1715C143.458 35.2735 143.977 34.0255 144.116 32.4228H137.384V30.1997H146.366C146.453 30.6831 146.496 31.147 146.496 31.5964" fill="white"/>
<path d="M146.496 31.5965H146.187C146.185 34.1219 145.446 36.0834 143.976 37.556L143.973 37.5584L143.971 37.5609C142.283 39.3234 140.113 40.2007 137.384 40.2044C134.78 40.2007 132.601 39.3139 130.781 37.5162C128.965 35.7148 128.067 33.5158 128.063 30.8458C128.067 28.1745 128.965 25.9768 130.781 24.1766C132.601 22.3777 134.78 21.4896 137.384 21.4859C138.672 21.4859 139.898 21.7367 141.068 22.2367C142.238 22.7404 143.163 23.4005 143.852 24.2201L144.088 24.0211L143.87 23.8031L142.241 25.432L142.459 25.6489L142.697 25.4515C141.413 23.915 139.61 23.1405 137.384 23.1451C135.361 23.1427 133.581 23.8644 132.108 25.2864C130.622 26.713 129.875 28.5912 129.877 30.8458C129.875 33.1003 130.622 34.9785 132.108 36.4051C133.581 37.8271 135.361 38.5489 137.384 38.5464C139.523 38.5501 141.345 37.8259 142.78 36.3897C143.738 35.4304 144.281 34.1015 144.424 32.4494L144.453 32.1145H137.693V30.5083H146.367V30.1999L146.063 30.2541C146.147 30.7218 146.187 31.1662 146.187 31.5965H146.496H146.805C146.805 31.1277 146.761 30.6459 146.671 30.1446L146.625 29.8914H137.075V32.4229V32.7314H144.116V32.4229L143.808 32.3964C143.672 33.9485 143.177 35.1173 142.343 35.9535C141.016 37.274 139.387 37.9258 137.384 37.9295C135.505 37.927 133.911 37.2811 132.537 35.9618C131.175 34.6472 130.498 32.9689 130.495 30.8458C130.498 28.7226 131.175 27.0443 132.537 25.7297C133.911 24.4104 135.505 23.7645 137.384 23.762C139.473 23.767 141.051 24.4561 142.223 25.8478L142.44 26.1057L144.307 24.2392L144.507 24.0393L144.325 23.8234C143.566 22.9199 142.554 22.2028 141.311 21.6704C140.066 21.1364 138.752 20.869 137.384 20.869C134.638 20.8665 132.268 21.8305 130.345 23.738C128.415 25.6418 127.443 28.0348 127.445 30.8458C127.443 33.6555 128.415 36.0498 130.346 37.9548C132.268 39.8611 134.638 40.8238 137.384 40.8213C140.245 40.8238 142.617 39.8752 144.418 37.9872L144.194 37.774L144.413 37.9921C146.013 36.3955 146.807 34.2388 146.805 31.5965H146.496Z" fill="white"/>
<path d="M160.735 23.8658H152.294V29.7339H159.907V31.9579H152.294V37.826H160.735V40.0996H149.914V21.5921H160.735V23.8658Z" fill="white"/>
<path d="M160.736 23.865V23.5565H151.985V30.0415H159.598V31.6476L151.985 31.6486V38.1336H160.427V39.7903H150.223V21.8998H160.427V23.865H160.736V23.5565V23.865H161.045V21.5913V21.2829H149.605V40.4072H161.045V37.8251V37.5167H152.603V32.2655H160.216V29.733V29.4246H152.603V24.1734H161.045V23.865H160.736" fill="white"/>
<path d="M170.78 40.0996H168.396V23.8658H163.219V21.5921H175.957V23.8658H170.78V40.0996Z" fill="white"/>
<path d="M170.78 40.0988V39.7903H168.705V23.5565H163.528V21.8998H175.648V23.5565H170.471V40.0988H170.78V39.7903V40.0988H171.089V24.1734H176.266V21.5913V21.2829H162.91V23.865V24.1734H168.087V40.4072H170.78H171.089V40.0988H170.78" fill="white"/>
<path d="M185.174 40.0996V21.5921H187.555V40.0996H185.174Z" fill="white"/>
<path d="M185.174 40.0988H185.483V21.8998H187.246V39.7903H185.174V40.0988H185.483H185.174V40.4072H187.555H187.864V21.2829H185.174H184.865V40.4072H185.174V40.0988Z" fill="white"/>
<path d="M198.121 40.0996H195.738V23.8658H190.561V21.5921H203.298V23.8658H198.121V40.0996Z" fill="white"/>
<path d="M198.121 40.0988V39.7903H196.047V23.5565H190.87V21.8998H202.99V23.5565H197.812V40.0988H198.121V39.7903V40.0988H198.43V24.1734H203.608V21.5913V21.2829H190.252V23.865V24.1734H195.429V40.4072H198.121H198.43V40.0988H198.121" fill="white"/>
<path d="M215.579 36.1582C216.951 37.545 218.63 38.2378 220.615 38.2378C222.6 38.2378 224.28 37.545 225.65 36.1582C227.023 34.7714 227.711 32.9987 227.711 30.8456C227.711 28.6926 227.023 26.9199 225.65 25.5331C224.28 24.1462 222.6 23.4534 220.615 23.4534C218.63 23.4534 216.951 24.1462 215.579 25.5331C214.209 26.9199 213.522 28.6926 213.522 30.8456C213.522 32.9987 214.209 34.7714 215.579 36.1582ZM227.412 37.7076C225.589 39.5787 223.323 40.5127 220.615 40.5127C217.904 40.5127 215.639 39.5787 213.821 37.7076C211.997 35.8386 211.09 33.5508 211.09 30.8456C211.09 28.1405 211.997 25.8523 213.821 23.9837C215.639 22.1123 217.904 21.1773 220.615 21.1773C223.309 21.1773 225.569 22.1172 227.4 23.9957C229.228 25.8742 230.143 28.1574 230.143 30.8456C230.143 33.5508 229.23 35.8386 227.412 37.7076Z" fill="white"/>
<path d="M215.577 36.1583L215.358 36.3752C216.781 37.8175 218.556 38.5501 220.614 38.5464C222.67 38.5501 224.448 37.8175 225.868 36.3752C227.3 34.9316 228.021 33.0639 228.019 30.8458C228.021 28.6276 227.3 26.7599 225.868 25.3164C224.448 23.874 222.67 23.1414 220.614 23.1451C218.556 23.1414 216.781 23.874 215.358 25.3164C213.929 26.7599 213.207 28.6276 213.211 30.8458C213.207 33.0639 213.929 34.9316 215.358 36.3752L215.577 36.1583L215.797 35.9415C214.487 34.6099 213.831 32.9349 213.829 30.8458C213.831 28.7566 214.487 27.0817 215.797 25.75C217.12 24.4187 218.699 23.7657 220.614 23.762C222.526 23.7657 224.11 24.4187 225.429 25.75C226.742 27.0817 227.397 28.7566 227.4 30.8458C227.397 32.9349 226.742 34.6099 225.429 35.9415C224.11 37.2728 222.526 37.9258 220.614 37.9295C218.699 37.9258 217.12 37.2728 215.797 35.9415L215.577 36.1583ZM227.41 37.7077L227.189 37.4933C225.418 39.3055 223.252 40.2007 220.614 40.2044C217.974 40.2007 215.808 39.3055 214.04 37.4933L214.032 37.4838L214.04 37.4933C212.272 35.675 211.4 33.4822 211.397 30.8458C211.4 28.2094 212.272 26.0165 214.04 24.1982C215.808 22.386 217.974 21.4896 220.614 21.4859C223.235 21.4896 225.396 22.3897 227.177 24.2115C228.951 26.0381 229.829 28.2276 229.832 30.8458C229.829 33.4822 228.954 35.675 227.189 37.4933L227.41 37.7077L227.632 37.9221C229.505 36.0016 230.452 33.6194 230.45 30.8458C230.452 28.0878 229.502 25.7106 227.62 23.7815C225.738 21.845 223.38 20.8656 220.614 20.869C217.833 20.8656 215.468 21.8403 213.597 23.7694V23.7682C211.721 25.6899 210.777 28.0721 210.779 30.8458C210.777 33.6194 211.721 36.0016 213.597 37.9233L213.605 37.932L213.597 37.9221C215.468 39.8512 217.833 40.8238 220.614 40.8213C223.393 40.8238 225.758 39.8512 227.632 37.9221L227.41 37.7077" fill="white"/>
<path d="M233.484 40.0996V21.5921H236.383L245.392 35.9897H245.495L245.392 32.423V21.5921H247.775V40.0996H245.289L235.864 25.0043H235.762L235.864 28.5722V40.0996H233.484Z" fill="white"/>
<path d="M233.485 40.0988H233.794V21.8998H236.212L245.221 36.2973H245.495H245.812L245.701 32.4176V21.8998H247.467V39.7903H245.461L236.036 24.695H235.762H235.445L235.556 28.5763V39.7903H233.485V40.0988H233.794H233.485V40.4072H235.864H236.173V28.5665L236.071 24.9951L235.762 25.0035V25.3119H235.864V25.0035L235.603 25.1676L245.118 40.4072H247.776H248.085V21.2829H245.392H245.083V32.4259L245.186 35.9972L245.495 35.9889V35.6804H245.392V35.9889L245.654 35.8251L236.555 21.2829H233.485H233.176V40.4072H233.485V40.0988Z" fill="white"/>
<path d="M330.371 92.537H336.135V53.9761H330.371V92.537ZM382.295 67.8665L375.686 84.5846H375.489L368.63 67.8665H362.42L372.705 91.2331L366.841 104.231H372.856L388.705 67.8665H382.295ZM349.602 88.1572C347.712 88.1572 345.079 87.2149 345.079 84.8823C345.079 81.906 348.36 80.765 351.19 80.765C353.727 80.765 354.916 81.3107 356.458 82.0556C356.01 85.6269 352.93 88.1572 349.602 88.1572V88.1572ZM350.297 67.0229C346.124 67.0229 341.801 68.8592 340.013 72.9271L345.129 75.0598C346.222 72.9271 348.258 72.2318 350.396 72.2318C353.378 72.2318 356.408 74.0187 356.458 77.1937V77.5901C355.414 76.9947 353.18 76.1021 350.446 76.1021C344.931 76.1021 339.314 79.1274 339.314 84.7833C339.314 89.9429 343.837 93.2671 348.904 93.2671C352.781 93.2671 354.916 91.5308 356.26 89.4971H356.458V92.4731H362.022V77.6888C362.022 70.8438 356.906 67.0229 350.297 67.0229V67.0229ZM314.67 72.5607H306.471V59.3429H314.67C318.98 59.3429 321.427 62.9056 321.427 65.9516C321.427 68.94 318.98 72.5607 314.67 72.5607ZM314.522 53.9761H300.709V92.537H306.471V77.9275H314.522C320.911 77.9275 327.192 73.309 327.192 65.9516C327.192 58.5946 320.911 53.9761 314.522 53.9761ZM239.198 88.1643C235.216 88.1643 231.881 84.8351 231.881 80.2625C231.881 75.6418 235.216 72.2621 239.198 72.2621C243.13 72.2621 246.216 75.6418 246.216 80.2625C246.216 84.8351 243.13 88.1643 239.198 88.1643V88.1643ZM245.818 70.0258H245.618C244.325 68.4856 241.835 67.0942 238.7 67.0942C232.13 67.0942 226.108 72.8583 226.108 80.2625C226.108 87.6174 232.13 93.3322 238.7 93.3322C241.835 93.3322 244.325 91.9404 245.618 90.3513H245.818V92.2393C245.818 97.2592 243.13 99.9425 238.8 99.9425C235.266 99.9425 233.076 97.4072 232.179 95.2709L227.153 97.3579C228.597 100.836 232.429 105.11 238.8 105.11C245.569 105.11 251.293 101.134 251.293 91.4441V67.8894H245.818V70.0258ZM255.274 92.537H261.048V53.9749H255.274V92.537ZM269.559 79.8156C269.41 74.7464 273.491 72.1631 276.427 72.1631C278.718 72.1631 280.659 73.3053 281.304 74.9466L269.559 79.8156ZM287.477 75.4429C286.383 72.5101 283.047 67.0942 276.228 67.0942C269.459 67.0942 263.835 72.4114 263.835 80.2132C263.835 87.5681 269.41 93.3322 276.875 93.3322C282.898 93.3322 286.383 89.6548 287.826 87.5184L283.346 84.5362C281.854 86.7232 279.812 88.1643 276.875 88.1643C273.939 88.1643 271.849 86.8222 270.504 84.1892L288.073 76.9334L287.477 75.4429ZM147.5 71.1195V76.685H160.839C160.441 79.8156 159.396 82.1013 157.803 83.6917C155.862 85.6303 152.826 87.7667 147.5 87.7667C139.288 87.7667 132.868 81.1577 132.868 72.9583C132.868 64.7588 139.288 58.1489 147.5 58.1489C151.93 58.1489 155.165 59.8886 157.554 62.1249L161.486 58.1995C158.151 55.0184 153.721 52.5834 147.5 52.5834C136.251 52.5834 126.795 61.7273 126.795 72.9583C126.795 84.1892 136.251 93.3322 147.5 93.3322C153.573 93.3322 158.151 91.3454 161.735 87.6174C165.418 83.94 166.563 78.7721 166.563 74.5983C166.563 73.3053 166.464 72.1137 166.264 71.1195H147.5ZM181.728 88.1643C177.745 88.1643 174.311 84.8845 174.311 80.2132C174.311 75.4922 177.745 72.2621 181.728 72.2621C185.709 72.2621 189.143 75.4922 189.143 80.2132C189.143 84.8845 185.709 88.1643 181.728 88.1643V88.1643ZM181.728 67.0942C174.46 67.0942 168.537 72.61 168.537 80.2132C168.537 87.7667 174.46 93.3322 181.728 93.3322C188.994 93.3322 194.917 87.7667 194.917 80.2132C194.917 72.61 188.994 67.0942 181.728 67.0942ZM210.5 88.1643C206.519 88.1643 203.084 84.8845 203.084 80.2132C203.084 75.4922 206.519 72.2621 210.5 72.2621C214.482 72.2621 217.916 75.4922 217.916 80.2132C217.916 84.8845 214.482 88.1643 210.5 88.1643ZM210.5 67.0942C203.233 67.0942 197.311 72.61 197.311 80.2132C197.311 87.7667 203.233 93.3322 210.5 93.3322C217.767 93.3322 223.69 87.7667 223.69 80.2132C223.69 72.61 217.767 67.0942 210.5 67.0942Z" fill="white"/>
<path d="M32.4699 99.9072L32.2403 99.6879C31.3413 98.7382 30.8105 97.2634 30.8105 95.3538V95.8032V27.5847C30.8105 27.5785 30.8105 27.5739 30.8105 27.569C30.8105 27.5748 30.8105 27.5798 30.8105 27.5859V28.0366C30.8105 25.9687 31.4294 24.411 32.4662 23.477L70.7436 61.6933L32.4699 99.9072ZM30.8105 27.5653C30.8105 27.3953 30.8152 27.2303 30.8238 27.0677C30.8152 27.229 30.8105 27.3953 30.8105 27.5653ZM30.8238 27.0603C30.8238 27.0582 30.8238 27.0557 30.8248 27.0532C30.8238 27.0557 30.8238 27.0582 30.8238 27.0603ZM30.8248 27.0387C30.8248 27.0375 30.8248 27.0363 30.8248 27.035C30.8248 27.0363 30.8248 27.0375 30.8248 27.0387Z" fill="url(#paint0_linear_1055_12719)"/>
<path d="M83.4994 74.8887L83.7904 74.7236L98.9067 66.1482C100.348 65.3302 101.308 64.3385 101.788 63.2891C101.31 64.3385 100.349 65.3314 98.9067 66.1495L83.7904 74.7249L83.4994 74.8887V74.8887ZM83.5031 74.4368L70.7422 61.6938L83.5018 48.9529L98.9067 57.6909C100.863 58.8008 101.961 60.2311 102.145 61.6925C102.145 61.6938 102.145 61.6963 102.145 61.6984C101.961 63.1565 100.863 64.588 98.9067 65.6976L83.5031 74.4368" fill="url(#paint1_linear_1055_12719)"/>
<path d="M35.1984 101.363C34.1292 101.363 33.1962 101.016 32.4686 100.361L32.4698 100.36C33.1974 101.015 34.1317 101.363 35.2009 101.363C35.2936 101.363 35.3878 101.361 35.4833 101.356C35.3866 101.361 35.2911 101.363 35.1984 101.363V101.363ZM35.1997 100.911C34.1304 100.913 33.1974 100.564 32.4698 99.9089V99.908L70.7436 61.6941L83.5045 74.4371L38.6608 99.8765C37.42 100.579 36.2445 100.911 35.1997 100.911V100.911ZM32.459 100.352C32.3914 100.291 32.325 100.226 32.2598 100.158L32.459 100.352Z" fill="url(#paint2_linear_1055_12719)"/>
<path d="M70.7423 61.6934L32.4648 23.477C33.1924 22.8228 34.1242 22.4757 35.1922 22.4757C36.2398 22.4757 37.4163 22.8095 38.6595 23.5131L83.5019 48.9525L70.7423 61.6934V61.6934ZM83.7905 48.6647L38.6595 23.0627C37.4163 22.3588 36.2398 22.0251 35.1922 22.0251C35.1873 22.0251 35.1839 22.0251 35.1789 22.0251C35.1851 22.0251 35.1897 22.0251 35.1971 22.0251C36.2423 22.0251 37.4175 22.3576 38.6595 23.0615L83.7905 48.6647V48.6647Z" fill="url(#paint3_linear_1055_12719)"/>
<path d="M35.4832 101.355C36.4545 101.3 37.53 100.966 38.6607 100.326L83.5007 74.8883L38.6607 100.326C37.5309 100.967 36.4545 101.3 35.4832 101.355V101.355ZM32.4685 100.36L32.459 100.352C32.4624 100.354 32.4661 100.358 32.4685 100.36ZM32.2597 100.158L32.2402 100.139V100.137C32.2476 100.144 32.2535 100.152 32.2597 100.158Z" fill="#A09A92" fill-opacity="0.3"/>
<path d="M83.5 74.8887L83.791 74.7237L83.5 74.8887Z" fill="url(#paint4_linear_1055_12719)"/>
<path d="M35.2008 101.363C34.1316 101.363 33.1973 101.015 32.4698 100.36L32.4685 100.361C32.4661 100.358 32.4624 100.355 32.459 100.352L32.2597 100.158C32.2535 100.152 32.2476 100.145 32.2402 100.138L32.4698 99.9089C33.1973 100.564 34.1304 100.913 35.1996 100.911C36.2444 100.911 37.42 100.579 38.6607 99.8765L83.5044 74.4371L83.7917 74.7239L83.5007 74.889L38.6607 100.327C37.53 100.967 36.4545 101.301 35.4832 101.356C35.3877 101.361 35.2935 101.363 35.2008 101.363" fill="url(#paint5_linear_1055_12719)"/>
<path d="M32.2403 100.139C31.3413 99.1889 30.8105 97.7142 30.8105 95.8045V95.8033C30.8105 97.7142 31.3413 99.1877 32.2403 100.137V100.139" fill="#A09A92" fill-opacity="0.3"/>
<path d="M32.2403 100.138C31.3413 99.188 30.8105 97.7145 30.8105 95.8036V95.3541C30.8105 97.2638 31.3413 98.7385 32.2403 99.6883L32.4699 99.9076L32.2403 100.138" fill="url(#paint6_linear_1055_12719)"/>
<path d="M32.2402 100.138L32.4698 99.9076V99.9085L32.2402 100.138" fill="url(#paint7_linear_1055_12719)"/>
<path d="M101.789 63.2891C102.027 62.7684 102.146 62.2335 102.146 61.6984C102.146 61.6974 102.146 61.6962 102.146 61.6962C102.146 62.2323 102.027 62.7672 101.789 63.2891Z" fill="#A09A92" fill-opacity="0.3"/>
<path d="M83.7912 74.7236L83.5039 74.4368L98.9075 65.6975C100.864 64.588 101.962 63.1565 102.146 61.6984C102.146 62.2335 102.026 62.7684 101.788 63.2891C101.309 64.3385 100.349 65.3302 98.9075 66.1482L83.7912 74.7236Z" fill="url(#paint8_linear_1055_12719)"/>
<path d="M102.145 61.6934V61.6921C102.143 60.0786 101.063 58.4654 98.9066 57.2411L83.7903 48.6657H83.7891L83.7903 48.6647L98.9066 57.2399C101.066 58.4641 102.147 60.0798 102.145 61.6934Z" fill="#A6A6A6" fill-opacity="0.2"/>
<path d="M102.145 61.6924C101.961 60.2309 100.863 58.8006 98.9068 57.6908L83.502 48.9528L83.7893 48.6659H83.7905L98.9068 57.2413C101.064 58.4656 102.144 60.0788 102.145 61.6924Z" fill="url(#paint9_linear_1055_12719)"/>
<path d="M30.8105 27.5693C30.8105 27.5681 30.8105 27.5669 30.8105 27.5656C30.8105 27.5669 30.8105 27.5681 30.8105 27.5693ZM30.8238 27.0681C30.8238 27.0656 30.8238 27.0632 30.8238 27.0607C30.8238 27.0632 30.8238 27.0656 30.8238 27.0681ZM30.8248 27.0536C30.8248 27.0487 30.8248 27.044 30.8248 27.0391C30.8248 27.044 30.8248 27.0487 30.8248 27.0536ZM30.8248 27.0354C31.0036 23.8666 32.7294 22.0362 35.1707 22.0254C34.1122 22.0316 33.1903 22.3786 32.4686 23.0279V23.0267L32.46 23.0353C32.384 23.1038 32.3117 23.1763 32.2403 23.2509C31.4294 24.1075 30.9177 25.3907 30.8248 27.0354Z" fill="#A6A6A6" fill-opacity="0.2"/>
<path d="M30.8105 28.0371V27.5865C30.8105 27.5803 30.8105 27.5754 30.8105 27.5695C30.8105 27.5683 30.8105 27.567 30.8105 27.5658C30.8105 27.3958 30.8152 27.2296 30.8238 27.0682C30.8238 27.0658 30.8238 27.0633 30.8238 27.0608C30.8238 27.0587 30.8238 27.0562 30.8248 27.0537C30.8248 27.0488 30.8248 27.0442 30.8248 27.0393C30.8248 27.038 30.8248 27.0368 30.8248 27.0356C30.9177 25.3909 31.4294 24.1077 32.2403 23.2511L32.4662 23.4775C31.4294 24.4115 30.8105 25.9692 30.8105 28.0371V28.0371ZM32.46 23.0355L32.4686 23.0268C32.4662 23.0305 32.4625 23.033 32.46 23.0355Z" fill="url(#paint10_linear_1055_12719)"/>
<path d="M83.5032 48.9531L38.6607 23.5137C37.4175 22.8101 36.241 22.4763 35.1934 22.4763C34.1254 22.4763 33.1936 22.8234 32.4661 23.4776L32.2402 23.2512C32.3116 23.1765 32.3839 23.1041 32.4599 23.0356C32.4624 23.0331 32.4661 23.0306 32.4685 23.0282C33.1902 22.3789 34.1121 22.0319 35.1706 22.0257C35.173 22.0257 35.1764 22.0257 35.1801 22.0257C35.1851 22.0257 35.1885 22.0257 35.1934 22.0257C36.241 22.0257 37.4175 22.3594 38.6607 23.0633L83.7917 48.6653L83.7905 48.6663L83.5032 48.9531Z" fill="url(#paint11_linear_1055_12719)"/>
<defs>
<linearGradient id="paint0_linear_1055_12719" x1="67.3496" y1="26.8651" x2="15.5827" y2="78.7134" gradientUnits="userSpaceOnUse">
<stop stop-color="#00A0FF"/>
<stop offset="0.00657445" stop-color="#00A1FF"/>
<stop offset="0.2601" stop-color="#00BEFF"/>
<stop offset="0.5122" stop-color="#00D2FF"/>
<stop offset="0.7604" stop-color="#00DFFF"/>
<stop offset="1" stop-color="#00E3FF"/>
</linearGradient>
<linearGradient id="paint1_linear_1055_12719" x1="104.528" y1="61.6956" x2="29.7732" y2="61.6956" gradientUnits="userSpaceOnUse">
<stop stop-color="#FFE000"/>
<stop offset="0.4087" stop-color="#FFBD00"/>
<stop offset="0.7754" stop-color="#FFA500"/>
<stop offset="1" stop-color="#FF9C00"/>
</linearGradient>
<linearGradient id="paint2_linear_1055_12719" x1="76.7018" y1="68.7741" x2="6.50216" y2="139.084" gradientUnits="userSpaceOnUse">
<stop stop-color="#FF3A44"/>
<stop offset="1" stop-color="#C31162"/>
</linearGradient>
<linearGradient id="paint3_linear_1055_12719" x1="22.5438" y1="0.542868" x2="53.8907" y2="31.9392" gradientUnits="userSpaceOnUse">
<stop stop-color="#32A071"/>
<stop offset="0.0685" stop-color="#2DA771"/>
<stop offset="0.4762" stop-color="#15CF74"/>
<stop offset="0.8009" stop-color="#06E775"/>
<stop offset="1" stop-color="#00F076"/>
</linearGradient>
<linearGradient id="paint4_linear_1055_12719" x1="104.529" y1="61.6963" x2="29.7727" y2="61.6963" gradientUnits="userSpaceOnUse">
<stop stop-color="#CCB300"/>
<stop offset="0.4087" stop-color="#CC9700"/>
<stop offset="0.7754" stop-color="#CC8400"/>
<stop offset="1" stop-color="#CC7D00"/>
</linearGradient>
<linearGradient id="paint5_linear_1055_12719" x1="76.7018" y1="68.7741" x2="6.50212" y2="139.084" gradientUnits="userSpaceOnUse">
<stop stop-color="#CC2E36"/>
<stop offset="1" stop-color="#9C0E4E"/>
</linearGradient>
<linearGradient id="paint6_linear_1055_12719" x1="67.3496" y1="26.8654" x2="15.5828" y2="78.7138" gradientUnits="userSpaceOnUse">
<stop stop-color="#008DE0"/>
<stop offset="0.00657445" stop-color="#008DE0"/>
<stop offset="0.2601" stop-color="#00A7E0"/>
<stop offset="0.5122" stop-color="#00B8E0"/>
<stop offset="0.7604" stop-color="#00C4E0"/>
<stop offset="1" stop-color="#00C7E0"/>
</linearGradient>
<linearGradient id="paint7_linear_1055_12719" x1="76.7034" y1="68.7747" x2="6.5059" y2="139.087" gradientUnits="userSpaceOnUse">
<stop stop-color="#E0333C"/>
<stop offset="1" stop-color="#AB0F56"/>
</linearGradient>
<linearGradient id="paint8_linear_1055_12719" x1="104.529" y1="61.6956" x2="29.7741" y2="61.6956" gradientUnits="userSpaceOnUse">
<stop stop-color="#E0C500"/>
<stop offset="0.4087" stop-color="#E0A600"/>
<stop offset="0.7754" stop-color="#E09100"/>
<stop offset="1" stop-color="#E08900"/>
</linearGradient>
<linearGradient id="paint9_linear_1055_12719" x1="104.528" y1="61.6955" x2="29.7734" y2="61.6955" gradientUnits="userSpaceOnUse">
<stop stop-color="#FFE840"/>
<stop offset="0.4087" stop-color="#FFCE40"/>
<stop offset="0.7754" stop-color="#FFBC40"/>
<stop offset="1" stop-color="#FFB540"/>
</linearGradient>
<linearGradient id="paint10_linear_1055_12719" x1="67.3495" y1="26.8656" x2="15.5827" y2="78.7139" gradientUnits="userSpaceOnUse">
<stop stop-color="#40B8FF"/>
<stop offset="0.00657445" stop-color="#40B9FF"/>
<stop offset="0.2601" stop-color="#40CEFF"/>
<stop offset="0.5122" stop-color="#40DDFF"/>
<stop offset="0.7604" stop-color="#40E7FF"/>
<stop offset="1" stop-color="#40EAFF"/>
</linearGradient>
<linearGradient id="paint11_linear_1055_12719" x1="22.545" y1="0.543462" x2="53.892" y2="31.9398" gradientUnits="userSpaceOnUse">
<stop stop-color="#65B895"/>
<stop offset="0.0685" stop-color="#62BD95"/>
<stop offset="0.4762" stop-color="#50DB97"/>
<stop offset="0.8009" stop-color="#44ED98"/>
<stop offset="1" stop-color="#40F498"/>
</linearGradient>
</defs>
</svg>
